<?xml version="1.0" standalone="no"?>
<!DOCTYPE svg PUBLIC "-//W3C//DTD SVG 20010904//EN"
 "http://www.w3.org/TR/2001/REC-SVG-20010904/DTD/svg10.dtd">
<svg version="1.0" xmlns="http://www.w3.org/2000/svg"
 width="868.000000pt" height="868.000000pt" viewBox="0 0 868.000000 868.000000"
 preserveAspectRatio="xMidYMid meet">
<metadata>
Created by potrace 1.14, written by Peter Selinger 2001-2017
</metadata>
<g transform="translate(0.000000,868.000000) scale(0.100000,-0.100000)"
fill="#000000" stroke="none">
<path d="M2451 7599 c-17 -16 -49 -69 -72 -117 -22 -48 -60 -114 -84 -147 -50
-70 -249 -267 -350 -347 -165 -131 -615 -414 -695 -437 -25 -7 -104 -37 -177
-67 -161 -66 -233 -84 -343 -84 -97 0 -143 -11 -191 -43 -58 -39 -74 -79 -75
-190 -1 -90 -3 -100 -26 -125 -133 -145 -281 -408 -352 -623 -56 -173 -77
-300 -83 -506 -7 -245 1 -318 84 -698 75 -348 102 -414 258 -630 176 -246 317
-396 545 -583 211 -172 558 -398 859 -558 123 -65 200 -114 254 -160 l78 -66
-43 -36 c-71 -60 -117 -114 -145 -170 -35 -73 -30 -148 21 -256 44 -96 94
-146 173 -176 55 -20 68 -21 258 -15 171 6 209 5 265 -10 105 -27 178 -62 296
-141 62 -41 148 -90 191 -109 44 -19 106 -50 138 -70 75 -44 144 -71 270 -102
55 -13 141 -35 190 -48 50 -14 119 -29 155 -35 106 -16 335 -12 507 10 367 47
543 84 858 181 94 29 206 58 250 66 134 22 445 35 685 28 124 -4 342 -2 485 4
500 21 729 76 1020 247 224 131 300 204 380 369 57 117 75 192 125 534 l42
285 48 65 c65 89 89 112 205 194 166 117 225 168 225 194 0 31 -43 57 -150 89
-47 15 -135 48 -196 74 -159 69 -345 135 -524 186 -155 45 -179 58 -181 98 -4
68 5 87 80 169 77 85 196 382 241 600 54 263 41 549 -36 784 -21 65 -24 92
-24 225 0 167 4 185 102 418 24 56 42 117 45 151 5 52 3 58 -25 90 l-30 34
-109 2 c-101 2 -118 6 -268 56 -138 47 -175 64 -270 126 -222 146 -431 232
-655 271 -63 11 -147 28 -186 39 -222 60 -458 50 -783 -35 -73 -19 -135 -33
-136 -32 -1 2 -11 43 -23 92 -88 354 -301 564 -625 616 -41 6 -183 9 -355 8
l-287 -3 -80 27 c-44 15 -96 30 -116 33 -45 8 -115 -10 -154 -39 -16 -13 -50
-33 -75 -46 -55 -28 -102 -63 -205 -156 -44 -39 -121 -96 -170 -126 -50 -30
-122 -76 -162 -102 -101 -65 -166 -96 -203 -96 -46 0 -82 44 -147 180 -31 63
-95 176 -143 250 -48 74 -113 182 -146 239 -103 181 -164 220 -233 150z m107
-186 c13 -8 35 -32 50 -54 15 -22 42 -61 61 -87 19 -25 47 -81 62 -124 16 -42
44 -100 64 -127 93 -130 124 -226 91 -289 -30 -57 -173 -174 -393 -320 -135
-91 -214 -162 -282 -254 -33 -46 -73 -99 -89 -118 -16 -19 -41 -56 -56 -82
-15 -25 -38 -53 -51 -62 -23 -15 -24 -14 -74 53 -172 232 -373 327 -586 278
-40 -10 -55 -20 -82 -55 -77 -101 -66 -183 39 -299 89 -99 175 -309 214 -523
9 -47 18 -155 21 -240 5 -153 -1 -235 -52 -725 -39 -375 -45 -668 -20 -911 13
-119 22 -162 50 -233 38 -98 68 -232 63 -282 l-3 -34 -36 37 c-20 19 -52 64
-72 100 -19 35 -71 108 -115 163 -151 190 -488 858 -538 1065 -7 30 -21 107
-31 170 -24 152 -24 607 0 895 10 128 14 251 10 340 l-5 140 -95 204 c-52 112
-91 207 -86 210 4 4 87 24 183 45 96 21 222 53 280 72 94 30 131 47 275 122
22 12 94 46 160 77 151 71 291 164 520 347 234 187 357 323 433 476 28 56 38
58 90 25z m1612 -224 c69 -7 274 -13 455 -14 313 -2 333 -3 386 -24 214 -83
395 -296 415 -490 5 -47 -10 -171 -21 -171 -1 0 -36 16 -76 34 -137 64 -347
91 -644 83 -210 -6 -366 -25 -512 -62 -152 -39 -212 -72 -312 -172 -124 -125
-223 -186 -452 -277 -96 -38 -127 -46 -181 -46 -53 0 -68 4 -83 20 -18 20 -18
21 4 36 67 48 181 146 259 224 159 160 272 345 326 533 25 86 29 92 137 217
104 121 113 128 142 124 18 -2 88 -9 157 -15z m-620 -412 c-44 -147 -135 -281
-261 -386 -35 -30 -125 -97 -199 -149 -175 -124 -261 -194 -337 -276 -79 -84
-106 -131 -152 -264 -41 -116 -88 -215 -186 -387 -91 -161 -122 -225 -154
-320 -41 -121 -54 -133 -102 -92 -23 20 -28 38 -48 172 -33 214 -57 374 -75
494 l-16 103 93 158 92 158 193 187 193 188 487 253 c268 139 489 249 490 243
2 -5 -6 -42 -18 -82z m3056 -282 c100 -25 228 -61 285 -81 142 -49 327 -139
427 -207 134 -92 204 -121 400 -168 157 -37 176 -69 128 -219 -48 -151 -61
-228 -60 -365 0 -92 6 -144 17 -180 49 -148 60 -623 18 -826 -78 -384 -341
-786 -682 -1041 -189 -142 -317 -205 -724 -358 -165 -62 -311 -118 -325 -126
-14 -7 -63 -52 -110 -99 -47 -48 -121 -110 -165 -139 -44 -29 -109 -84 -145
-123 -82 -89 -242 -223 -267 -223 -24 0 -63 27 -63 44 0 21 296 316 400 398
52 42 143 107 202 145 114 73 290 227 472 413 419 427 695 797 862 1158 30 65
65 137 78 162 54 103 78 191 84 303 3 71 1 107 -6 107 -19 0 -73 -52 -91 -89
-10 -20 -27 -72 -36 -116 -33 -146 -162 -406 -313 -625 -151 -220 -624 -800
-652 -800 -34 0 -36 60 -6 158 38 130 45 169 46 260 0 95 -12 105 -55 48 -36
-48 -62 -121 -70 -197 -8 -74 -57 -208 -94 -258 -22 -29 -27 -47 -30 -117 l-3
-83 -267 -219 c-499 -411 -570 -480 -652 -627 -21 -38 -61 -92 -89 -120 -45
-44 -56 -50 -93 -50 -29 0 -48 6 -63 21 -15 15 -39 23 -85 27 -86 9 -182 58
-225 114 -63 82 -86 179 -114 479 -18 183 3 258 93 341 77 71 161 106 439 184
356 99 437 145 593 338 174 217 358 351 619 452 95 37 109 34 100 -21 -12 -73
37 -96 71 -33 35 64 133 160 279 270 277 210 390 330 476 507 75 153 120 352
120 527 0 76 0 77 -37 109 -138 122 -312 170 -503 141 -122 -19 -289 -61 -382
-97 -92 -36 -166 -44 -213 -22 -14 6 -25 18 -25 27 0 30 -47 116 -81 149 -44
43 -124 67 -195 58 -47 -5 -55 -4 -64 14 -20 37 -66 52 -134 44 -33 -4 -77 -6
-96 -6 -42 2 -107 29 -114 49 -3 7 8 38 25 68 27 48 31 67 40 187 16 204 39
253 139 296 137 58 279 80 535 81 l200 1 181 -45z m-1489 4 c130 -30 171 -49
217 -100 81 -90 112 -184 95 -289 -10 -61 -74 -200 -92 -200 -7 0 -83 14 -170
31 -86 18 -160 30 -162 27 -8 -8 24 -90 43 -111 44 -49 57 -50 427 -58 192 -4
353 -5 357 -3 4 3 8 -2 8 -10 0 -8 22 -41 48 -73 59 -71 72 -94 72 -128 0 -46
-18 -63 -143 -137 -67 -39 -149 -89 -182 -111 -83 -56 -249 -220 -291 -289
-49 -80 -85 -108 -138 -108 l-43 0 -6 78 c-3 42 -12 100 -21 128 -39 124 -161
248 -275 280 -202 56 -239 73 -276 131 -12 19 -35 37 -55 44 -109 37 -183 99
-196 164 -15 81 27 199 84 239 80 54 149 59 312 21 110 -26 170 -31 170 -16 0
19 -121 130 -163 150 -87 42 -201 19 -398 -79 -55 -28 -105 -47 -112 -43 -7 4
-41 30 -77 58 -36 29 -94 69 -130 89 -81 47 -120 83 -120 113 0 31 23 41 145
59 58 8 188 36 288 60 216 53 356 83 452 94 85 11 267 5 332 -11z m-3569 -394
c116 -27 195 -81 260 -177 35 -51 56 -96 108 -233 34 -90 34 -91 34 -260 0
-150 12 -297 36 -444 l7 -44 -51 6 c-29 3 -74 19 -108 38 -32 18 -78 38 -103
44 l-45 12 -51 309 c-69 412 -69 413 -195 544 -45 47 -86 95 -91 108 -19 49
42 111 111 111 14 1 53 -6 88 -14z m2481 -50 c86 -48 149 -134 185 -254 24
-81 21 -115 -13 -153 l-29 -33 -194 -6 c-162 -5 -202 -10 -252 -28 -81 -29
-144 -71 -207 -139 -69 -73 -83 -81 -146 -82 -72 0 -186 -19 -257 -41 -76 -24
-97 -24 -130 2 -25 20 -26 24 -26 127 1 111 19 243 40 282 17 31 7 34 -38 11
-96 -49 -141 -116 -142 -209 0 -44 37 -216 81 -377 14 -50 53 -128 90 -180 21
-29 33 -64 43 -123 20 -112 47 -150 119 -167 l27 -7 0 80 c0 96 -24 180 -74
262 -30 48 -34 62 -27 87 34 117 81 139 261 120 l115 -13 155 -101 c149 -98
227 -133 294 -133 11 0 46 -7 78 -16 46 -13 74 -30 130 -81 108 -96 188 -130
458 -193 80 -19 121 -37 255 -112 88 -49 174 -104 190 -122 17 -18 64 -61 107
-95 73 -60 118 -113 132 -158 6 -18 -8 -31 -103 -97 -173 -119 -307 -230 -431
-355 -102 -103 -147 -157 -254 -304 -33 -46 -81 -77 -117 -77 -21 0 -33 12
-64 63 -45 73 -235 267 -261 267 -11 0 -29 18 -44 42 -25 41 -73 91 -499 513
-227 225 -262 267 -291 348 -15 42 -19 46 -19 25 -1 -19 -6 -28 -17 -28 -36 0
-146 35 -271 86 -179 73 -239 88 -337 81 -43 -3 -83 -10 -88 -15 -19 -19 91
-70 212 -98 63 -15 138 -37 165 -50 48 -22 52 -28 105 -134 30 -60 57 -110 60
-110 3 0 14 7 24 15 29 22 95 18 136 -6 132 -81 741 -660 913 -869 132 -162
235 -316 277 -417 57 -136 82 -303 64 -415 l-7 -38 -29 18 c-16 9 -68 59 -115
110 -92 99 -131 126 -204 137 -40 6 -47 11 -58 41 -17 47 -77 94 -168 131
-111 46 -195 99 -274 171 -166 153 -290 385 -324 608 -10 60 -26 136 -36 169
-18 58 -70 135 -91 135 -16 0 -3 -309 16 -395 80 -358 274 -614 581 -768 70
-35 185 -78 261 -97 31 -8 44 -17 57 -44 9 -19 45 -65 80 -103 76 -80 184
-225 203 -270 28 -65 11 -134 -37 -159 -36 -18 -100 -18 -191 2 -40 8 -143 24
-228 34 -85 11 -195 28 -245 39 -301 66 -612 55 -1115 -40 -169 -31 -256 -25
-357 27 l-77 39 -138 195 c-114 162 -145 214 -181 305 -136 336 -182 778 -136
1315 18 222 62 615 70 637 4 12 20 29 33 39 25 16 27 15 63 -16 46 -41 105
-67 180 -81 32 -6 101 -31 153 -55 52 -25 113 -49 135 -54 48 -11 125 4 157
30 l22 18 -38 57 -38 58 16 66 c9 36 29 93 45 126 37 78 116 185 137 185 9 0
31 -16 48 -37 64 -76 85 -93 110 -93 l25 0 -24 69 c-43 127 -58 216 -53 315 7
122 26 163 120 252 104 99 161 124 413 183 116 27 289 72 385 99 96 27 184 52
195 55 11 3 65 5 120 4 90 -2 106 -6 154 -32z m-3439 -60 c44 -23 59 -62 75
-193 20 -158 18 -290 -6 -517 -26 -248 -36 -581 -20 -700 17 -128 46 -236 87
-329 20 -45 40 -110 46 -146 9 -65 50 -166 88 -220 11 -16 45 -88 75 -162 67
-162 155 -317 246 -435 37 -48 120 -166 184 -262 96 -143 136 -193 221 -275
57 -56 104 -106 104 -112 0 -13 -32 -24 -73 -24 -42 0 -76 22 -137 87 -30 32
-123 107 -206 166 -378 270 -643 510 -822 745 -52 69 -63 94 -184 430 l-128
357 -12 168 c-22 328 25 685 126 947 50 127 120 262 199 383 75 113 84 119
137 92z m6420 -436 c139 -22 190 -73 190 -186 -1 -59 -11 -112 -50 -263 -30
-111 -49 -155 -109 -242 -133 -195 -143 -204 -416 -370 -208 -126 -270 -159
-370 -195 -304 -109 -505 -251 -631 -444 -34 -52 -67 -85 -150 -148 -133 -101
-190 -128 -380 -180 -235 -63 -422 -141 -555 -232 l-56 -38 -21 28 -20 28 231
220 c412 391 472 440 812 673 99 68 232 160 295 205 63 46 149 100 190 120 41
21 94 53 118 72 41 34 82 97 82 128 0 9 9 15 24 15 73 0 129 39 208 143 81
108 260 283 349 343 75 49 212 104 264 104 32 0 51 21 66 72 10 35 -10 58 -51
58 -43 0 -194 -47 -263 -81 -121 -61 -245 -162 -347 -285 -144 -171 -153 -178
-210 -154 -44 18 -50 61 -42 293 l2 57 68 50 c82 61 233 139 327 170 135 44
315 60 445 39z m-910 -29 c12 -7 14 -30 12 -117 l-4 -108 -56 -58 c-70 -71
-134 -103 -232 -117 -111 -15 -198 -61 -308 -165 -49 -47 -93 -85 -96 -85 -14
0 -4 58 17 91 82 135 129 179 288 272 142 83 211 137 264 208 68 90 82 100
115 79z m-1568 -48 c44 -60 52 -83 37 -116 -22 -47 -101 -52 -204 -13 -84 32
-146 34 -222 7 -82 -29 -116 -26 -146 9 -24 29 -44 97 -32 110 4 3 122 15 263
27 141 12 259 22 262 23 3 0 22 -21 42 -47z m-757 -78 c0 -23 8 -29 70 -53 99
-39 121 -52 198 -115 121 -99 242 -141 385 -134 71 3 72 3 72 -22 0 -80 -48
-143 -117 -156 -77 -15 -254 39 -281 86 -19 31 -86 57 -172 65 -109 11 -145
28 -170 81 -29 58 -63 84 -111 84 -53 0 -83 30 -75 74 14 69 77 116 156 116
43 0 46 -2 45 -26z m1169 -160 c97 -149 128 -281 109 -458 -6 -53 -12 -99 -15
-101 -16 -16 -340 80 -541 160 -15 6 9 26 115 95 123 80 200 147 227 198 8 15
7 23 -4 32 -16 13 -55 10 -128 -11 -65 -18 -81 -7 -85 59 l-3 51 78 25 c47 15
102 25 138 25 l60 0 49 -75z m1153 -195 c-3 -12 -14 -82 -23 -156 l-18 -134
-61 -57 c-66 -61 -337 -229 -385 -239 -52 -10 -94 6 -175 68 -44 34 -95 68
-114 76 -33 14 -33 14 -15 35 27 29 338 268 408 313 112 71 232 113 330 114
55 1 58 0 53 -20z m-758 -589 c21 -10 55 -38 75 -61 33 -39 35 -45 22 -63 -18
-28 -75 -32 -122 -10 -33 16 -133 134 -134 158 0 15 118 -2 159 -24z m2652
-1064 c195 -79 387 -160 428 -179 l74 -35 -59 -16 c-117 -33 -307 -97 -346
-117 -57 -29 -201 -171 -252 -248 -24 -36 -58 -94 -75 -128 -17 -35 -59 -93
-93 -130 -33 -38 -71 -90 -83 -118 -34 -75 -85 -115 -147 -115 -40 0 -62 14
-149 94 -144 133 -264 217 -370 259 -72 29 -215 57 -288 57 -35 0 -49 5 -58
19 -19 30 -68 39 -180 33 l-102 -5 -30 31 c-17 17 -31 34 -31 39 0 4 44 23 98
42 486 167 827 351 1075 578 84 77 93 82 173 82 56 1 89 -10 415 -143z m123
-535 c16 -17 16 -22 3 -48 -29 -56 -48 -154 -61 -325 -12 -154 -18 -185 -51
-277 -106 -300 -267 -491 -495 -584 -364 -148 -696 -191 -1310 -168 -348 13
-427 10 -578 -25 -97 -23 -142 3 -142 82 0 32 -8 31 -77 -11 -32 -19 -81 -42
-109 -50 -29 -8 -149 -55 -268 -105 -238 -98 -270 -109 -431 -145 -194 -43
-241 -47 -544 -39 l-284 7 -233 77 c-230 77 -238 81 -465 210 -127 73 -227
136 -222 140 4 5 118 47 253 94 135 47 254 90 265 95 54 25 330 85 630 136
322 55 481 91 665 150 99 32 113 34 245 34 173 -1 261 17 375 73 l85 43 157
-7 157 -7 153 -66 c84 -37 157 -70 161 -74 12 -12 -73 -85 -196 -169 -58 -40
-130 -99 -160 -131 -52 -54 -104 -137 -93 -148 10 -10 126 36 180 72 30 20 99
77 153 127 54 50 120 109 148 131 48 38 51 39 110 32 33 -3 132 -19 220 -35
208 -36 302 -44 395 -30 180 27 374 21 354 -11 -9 -16 -193 -104 -294 -142
-134 -50 -287 -88 -581 -146 -141 -28 -259 -51 -263 -51 -3 0 0 -13 9 -30 9
-18 26 -32 43 -36 15 -3 32 -7 38 -9 5 -2 74 3 151 10 438 42 730 136 1010
327 175 119 283 232 375 392 68 120 227 355 321 476 145 187 164 202 201 161z
m-1592 -211 c122 -21 195 -42 328 -97 168 -69 244 -117 363 -233 105 -103 112
-111 112 -149 0 -28 -7 -47 -24 -65 -37 -39 -82 -49 -195 -43 -70 4 -124 0
-176 -10 -107 -22 -396 -13 -544 17 -145 29 -297 79 -431 144 -122 58 -142 75
-126 104 18 34 37 42 122 53 46 5 110 17 142 25 94 24 229 76 220 84 -24 23
-292 15 -459 -14 -44 -8 -81 -12 -84 -10 -13 13 42 80 105 129 66 50 79 56
156 69 128 21 355 20 491 -4z m-2893 -375 c158 -39 353 -72 484 -84 114 -11
121 -10 215 15 126 34 227 36 296 6 27 -12 47 -24 45 -26 -2 -3 -47 -12 -99
-21 -52 -9 -152 -29 -222 -46 -70 -16 -221 -45 -335 -65 -350 -59 -479 -90
-633 -154 -103 -43 -569 -154 -863 -205 -280 -49 -414 -24 -503 96 -54 73 -19
185 90 286 58 55 70 61 181 96 298 92 539 123 985 126 241 1 261 0 359 -24z"/>
</g>
</svg>
