<svg xmlns="http://www.w3.org/2000/svg" viewBox="0 0 1361.71 399.32" fill="#fff" xmlns:v="https://vecta.io/nano"><path d="M1081.81 161.65q0-67.71 0-135.41c0-7.13-.77-14-5.74-19.63-1.54-1.74-.34-2.53.55-3.69 1.07-1.38 2-1.91 3.61-.53 6 5 13.13 5.87 20.61 5.86q113.22-.06 226.44 0c7.62 0 15-.59 21.11-5.83 1.35-1.17 2.34-1 3.28.32.76 1.08 2.56 1.79 1 3.66-4.31 5.25-5.6 11.63-6.22 18.11-1.1 11.45-1.4 22.95.51 34.35a25.45 25.45 0 0 0 5.19 12.29c.88 1.06 1.81 2 .23 3.25-1.16.93-2 2.13-3.81.93-13.2-8.68-28.27-8.27-43-7.84-29.14.86-58.24 2.71-87.37 3.88a123.07 123.07 0 0 1-31.76-2.91 28.08 28.08 0 0 1-11.29-5.08c-2-1.55-2.79-.45-4.08.65-1.56 1.33-1 2.27 0 3.71 7.34 10.47 7.35 22.11.14 32.44-.85 1.23-2.2 2.34-.23 3.66 1.08.72 1.66 2.5 3.64.93 7.85-6.24 17.34-7.36 26.85-7.77 18-.79 35.92 1.6 53.9 2.18 16.62.54 33.21 3.14 49.87.56 6.13-.95 12.12-2.35 17.16-6.18 1.69-1.28 2.67-1.22 4.15.16s1.4 2.2.25 3.72c-3.3 4.37-4.72 9.56-5.28 14.87-1.58 14.9-2.9 29.84 2.28 44.41a12.88 12.88 0 0 0 2.94 5.16c1.68 1.62.92 2.68-.35 4.12-1.48 1.68-2.27 1.27-3.93.06-8.2-6-17.94-7-27.58-7.2-18.67-.46-37.26 1.67-55.91 2.33-16.27.57-32.56 3-48.81-.44-5.4-1.16-10.74-2.42-15.15-5.95-1.32-1.05-2.23-1.18-3.24.2-.78 1.08-2.59 1.66-1.12 3.64 6.39 8.55 6.38 18.59 6.53 28.62.14 10.2-1.32 20.23-2.93 30.26a18.62 18.62 0 0 0-.33 3c0 3.37.46 6.87 4.73 6.75 4.43-.12 5.08-3.63 4.68-7.25-.57-5.12-1.31-10.23-2-15.35-.15-1.15-.34-2.3-.44-3.46-.59-6.61 2.77-10.72 9.43-11.44a46.12 46.12 0 0 1 5-.09q71 .08 142 .22c7.18 0 14-.58 19.57-5.64 1.33-1.19 2.22-.9 3.32.23s2 1.87 1.25 3.79c-11.73 31.34-11.12 63.5-6.17 95.94 1.28 8.39 2.32 16.81 3.32 25.24a26.57 26.57 0 0 1-1.14 12.82c-1.1 2.86-2.8 5.31-6.39 5.48s-5.48-2.18-6.85-4.91c-1.77-3.52-1.71-7.39-1.57-11.24.54-14.8 3-29.5 2.37-44.36a43.25 43.25 0 0 0-2.17-11.73c-3.1-9.56-10-15-18.93-14.84-9.54.12-16.11 5.34-19.07 15.25-3.08 10.28-2.65 20.8-1.47 31.21 1.7 15 4 30 6 45a41.86 41.86 0 0 1 .31 11.45c-.69 4.88-4.8 8.91-8.74 8.88-3.79 0-7.77-3.65-8.39-8.55-1-8.3.48-16.59.77-24.89.5-14.47 2.31-28.89 1.69-43.4-.26-6-1-11.9-3.53-17.49-2.38-5.19-6.37-7.42-11.91-7.27-50.64 1.32-101.29.24-151.94.59a93.32 93.32 0 0 0-15.92 1.1c-9.39 1.68-15.76 6.39-17.85 16.19a140.4 140.4 0 0 0-2.43 39.23c1.57 23.09 7.17 45.72 7.92 68.9.14 4.34.08 8.66-1.26 12.85-2 6.13-6.09 9.46-11.88 9.59-6.87.16-11.82-3-13.95-9.15-2.57-7.46-1.73-15.14-.91-22.76 1.75-16.07 6.29-31.62 8.93-47.53a141.25 141.25 0 0 0 2.34-27.31c-1.22-43.64-.72-87.28-.83-130.92zm-981.15 69.1l.09 60.45c.43 21.5 4.71 42.65 6.81 64 .94 9.59 2.21 19.19.61 28.87-1.22 7.37-4.92 12.16-9.75 12.22-4.52.05-8.95-5.07-9.71-12.28-.91-8.49.82-16.92 1.72-25.33 2.41-22.68 4.43-45.39 5.21-68.2.8-23.13-12.73-40.23-35.51-44.71-9.75-1.92-19.53-2.26-29 1.39-11.5 4.44-16.37 12-15.75 24.27.68 13.49 3.22 26.75 5.2 40.07 1.12 7.58 2.16 15.16 1.58 22.87-.62 8.1-4 12.43-10 12.57-6.8.16-11.39-4.55-12-12.61-.75-9.81 1.77-19.21 4.42-28.45a202.45 202.45 0 0 0 7.48-57.13l-.15-222.34c0-7.4-.58-14.71-5.8-20.62-1.58-1.78-.13-2.52.74-3.65 1-1.33 1.86-1.41 3.19-.26 5.92 5.12 13 6 20.54 5.93l59-.06c7 0 13.64-.95 19.09-5.81 1.46-1.31 2.48-1.09 3.67.31 1 1.12 2.3 1.83.86 3.65-6.76 8.52-7.53 18.62-7 28.88l2.27 36.89c.42 9.9-.36 19.7-6.94 27.89-1.29 1.62-.86 2.47.34 3.66s2 2.11 3.67.58c5.68-5.29 12.8-5.93 20.05-5.93q34.49 0 69 0c7.09 0 14 .67 19.59 5.81 1.48 1.37 2.53 1.07 3.73-.26 1-1.11 2.14-1.91.72-3.69-6.52-8.18-7.57-18-7.23-27.86.39-11.14 1.59-22.25 2.38-33.37.83-11.62.59-23-7.1-32.8-1.45-1.84.21-2.61 1.06-3.71 1.08-1.4 2-1.15 3.29-.09 5.65 4.84 12.44 5.89 19.61 5.86q29.24-.09 58.48 0c7.14 0 14-.86 19.57-5.87 1.56-1.39 2.49-.78 3.67.47s1.88 2 .45 3.61c-4.94 5.61-5.78 12.43-5.78 19.6q.09 104.42 0 208.84c0 7.05 1.12 13.62 5.83 19.08 1.52 1.77.36 2.46-.58 3.6-1.19 1.45-2.2 1.6-3.65.27-5.12-4.69-11.47-5.73-18.1-5.73h-61c-6.81 0-13.3 1-18.58 5.82-1.26 1.14-2.19 1.26-3.26-.1-.87-1.11-2.53-1.94-.91-3.69 5.69-6.19 5.74-13.86 5.68-21.58l-.32-54c-.05-7 .9-13.66 5.63-19.17 1.35-1.57.76-2.44-.41-3.63s-2.08-1.95-3.67-.53c-5.46 4.89-12.24 5.68-19.15 5.7q-35 .11-70 0c-6.73 0-13.25-1-18.77-5.45-3.65-3-4.21 1.07-5.52 2.84-.48.65-.07 1.94-.07 2.94v69.97zM682.47 99.88c-4.75-26.69-17-49.52-38.86-66.46-16.46-12.75-35.33-20.31-55.23-25.67-19.1-5.12-38.66-6.71-58.32-7.49-34.74-1.37-68.84 2-101.56 14.51-22.37 8.57-41.57 21.61-55.26 41.74-11.62 17.07-17.15 36.24-18.73 56.61-2.05 26.44.66 52.16 12.43 76.37 14.39 29.61 38.6 47.65 69.09 58 4.22 1.44 5.56 3.38 4.78 7.41-.18 1-.24 2-.33 3-1.63 18.1-6.56 35.64-9 53.6-1.32 9.6-2.4 19.23 2.56 28.29 3.23 5.88 8.13 8.37 14.85 7.9 6-.42 9.19-4.06 11.32-9.09 2.87-6.77 3.24-13.87 2.43-21.07-1.08-9.59-3.13-19-5.12-28.45-2.57-12.17-5.5-24.3-5.57-37.48a87.55 87.55 0 0 0 17 1.17c12.13 0 16.06 3.07 19.25 15 2.83 10.56 3.17 21.37 3 32.2-.25 14.91-4.41 29.24-6.68 43.84-1.31 8.38-2.86 16.79.3 25.14 1.6 4.23 4.21 7.15 9 7.52 4.91.38 8.22-2.1 10.48-6.21 2.84-5.18 3.26-10.78 2.3-16.48-2.11-12.46-4.78-24.83-6.4-37.34-2.21-17.06-.6-34.27-.94-51.41-.08-4.23 2-7.18 5.8-9.07 11.45-5.64 21.63.76 21 13.3-.17 3.33-.55 6.64-.82 10a31.71 31.71 0 0 0 .91 10.87c1 3.58 3.27 6 7 6.07 3.47.09 5.82-2 7-5.34a29.9 29.9 0 0 0 1.9-11.73c-.28-5.82-.71-11.65-.67-17.46 0-1.71-1.11-4.88 2.38-4.91s5.86 1.57 6 5.26c.13 2.48-.26 5-.29 7.48a51.6 51.6 0 0 0 .23 6.46c.3 2.67 1.51 5.15 4.43 5.2 3.14.05 4.36-2.44 5-5.3.94-4.52-.25-9-.36-13.43-.08-3.09.53-4.64 4.19-5.16 20.5-2.89 40.42-7.94 58.94-17.57 24.45-12.71 43.26-30.71 53.4-56.83 10.5-26.96 12.17-54.85 7.17-82.99zm-99.36 28c0 12.89-1.49 24.54-6.28 35.56-6 13.76-16.18 22.95-30.45 27.5a89.72 89.72 0 0 1-49.29 1.39c-20.34-5-33.1-18.18-38.19-38.59-3.94-15.77-4.43-31.67-.55-47.45 6.08-24.75 25.43-39.77 52.79-41.49 10.35-.65 20.69-.34 30.75 2.39 23.44 6.35 36.21 22.19 40.15 45.74a85.84 85.84 0 0 1 1.11 14.94zm451.77-53.32c-1.56-26.75-14.62-45.85-39.44-56.15a143.56 143.56 0 0 0-51-10.63c-63.3-1.83-126.62-.54-189.93-.85-7.4 0-14.74.08-20.58-5.54-1.42-1.37-2.33-.32-3.34.59s-1.95 1.76-.61 3.25c5.58 6.19 5.87 13.83 5.88 21.58l.25 224.84a298.82 298.82 0 0 1-5.61 61c-1.82 9-3.89 18.32-1.46 27.69 1.55 6 5.43 9.23 10.83 9.22 6 0 10-3 11.68-8.9a32.68 32.68 0 0 0 .9-11.38c-.86-11.3-3.1-22.4-5-33.56-2.17-13.1-2.39-26.14.34-39.2.71-3.38 2.09-5.11 6-5 8.32.3 16.66.19 25 0 2.6 0 3.28.69 3.41 3.31.53 10.78-1.78 21.17-3.76 31.63-1.55 8.16-3.57 16.28-2.55 24.71.55 4.51 3.2 7.12 7.49 7.19s7.2-2.33 7.83-6.83a22.86 22.86 0 0 0 .42-5.45c-.66-6.78-1.78-13.54-2.24-20.34-.71-10.41-3.67-20.69-1.68-31.29.44-2.34 1.16-3 3.41-2.91 7.66.12 15.33.15 23 0 2.66-.06 4 1.13 4.79 3.38 1.7 4.56 2.37 9.33 3.06 14.1.15 1.09-.14 2.29 1.44 2.8 4.12 1.34 7.29-.85 7.31-5.3q.15-43.47.24-86.94c0-6.33-1.4-12.23-5.67-17.12-1.17-1.33-1.62-2.32 0-3.67 1.38-1.17 2.3-1.89 4.13-.4 5 4.06 10.88 5.32 17.24 5.28h53.48 44a174.11 174.11 0 0 0 28.85-2.07c25.77-4.14 45.35-16.63 55.56-41.48 5.97-14.58 7.25-29.99 6.33-45.56zm-107.93 32.11c-4.6 2.11-9.75 1.93-14.72 2h-32-32c-7 0-13.67.89-19.07 5.82-1.59 1.45-2.43.74-3.6-.44s-1.93-2.17-.53-4.09c8.74-12 6.86-25.06 3.33-38.14-.53-2-2.1-3.75-3.45-5.41-1.12-1.37-1-2.25.29-3.28s2.09-2.25 3.76-.7c5.85 5.45 13.21 5.7 20.58 5.79 21.81.24 43.62-.53 65.43.5a41.33 41.33 0 0 1 8.36 1.21c8.58 2.22 13.53 8 14.36 16.39 1.05 10.05-2.13 16.43-10.74 20.35z"/></svg>