<svg xmlns="http://www.w3.org/2000/svg" viewBox="0 0 361.4 468.89" xmlns:v="https://vecta.io/nano"><path d="M275.46 347.32l-15.59 45.76c-6.11 17.21-12.91 34.14-21.91 50.08a85.49 85.49 0 0 1-12.39 17.43c-10.82 11.25-21.13 11.09-31.41-.61-8-9.09-13.24-19.86-18.15-30.77-13.41-29.84-23.38-61-34.88-91.56l-16-41.83c-2.12.42-2.74 2.13-3.84 3.25-9.21 9.39-22.82 12.47-34.87 7.4-12.7-5.36-20.08-15.24-19.85-28.94.2-12.12-2.46-21.82-9.73-32.25-28.6-41-12.82-101.74 31.43-124.92 4.14-2.18 3-4.79 2.64-7.76-3.58-26.76 1.65-51.34 18.92-72.53 18.78-23 43.77-35.13 72.83-39 26.8-3.53 52 1.23 74.47 16.93 19.24 13.44 30.64 32.34 36.45 54.78a6.79 6.79 0 0 0 4.53 5.17c71.08 30 85.52 125.29 26.47 174.68a7.26 7.26 0 0 0-2.93 6.28l.06 73.82c0 12-4 18.43-13.69 22.44-10.53 4.32-22.87 2.2-30.12-5.18-.74-.78-1.49-1.64-2.44-2.67zm-242.25-242c0-4.55.3-8.52 2.37-12.1 1.42-2.45 3.4-4.18 6.45-3.77 2.88.39 5.39 1.37 6.6 4.49a27.81 27.81 0 0 1-.7 22.7 7 7 0 0 1-6.32 4.14c-2.9.19-4.62-1.66-5.84-3.94a23.34 23.34 0 0 1-2.56-11.52zM22.24 89.81L8.33 88.53a9.77 9.77 0 0 1-5-2.17c-4.84-3.61-4.55-7.2 1-9.51a34.5 34.5 0 0 1 22.92-1.25c4 1.13 7.7 3.1 7.2 8.09-.52 5.18-4.79 5.69-8.86 6.11-.7.08-1.54.01-3.35.01zM45.72 54.9c.07 4 .54 8-1.43 11.68-2.78 5.22-8.12 5.49-11.45.59-5-7.44-4.5-19.81 1.17-26.61 3.85-4.62 7.91-4 10.06 1.6 1.56 4.1 1.57 8.43 1.65 12.74z" fill="#6b3e26"/><path d="M59.66 85.68c-3.9-.45-8.41-.75-11.69-4.5-2.68-3.09-2.52-6 .58-8.57 4.89-4 17.34-5 22.89-1.91 3.93 2.22 4.52 6.41 1.41 10.11-2.52 2.95-7.52 4.95-13.19 4.87z" fill="#6b3f27"/><path d="M318.64 207.33c.29 6.67 2.27 12 7 16 1.8 1.49 1.44 2.39.24 3.93-4.09 5.29-8.43 10.48-13.94 14.15-6.2 4.14-7.9 9.81-8.08 16.58-.3 11.33.85 22.58 1.44 33.86.7 13.26 2.06 26.57-.63 39.75-1.49 7.29-4.76 9.94-10.42 9.77-3.79-.12-5.77-1.88-6.52-5.49-2-9.57-.88-19.21-.55-28.81a117.66 117.66 0 0 0-.11-13.41c-.72-9-5.51-14.82-13.56-18a29 29 0 0 0-25.92 1.77 18.74 18.74 0 0 0-9.86 15.76c-.42 5.78-3.62 8.36-9.62 8.05-5.81-.3-8.08-2.83-8.15-8.85-.11-10.28 1.24-20.59-.72-30.83-1.68-8.75-5.74-15.53-15.09-18.44 5.26-9.6 9.45-19.43 11.11-30.15q7.59-49.17-29.45-82.38c-3-2.67-3.41-4.16-1-7.4a95.67 95.67 0 0 1 20.63-20.78c.89-.63 1.74-1.93 3-1.31s.74 2.05.74 3.14a32.43 32.43 0 0 0 8 22c9.39 10.84 23.6 11.3 33.72 1.15 2.57-2.59 4.94-5.43 7.78-7.7 4.7-3.77 9-2 10.08 3.87 1 5.71 1.74 11.51 3.15 17.12 2.18 8.65 7 11.37 15.58 9.3a59.1 59.1 0 0 0 7.09-2.28c2-.75 4-1.13 5.67.27 1.91 1.59 1.6 3.81 1.08 6a73 73 0 0 1-4.68 12.57c-3.58 8.19-7.45 16.23-10.18 24.82-2.44 7.68 3.35 18.13 8.75 21.07 7.27 3.95 15.13 2.75 21.78-3.7.33-.33.72-.62 1.64-1.4z" fill="#ffc5d9"/><path d="M167.16 178.76c-.17 10.08-.84 18.73.94 27.25a60.1 60.1 0 0 0 2.64 9.56c4.23 10.76 11.1 13.59 21.75 9.21 1-.41 2-.76 4-1.47a65 65 0 0 1-22.57 29.41c-15.69 11.64-33.62 17-52.9 18.07-3.71.21-5.28 1.27-6.1 5.18a21.58 21.58 0 0 1-11.59 14.86c-4.82 2.55-9.88 3.25-14.63 0-5-3.46-8-8.86-7.07-14.55 1.85-11.76-1.54-22-7-31.88q-5.29-9.58-10.85-19c-14-23.86-4.22-61.74 14.76-78.35 1.26.78.92 2.28 1.28 3.36 5.07 15 21.6 21.45 35.09 13.15 4.07-2.51 4.63-.65 5.28 2.52 1.12 5.42.82 10.93.86 16.4.07 8.32 4.14 13.74 11.52 17 7.18 3.15 13.61 1.6 19.47-3.21 5.69-4.71 9.77-10.79 15.12-17.51z" fill="#c2f2d0"/><path d="M337.42 205.37c.42-8.84.8-18.2-9.53-21.47s-17.69 2.56-24 11.24c-.77-5 .45-8.86 1.58-12.72 2.38-8.11 6-15.81 7.78-24.11 1-4.76 1.41-9.54-.23-14.25-2.52-7.2-7-9.94-14.45-9a51.56 51.56 0 0 0-11.91 3.44c-6.17 2.38-8.23 1.3-10.21-5.17a70.31 70.31 0 0 1-2.59-15.17c-.89-11.44-10.28-17.26-20.88-12.65-4.54 2-8.74 4.74-13.17 7-6.42 3.27-9.49 1.73-10.94-5.33-3.17-15.38-1.52-17.93 13.22-20.47 46-7.93 93.42 25.56 101.6 71.76a80.32 80.32 0 0 1-4.23 44.5c-.35.79-.35 1.97-2.04 2.4z" fill="#6b3e26"/><path d="M214.22 53.85l5.83 6.78a13.69 13.69 0 0 0 14.65 3.62c3-.95 5.86-2.25 8.76-3.47l4.93-2.38c18.69-8.05 19.85-5.12 26.72 13.28-8.3-3.67-16.19-.59-24.24-1.42-10.35-1.07-20.66 2.41-30.48 6.18a102.78 102.78 0 0 0-49.53 39.3c-1.47 2.17-2.46 3.24-5.38 1.89a84.11 84.11 0 0 0-55.41-5.77c-3.49.8-4.26-.14-4.49-3.24a87 87 0 0 1 8.77-45.41c1.63-3.36 4.39-3.61 7.49-2.89 5.56 1.3 9.65 5 13.8 8.62 3.64 3.15 7.08 6.54 11.2 9.1 6.71 4.17 12.07 3.69 17.34-2.21 1.1-1.24 7.15-13.07 7.89-17.61 1.26-3.46 1-3.34 2.16-6.34.9-2.38 2.1-5.12 5.32-5.37 5.48-.42 4.78 8.25 5.24 10.62 1.4 7.22-.73-1.69 2.32 8.69 2.22 7.56 10 5.89 16.42 1.33 4.73-3.39 7.41-8.39 10.69-13.3z" fill="#fdf5c9"/><path d="M248.33 369.23l-18.37-18.44c-1.66-1.62-1.06-2.73 0-4.24a37 37 0 0 0 6.43-14.44 18.53 18.53 0 0 0 .4-4.45c-.13-2.51-.49-5.11-3.1-6.36s-4.87 0-6.91 1.52c-3.49 2.64-6 6.13-8.42 9.76l-2.75 4.09-26.21-26.4c-1.67-1.66-1.24-3-.53-4.84a23.25 23.25 0 0 0 .89-15.62c-.78-2.5-1.74-5.22-4.94-5.64-2.92-.38-4.61 1.62-6 3.72s-2.67 4.57-3.75 6.45l-14.74-14.89a91.7 91.7 0 0 0 26.56-16.15c.62-.55 1.19-1.17 1.86-1.66 2.13-1.54 3.56-5.36 5.84-4.88 3 .64 5.6 3.35 8.33 5.22 1.75 1.2 1 3 .95 4.6-.14 10.29-.85 20.61 1.18 30.82 3.84 19.28 24.15 26.85 40 14.88 5.21-3.94 7.72-9.35 8.5-15.74.62-5.11 2.92-7 8.27-7.18 5.57-.2 8.44 1.78 9.56 6.56 1.06 4.55-.14 8.92-1.18 13.26s-2.15 8.36-3.51 12.44c-5.3 15.89-11.83 31.32-18.36 47.61z" fill="#ffcb85"/><path d="M134.46 169.76v-9.95c-.95-11.71-10.82-18.21-22-14.56-3 1-5.88 2.31-8.9 3.17-2.62.75-5.35.84-7.31-1.64-2.47-3.11-3.27-6.84-3.32-10.69 0-1.23 1.66-1.5 2.64-2 38.34-21.3 90.66.51 102.37 42.72a10.93 10.93 0 0 1-1.27 9.61c-3.12 4.61-3.58 10.28-5.37 15.44-1.35 3.89-2.33 9.77-6.79 9.13-3.66-.52-3-6.6-3.37-10.42-.48-5.46-.62-10.95-.93-16.43a17.29 17.29 0 0 0-.36-3.46c-1.5-5.84-2.83-12-9.72-13.87-7.11-1.92-11 3-14.88 7.71-3.17 3.83-5.83 8.15-10.06 11-5.83 3.92-10.53 1.73-11.07-5.24-.27-3.47 0-7 0-10.46zm116.4-128.9c-4.65 1.94-8.27 5.52-12.59 8-5.69 3.23-9 2.61-13-2.35-7.15-8.8-14.16-9.27-22.15-1.25-2.65 2.67-4.86 5.77-7.61 9.07-.78-4.88-1.52-9.38-3.52-13.51-4.23-8.76-11.94-11.08-20.19-5.9-7.66 4.81-12.12 12.1-15.21 20.36-2.1 5.6-2.83 5.77-7.15 1.44-2.69-2.7-5.25-5.56-8-8.18-3.44-3.24-7.28-5.81-12.7-5.77 2.33-3.76 5.53-6.12 8.56-8.59 33.367-27.273 81.545-26.482 114 1.87 1 .85 2.22 1.5 2.58 2.91a20.69 20.69 0 0 1-3.02 1.9z" fill="#6b3e26"/><path d="M241.76 386.49l-.66 1.58-11.41 29.65c-1.08 2.91-2 2.66-4 .8q-11.64-11.22-23.47-22.26c-1.61-1.5-1.84-2.6-.55-4.58l16.51-26c.8-1.26 1.4-2.78 3.23-.93l19.34 19.38a2.38 2.38 0 0 1 1.01 2.36zm-60.14-61.51l24 23.95c1.2 1.19 1.06 2.09.29 3.41l-17.16 29.52a206.41 206.41 0 0 1-21.08-26.91 2.75 2.75 0 0 1 0-3.2l13.95-26.77z" fill="#ffcb85"/><path d="M209.22 456.84c-2.57.16-4.13-1.58-5.53-3.48a61 61 0 0 1-7.31-14.06l-8.72-23.23c-.53-1.41-1-2.66-.16-4.24 2.65-5.21 3.74-5.45 7.85-1.33l24.32 24.24c1.77 1.73 2.35 3.19 1.29 5.57-1.88 4.22-3.14 8.73-5.7 12.64-1.4 2.14-3.02 4-6.04 3.89z" fill="#6b3e26"/><path d="M157.82 338.14a280 280 0 0 1-20.25-50.52c-.31-1-1-2.38.57-2.94a3.3 3.3 0 0 1 3.71.54q12.8 12.84 25.65 25.64a2.72 2.72 0 0 1 .58 3.18 211 211 0 0 1-10.26 24.1z" fill="#ffcb85"/><path d="M254.42 225.69h4.85c3.39.3 6.92.77 7.73 4.81.79 3.86-1.83 6.34-4.87 7.82a21.33 21.33 0 0 1-15 1.31c-2.94-.77-5-2.58-5.26-5.83s1.57-5.31 4.21-6.71a13.79 13.79 0 0 1 8.34-1.4z" fill="#6b3f27"/><path d="M253.87 169.69c-4.971.072-9.058-3.899-9.13-8.87s3.899-9.058 8.87-9.13 9.058 3.899 9.13 8.87-3.899 9.058-8.87 9.13z" fill="#6c3f27"/><path d="M138.56 225.76c-3.42-.48-6.93-.76-8.25-4.09-1.45-3.64 1.54-5.8 4-7.74a23.72 23.72 0 0 1 12.74-5c5-.49 9.27 2.14 10.1 6.1s-1.61 7-7.16 8.43c-3.86.96-7.78 1.58-11.43 2.3z" fill="#6b3e27"/><path d="M151.81 89.41c4.22.17 7.35 1.08 10.11 3.11 1.71 1.26 2.81 2.85 2.4 5.07a5 5 0 0 1-4.23 4.32 23.81 23.81 0 0 1-12.19-1c-3-1-4.3-3.73-3.53-6.82 1.08-4.33 4.64-4.69 7.44-4.68z" fill="#6b3f27"/></svg>