<svg xmlns="http://www.w3.org/2000/svg" viewBox="0 0 361.4 468.89" xmlns:v="https://vecta.io/nano"><path d="M85.93 347.32l15.59 45.76c6.11 17.21 12.91 34.14 21.91 50.08a84.72 84.72 0 0 0 12.39 17.43c10.82 11.25 21.13 11.09 31.41-.61 8-9.09 13.24-19.86 18.15-30.77 13.41-29.84 23.38-61 34.88-91.56l16-41.83c2.12.42 2.74 2.13 3.84 3.25 9.21 9.39 22.82 12.47 34.87 7.4 12.7-5.36 20.07-15.24 19.85-28.94-.2-12.12 2.46-21.82 9.73-32.25 28.6-41 12.82-101.74-31.43-124.92-4.14-2.18-3-4.79-2.64-7.76 3.58-26.76-1.65-51.34-18.92-72.53-18.78-23-43.77-35.13-72.83-39-26.8-3.53-52 1.23-74.47 16.93-19.24 13.44-30.64 32.34-36.45 54.78a6.79 6.79 0 0 1-4.53 5.17c-71.08 30-85.52 125.29-26.47 174.68a7.26 7.26 0 0 1 2.93 6.28l-.06 73.82c0 12 4 18.43 13.69 22.44 10.53 4.32 22.87 2.2 30.11-5.18.75-.78 1.5-1.64 2.45-2.67zm242.25-242c0-4.55-.3-8.52-2.37-12.1-1.42-2.45-3.41-4.18-6.45-3.77-2.88.39-5.4 1.37-6.6 4.49a27.81 27.81 0 0 0 .7 22.7 7 7 0 0 0 6.32 4.14c2.9.19 4.62-1.66 5.84-3.94a23.34 23.34 0 0 0 2.56-11.52zm10.97-15.51l13.89-1.28a9.77 9.77 0 0 0 5-2.17c4.84-3.61 4.55-7.2-1.05-9.51a34.5 34.5 0 0 0-22.92-1.25c-4 1.13-7.7 3.1-7.2 8.09.52 5.18 4.79 5.69 8.86 6.11.77.08 1.6.01 3.42.01zM315.67 54.9c-.08 4-.54 8 1.43 11.68 2.77 5.22 8.12 5.49 11.45.59 5-7.44 4.5-19.81-1.17-26.61-3.85-4.62-7.91-4-10.06 1.6-1.56 4.1-1.57 8.43-1.65 12.74z" fill="#6b3e26"/><path d="M301.73 85.68c3.9-.45 8.41-.75 11.68-4.5 2.69-3.09 2.53-6-.57-8.57-4.89-4-17.34-5-22.89-1.91-3.94 2.22-4.52 6.41-1.41 10.11 2.48 2.95 7.53 4.95 13.19 4.87z" fill="#6b3f27"/><path d="M42.75 207.33c-.29 6.67-2.27 12-7 16-1.8 1.49-1.44 2.39-.24 3.93 4.09 5.29 8.43 10.48 13.94 14.15 6.2 4.14 7.89 9.81 8.08 16.58.3 11.33-.85 22.58-1.45 33.86-.69 13.26-2 26.57.64 39.75 1.49 7.29 4.76 9.94 10.42 9.77 3.79-.12 5.77-1.88 6.52-5.49 2-9.57.88-19.21.55-28.81a117.66 117.66 0 0 1 .11-13.41c.72-9 5.51-14.82 13.56-18a29 29 0 0 1 25.92 1.77 18.74 18.74 0 0 1 9.86 15.76c.42 5.78 3.62 8.36 9.61 8.05 5.82-.3 8.09-2.83 8.16-8.85.11-10.28-1.24-20.59.72-30.83 1.68-8.75 5.74-15.53 15.09-18.44-5.26-9.6-9.45-19.43-11.11-30.15q-7.6-49.17 29.45-82.38c3-2.67 3.4-4.16 1-7.4a95.67 95.67 0 0 0-20.63-20.78c-.89-.63-1.74-1.93-3-1.31s-.74 2.05-.74 3.14a32.48 32.48 0 0 1-8 22c-9.39 10.84-23.6 11.3-33.72 1.15-2.57-2.59-4.94-5.43-7.78-7.7-4.7-3.77-9-2-10.08 3.87-1 5.71-1.74 11.51-3.16 17.12-2.17 8.65-7 11.37-15.57 9.3a59.1 59.1 0 0 1-7.09-2.28c-2-.75-4-1.13-5.67.27-1.91 1.59-1.6 3.81-1.08 6a73.84 73.84 0 0 0 4.67 12.57c3.59 8.19 7.46 16.23 10.19 24.82 2.44 7.68-3.35 18.13-8.75 21.07-7.27 3.95-15.13 2.75-21.78-3.7-.35-.33-.72-.62-1.64-1.4z" fill="#ffc5d9"/><path d="M194.23 178.76c.17 10.08.84 18.73-.94 27.25a60.1 60.1 0 0 1-2.64 9.56c-4.23 10.76-11.1 13.59-21.75 9.21-1-.41-2-.76-4-1.47a65 65 0 0 0 22.57 29.41c15.69 11.64 33.62 17 52.9 18.07 3.71.21 5.28 1.27 6.1 5.18a21.58 21.58 0 0 0 11.52 14.89c4.82 2.55 9.88 3.25 14.63 0 5-3.46 8-8.86 7.07-14.55-1.85-11.76 1.53-22 7-31.88q5.29-9.58 10.85-19c14-23.86 4.22-61.74-14.76-78.35-1.26.78-.92 2.28-1.29 3.36-5.06 15-21.59 21.45-35.08 13.15-4.07-2.51-4.63-.65-5.28 2.52-1.12 5.42-.82 10.93-.86 16.4-.07 8.32-4.14 13.74-11.52 17-7.18 3.15-13.61 1.6-19.47-3.21-5.62-4.74-9.7-10.82-15.05-17.54z" fill="#c2f2d0"/><path d="M23.96 205.37c-.41-8.84-.79-18.2 9.54-21.47s17.69 2.56 24 11.24c.77-5-.45-8.86-1.58-12.72-2.38-8.11-6-15.81-7.78-24.11-1-4.76-1.41-9.54.23-14.25 2.51-7.2 7-9.94 14.45-9a51.56 51.56 0 0 1 11.91 3.44c6.17 2.38 8.23 1.3 10.21-5.17a70.31 70.31 0 0 0 2.59-15.17c.89-11.44 10.28-17.26 20.88-12.65 4.54 2 8.74 4.74 13.17 7 6.42 3.27 9.49 1.73 10.94-5.33 3.17-15.38 1.52-17.93-13.22-20.47-46-7.93-93.42 25.56-101.6 71.76a80.32 80.32 0 0 0 4.23 44.5c.4.79.4 1.97 2.03 2.4z" fill="#6b3e26"/><path d="M147.17 53.85l-5.83 6.78a13.69 13.69 0 0 1-14.65 3.62c-3-.95-5.86-2.25-8.76-3.47L113 58.4c-18.69-8.05-19.85-5.12-26.72 13.28 8.3-3.67 16.19-.59 24.24-1.42 10.35-1.07 20.66 2.41 30.48 6.18a102.78 102.78 0 0 1 49.53 39.32c1.46 2.17 2.46 3.24 5.38 1.89a84.11 84.11 0 0 1 55.42-5.79c3.49.8 4.26-.14 4.49-3.24a87 87 0 0 0-8.77-45.41c-1.63-3.36-4.39-3.61-7.49-2.89-5.56 1.3-9.65 5-13.8 8.62-3.64 3.15-7.08 6.54-11.2 9.1-6.72 4.17-12.07 3.69-17.34-2.21-1.1-1.24-7.15-13.07-7.89-17.61-1.26-3.46-1-3.34-2.16-6.34-.9-2.38-2.1-5.12-5.32-5.37-5.48-.42-4.78 8.25-5.24 10.62-1.4 7.22.73-1.69-2.32 8.69-2.22 7.56-10 5.89-16.42 1.33-4.74-3.39-7.42-8.39-10.7-13.3z" fill="#fdf5c9"/><path d="M113.03 369.23l18.37-18.44c1.66-1.62 1.06-2.73 0-4.24a37 37 0 0 1-6.43-14.44 18.53 18.53 0 0 1-.4-4.45c.13-2.51.49-5.11 3.1-6.36s4.87 0 6.91 1.52c3.49 2.64 6 6.13 8.42 9.76l2.75 4.09 26.21-26.4c1.67-1.66 1.24-3 .53-4.84a23.25 23.25 0 0 1-.89-15.62c.78-2.5 1.74-5.22 4.94-5.64 2.92-.38 4.61 1.62 6 3.72s2.67 4.57 3.74 6.45l14.74-14.89a91.7 91.7 0 0 1-26.56-16.15c-.62-.55-1.19-1.17-1.86-1.66-2.13-1.54-3.56-5.36-5.84-4.88-3 .64-5.6 3.35-8.33 5.22-1.75 1.2-1 3-.95 4.6.14 10.29.85 20.61-1.18 30.82-3.84 19.28-24.15 26.85-40 14.88-5.22-3.94-7.72-9.35-8.5-15.74-.62-5.11-2.93-7-8.27-7.18-5.57-.2-8.44 1.78-9.56 6.56-1.06 4.55.14 8.92 1.18 13.26s2.15 8.36 3.51 12.44c5.34 15.89 11.87 31.32 18.37 47.61z" fill="#ffcb85"/><path d="M226.93 169.76v-9.95c.95-11.71 10.82-18.21 22-14.56 3 1 5.88 2.31 8.9 3.17 2.62.75 5.35.84 7.31-1.64 2.47-3.11 3.27-6.84 3.32-10.69 0-1.23-1.66-1.5-2.64-2-38.35-21.3-90.66.51-102.37 42.72a10.93 10.93 0 0 0 1.27 9.61c3.12 4.61 3.58 10.28 5.37 15.44 1.35 3.89 2.33 9.77 6.79 9.13 3.66-.52 3-6.6 3.37-10.42.48-5.46.62-10.95.93-16.43a18 18 0 0 1 .35-3.46c1.51-5.84 2.84-12 9.73-13.87 7.11-1.92 11 3 14.88 7.71 3.16 3.83 5.83 8.15 10.06 11 5.83 3.92 10.53 1.73 11.07-5.24.27-3.47 0-7 0-10.46zm-116.4-128.9c4.65 1.94 8.27 5.52 12.59 8 5.69 3.23 9 2.61 13-2.35 7.15-8.8 14.16-9.27 22.15-1.25 2.65 2.67 4.86 5.77 7.61 9.07.78-4.88 1.52-9.38 3.52-13.51 4.23-8.76 11.94-11.08 20.19-5.9 7.65 4.81 12.12 12.1 15.21 20.36 2.1 5.6 2.83 5.77 7.15 1.44 2.69-2.7 5.25-5.56 8-8.18 3.43-3.24 7.28-5.81 12.7-5.77-2.33-3.76-5.53-6.12-8.56-8.59-33.37-27.264-81.542-26.474-114 1.87-1 .85-2.21 1.5-2.57 2.91a20.69 20.69 0 0 0 3.01 1.9z" fill="#6b3e26"/><path d="M119.63 386.49l.66 1.58 11.41 29.65c1.08 2.91 2 2.66 4 .8q11.64-11.22 23.47-22.26c1.61-1.5 1.84-2.6.55-4.58l-16.52-26c-.79-1.26-1.39-2.78-3.22-.93l-19.34 19.38a2.38 2.38 0 0 0-1.01 2.36zm60.14-61.51l-24 23.95c-1.2 1.19-1.06 2.09-.29 3.41l17.16 29.52a206.41 206.41 0 0 0 21.08-26.91 2.75 2.75 0 0 0 0-3.2l-13.95-26.77z" fill="#ffcb85"/><path d="M152.17 456.84c2.57.16 4.13-1.58 5.53-3.48a61 61 0 0 0 7.31-14.06l8.72-23.23c.53-1.41 1-2.66.16-4.24-2.65-5.21-3.74-5.45-7.85-1.33l-24.32 24.24c-1.77 1.73-2.35 3.19-1.29 5.57 1.88 4.22 3.14 8.73 5.7 12.64 1.4 2.14 3.02 4 6.04 3.89z" fill="#6b3e26"/><path d="M203.57 338.14a280 280 0 0 0 20.25-50.52c.31-1 1-2.38-.57-2.94a3.3 3.3 0 0 0-3.71.54q-12.81 12.84-25.65 25.64a2.74 2.74 0 0 0-.59 3.18 212.93 212.93 0 0 0 10.27 24.1z" fill="#ffcb85"/><path d="M106.97 225.69c-2.54 0-3.71-.08-4.86 0-3.38.3-6.91.77-7.72 4.81-.79 3.86 1.82 6.34 4.87 7.82a21.33 21.33 0 0 0 15 1.31c2.94-.77 5-2.58 5.26-5.83s-1.57-5.31-4.21-6.71a13.79 13.79 0 0 0-8.34-1.4z" fill="#6b3f27"/><path d="M107.52 169.69a9 9 0 0 0 8.87-8.85 8.88 8.88 0 0 0-15.152-6.316 8.88 8.88 0 0 0 6.282 15.166z" fill="#6c3f27"/><path d="M222.82 225.76c3.43-.48 6.94-.76 8.26-4.09 1.45-3.64-1.54-5.8-4-7.74a23.72 23.72 0 0 0-12.74-5c-5-.49-9.27 2.14-10.1 6.1s1.61 7 7.16 8.43c3.86.96 7.78 1.58 11.42 2.3z" fill="#6b3e27"/><path d="M209.58 89.41c-4.22.17-7.35 1.08-10.11 3.11-1.71 1.26-2.81 2.85-2.4 5.07a5 5 0 0 0 4.23 4.32 23.81 23.81 0 0 0 12.19-1c3-1 4.3-3.73 3.53-6.82-1.08-4.33-4.64-4.69-7.44-4.68z" fill="#6b3f27"/></svg>