<svg xmlns="http://www.w3.org/2000/svg" xmlns:xlink="http://www.w3.org/1999/xlink" viewBox="0 0 1264.01 526.32" xmlns:v="https://vecta.io/nano"><g fill="#6b3e26"><path d="M216.47 179.23a2.22 2.22 0 0 0-.17.9 2.22 2.22 0 0 1 .17-.9zm668.38 343.9c-1.16 0-1.86.58-1.72 1.78a1.64 1.64 0 0 0 1.71 1.41 1.6 1.6 0 0 0 0-3.19zM708.87 359.31c3.24 3 7.26 5.4 9.55 9.24 1.79 3 4.1 3 6.39.19 3.35-4.15 6.53-8.41 9.82-12.59a9.75 9.75 0 0 0 2-7.49c-.32-2.74-2.22-4.35-5.36-4.55-4.34-.29-7.76 1.1-10.11 4.38l-5.27-2.45a6 6 0 0 0-6.93.78c-4.41 3.9-4.69 8.17-.09 12.49zm-.3-9.11a4.81 4.81 0 0 1 3.56-2.05 4.25 4.25 0 0 1 2.74.59l.09.06h0a1.09 1.09 0 0 1-1.53.14 3.15 3.15 0 0 0-2.89.59c-.67.91-1.82 2-1.7 3a7.09 7.09 0 0 0 2.63 4.65c1.13 1 2.35 1.87 3.53 2.79a21.93 21.93 0 0 1 4.77 5.08l.24.37-.89.51-.12-.13a23.44 23.44 0 0 0-6-6.11 23 23 0 0 1-3.07-2.59 7 7 0 0 1-2-3.37 4.5 4.5 0 0 1 .64-3.53zm27.57 9.68c-.12.16-.32.25-.31.62.6-.19 1.28-.06 1.75-.64a18.9 18.9 0 0 0 4.07-7.69c1.24-5.11-.86-10.35-4.61-11.44a8.74 8.74 0 0 0-5.26.5l-.17-.06a.81.81 0 0 0-.6.37l.63-.16c.06.2.21.07.32.06a6.74 6.74 0 0 1 3.84.33c3.52 1.6 5.18 7.05 3.63 11.93a20.15 20.15 0 0 1-3.29 6.18z"/><use xlink:href="#B"/><use xlink:href="#B" x="41" y="-47"/><path d="M1166.01 331.16c1.57-.08 2-1.16 2.1-2.38.12-1.79-1.07-2.24-2.59-2.17-1.36.06-2.27.72-2.17 2.15.12 1.6 1.3 2.19 2.66 2.4zm-4.08 43.11a1.6 1.6 0 0 0 0-3.19c-1.16 0-1.85.58-1.71 1.77a1.64 1.64 0 0 0 1.71 1.42z"/><use xlink:href="#C"/><use xlink:href="#C" x="-25" y="-50"/><path d="M1126.44 401.42c2.1-3.28 4.39-3.42 7.26-2.43-2.66-1.58-3.08-3.49-2.22-5.92-1.85 2-4.29 1.91-7 1.72 3.33 1.24 2.4 3.5 1.96 6.63z"/><use xlink:href="#B" x="-78" y="-26"/><path d="M1070.12 341.32a1.6 1.6 0 0 0 0-3.19c-1.16 0-1.85.58-1.71 1.78a1.63 1.63 0 0 0 1.71 1.41zm14 13a1.6 1.6 0 0 0 0-3.19c-1.16 0-1.85.58-1.71 1.78a1.63 1.63 0 0 0 1.71 1.41zm-109.89 86.82c2 4.22 5.15 5.46 8.42 3.1 6.4-4.62 10.38-11.17 14-17.92l-1.32-.92c-2.49 3.62-4.82 7.34-7.49 10.82-2.37 3.08-4.7 7.82-9 6.63s-4.61-6.49-5.16-10.53c-2.07-15.14-1-30.19 1.64-45.18.34-1.95 1.19-4 .17-5.94-1.21.06-1.56.58-1.67 1.28-2.34 14.81-4.17 29.66-3 44.7a39.57 39.57 0 0 0 3.41 13.96zM611.17 288.86c-.82-.77-1.66-2.33-3.61-.66 4 3.92 8 7.82 9.21 13.59 2.3 10.72.43 20.77-4.47 30.38-5.54 10.86-13.3 20.19-20.63 29.81l-23.37 25.11c9.4-6.74 17.28-15 24.41-24 1.1-1.22 2.28-2.37 3.28-3.66 9-11.51 18.48-22.84 22.26-37.34 3.15-12.08 2.92-23.81-7.08-33.23zm66.93 119.51l-3.5 33.24c-.18 1.81-.45 3.76.56 5.62.61-.41 1-.57 1.06-.74.76-13.12 2.92-26.08 4.19-39.13.62-6.4 1.47-13-2-19-2.37-4.11-5.58-5.65-10-4.06 8.78 1.9 10.46 8 10.25 15.13-.14 2.96-.26 5.96-.56 8.94zm152.82-34.67c14.74 12.69 13.38 29 9.83 46.46 8.12-9.56 5.13-42.23-9.83-46.46zm-90.27 66.8c2.75 5.7 6.24 6.47 10.87 2.21s7.93-9.32 11-14.64c.45-.77 1.36-1.7-.45-2.66a18.13 18.13 0 0 0-1.31 1.69c-3.22 5-6.2 10.23-10.74 14.23-3.51 3.09-5.89 2.6-7.54-1.75a106.46 106.46 0 0 1-2.87-10.51h0a199.39 199.39 0 0 1 3.46-48.1c-2.51.37-2.4 1.33-2.51 2.08-.95 6.89-2.21 13.75-2.74 20.67-.7 9.22-1.51 18.49.72 27.66h0a21.2 21.2 0 0 0 2.11 9.12zm100.7 5.48c1.71 16.44 1.9 32.06-16 41.06 6.63-.56 11-4.42 13.84-9.69 5.36-10.02 5.63-20.61 2.16-31.37zm-215.77-95.26c5.54 2.48 10.45 5.6 13 11.29 2.47 5.39 2.81 11.25 3.79 17 1.45-7.36.5-14.38-3.6-20.75-2.95-4.67-7.28-7.49-13.19-7.54zm183.9 31.55c-5.14.51-8.64 4.26-9.7 9.6a16.3 16.3 0 0 0 9.94 18.46c-3.63-4.09-7.57-7.86-8.21-13.67-.69-6.38 2.99-10.43 7.97-14.39zm-32.4-40.93c-4.11 2.21-7.29.76-10.55-2.06 2.41 3.66 1.3 6.38-2.92 9.48 5.46-1.45 8.64-.72 10.7 3.36-1.74-4.29-1.51-7.94 2.77-10.78zM532.89 296.9c-3.65-2.32-3.34-5.36-1.81-9.14-3.35 2.91-6.25 4.21-10 2.63 3.56 2.58 3.89 5.87 2.82 9.74 2.22-3.33 4.82-4.82 8.99-3.23zm19.54 178.25c-2.1 2.73-4.87 2.54-7.9 2.29 3.73 1.66 2.68 4.67 2.17 8.85 2.39-4.38 5-4.57 8.25-3.25-3.02-2.1-3.5-4.65-2.52-7.89zM602 446.87c.42 2.75 1.38 5.6 5.34 4.65a9 9 0 0 1-3.79-5.51 134.62 134.62 0 0 1 .93-23.31 56.9 56.9 0 0 0-1.76-23.66c-2.23-7.37-7.6-11.77-14-11.54.08.31.1.84.26.89 11.4 3.53 13.34 12.8 13.56 22.82.14 6.28-.42 12.57-.66 18.86a63.84 63.84 0 0 0 .12 16.8zm18.17-42.53a2.29 2.29 0 0 0-2.63-2.3c-1.56.06-2.68 1-2.53 2.45a2.77 2.77 0 0 0 3 2.69c1.71-.1 1.98-1.47 2.16-2.84zm55.17-117.23a2.63 2.63 0 0 0 2.52-2.65 2.35 2.35 0 0 0-2.73-2.16 2 2 0 0 0-2.11 2.26c.11 1.32.49 2.78 2.32 2.55zm97.38 166.26a2.16 2.16 0 0 0-2.18 2.68 2 2 0 0 0 2.22 2.12 2.56 2.56 0 0 0 2.6-2.51c.12-1.61-1.13-2.36-2.64-2.29zm-397.9-143.61a2.24 2.24 0 0 0 2-2.39c.07-1.69-.89-2.39-2.48-2.35s-2.65.75-2.42 2.41c.21 1.5 1.44 2.07 2.9 2.33zm109.17 114.38a2.08 2.08 0 0 0-2.14 2.18 2.59 2.59 0 0 0 2.48 2.55c1.61.12 2-1.29 2.3-2.64a2.16 2.16 0 0 0-2.64-2.09zm222.99-139.81c.24 1.37 1.37 2.19 3.27 2.32a2.39 2.39 0 0 0 1.56-2.39c.06-1.69-.83-2.43-2.42-2.32s-2.67.75-2.41 2.39zm290.81 112.39a2.08 2.08 0 0 0-2.25-2.55c-1.43 0-2.66.41-2.67 2.08a2.75 2.75 0 0 0 2.42 2.67c1.66.35 2.17-.95 2.5-2.2zm-12.01 18.06a2.77 2.77 0 0 0 1.8-2.88 2 2 0 0 0-2.4-1.85c-1.42.09-2.66.67-2.44 2.34.19 1.44 1.38 2.11 3.04 2.39zM613.72 280.67a2.47 2.47 0 0 0 2.22 2.59c1.91.11 2.34-1.32 2.53-2.51s-.88-2-2.14-2.13c-1.61-.12-2.61.4-2.61 2.05zm472.72 10.12c1.5.11 1.75-1.22 2-2.33a2.05 2.05 0 0 0-2.07-2.3c-1.52-.07-2.73.57-2.67 2.2a2.62 2.62 0 0 0 2.74 2.43zm-267.95-6.37c0 1.37.21 2.72 2 2.68a2.62 2.62 0 0 0 2.63-2.42 2.33 2.33 0 0 0-2.52-2.39 2 2 0 0 0-2.11 2.13zm124.5 2.13c1.56-.08 2-1.15 2.09-2.37.12-1.8-1.07-2.25-2.59-2.18-1.36.06-2.26.72-2.16 2.16.11 1.59 1.29 2.19 2.66 2.39zm-32.27 125.82c1.22-.55 1.54-.76 1.21-2.31-.66-3-2.64-.93-3.72-.68.42.96-.86 4.5 2.51 2.99z"/><path d="M907.64 409.18a.47.47 0 0 0 .57.2c-.09-.21-.25-.31-.57-.2zm-169.92-97.36c-.06-1.48-1-2-2.3-2s-2.28.65-2.19 2.1a2.26 2.26 0 0 0 2.61 2.34c1.44-.05 1.74-1.22 1.88-2.44zM627.28 453.43a2 2 0 0 0-1.93 2.32c.09 1.38.46 2.65 2.28 2.33a2.54 2.54 0 0 0 2.37-2.53c-.15-1.74-1.36-2.23-2.72-2.12zm341.51-143.57c-1.31 0-2.28.54-2.3 2s.94 2.35 2.45 2.52c1.51-.06 1.85-1.09 1.9-2.34a1.84 1.84 0 0 0-2.05-2.18zM751.99 414.5c1.53.19 1.81-1 2.13-2.43a1.81 1.81 0 0 0-1.94-2c-1.24 0-2.32.32-2.45 1.77a2.3 2.3 0 0 0 2.26 2.66zm128-143.23c1.54 0 1.81-1.14 1.9-2.36 0-1.54-1-1.92-2.32-1.87s-2.15.74-2 2.2a2.2 2.2 0 0 0 2.42 2.03zm-452.2 222.41c-1.22.16-2.24.61-2 2.78.14 1 1.18 1.7 2.63 1.61s1.63-1.43 1.65-2.58c.03-1.5-.97-1.99-2.28-1.81zm84.33-136.18c7.09-2.15 10.93-7.51 13.31-13.83 5.1-13.54 4.82-26.63-4.62-38.52-1.17-1.8-2.43-3.47-5.3-3.83.75 2.75 2.66 3.72 4.11 5.07a36.61 36.61 0 0 1 6.54 26.89c-1.44 9.92-5.74 18.12-14.04 24.22zm20.95-36.83c-.2 1.13.68 1.76 2.16 2.22.32-.4 1-.91 1.2-1.56a1.64 1.64 0 0 0-1.56-2.06 1.67 1.67 0 0 0-1.8 1.4zm75.22 46.83c.15-1.26-.57-1.76-1.67-1.76-.81 0-1.64.3-1.61 1.32a1.81 1.81 0 0 0 1.73 1.9c.98.14 1.29-.66 1.55-1.46zm304.21 13.26a1.44 1.44 0 0 0-1.44-1.61c-1.16 0-1.86.58-1.71 1.78a1.63 1.63 0 0 0 1.7 1.41 1.43 1.43 0 0 0 1.45-1.58zm-351.07-16.97c-1.15 5.36-2.72 10.71-2.81 16.45 2.66-.4 2.14-2.07 2.33-3.23 2.1-12.45 4.52-24.89 8.87-36.73 5.52-15 8.44-32.18 28.14-38.69a11.1 11.1 0 0 0-8.92 1.36c-5 3-8.39 7.53-11.16 12.5-8.44 15.05-12.84 31.6-16.45 48.34z"/><use xlink:href="#D"/><use xlink:href="#D" x="144" y="-17"/><use xlink:href="#D" x="-146" y="16"/><use xlink:href="#E"/><use xlink:href="#E" x="-157" y="-4"/><path d="M481.92 479.67c-3.34 2.91-6.25 4.22-10 2.64 3.56 2.58 3.89 5.87 2.82 9.74 2.19-3.33 4.81-4.83 9-3.24-3.65-2.31-3.35-5.31-1.82-9.14z"/><use xlink:href="#F"/><use xlink:href="#F" x="212" y="-20"/><path d="M584.03 323.44c2.41 3.67 1.3 6.38-2.92 9.48 5.46-1.44 8.64-.71 10.7 3.36-1.74-4.29-1.51-7.93 2.77-10.77-4.11 2.21-7.29.76-10.55-2.07zm-224.81 69.19c2.41 3.67 1.3 6.38-2.92 9.48 5.46-1.44 8.64-.71 10.7 3.36-1.74-4.29-1.51-7.93 2.77-10.77-4.11 2.21-7.29.8-10.55-2.07zm727.5 118.87c-2.09 2.73-4.87 2.54-7.9 2.29 3.73 1.66 2.68 4.67 2.17 8.85 2.39-4.38 5-4.57 8.26-3.24-3.03-2.13-3.53-4.68-2.53-7.9zm171-106c-4.54 7.52-11.82 7.71-19.23 7.89-15.55.37-30.83-2.45-46.21-3.93-16.85-1.62-33.5-1.81-50 2.71-18.21 5-34.09 14.59-50 24.35-11.45 7.05-22.79 14.35-36.62 16.17-11.774 1.634-22.743-6.305-24.87-18-.23-1.34-.69-2.94 1-3.31 2-.44 1.59 1.64 2 2.71 1.06 2.78 2 5.61 4 7.93 4.87 7.24 14.17 10.48 19.32 6.74-13.17-2.41-13.17-2.41-18.21-8l-1.94-4c-2-4.34-2.25-7.41 2.87-10.68a41.16 41.16 0 0 0 18-23.58c3-10.42-1.83-19.24-12.06-22.76a28.06 28.06 0 0 0-10.07-1.5c-4.85-.84-9.16.51-13.36 2.57a3.37 3.37 0 0 0-.66.33c-12.12 5.81-17.27 16.31-19.57 28.8a43.39 43.39 0 0 0-.67 9.76 27.44 27.44 0 0 1-3.09 9.68c-3.36 6.47-6.55 13.11-12.19 17.92-6.27 5.35-14.19 3.6-17.49-4a30.69 30.69 0 0 1-2-7.19 137.81 137.81 0 0 1 1-49.6c.86-4.44-.44-6.47-4.34-7.89a37.32 37.32 0 0 0-16.73-1.72c-6.91.68-9.23 2.45-10 9.4-1.59 15.45-4.52 30.5-10.69 44.84-3.68 8.58-7.38 17.17-14.55 23.53-7.72 6.84-15.8 4.5-18.73-5.34a51.23 51.23 0 0 1-2.2-12.74c-1.39-37.15 3.71-73.65 10.87-110 .28-1.45.21-3.11 2.55-2.66 2.94.55 1.42 2.27 1.12 3.75-3 14.61-6.33 29.17-7.45 44.1a1.22 1.22 0 0 1 0 .17c-.15.72-.6 1.54-.41 2.16-2.16 11.19-2.44 22.58-3.32 33.91-.66 10-1.12 19.93 0 29.89-.3 2.12.69 4 1.08 6 1.78 8.9 5.27 12.17 10.65 8.7-5 .49-6.83-2.18-7.93-5.73-.58-1.86-1.22-3.7-1.83-5.54h0c-.31-9.59-.44-19.18-.25-28.79.26-12.6 2.51-25 3-37.58 2.63-15.39 4.93-30.84 8.15-46.14.72-3.42 1.75-4.53 5.72-3.68a206 206 0 0 0 24.63 3.51c14.42 1.29 28.89 2.26 43.1-1.85 7.23-2.1 13.46-5.7 17.49-12.35.79-1.29 1.58-2.69.63-4.19-1.08-1.72-2.88-1.42-4.52-1.18-3.23.46-4.8 3-5.88 5.58-2.16 5.27-6.21 7.91-11.44 9.46-6.32 1.87-12.75 2.26-19.27 2.23-15.88-.05-31.49-2.46-47.07-5.22a1.18 1.18 0 0 1-.51-.23c-.63-3.36.85-6.36 1.7-9.45L916.5 293l-1.42-.41c-3.63 7.78-5.49 16.14-7.39 24.5.77.4.73 1.19.71 2a1.24 1.24 0 0 0-1.56.47c-.44.69-1.16 1-2.57.55-2.61-.93-.78-2.92-.5-4.09 1.75-7.26 3.88-14.43 5.74-21.66 1.37-5.32.11-7.78-4.93-9.7a28.53 28.53 0 0 0-20.5-.28c-3.51 1.27-6 3.4-6.51 7.41-.9 6.75-2.17 13.46-2.89 20.23-.34 3.15-1.47 3.72-4.44 3.41-10.43-1.08-20.88-2.27-31.39-2.06-18.82.39-36.37 4.31-50 18.71-1.47 1.57-4.59 3.21-2.65 5.58 1.66 2 4.53 1.34 6.85.23a9 9 0 0 0 3.91-3.79c5.54-9.95 15.18-13.5 25.39-16 15-3.66 30.1-1.74 45.2-.15 4.76.5 6.38 1.52 5.71 6.78a493.27 493.27 0 0 0-3.44 81.23 8.74 8.74 0 0 1-2.15 6.33c-8.78 10.79-19.92 18.5-32 25.09-1.46.79-2.52 1.35-3.69-.47-5.44-8.49-13.72-13.9-21.59-19.76-4.28-3.19-8.45-6.5-11.39-11.06-4.05-6.27-4.1-15.16-.12-20.76 4.12-5.8 10.23-7.61 18.23-5.4 10.42 2.86 17.38 13.54 17 25.9-.17 5.39-1.64 10.49-3.06 15.62-.31 1.12-.84 2.26.62 3a3 3 0 0 0 3.29-.3 8.09 8.09 0 0 0 2.51-3.64c2-4.53 2.1-9.37 2.5-14.17 1.65-20.18-7.78-32.89-27.61-35.8-18.1-2.65-36.44 5.32-39.13 28.57-.72 6.25-1 12.47-3.4 18.47-4.26 10.49-8.12 21.21-16.57 29.24-7.23 6.86-14.08 5.25-17.89-3.93a34.1 34.1 0 0 1-1.86-6.18c-3.37-16.72-2.12-33.42.7-50a7.51 7.51 0 0 0-5-8.37 36.45 36.45 0 0 0-14.88-1.55c-8.19.63-10.42 2.4-11.31 10.37-1.88 16.9-7.6 32.62-14.14 48.1-2.65 6.27-5.51 12.54-10.52 17.38-3.62 3.49-6.6 2.54-7.88-2.3-1-3.77-.7-7.59-.34-11.42 1.12-12.26 4.27-24.27 4.65-36.6.36-12-4.19-16.65-16.24-17-5.49-.18-11-.16-16.49-.18-3.5 0-5.37-.76-4.77-5.18a28.26 28.26 0 0 0-3.07-17.91c-3.27-5.74-9.35-8-14.86-5.76s-8.35 7.75-7 14.33c2 9.46 8.29 14.87 17.07 17.75 2.42.8 3.46 1.51 2.82 4.45-2.28 10.56-4.48 21.14-7.75 31.43-3 9.49-6 19.08-12.25 27.1-2.08 2.64-4.59 5.28-8.38 4.25-4-1.09-4.87-4.78-5.21-8.31-.66-6.82-.12-13.64.41-20.45.57-7.3 1-14.63-.5-21.89s-5-12.85-13.17-14.37c-12.36-2.3-24 3.57-30 15.66-.73 1.48-1.4 3-2.08 4.61a1.2 1.2 0 0 1-2.29-.65 68.93 68.93 0 0 0 1.15-8.93c.1-4.1 2-6.6 5-9.08a257.61 257.61 0 0 0 36.2-37.11c8-10.06 15.38-20.5 19.35-32.92 7-21.88-5.94-39.13-27.68-37.13a1.05 1.05 0 0 0-.48.16v-.12a17.53 17.53 0 0 0-6.39.64c-12.85 3-21.74 11.16-28.48 21.91-11.56 18.45-16.06 39.22-19 60.37l-1.83 14.09h0c-.81 11.62-1.48 23.24-1.33 34.9 0 0 0 .11-.07.16-1 1.82-2.16 4.62-3.19 6.41a58.37 58.37 0 0 1-7 10.12l-7 8.43a69.84 69.84 0 0 1-15.11 12.91c-11.24 7-23.41 10.54-36.6 7.66-18.68-4.06-27.47-17.6-31-35-5.53-26.87-.05-52.4 10.73-77.13.91-2.1 2.14-2.71 4.17-2.43a2.76 2.76 0 0 1-.13 2.39 137.59 137.59 0 0 0-8.11 20.33c-6.48 20.53-7.13 41.21-1 61.88 2.54 8.55 6.83 16.23 14.29 21.7 6.94 5.1 16.24 6.72 22.71 3.91-.19-.82-.9-.94-1.53-1-17.43-.19-26.93-6.62-32.7-22.84-6.61-18.6-6.35-37.52-1.75-56.52 2.35-9.72 6.57-18.76 10.2-28 1.11-2 3-1.59 4.85-1.71 7-.5 14-.77 20.88-1.71 3-.41 4.26.42 5.74 2.92 6.33 10.7 17.7 13.94 28.85 8.53a30.24 30.24 0 0 0 12.93-12.11c9.57-16.15 8.13-37.57-15.2-45.71a66.71 66.71 0 0 0-32.51-2.59c-24.18 3.72-42.09 17.18-56 36.61-1.8 2.52-3 2.88-5.93 1.88-18.4-6.26-36.76-12.71-55.86-16.59-8.8-1.79-17.71-3.33-26.71-1.24-2.2.51-4.53 1.59-3.66 4.33s3.25 2.56 5.39 1.42c7.12-3.8 14.57-2.72 22-1.49 19 3.13 36.84 10 54.88 16.25 4.32 1.51 5 2.79 2.66 7-14.49 27-20.47 55.41-13 85.65 4.53 18.36 14.6 32.93 32.7 40.17 16.77 6.7 33.94 5.75 50.74-.38 22.22-8.1 37.76-23.83 49.27-44a.88.88 0 0 1 .19-.24c1.9 1 1 2.92 1.14 4.39 1.11 9 .77 18.18 3.4 27a2.2 2.2 0 0 0 .15.6.47.47 0 0 0 .06.09v.11h0a1.48 1.48 0 0 0 .13.21c2.78 3.13 6.44 1 9.66 1.44 3.55.52 5.44-1 5.91-4.69.73-5.69 1.55-11.36 2.59-17 1.73-9.46 3.09-19.09 8.26-27.48 3.1-5.05 7.81-5 11.18-.13 2.67 3.85 3.31 8.34 3.38 12.86l.06 26.47a51.38 51.38 0 0 0 1.94 13.8c2.25 8.13 8.23 11.9 16.61 10.55 5.64-.91 10.22-3.83 14.22-7.72 7.79-7.59 12.57-17.07 16.68-26.94 6.23-15 10.06-30.59 13.46-46.35.28-1.26-.44-3.19 2.09-3.19 4.84 0 9.71 4.7 9.38 9.56-.51 7.64-1.49 15.25-1.9 22.88-.72 13.27-2.32 26.62 1.86 39.65 3.28 10.26 12.48 13.68 21.79 8.21a35.26 35.26 0 0 0 9-7.82c4.77-5.63 8.27-12 11.41-18.66a202.44 202.44 0 0 0 8.6-21.29c1.32-4.08 2-8 3-9a1.71 1.71 0 0 1 2 0c1.06 1.06.83 5.66 1 7 1.22 9.48 2.55 18.37 7.75 26.56 7.19 11.33 19.29 15.84 32 11.76 11.24-3.59 17.94-12.14 23.48-21.9 3-5.3 5.07-11 7.43-17.25a1.2 1.2 0 0 1 2.17-.16c5.44 9.47 13.54 15.4 21.55 21.44 2.65 2 5.16 4.2 7.79 6.24 2.37 1.85 3 3.23-.37 4.84a34.48 34.48 0 0 0-8.92 6.33c-8.94 8.58-6.19 21.35 5.48 25.46 19.53 6.87 37.63-7.23 36.07-28.11-.14-1.83.06-3.86-.68-5.42-3.46-7.28.19-10.56 6.27-13.89 9.37-5.14 17.39-12.19 24.89-20.51a1.2 1.2 0 0 1 2.08.6v.14c2 12.46 3.74 25 10.67 36.06 8.17 13 22.33 14.8 33.42 4.21a50.94 50.94 0 0 0 8.69-11.51c4.4-7.58 7.21-15.83 10.19-24.46a1.2 1.2 0 0 1 2.32.18 99.78 99.78 0 0 0 4 16.57c5.65 15.77 16.87 24 31.35 22.31 10.84-1.25 18.58-7.63 24.56-16.31 2.74-4 5.06-8.24 7.7-12.58l-.06-.54c3.47 11 11 20.3 21.12 24.68 13.78 6 27.69 4.3 41.32-.68 11.83-4.33 22-11.65 32.18-18.83 21.11-14.9 44-24.57 70.24-25 17.53-.3 34.86 1.95 52.23 3.85a119.37 119.37 0 0 0 25.42.42c7.73-.81 14.31-3.7 17.92-11.48-2.65-1.02-5.2-.86-6.26.98zm-771.18-100c8.26-1.6 17.34 2.32 21.68 9.13a20.28 20.28 0 0 1-.65 22.95c-5.06 6.85-15.54 11.11-22.87 9.23a6.17 6.17 0 0 1-3.91-2.18c2.42-2.21 5.7-3.34 7.72-6.09 2.9-4 2.77-7.78-.55-10.62-3.1-2.66-7.46-2.2-10.7 1.06-2.9 2.91-3.76 6.6-3.89 10.47-.06 1.71-.26 2.79-2.17 3.18-7.49 1.52-15 2.46-23 1.71l1.64-4c1-1.33 2-2.63 2.86-4 6.56-9.76 14-18.52 25.23-23.25 1.09-.46 3.4-.41 2.7-2.07-.88-2.05-2.65-.14-3.75.35-12.84 5.71-21.37 15.83-28 27.83-2.15 1.45-1.68 6.46-6.93 4.39 10.89-17.65 22.54-33.88 44.59-38.09zm-69.61 30.55c11.62-16.49 26.51-28.66 46-34.64a4.77 4.77 0 0 1 1.46-.2 12.13 12.13 0 0 1 2.26.82l-21.45 9.39a89.82 89.82 0 0 0-26.48 25.8c-.47.67-.85 2.15-2.11 1.3s-.18-1.81.32-2.51zm16.34 134.64c-15.29-4.55-25.36-14.91-31.33-29.26-9.58-23-8.48-46.42-1.6-69.87a134.07 134.07 0 0 1 10.28-24.81c.88-1.67 1.69-3.43 4.2-4l-2.61 5c-11.13 21.94-17.44 44.93-14.4 69.74 2.2 18 8.13 34.29 23.68 45.44 4.6 3.3 10 5 15.25 6.9-1.08 2.19-2.41 1.13-3.47.82zm157.45-170.75c8-2.53 15.7 1.91 17.31 10.2 1.43 7.42-.88 14.17-4.07 20.65-9.43 19.14-24.11 34.13-39.07 48.85-3.14 3.09-6.13 6.42-10.83 9.17 4.31-26.17 7.65-51.72 20.68-74.6 3.66-6.47 8.46-11.91 15.98-14.27zm-57.75 156.93c-2.55-11.48-3.26-23.15-3.42-34.87 1.69-.07 1.77-.08 1.85 1.61a227.12 227.12 0 0 0 3.08 30.9c.24 1.33.14 2.31-1.51 2.36zm1.86-89c-.21 1.28-.11 2.65-1.06 3.72l-3.15 39.21c-2.11-1-1.18-2.9-1.13-4.38l1.05-23.35c1.57-3.68-.46-8.37 3.17-11.48-2.34-2.57-.59-5.35-.13-7.89 3.53-19.36 8.36-38.31 19-55.24 5.4-8.61 12-15.88 21.92-19.53a24.79 24.79 0 0 1 10.22-1.72c.09 1.12-.16 1.87-1.52 2-15.16 1.21-23.72 11.29-30.65 23.24-9.98 17.14-14.44 36.12-17.72 55.45zm45.27 99.85c-2.59-4.07-3.28-8.7-3.34-13.37-.11-8.15 0-16.3.14-24.44a44.33 44.33 0 0 0-1.63-13.8c-1.75-5.71-4.55-10.37-11.24-11.11a1.19 1.19 0 0 1-1.15-1.33c4.6-1 9.1 1.29 11.94 6.21a32.09 32.09 0 0 1 3.9 16.31l-.18 25.45a35.41 35.41 0 0 0 1.18 9.36c1.87 6.9 3.14 8.19 9.83 9.07-3.01 2.49-6.99 1.55-9.45-2.32zm72.8-57.73c-.89 14.3-3.77 28.5-1.91 43-2.09-2.55-2.21-5.53-2.36-8.54-.61-12 1.81-23.82 2.16-35.76.07-2.16.1-4.31.1-6.47 0-5.88-1.16-11-8.29-12.53 5.41-1.2 8.85 1.64 10 7.89a50.6 50.6 0 0 1 .3 12.44zm65.77 40c-7.47-8.09-10-18.14-11.37-28.65-1.72-13-.82-25.79 1.28-38.66 2.39.38 1.41 1.8 1.32 2.75-1.37 14.6-2.53 29.17.79 43.7a50.91 50.91 0 0 0 9.08 19.72zm69.34-72.49a1.29 1.29 0 0 1 1.23.23c.78.91-.09 1.5-.66 2-2.64 2.28-4.37 5.26-6.84 7.8.36-4.41 3.13-7.36 6.27-10.03zm-1.12 50.64c-5.38-5-9.6-10.94-8.89-19 2.57 10.49 9.33 17.72 17.64 24 6.13 4.61 12.19 9.39 17.2 15.65-.87.3-1.32.58-1.45.48-8.21-7.04-16.6-13.83-24.5-21.15zm26.83 35.07c-.29 3.6-1.34 6.93-4.7 8.77-2.66 1.46-5.57 1.36-7.8-.94s-1.61-4.93 0-7.3c2.06-3.12 5.25-5 8.22-7.12 1.76-1.25 2.68-.61 3.2 1.27s1.35 3.4 1.08 5.32zm65-148.71l4-23a10.26 10.26 0 0 1 1-2c1.21 4.28-.14 7.83-.69 11.4l-2.14 13.39c-.15 1 0 2.13-1.39 2-1.01-.05-.91-1-.78-1.79zm-5.25 88.3a411.47 411.47 0 0 1 2.28-58.68c.12-7.37 1.58-14.59 2.54-21.86.11-.83-.22-2.31 1.29-2.13s.89 1.47.68 2.31c-1.89 7.77-2.26 15.72-2.74 23.65l-1.59 23.13c-.36 9.29-.32 18.6-.49 27.9-.03 1.75.54 3.68-1.97 5.68zm1.44 6.29c2.1 16.41 4.27 32.73 13.89 47.65-7.95-4.24-17.32-36.78-13.89-47.65zm70.53 30.41c-4.25-8.14-5.25-17-5.64-26-.3-6.78-.67-13.62 1.08-20.31 1.59 1.89.15 4.26 1 6.27-.38 13.1.07 26.1 4.64 38.61a50.3 50.3 0 0 0 14.16 18.29 28.38 28.38 0 0 1-15.24-16.86zm100.41-46c3.06 1.2 4.33 3.95 4.73 7.08 1.14 8.87-6.95 22.39-15.27 25.46-.69.25-1.22-.29-1.54-.94.09-10.87-.85-22.07 10-29.22-1.71-1.41-2.8-.33-3.85.37-3.5 2.33-5 5.95-6.46 9.72-2.73 7.2-1.55 14.7-1.9 22.08-1.37.25-2.64.48-2.78-1.59-.68-9.71-.33-19.24 4.87-27.9a15.61 15.61 0 0 1 2.87-3.41 8.49 8.49 0 0 1 9.33-1.65zm-39.34 38.26c-5.6-18 2.08-40.21 17.19-49.75 3.7-2.69 8.25.15 12-1.84.61 1.75-.33 1.93-1.75 1.83-7.79-.53-13.24 3.51-17.8 9.2-11.6 14.48-12.63 36.89-2.36 50.7a36.11 36.11 0 0 0 17.12 12.36c1.61.6 3.64.61 4.74 2.51-11.04.38-24.93-11.63-29.14-25.06zm-190.19 40c-2-1.43-1-2.62-.73-3.64 1.17-4.14 1.39-8.22-.41-12.24-.42-.94-1.24-2.07.23-2.59s1.58 1 1.89 1.89a20.16 20.16 0 0 1-.98 16.56zm-190.82-89.5c-5.65-3.25-9.29-7.89-9.5-14.57-.12-3.93 1.56-6.84 5.48-8.07 4.1-1.29 7 .82 9 3.94a25.76 25.76 0 0 1 4.2 14.78c-.23 1.76 0 5.16-1.7 6.18m427.99 8.63c1.77 14.79-6.88 24.8-16.26 34.52 9.25-6.37 16.1-14.25 17.84-25.6 2-13.92-4.47-24.82-14.86-24.24 7.71 2.41 11.46 8.07 13.28 15.32zm7.75 34.35c-1.36.06-2.27.73-2.17 2.16.12 1.6 1.3 2.19 2.66 2.39 1.57-.08 2-1.15 2.1-2.37.11-1.83-1.08-2.27-2.59-2.18zm-16.3 6.41a1.63 1.63 0 0 0 1.7 1.41 1.6 1.6 0 0 0 0-3.19c-1.15-.02-1.84.58-1.7 1.78zm84.92 2.8c-1.16 0-1.85.58-1.71 1.77a1.63 1.63 0 0 0 1.7 1.42 1.6 1.6 0 0 0 0-3.19z"/><path d="M964.06 344.78c-4.35-.29-7.77 1.1-10.11 4.38l-5.27-2.45a6 6 0 0 0-6.94.78c-4.38 3.9-4.67 8.17-.06 12.49 3.23 3 7.25 5.4 9.54 9.24 1.79 3 4.11 3 6.39.19 3.36-4.15 6.53-8.41 9.83-12.59a9.73 9.73 0 0 0 2-7.49c-.35-2.74-2.24-4.35-5.38-4.55zm-12.13 22l-.13-.13a23.24 23.24 0 0 0-6-6.11 21.78 21.78 0 0 1-3.08-2.59 7 7 0 0 1-2-3.37 4.5 4.5 0 0 1 .57-3.66 4.79 4.79 0 0 1 3.56-2 4.25 4.25 0 0 1 2.74.59l.09.06h0 0a1.1 1.1 0 0 1-1.54.14 3.13 3.13 0 0 0-2.88.59c-.67.91-1.83 2-1.71 3.05a7.1 7.1 0 0 0 2.64 4.65c1.13 1 2.34 1.87 3.52 2.79a21.51 21.51 0 0 1 4.77 5.08c.08.11.15.23.24.37zm18.02-7.23c-.12.16-.33.25-.31.62.6-.19 1.27-.06 1.75-.64a19 19 0 0 0 4.06-7.69c1.25-5.11-.85-10.35-4.6-11.44a8.78 8.78 0 0 0-5.27.5l-.16-.06a.81.81 0 0 0-.61.37l.64-.16c.06.2.2.07.31.06a6.77 6.77 0 0 1 3.85.33c3.52 1.6 5.17 7 3.63 11.93a20.37 20.37 0 0 1-3.29 6.18zM517.36 96.61c-.33-2.74-2.22-4.34-5.36-4.55-4.35-.28-7.76 1.1-10.11 4.38l-5.27-2.45a6 6 0 0 0-6.93.79c-4.39 3.89-4.67 8.16-.07 12.49 3.23 3 7.26 5.4 9.55 9.23 1.78 3 4.1 3 6.39.19 3.35-4.15 6.53-8.4 9.82-12.59a9.74 9.74 0 0 0 1.98-7.49zm-17.49 17.41l-.12-.14a23.25 23.25 0 0 0-6-6.1 21.77 21.77 0 0 1-3.07-2.6l-2-3.37a4.5 4.5 0 0 1 .57-3.66 4.81 4.81 0 0 1 3.56-2 4.32 4.32 0 0 1 2.74.59l.09.06v.05h0a1.1 1.1 0 0 1-1.53.14 3.11 3.11 0 0 0-2.89.58c-.67.92-1.82 2-1.7 3.06a7.13 7.13 0 0 0 2.63 4.65l3.53 2.78a22 22 0 0 1 4.77 5.09l.23.36zM133.72 31.99c.29-.18.53-.05.89-.17a.71.71 0 0 0-.87-.12c-.32-.08-.32.11-.35.25s.2.06.33.04zM72.64 76c-2.35-.82-4.4.37-6.54.73L51.79 83.2l-3.91 3c-11.59 9.18-17.33 20.78-14.15 35.79 1.27 6 3.94 11.35 9.32 15.17 1-1.78 0-2.41-.64-3.17-9.78-11.49-10.21-26.26-1-38.29 6.91-9.06 16.45-14 27.07-17.24 1.49-.5 3.62-.15 4.16-2.46zm524.3 64.28c-10.69.07-19.51 15.82-18.47 31.77 1.09 16.66 10.47 28.89 21.53 27.24-14.5-4.12-19-15.18-19.49-28.39-.45-13.01 3.56-24.27 16.43-30.62zm-76.14-7.6c-1.6 9.76-3.07 19.54-3.34 29.43-.24 8.83-.4 17.69 2.65 26.2 2.43 8.21 6 10 11.35 5.37 5.12-4.44 8.72-10.12 12-16 .38-.67.39-1.43-.87-2.05-2.61 3.8-5.13 7.75-8 11.47-2.21 2.91-4.33 6.94-8.44 6.46s-3.71-5.22-5.24-8.13h0c-3.08-18.3-.41-36.47 2-54.88-1.88.35-1.97 1.24-2.11 2.13zm-85.56-7.3a23.64 23.64 0 0 1 7.16 9.6c4.28 9.91 4.05 20.1 1.85 30.42-.28 1.33-1.38 2.71 0 4.13 2-.48 1.7-2.37 2-3.64a52.36 52.36 0 0 0-.58-28.39 27.45 27.45 0 0 0-8.95-13.69c-.84-.68-2-2.2-3-1s.71 1.94 1.52 2.57zm5.84 104.28c6-9.59 6-20.14 4.37-30.86-.15-.95-.3-2.47-1.66-2.2s-.77 1.62-.53 2.57a39.29 39.29 0 0 1 .55 16.92c-1.63 9.1-5.2 16.9-14.52 20.53-.87.34-1.7.63-1.45 2.53a19.86 19.86 0 0 0 13.24-9.49zm-116.98 7.99c-.08.06 0 .28-.23 1.67a21.48 21.48 0 0 0 14.24-10.94c5.05-9.23 5.3-19.15 3.66-29.27-.17-1.05-.19-2.89-1.77-2.46s-.52 2-.31 3c3.48 17.69-.77 28.05-15.59 38zm275.52-111.59a17.72 17.72 0 0 1 10.19 6.89c4.44 5.79 5.49 12.49 4.79 19.59-.13 1.35-1.29 2.85.72 4.37 4.22-10.69-.1-24.69-9.35-30.5a29.76 29.76 0 0 0-5.69-2.57c-1-.38-2.66-.89-3 .76-.21 1.39 1.44 1.25 2.34 1.46zm-190.9 8.16c.84-.69 2.79-1.18 1.85-2.5s-2.36.14-3.31.86c-9.34 7.06-7 22.85 4.82 28.47-.88-3.07-3-4.09-4.43-5.71-5.86-6.77-5.43-15.71 1.07-21.12zm-102-2.72c-.47-.7-1.16-.31-1.56 0a18.62 18.62 0 0 0-3.46 2.77c-7.27 8.21-4.63 20.46 5.73 26.56.61-.92.48-1.44.06-1.95-10.44-12.57-10.45-12.8-1-25.75a1.26 1.26 0 0 0 .23-1.63zm-74.29-5.78c3.75 1.49 6 4.55 8.15 7.7l-.14.89c2 4 1.88 8.33 2.2 12.6a31.88 31.88 0 0 1-2.24 8.08c-2.92 6.85-7.73 12.17-12.81 17.28-1.07 1.08-1.82 1.68-.77 3.71 8.49-7.23 15.59-15 17.3-26.38 1.73-6.39.31-12.3-2.65-18-1.09-4.31-4.79-6-8-8.14-1.16.3-2.9-1.31-3.44.43-.53 1.61 1.43 1.45 2.4 1.83zm98.62-.59c3.11 2.15 5.09 5.26 7.12 8.33 5.34 11.77 4.46 23.94 1.28 37.19 6.17-5.93 5.95-31.29-.32-39.07-1.2-3.51-3.79-5.9-6.54-8.14-.74-.6-1.74-1.71-2.65-.67s.35 1.83 1.11 2.36zM36.72 66.66c1.51.08 1.78-1.28 2.05-2.5 0-1.69-1-2.38-2.54-2.31-1.26 0-2.41.57-2.4 2.06a2.7 2.7 0 0 0 2.89 2.75zM268.97 38.5c1.48.13 1.88-1.1 2.08-2.32a2.09 2.09 0 0 0-2.34-2.48c-1.25 0-2.39.56-2.46 2-.09 1.8 1.14 2.7 2.72 2.8zm-103.57 65c-1.61 0-2.54.87-2.35 2.51a2.64 2.64 0 0 0 2.67 2.49c1.69-.26 2.07-1.52 2-2.93a2 2 0 0 0-2.32-2.07zm153.44-68.85a2.5 2.5 0 0 0 2.88-2.15c.22-1.62-.8-2.37-2.27-2.59-1.54 0-2.6.69-2.54 2.33 0 1.17.46 2.37 1.93 2.41zM515.98 62.5c1.55 0 1.77-1.32 2-2.65a2.411 2.411 0 0 0-4.81.34 2.44 2.44 0 0 0 2.81 2.31zm-93.43-27.87c1.68-.11 2.78-.82 2.87-2.4a2.08 2.08 0 0 0-2.19-2.28c-1.55-.09-2.64.56-2.56 2.27.05 1.28.52 2.34 1.88 2.41zm183.31 136.74c.13 1.53 1.09 2.37 2.85 2.59a2.37 2.37 0 0 0 1.81-2.46c.09-1.73-1-2.39-2.51-2.35-1.4.01-2.29.75-2.15 2.22zm-429.44-27.46c-1.32.07-2.27.62-2.22 2.13a2.6 2.6 0 0 0 2.5 2.6c1.71.2 2.14-1.12 2.3-2.67-.01-1.64-1.08-2.14-2.58-2.06zm71.39 25.21c-1.38 0-2.31.66-2.26 2.12a2.5 2.5 0 0 0 2.48 2.62c1.78.09 2-1.44 2.25-2.7a2.21 2.21 0 0 0-2.47-2.04zm-93.61-1.5c-1.38.1-2.29.89-2.15 2.27a2.65 2.65 0 0 0 2.6 2.49c1.61-.08 2-1.26 2.05-2.46.09-1.64-.88-2.42-2.5-2.3zM489.25 34.25c1.45 0 2.07-.81 2.27-2.12.23-1.61-.38-2.59-2.06-2.61-1.4 0-2.69.37-2.7 2.12-.04 1.59 1.18 2.2 2.49 2.61zM270.88 204.27a2.18 2.18 0 0 0-2.38 2.43c.32 1.22.72 2.39 2.24 2.24a2.46 2.46 0 0 0 2.42-2.59 2 2 0 0 0-2.28-2.08zm103.72-.02a2.08 2.08 0 0 0-2.26 2.56c.15 1.27.69 2.34 2.21 2.13a2.53 2.53 0 0 0 2.41-2.72 2 2 0 0 0-2.36-1.97zm-239.44 51.56a1.92 1.92 0 0 0-2.19 1.89 2.42 2.42 0 0 0 2.22 2.81c1.75.28 2.31-1 2.43-2.44s-.81-2.1-2.46-2.26zm96.9-31.66a1.52 1.52 0 0 0-1.36 1.89 1.88 1.88 0 0 0 2.11 1.76c.93-.12 1.33-1 1.36-2a1.73 1.73 0 0 0-2.11-1.65zm-38.34-137.5c1-.08 1.4-.94 1.35-1.89a1.54 1.54 0 0 0-1.67-1.61c-1 .12-1.67.66-1.64 1.67a1.71 1.71 0 0 0 1.96 1.83zm297.51 175.73a1.77 1.77 0 0 0 2 1.87c1-.07 1.48-.88 1.47-1.9a1.67 1.67 0 0 0-1.82-1.6 1.48 1.48 0 0 0-1.65 1.63zm58 4.74a1.78 1.78 0 0 0 2 1.49 1.67 1.67 0 0 0 1.56-1.83 1.55 1.55 0 0 0-1.71-1.64c-1.29.01-2.09.7-1.85 1.98zm-482.91-99.3c.29.56.6 1.36 1.61 1.48s1.58-.55 1.65-1.51a1.5 1.5 0 0 0-1.45-1.77c-1.02-.1-1.56.54-1.81 1.8zm552.08 85.07c0-1-.85-1.45-1.81-1.39a1.52 1.52 0 0 0-1.63 1.6 1.89 1.89 0 0 0 1.68 1.73c1.29.1 1.79-.84 1.76-1.94zM3.17 31.19a1.4 1.4 0 0 0-1.6-1.23c-1 .1-1.76.59-1.54 1.7a2 2 0 0 0 1.88 1.64 1.86 1.86 0 0 0 1.26-2.11zM373.2 253.32c.09-1-.27-1.76-1.46-1.86-.82.25-1.77.5-1.61 1.66.12.93.63 1.79 1.7 1.72a1.56 1.56 0 0 0 1.37-1.52zm77.73-133.73a1.53 1.53 0 0 0 1.55-1.27 1.45 1.45 0 0 0-1.26-1.91 1.37 1.37 0 0 0-1.58 1.2 1.61 1.61 0 0 0 1.29 1.98zM4.58 138.99a1.51 1.51 0 0 0-1.47 1.81 1.6 1.6 0 0 0 1.73 1.6c1-.06 1.46-.84 1.5-2a1.64 1.64 0 0 0-1.76-1.41zm558.14-67.96c1.21.11 1.37-.85 1.45-1.75a1.51 1.51 0 0 0-1.85-1.45 1.38 1.38 0 0 0-1.29 1.51 1.66 1.66 0 0 0 1.69 1.69zM186.18 254.74a1.4 1.4 0 0 0-1.66 1.11 1.62 1.62 0 0 0 1.29 2c1.07.29 1.65-.33 1.9-1.34a1.49 1.49 0 0 0-1.53-1.77zm289.14-44.5a1.64 1.64 0 0 0 1.5 1.79 1.57 1.57 0 0 0 1.74-1.54c.14-1-.51-1.57-1.74-1.77a1.55 1.55 0 0 0-1.5 1.52zM278.16 107.28c.88-.06 1.09-.77 1.16-1.76a1.52 1.52 0 0 0-1.71-1.29c-.77 0-1.42.42-1.4 1.29a1.64 1.64 0 0 0 1.95 1.76zm101.86-49.16a1.38 1.38 0 0 0 1.25-1.56c0-.89-.63-1.27-1.42-1.42-.7.24-1.47.52-1.48 1.4a1.41 1.41 0 0 0 1.65 1.58zm44.7 105.13a2.25 2.25 0 0 0-1.5 1.25 1.52 1.52 0 0 0 1.32 1.91c1.06.18 1.5-.59 1.74-1.85-.2-.53-.47-1.48-1.56-1.31zm-105.18 1.25a1.55 1.55 0 0 0 1.43 1.87c.82.08 1.29-.61 1.35-1.42s-.22-1.42-1-1.58c-.92-.02-1.6.4-1.78 1.13zM41.09 210.28c8-6.49 17.48-10.13 27-13.68 1.5-.56 3.77-.25 4.05-2.74-1.58-.57-2.9.65-4.4.63-3.63 1.11-6.82 3.42-10.69 3.81-7.42 4-15.1 7.57-21.06 13.83-8.54 9-9.52 19.51-2.3 28.26a34.35 34.35 0 0 0 17.91 11.22c.92.25 2 .92 2.8-1.08-5-2-10.2-3.71-14.56-7.13-10.66-8.38-11.73-19.41-2.65-29.44a35.68 35.68 0 0 1 3.9-3.68zm53.89-12.21c1.18.2 1.52-.61 1.73-1.61a1.47 1.47 0 0 0-1.5-1.72c-1-.05-1.78.42-1.8 1.47a1.77 1.77 0 0 0 1.57 1.86zm871.48-57.63a2.67 2.67 0 0 0 2.23-2.8c0-1.53-1.24-2-2.46-2.06-1.74-.07-2.26 1.17-2.19 2.69a2.1 2.1 0 0 0 2.42 2.17zM724.72 39.56c1.39.11 1.9-1.11 2.07-2 .26-1.89-.63-2.51-1.94-2.66s-2.42 0-2.57 1.62a2.52 2.52 0 0 0 2.44 3.04zm155.34 204.35a2.05 2.05 0 0 0-2.07-2.4c-1.66-.22-2.51.64-2.57 2.25 0 1.34.55 2.37 2 2.46a2.46 2.46 0 0 0 2.64-2.31zM762.16 59.99c1.22.28 1.82-.55 2.19-1.84a1.49 1.49 0 0 0-1.54-1.49 1.56 1.56 0 0 0-1.89 1.32 1.66 1.66 0 0 0 1.24 2.01zm124.56 46.34a1.79 1.79 0 0 0 1.74-1.61c.16-1.33-.8-1.78-1.89-1.76a1.48 1.48 0 0 0-1.48 1.74 1.55 1.55 0 0 0 1.63 1.63zm-88.69 37.74a1.88 1.88 0 0 0 1.78-2.1c0-1-.89-1.46-1.9-1.42s-1.55.8-1.54 1.77a1.57 1.57 0 0 0 1.66 1.75zm169.69 85.75a1.53 1.53 0 0 0 1.43 1.8 1.74 1.74 0 0 0 1.9-1.88c0-1.05-.74-1.46-1.94-1.63-.63.32-1.39.66-1.39 1.71zm-323.08 38.36a1.48 1.48 0 0 0-1.68-1.53c-1 .06-1.71.58-1.72 1.54a1.73 1.73 0 0 0 2 1.81 1.57 1.57 0 0 0 1.4-1.82zm10.08-195.91c1.11.05 1.53-.65 1.54-1.68a1.49 1.49 0 0 0-1.76-1.52c-1 0-1.75.56-1.61 1.64a1.75 1.75 0 0 0 1.83 1.56zm69.93 24.02c-1 .14-1.62.7-1.45 1.8a1.71 1.71 0 0 0 1.77 1.63c1.16 0 1.38-1 1.39-1.91.01-1.08-.64-1.6-1.71-1.52zm16.71 123.8a1.6 1.6 0 0 0-1.62-1.7c-1.11-.12-1.6.6-1.66 1.59a1.44 1.44 0 0 0 1.52 1.72 1.64 1.64 0 0 0 1.76-1.61zM937.32 67.92a1.61 1.61 0 0 0 1.69-1.67c0-1.14-.73-1.52-1.67-1.73-1.21.11-1.34 1-1.31 1.93s.35 1.51 1.29 1.47zm-127 26.12c1.05 0 1.56-.66 1.68-1.66a1.61 1.61 0 0 0-1.84-1.48 1.39 1.39 0 0 0-1.37 1.44 1.43 1.43 0 0 0 1.53 1.7zM708.89 256.15a1.46 1.46 0 0 0 1.36-1.5c.07-1.1-.59-1.61-1.66-1.59s-1.78.5-1.62 1.6a1.69 1.69 0 0 0 1.92 1.49zm218.6-75.41c-1.56-3.87-1.36-7.15 2.48-9.72-3.68 2-6.54.69-9.45-1.86 2.15 3.31 1.16 5.75-2.62 8.55 4.89-1.3 7.74-.65 9.59 3.03zm-114.09 15.9c-2.39-1.42-2.76-3.14-2-5.33-1.65 1.85-3.84 1.72-6.23 1.55 2.94 1.12 2.11 3.15 1.71 6 1.9-2.98 3.95-3.11 6.52-2.22zm-281.91-35.53c1.4-.07 1.81-1 1.88-2.14.1-1.62-1-2-2.32-2s-2 .65-1.94 1.94c.1 1.48 1.16 2.01 2.38 2.2zm237.97-54.87c-1.56-3.86-1.36-7.15 2.48-9.71-3.68 2-6.54.68-9.45-1.86 2.15 3.3 1.16 5.75-2.62 8.54 4.85-1.3 7.74-.64 9.59 3.03zM623.47 71.1c-1.56-3.87-1.36-7.15 2.48-9.72-3.68 2-6.53.69-9.45-1.86 2.15 3.31 1.16 5.75-2.62 8.55 4.89-1.3 7.74-.65 9.59 3.03z"/><use xlink:href="#G"/><use xlink:href="#G" x="-133.45" y="-32.44"/><path d="M378.46 97.23c-1.56-3.87-1.35-7.15 2.48-9.71-3.68 2-6.53.68-9.45-1.86 2.16 3.3 1.17 5.75-2.62 8.54 4.9-1.3 7.75-.64 9.59 3.03zM251.43 108.5c-1.56-3.86-1.35-7.14 2.48-9.71-3.68 2-6.53.69-9.45-1.86 2.15 3.3 1.17 5.75-2.62 8.55 4.88-1.26 7.75-.61 9.59 3.02zm15.66-21.32c3.34 1.5 2.4 4.21 1.94 8 2.14-4 4.48-4.12 7.4-2.92-2.71-1.9-3.14-4.2-2.26-7.12-1.88 2.44-4.36 2.27-7.08 2.04zm-58.96-33.47c2.14-3.95 4.48-4.12 7.39-2.93-2.71-1.89-3.13-4.19-2.26-7.11-1.88 2.46-4.36 2.29-7.07 2.06 3.34 1.5 2.4 4.21 1.94 7.98zM81.22 108.22c4.9-1.3 7.75-.65 9.59 3-1.56-3.87-1.35-7.15 2.48-9.71-3.68 2-6.53.68-9.45-1.87 2.16 3.34 1.17 5.78-2.62 8.58zm-17.63 109.2c2.15 3.31 1.17 5.75-2.62 8.55 4.9-1.3 7.75-.65 9.59 3-1.56-3.87-1.35-7.15 2.48-9.71-3.68 2.02-6.53.71-9.45-1.84zm186.69 38.92c-1.88 2.46-4.36 2.29-7.07 2.06 3.34 1.5 2.4 4.21 1.94 8 2.14-4 4.48-4.12 7.39-2.93-2.71-1.91-3.13-4.21-2.26-7.13zm78.1 3.47c-3.26-2.09-3-4.83-1.62-8.23-3 2.62-5.6 3.8-8.92 2.37 3.19 2.32 3.49 5.29 2.53 8.78 1.95-3 4.35-4.35 8.01-2.92zm104.01-5.48c-3.68 2-6.53.68-9.45-1.86 2.15 3.3 1.17 5.75-2.62 8.55 4.9-1.31 7.75-.65 9.59 3-1.56-3.84-1.35-7.13 2.48-9.69zM583.5 228c-3.67 2-6.53.68-9.44-1.86 2.15 3.3 1.16 5.75-2.62 8.54 4.89-1.3 7.74-.65 9.58 3-1.56-3.84-1.3-7.12 2.48-9.68zm-62.1-3.38c3.19 2.32 3.48 5.29 2.53 8.77 1.95-3 4.3-4.35 8-2.91-3.27-2.09-3-4.83-1.62-8.24-2.99 2.62-5.59 3.8-8.91 2.38zm142.15 2.88c3.19 2.32 3.49 5.29 2.53 8.78 2-3 4.31-4.35 8-2.92-3.27-2.09-3-4.83-1.62-8.24-2.98 2.65-5.58 3.82-8.91 2.38zM512.72 89.4a6.74 6.74 0 0 1 3.84.32c3.52 1.6 5.17 7 3.63 11.94a20.61 20.61 0 0 1-3.29 6.18c-.12.16-.33.25-.31.61.6-.19 1.28-.06 1.75-.63a19 19 0 0 0 4.06-7.7c1.25-5.11-.85-10.34-4.6-11.44a8.67 8.67 0 0 0-5.26.51l-.17-.07a.82.82 0 0 0-.61.37l.64-.16c.05.17.19.07.32.07zm98.61 110.62c-12.81 6.35-26.85 1.27-32.56-11.82-5.82-13.34-4.94-26.61 1.51-39.49 2.48-4.95 6.27-8.75 11.82-10.32 9-2.55 15.91 2.71 15.83 12.06 0 2.1-.34 4.19-.35 6.28a1.89 1.89 0 0 0 1.93 2.06c1 0 1.48-.73 1.85-1.63 4.51-11.07-2-24.9-13.27-28.91-2.49-.89-5.19-.69-7.51-2-.51-1.18-1.74-.56-2.54-1h-9l-2.86.87c-2.44-.16-4.54.76-6.68 1.87-16.73 8.68-22.88 23.47-22.59 41.28.11 6.91-1.89 12.55-5.23 18.1-2.94 4.89-6.09 9.66-11.16 12.66-5.7 3.39-10.83 1.94-13.84-4a31.43 31.43 0 0 1-3.14-9.33 146.57 146.57 0 0 1 1.18-51.48c.72-3.71-.37-5.45-3.3-6.67a34.68 34.68 0 0 0-21.5-1.73 8.1 8.1 0 0 0-6.62 7c-.92 5.16-1.87 10.26-4.19 15.09-8.8 18.38-24.08 29.76-41.21 39.23-1.08.6-2.07 1.13-3-.35-6.16-9.6-15.72-15.41-24.44-22.18-5.22-4.06-10.2-8.49-11.78-15.37-1.54-6.68-.65-12.94 4.51-17.85 5-4.75 10.89-5.05 17.12-2.8 8.25 3 13.26 9 15.46 17.34 2.12 8 .54 15.76-1.76 23.47-.41 1.38-2.1 3.15.24 4.28 2.15 1 3.72-.21 4.9-2 1.54-2.3 2-5 2.48-7.64 1.75-10.35 2.62-20.68-2.85-30.26-6.84-12-21.62-17.74-37.48-14.86-14.47 2.63-23.46 11.79-26.13 27a23.15 23.15 0 0 1-3.21 8.29c-9.21 14.91-22.86 24.66-37.82 32.89-1.08.59-2.08 1.14-3-.33-6.09-9.68-15.7-15.43-24.4-22.22-5.22-4.07-10.14-8.51-11.82-15.35s-.6-12.92 4.5-17.84c4.95-4.77 10.86-5.06 17.1-2.85a25.19 25.19 0 0 1 16.38 22.16c.43 6.72-.89 13.13-2.92 19.45-.38 1.21-1.34 2.6.48 3.49a3.32 3.32 0 0 0 4.07-.88 9.65 9.65 0 0 0 2.52-4.71c2-8.69 3-17.46 1.09-26.31-1.63-7.34-5.43-13.39-11.78-17.4-12.53-7.89-25.8-8.32-38.86-1.93-12.06 5.9-16.09 17-16.63 29.78a21.56 21.56 0 0 1-1 6.64c-3.42 9.3-7.17 18.47-13.21 26.43-3.81 5-7.92 9.77-14.1 12-9.43 5.17-19.42 2.93-25.56-5.78a29.88 29.88 0 0 1-4.62-9.17c-.41-1.46-1.74-3.41.43-4.31 2.76-1.16 1.55 2.18 2.76 2.92 3.15 12.35 16.45 20.9 23.18 14.81-2.65-1.13-5.67.46-8.18-1.19-4.27-.69-7.22-3.24-9.64-6.68-2.09-3-3-6.49-4.49-9.71a2.22 2.22 0 0 0-.17.9 2.22 2.22 0 0 1 .17-.9c-.56-2.42 1.5-2.9 2.85-4 12.36-9.69 23.09-20.27 20.32-38.13-2.56-6-7.14-9.61-13.36-11.21a1.61 1.61 0 0 1-2.06-.53 7.37 7.37 0 0 0-1.59-.47c-7.2-1.88-14-.55-20.59 3.05a17 17 0 0 0-6.35 4.45c-7.2 6.41-10.73 14.78-12.34 24a13.42 13.42 0 0 1-3.86 7.74c-3.94 3.92-8.72 6.59-13.27 9.62-7 2.58-13.91 5.3-21.29 6.67-2.77.51-3-.4-2.66-2.7.9-5.31 1.88-10.63 2.52-16 4-33.54 3.3-67.1-.14-100.63-.52-5-.86-10.13-2.3-15.25a8.94 8.94 0 0 1 1.83-2c1.34-1 2.34-2.16 3.69-3.15.07.06.18 0 .3 0 .22.18-.05.57.26.71 0 .19.2.25.43.28.11.21 0 .54.2.7 0 .25.22.33.43.44 0 .22-.24.49-.08.68 0 .24.23.32.39.45-.05.17-.09.33-.13.49-.16.38.05.61.26.83-.23.24-.07.38 0 .55s0 .36.12.49l.1.27a1.33 1.33 0 0 0 .37.8 1 1 0 0 0 1.09.42c.36-.1.47-.33.64-.54s.44-.34.29-.52a.17.17 0 0 0 0-.1l.08-.14c.15-.45.63-.92.59-1.36l.09-.25c.12-.06.27-.1.23-.22a1.71 1.71 0 0 0 .24-1.06l.22-.25h0c.6.37.78 1 1.25 1.45.06.09 0 .23.22.24h0c.1.2.21.39.31.58s.11.18.25.21a4.29 4.29 0 0 0 1.15 1.69h0l.24.42c.1.1.06.28.26.32h0 0 0a1.14 1.14 0 0 0 .34.59l1.75 2.37a7 7 0 0 0 1.64 2.46.61.61 0 0 0 .71.18 1.22 1.22 0 0 0 .74-.65l.16-.32c.63.22.78.74 1.06 1.17a2.85 2.85 0 0 0 1.12 1.11 1.61 1.61 0 0 0 1.65-.16 1.86 1.86 0 0 0 .65-.7 5.43 5.43 0 0 1 1.24-1.69c.29-.13.5 0 .79-.13a1.39 1.39 0 0 0 1.27-.75 3 3 0 0 1 1-.92h0a2.31 2.31 0 0 1 1.35.2 5.55 5.55 0 0 1 1.58 1.46 13 13 0 0 1 1.48 2.72v.09c.05.12.11.24.16.35l.09.18c.09.68.82 1 1.18 1.52a1.76 1.76 0 0 0 1.22.53 1.83 1.83 0 0 0 1.59-.71.81.81 0 0 0 .25-.63 2.32 2.32 0 0 0-.86-2c-1.23-1.38-2.86-2.51-3.78-4.08-.3-.73-1.07-1.19-1.43-1.88a13.44 13.44 0 0 1-.88-1.93c-.18-.23-.08-.54 0-.83a3.29 3.29 0 0 0 0-1.08 2.26 2.26 0 0 1 .92-1.09c.28-.19.51-.46.39-.7.15-.76-.43-1.16-.91-1.6a4.4 4.4 0 0 1-.64-2.15 2.08 2.08 0 0 1 .62-1.68.63.63 0 0 0 .41-.65c0-.74-.56-1.18-1.12-1.6a3.38 3.38 0 0 1-1.43-2.61c0-.62 0-1.29-.55-1.71a6.89 6.89 0 0 0-2.1-1.12 19.45 19.45 0 0 0-2.94-1.55 2.76 2.76 0 0 0-1-.41 8.3 8.3 0 0 0-2.46-.67 2.43 2.43 0 0 0-1.27 0 1.22 1.22 0 0 0-.68 0 .06.06 0 0 0-.05 0 5.39 5.39 0 0 1 1.2-.6 4.56 4.56 0 0 0 1.84-1.27 6.57 6.57 0 0 1 .67-.51 5.14 5.14 0 0 0 2.32-2.59 2.4 2.4 0 0 0 .34-1.21c-.07-1.32-1-2.27-1.16-3.54a1.08 1.08 0 0 0-.25-.93 5.52 5.52 0 0 1-.85-1.9 3.78 3.78 0 0 0-.69-1.62 2 2 0 0 1-.38-.92c-.07-.3-.12-.61-.21-.9a37.17 37.17 0 0 1-1.84-5.91 5.59 5.59 0 0 1-.26-2V3.1l-.24-.53c-.1-.2-.19-.4-.29-.61l-.24-.52-.33-.7-.12-.26c-.23.07-.25-.06-.33-.13a1.91 1.91 0 0 0-1.35-.5h0a2.79 2.79 0 0 0-1.76.31 4.64 4.64 0 0 0-1.76 1 11.55 11.55 0 0 0-2.55 1.73l-.29.15c-.15.12-.33.22-.39.38a5.42 5.42 0 0 0-1 .89c-.15.18-.3.35-.46.52a4.38 4.38 0 0 0-.93 1.2h0l-.07.1a1.84 1.84 0 0 0-.41.66 6.58 6.58 0 0 0-.78 1.33 9.11 9.11 0 0 0-.83 1.65 1.54 1.54 0 0 0-.39.73 27.85 27.85 0 0 0-1.82 12 4.72 4.72 0 0 0 0 1.83 7 7 0 0 0 .24 3.53c-.14.18 0 .29 0 .43-.17 0-.16-.13-.24-.2a.57.57 0 0 0-.35-.38s0-.06-.05-.07c-.06-.23-.3-.34-.48-.49a27.49 27.49 0 0 0-5.54-2.85 1.42 1.42 0 0 0-.64-.35l-.34-.25h0a.54.54 0 0 0-.38-.16c-1.36-.89-3.13-1.09-5.51-.29-.28.09-.76.17-.76.39s.41.28.82.18l.37-.08c1.88-.44 3.71-.79 5-.05a.54.54 0 0 0 .38.16c0 .14.2.18.34.24a1.29 1.29 0 0 0 .65.36 3.43 3.43 0 0 0 1.3.74 18.48 18.48 0 0 1 4.54 2.57l.07.07.24.52c0 .22.15.37 0 .62l-.79.18a4 4 0 0 0-1 .5l-.27.2a2.91 2.91 0 0 0-1.06 1.24h-.27a17.51 17.51 0 0 0-3.83.52l-2.24.1a3.18 3.18 0 0 0 2.11.07 28.3 28.3 0 0 0 3.77-.59l.41.1a3.45 3.45 0 0 0-1.81 1.4l-.61.16a8.78 8.78 0 0 1-1.62.37l-2.57.13a1.43 1.43 0 0 0-1.34-.11c-.11 0-.23-.1-.35 0s.1.12.08.22h0l-.25.17c.28-.12.4.17.71-.06l.95-.1a6.05 6.05 0 0 0 2.56.05l2.24-.4.22.16h.06l.07.05c0 .16.2.19.43.15.07.08.21 0 .33 0 .1.13.27 0 .44-.05.1.34-.22.77-.16 1.12s-.33.64-.1.79.78-.25 1.15-.2c-.19.49-.37 1-.58 1.46-.07.19-.27.4.16.34a1.39 1.39 0 0 0 .46-.56h0l.06.08c-.2.24.13.15.21.21v.05a13.59 13.59 0 0 1 1.45-.39.15.15 0 0 0 .12 0s0 .05.09.06c.1.4.71.49.77.92l-.27.22a3.7 3.7 0 0 0-1.49 1c-.25.23 0 .24.11.29l1 .39a6.74 6.74 0 0 0 3 .85.56.56 0 0 1 .28.5c-1.26 1.17-2.55 2.34-3.94 3.4a5.06 5.06 0 0 0-1.33 1.53l-.36-1.23c-2.17 1.7-1.06 3.42-.86 4.87a460 460 0 0 1 2.8 101.49c-.83 9.85-2.34 19.63-3.53 29.45h0c-.88 1.26-2.25 1.85-3.46 1.1s-.3-2.22-.13-3.33c.83-5.48 2-10.92 2.63-16.41 4-33.34 3.91-66.72.75-100.11-.53-5.51-1.49-11-2.46-16.43-1.07-5.94-3.58-6.9-8.72-3.63a20.29 20.29 0 0 0-6.23 5.74c-8.34 12.59-20.77 17.23-35 18.91-12 1.42-23.91 3.51-35.13 8.32s-20.68 11.4-25.22 23.38c-5.54 14.63-1.22 28.27 4.19 41.8 1.12 2.8 3.27 4.56 5.84 2.78s-.14-3.68-1.24-5.19c-14-19.17-7.79-44.56 13.5-55.2 3.93-3.32 8.73-4.84 13.43-6.55a88.59 88.59 0 0 1 10.83-3.46c11.92-3.42 24.57-2.72 36.52-6.7a13.37 13.37 0 0 1 .36 1.71 468 468 0 0 1-3.76 113c-.42 2.75-1.67 3.56-4.37 3.66a169 169 0 0 0-37.54 5.48c-12.5 3.35-24.39 8.05-34.15 17-6.85 6.25-11.63 13.69-11.72 23.38-.15 15.2 8.26 25 20.83 31.45 25.45 13.14 56.35 4.11 73.57-21 10.87-15.82 16.62-33.7 21.2-52.09.38-1.55.33-3.81 2.56-3.51 2.68.36.45 2.66 1 3.94-2.45 8-4.12 16.19-7 24.05-6.61 18.12-15.45 34.67-31.18 46.59-.76.58-1.8 1.12-1.1 2.43 15.88-7.05 35.34-40.77 40.14-69.4h0c2.14-2.57-.62-6.69 2.78-8.86 9.44-1.17 18.52-3.54 26.92-8.19 5-1.58 8.72-5.29 13.26-8.16l.25 2.66c1.73 14.36 6.86 26.78 20.15 34.14 19.5 10.8 45.08 3.59 58.76-16.28a101.9 101.9 0 0 0 10.84-21.44c2.12 4.68 4.17 8.67 7.17 12.08a76.15 76.15 0 0 0 9.8 9.2l15.48 12.22c2 1.57 2.3 2.79-.37 4.18a41.28 41.28 0 0 0-9.8 7c-8.42 8.21-6.66 19.55 3.86 24.84 8.85 4.45 23.63 2.33 30.6-4.72 9.15-9.24 9.72-20.57 6.37-32.21-1.23-4.28-.26-6 3.24-8a109.12 109.12 0 0 0 28.61-22.85c2.41-2.75 4.6-5.71 7.29-9.06 1.7 11.84 8 20.11 16.51 26.92q8.4 6.7 16.88 13.35c2.38 1.87 3.11 3.27-.37 5a37.25 37.25 0 0 0-9.06 6.54c-8.64 8.33-6.92 19.84 3.81 25.1 8.94 4.38 23.58 2.19 30.57-4.91 9.45-9.6 9.3-21.29 6.07-33.19-.92-3.35-.34-4.65 2.4-6.23 12.9-7.46 24.6-16.42 33.66-28.49 2-2.65 3.75-5.47 5.62-8.22a13 13 0 0 1 .8 5.09c.32 12.25 2.14 24.22 7.66 35.3 9.58 19.23 30.53 23.17 46.74 9 5.59-4.89 9.34-11.16 13.11-17.52 2.08 3.75 3.72 7.5 6 10.76 13.13 18.37 41 21.86 60 7.73 7.51-5.58 13-12.79 17.85-21.1v-9.49c-4.61 10.81-10.51 20.63-21.43 26.05zM37.58 248.5c-15.82-10.83-16.48-28.9-1.5-41.06a63.6 63.6 0 0 1 18.19-10.13 41.47 41.47 0 0 1 10.66-3.64h0a15.59 15.59 0 0 1 7.34-1.67c10-2.7 20.24-3.6 30.49-4.57 1.71-.16 3-.11 2.4 2.28-4.35 18.47-9.37 36.67-22.13 51.42-12.31 14.27-31.1 17.19-45.45 7.37zm71.44-51.33c-3.66 15.33-8.2 30.33-17.48 43.33-4.42 6.21-9.9 11.15-17.22 13.67-.89.31-2.16 1.26-2.77 0s.82-1.63 1.75-1.93c11.09-3.63 17.14-12.45 22.23-22.11 6.32-12 9.71-25 12.68-38.16.36-1.59.83-3.15 1.3-4.7.06-.18.49-.25 1.06-.53.47 3.76-.76 7.08-1.55 10.42zm3.7-18.6c-.11.74-.12 1.51-.3 2.23-.24.92-.17 2.44-1.69 2-1.08-.33-.52-1.51-.39-2.35 1.36-8.28 2.62-16.56 3.41-24.92a651.86 651.86 0 0 0 2.8-88c-.06-1.37-.77-3 .8-4.09 1.38.52 1.06 1.7 1.09 2.66 1.14 37.6.33 75.17-5.72 112.47zm114.13-38.76c4.72 1.62 6.64 7.78 4.58 15.24-2.13 7.73-6.94 13.46-13.6 17.73-1.06.68-2.12 1.44-2.46-.64h0v-9.36h0v-2.38l.26-2.48c.44-1.25.83-2.53 1.24-3.8a34.72 34.72 0 0 1 .32-.94 32.19 32.19 0 0 1 .68-1.87 21.48 21.48 0 0 1 1.27-2.65 12.52 12.52 0 0 1 4.17-4.39c.39-.24 1-.4 1.39-.68l.14-.11a.79.79 0 0 0 .19-.26 1.08 1.08 0 0 0-.2-1 1.1 1.1 0 0 0-1-.59 1.78 1.78 0 0 0-.73.18 4.57 4.57 0 0 0-.72.4l-.33.2a15.58 15.58 0 0 0-6.36 8.28 25.72 25.72 0 0 0-1 3.47c-1.45 1.52-.94 3.44-1.07 5.23h0c-.17.65-.31 1.3-.44 2l-.09.59c-.08.47-.15.94-.2 1.41l-.06.64c0 .48-.07 1-.08 1.45v.53c0 .66 0 1.31.05 2h0a28.36 28.36 0 0 0 .84 5.26c0 1.5-.51 2.81-2.29 2.56-1.4-.2-1.08-1.61-1.18-2.57-.87-8.31-.34-16.49 2.8-24.31 2.97-7.45 8.54-10.98 13.89-9.14zm-29.13-6.15l6.09-4.86a25.38 25.38 0 0 1 12.63-2.74c1 .8 1.49 2.19-.16 2.06-8.66-.64-14.45 4.23-19.71 10.25-1.28-2.31.45-3.35 1.15-4.71zm-6.83 10.6a10.1 10.1 0 0 1-2.66 7.58 13.51 13.51 0 0 1 2.7-7.58zm-2.17 37.77c-3-7.19-4.21-14.42-1.06-21.81-.53 6.72.52 13.28 2 19.81 4.93 12.83 14.51 20.57 27.56 24.49-9.62 1.8-24.78-10.59-28.5-22.49zm97.23-55.14c.6-.26 1.18-.41 1.51.23a1.25 1.25 0 0 1-.15 1.19c-2.92 2.71-4.91 6.21-7.61 9.59-.11-3.53 3.7-9.89 6.22-11.01zm1.65 54.08a35.94 35.94 0 0 1-12.46-19.24c-.51-2.06-.9-4.11 1.07-6.46 1.08 11.16 6.41 19.25 14.7 25.7 6.12 4.77 12.29 9.5 17.65 15.17 1 1 2.42 1.8 2.32 3.55-1 .87-1.68.07-2.28-.55-6.5-6.64-13.88-12.26-21.03-18.17zm17.09 42.93c-2.34.13-4.5-.44-5.83-2.57s-.87-4.31.46-6.31c2.3-3.44 5.7-5.62 9-7.84 1.36-.91 2.18-.54 2.58 1l1.21 4.8c.1 6.4-3.05 10.67-7.45 10.92zm10.12-1.28c-2-1.43-1-2.62-.74-3.63 1.17-4.15 1.4-8.22-.4-12.25-.42-.94-1.24-2.07.22-2.59s1.59 1 1.9 1.89a20.16 20.16 0 0 1-1.01 16.58zm76.1-95.78c-1.64 4.17-5.44 6.91-7.47 11-.16-5.34 3.43-8.34 7.44-11zm.68 54.33c-8.06-6.69-13.07-15.08-13.6-25.82-.13-2.56.14-5 2.11-7.08-1.58 14.59 4.51 25.29 15.81 33.74a124.94 124.94 0 0 1 16.28 14c1 1 2.31 1.9 2.42 3.53-1.11.89-1.74.08-2.34-.53-6.42-6.51-13.7-12.02-20.71-17.84zm16.5 42.74c-2.35 0-4.43-.66-5.64-2.87s-.66-4 .54-5.9c2.25-3.48 5.64-5.66 9-7.88 1.21-.8 2.2-.85 2.64.84l1.36 5.2c-.2 6.45-3.48 10.55-7.93 10.61zm10.43-1.48c-2-1.14-1-2.36-.71-3.36 1.16-4.15 1.42-8.23-.36-12.28-.39-.89-1.25-2.07.23-2.6 1.11-.41 1.39.87 1.69 1.64a19.15 19.15 0 0 1-.88 16.6zm162.37-95.34c2.62.41 5.29-.82 7.9.21-.2.75-.5 1.53-1.36 1.58a41.24 41.24 0 0 0-24.98 9.62c4.03-7.18 11.27-9.22 18.41-11.41zm-30.79 38.63a1.63 1.63 0 0 1-.55-1.48c2.16-6.34 2.38-13.42 7.17-18.8-1.39 6.5-4 12.7-5 19.28a1.17 1.17 0 0 1-1.65 1zm36.08 44c-.27 1.66-2.29.91-3.49.78a31.86 31.86 0 0 1-16.67-7 42.62 42.62 0 0 1-14.1-20.36c-.4-1.23-1.14-2.53.79-3.85 3.11 10 8.26 18.2 16.8 24a29 29 0 0 0 13.72 5c1.1.06 3.24-.55 2.92 1.43zm166.8-70.55c-4.06-.8-2.72 3.55-3.11 5.53-3.17 16.23-7.72 32-15.31 46.74-2.48 4.82-5.43 9.32-9.71 12.78-6.17 5-12.06 3.42-14.83-3.91a33 33 0 0 1-1.8-10.57 174.47 174.47 0 0 1 2.43-34c1.88-12 .44-14-11.77-15.3a7.22 7.22 0 0 0-1.79-.11c-2.23.3-3.42-.41-4.21-2.76-1.38-4.13-4.44-7-8.31-9-11.61-6-29.72-3.44-39.12 5.56-15.05 14.41-19 44.3-8.25 62.14 10.21 16.93 30.51 16.83 40.64-.23 1.36-2.28 2.49-4.7 4.35-8.25 1.12 6.38 2 11.67 3.64 16.77 5.42 16.75 20.9 22 35.26 11.81 5.85-4.13 10.17-9.7 13.76-15.81 10.07-17.15 15.55-35.89 18.88-55.32.31-1.99 2.64-5.4-.78-6.07zm-112 11.85c-1.49 3.54-2.39 7.32-3.57 11-.16 2.14 0 4.32-.87 6.36v6.63c1 4 1.2 8.22 2.65 12.19a29.84 29.84 0 0 0 8.71 13.3c.53.44 1.37.7 1.26 1.65a1.4 1.4 0 0 1-.19.39c-6.84-2-13.27-13.63-13.52-24.55a34.9 34.9 0 0 1 0-11.67 14 14 0 0 1 .87-6.3c2.93-20.75 20.28-35.45 31-32-.22.9-1 1-1.7 1.1-13.08 1.73-19.99 10.65-24.71 21.9zm43.22-2.49a128.46 128.46 0 0 0-2.43 25.43c-.06 6.92-2.16 13.26-5.29 19.28-1.56 3-3.88 5.63-7.63 5.38-3.92-.26-5.24-3.54-6.35-6.72-1.85-5.29-2.24-10.81-2.21-17.85.45-9.5 1.93-20.27 7.06-30.21 2.1-4.07 4.82-7.6 9-9.67a8.5 8.5 0 0 1 10.85 2.49c1.59 2.15 3.48 4.36-.56 6.32-2.08.99-2.09 3.52-2.51 5.52zm13.73 66c-6.28-5.37-8.62-12.82-10-20.52-2.5-13.83-1.87-27.67.66-41.45.13-.75.31-1.48 1.89-1.55l-1.42 13.93c-1 10.93-.84 21.84 1.66 32.55 1.94 8.35 5.81 15.58 14.27 19.51-3.27.96-5.27-.86-7.13-2.5zm-62.38-48.24l.34.72a1.22 1.22 0 0 0-.41-.74zm.87-6.3l.37.77a1.11 1.11 0 0 0-.44-.79zm78.57 40.79c1.14 2 3 2.24 5 1.84 1-.19 2.34-.41 2.16-1.72-.26-1.9-1.48-.71-2.27-.37-1.74.74-2.7-.59-3.88-1.35a19 19 0 0 1-1.49-6.67c-.88-15.38 1.76-30.56 2.75-45.87-2.1.13-1.81 2.13-1.91 3-1.65 14.24-3.83 28.47-2.82 42.87.08 2.89.1 5.99 2.39 8.25zm-45.9-7.05c.1-2.55-.83-4.56-1.65-6.59-2.11-14.14.24-27.68 5.41-40.85 2.1-2.61 3.21-6.09 6.61-7.55.79-.34 1.86-.78 1.11-1.88-.64-.92-1.69-.39-2.4 0a13.65 13.65 0 0 0-6.44 8.13c-6.61 14.44-9.27 29.33-5.2 45 .19 1.51.19 3.24 2.49 3.72zm-174.18 1.86c-6.37-9.75-7.83-20.86-8.59-32.1-.66-9.74.41-19.44 1.57-29.11a2.77 2.77 0 0 1 1.25-2.34c2.09 1.09.79 2.89.64 4.3-1.5 14-2.12 28 .52 42.05 1.07 5.67 3.49 10.78 5.72 16a67 67 0 0 0 11.65 12.67c-6.01-1.99-9.95-6.14-12.83-11.49z"/></g><defs ><path id="B" d="M1134.13 496.13c-1.16 0-1.85.58-1.71 1.78a1.63 1.63 0 0 0 1.7 1.41 1.6 1.6 0 0 0 0-3.19z"/><path id="C" d="M1066.21 363.28c-1.74-4.29-1.51-7.93 2.77-10.77-4.11 2.21-7.29.76-10.55-2.07 2.41 3.67 1.3 6.38-2.92 9.48 5.46-1.42 8.64-.71 10.7 3.36z"/><path id="D" d="M838.43 486.44c2.41 3.67 1.3 6.38-2.92 9.48 5.46-1.44 8.64-.71 10.7 3.36-1.74-4.29-1.51-7.93 2.77-10.77-4.11 2.21-7.26.76-10.55-2.07z"/><path id="E" d="M908.53 469.29c-2.09 2.73-4.87 2.54-7.9 2.29 3.73 1.66 2.68 4.67 2.17 8.85 2.39-4.38 5-4.57 8.26-3.24-3.03-2.11-3.51-4.69-2.53-7.9z"/><path id="F" d="M459.72 380.81c-3.64-2.32-3.34-5.36-1.81-9.14-3.34 2.91-6.25 4.22-10 2.64 3.56 2.58 3.89 5.87 2.82 9.74 2.24-3.33 4.86-4.83 8.99-3.24z"/><path id="G" d="M687.05 73.03c2.14-3.95 4.48-4.12 7.39-2.92-2.71-1.9-3.14-4.2-2.26-7.12-1.88 2.46-4.36 2.29-7.08 2.06 3.35 1.5 2.4 4.21 1.95 7.98z"/></defs></svg>