<svg id="Layer_1" data-name="Layer 1" xmlns="http://www.w3.org/2000/svg" xmlns:xlink="http://www.w3.org/1999/xlink" viewBox="0 0 1264.01 526.32"><defs><style>.cls-1{fill:url(#linear-gradient);}.cls-2{fill:url(#linear-gradient-2);}.cls-3{fill:url(#linear-gradient-3);}.cls-4{fill:url(#linear-gradient-4);}.cls-5{fill:url(#linear-gradient-5);}.cls-6{fill:url(#linear-gradient-6);}.cls-7{fill:url(#linear-gradient-7);}.cls-8{fill:url(#linear-gradient-8);}.cls-9{fill:url(#linear-gradient-9);}.cls-10{fill:url(#linear-gradient-10);}.cls-11{fill:url(#linear-gradient-11);}.cls-12{fill:url(#linear-gradient-12);}.cls-13{fill:url(#linear-gradient-13);}.cls-14{fill:url(#linear-gradient-14);}.cls-15{fill:url(#linear-gradient-15);}.cls-16{fill:url(#linear-gradient-16);}.cls-17{fill:url(#linear-gradient-17);}.cls-18{fill:url(#linear-gradient-18);}.cls-19{fill:url(#linear-gradient-19);}.cls-20{fill:url(#linear-gradient-20);}.cls-21{fill:url(#linear-gradient-21);}.cls-22{fill:url(#linear-gradient-22);}.cls-23{fill:url(#linear-gradient-23);}.cls-24{fill:url(#linear-gradient-24);}.cls-25{fill:url(#linear-gradient-25);}.cls-26{fill:url(#linear-gradient-26);}.cls-27{fill:url(#linear-gradient-27);}.cls-28{fill:url(#linear-gradient-28);}.cls-29{fill:url(#linear-gradient-29);}.cls-30{fill:url(#linear-gradient-30);}.cls-31{fill:url(#linear-gradient-31);}.cls-32{fill:url(#linear-gradient-32);}.cls-33{fill:url(#linear-gradient-33);}.cls-34{fill:url(#linear-gradient-34);}.cls-35{fill:url(#linear-gradient-35);}.cls-36{fill:url(#linear-gradient-36);}.cls-37{fill:url(#linear-gradient-37);}.cls-38{fill:url(#linear-gradient-38);}.cls-39{fill:url(#linear-gradient-39);}.cls-40{fill:url(#linear-gradient-40);}.cls-41{fill:url(#linear-gradient-41);}.cls-42{fill:url(#linear-gradient-42);}.cls-43{fill:url(#linear-gradient-43);}.cls-44{fill:url(#linear-gradient-44);}.cls-45{fill:url(#linear-gradient-45);}.cls-46{fill:url(#linear-gradient-46);}.cls-47{fill:url(#linear-gradient-47);}.cls-48{fill:url(#linear-gradient-48);}.cls-49{fill:url(#linear-gradient-49);}.cls-50{fill:url(#linear-gradient-50);}.cls-51{fill:url(#linear-gradient-51);}.cls-52{fill:url(#linear-gradient-52);}.cls-53{fill:url(#linear-gradient-53);}.cls-54{fill:url(#linear-gradient-54);}.cls-55{fill:url(#linear-gradient-55);}.cls-56{fill:url(#linear-gradient-56);}.cls-57{fill:url(#linear-gradient-57);}.cls-58{fill:url(#linear-gradient-58);}.cls-59{fill:url(#linear-gradient-59);}.cls-60{fill:url(#linear-gradient-60);}.cls-61{fill:url(#linear-gradient-61);}.cls-62{fill:url(#linear-gradient-62);}.cls-63{fill:url(#linear-gradient-63);}.cls-64{fill:url(#linear-gradient-64);}.cls-65{fill:url(#linear-gradient-65);}.cls-66{fill:url(#linear-gradient-66);}.cls-67{fill:url(#linear-gradient-67);}.cls-68{fill:url(#linear-gradient-68);}.cls-69{fill:url(#linear-gradient-69);}.cls-70{fill:url(#linear-gradient-70);}.cls-71{fill:url(#linear-gradient-71);}.cls-72{fill:url(#linear-gradient-72);}.cls-73{fill:url(#linear-gradient-73);}.cls-74{fill:url(#linear-gradient-74);}.cls-75{fill:url(#linear-gradient-75);}.cls-76{fill:url(#linear-gradient-76);}.cls-77{fill:url(#linear-gradient-77);}.cls-78{fill:url(#linear-gradient-78);}.cls-79{fill:url(#linear-gradient-79);}.cls-80{fill:url(#linear-gradient-80);}.cls-81{fill:url(#linear-gradient-81);}.cls-82{fill:url(#linear-gradient-82);}.cls-83{fill:url(#linear-gradient-83);}.cls-84{fill:url(#linear-gradient-84);}.cls-85{fill:url(#linear-gradient-85);}.cls-86{fill:url(#linear-gradient-86);}.cls-87{fill:url(#linear-gradient-87);}.cls-88{fill:url(#linear-gradient-88);}.cls-89{fill:url(#linear-gradient-89);}.cls-90{fill:url(#linear-gradient-90);}.cls-91{fill:url(#linear-gradient-91);}.cls-92{fill:url(#linear-gradient-92);}.cls-93{fill:url(#linear-gradient-93);}.cls-94{fill:url(#linear-gradient-94);}.cls-95{fill:url(#linear-gradient-95);}.cls-96{fill:url(#linear-gradient-96);}.cls-97{fill:url(#linear-gradient-97);}.cls-98{fill:url(#linear-gradient-98);}.cls-99{fill:url(#linear-gradient-99);}.cls-100{fill:url(#linear-gradient-100);}.cls-101{fill:url(#linear-gradient-101);}.cls-102{fill:url(#linear-gradient-102);}.cls-103{fill:url(#linear-gradient-103);}.cls-104{fill:url(#linear-gradient-104);}.cls-105{fill:url(#linear-gradient-105);}.cls-106{fill:url(#linear-gradient-106);}.cls-107{fill:url(#linear-gradient-107);}.cls-108{fill:url(#linear-gradient-108);}.cls-109{fill:url(#linear-gradient-109);}.cls-110{fill:url(#linear-gradient-110);}.cls-111{fill:url(#linear-gradient-111);}.cls-112{fill:url(#linear-gradient-112);}.cls-113{fill:url(#linear-gradient-113);}.cls-114{fill:url(#linear-gradient-114);}.cls-115{fill:url(#linear-gradient-115);}.cls-116{fill:url(#linear-gradient-116);}.cls-117{fill:url(#linear-gradient-117);}.cls-118{fill:url(#linear-gradient-118);}.cls-119{fill:url(#linear-gradient-119);}.cls-120{fill:url(#linear-gradient-120);}.cls-121{fill:url(#linear-gradient-121);}.cls-122{fill:url(#linear-gradient-122);}.cls-123{fill:url(#linear-gradient-123);}.cls-124{fill:url(#linear-gradient-124);}.cls-125{fill:url(#linear-gradient-125);}.cls-126{fill:url(#linear-gradient-126);}.cls-127{fill:url(#linear-gradient-127);}.cls-128{fill:url(#linear-gradient-128);}.cls-129{fill:url(#linear-gradient-129);}.cls-130{fill:url(#linear-gradient-130);}.cls-131{fill:url(#linear-gradient-131);}.cls-132{fill:url(#linear-gradient-132);}.cls-133{fill:url(#linear-gradient-133);}.cls-134{fill:url(#linear-gradient-134);}.cls-135{fill:url(#linear-gradient-135);}.cls-136{fill:url(#linear-gradient-136);}.cls-137{fill:url(#linear-gradient-137);}.cls-138{fill:url(#linear-gradient-138);}.cls-139{fill:url(#linear-gradient-139);}.cls-140{fill:url(#linear-gradient-140);}.cls-141{fill:url(#linear-gradient-141);}.cls-142{fill:url(#linear-gradient-142);}.cls-143{fill:url(#linear-gradient-143);}.cls-144{fill:url(#linear-gradient-144);}.cls-145{fill:url(#linear-gradient-145);}.cls-146{fill:url(#linear-gradient-146);}.cls-147{fill:url(#linear-gradient-147);}.cls-148{fill:url(#linear-gradient-148);}.cls-149{fill:url(#linear-gradient-149);}.cls-150{fill:url(#linear-gradient-150);}</style><linearGradient id="linear-gradient" x1="536.85" y1="447.36" x2="536.49" y2="446.99" gradientUnits="userSpaceOnUse"><stop offset="0" stop-color="#fff"/><stop offset="0.03" stop-color="#fffdf6"/><stop offset="0.09" stop-color="#fef9dc"/><stop offset="0.13" stop-color="#fdf5c9"/><stop offset="0.3" stop-color="#ffcb85"/><stop offset="0.71" stop-color="#6b3e26"/></linearGradient><linearGradient id="linear-gradient-2" x1="1206.19" y1="793.37" x2="1203.83" y2="791.01" xlink:href="#linear-gradient"/><linearGradient id="linear-gradient-3" x1="1051.87" y1="629.53" x2="1032.92" y2="610.58" xlink:href="#linear-gradient"/><linearGradient id="linear-gradient-4" x1="1062.15" y1="623.08" x2="1049.68" y2="610.61" xlink:href="#linear-gradient"/><linearGradient id="linear-gradient-5" x1="1455.47" y1="766.37" x2="1453.12" y2="764.01" xlink:href="#linear-gradient"/><linearGradient id="linear-gradient-6" x1="1496.47" y1="719.37" x2="1494.12" y2="717.01" xlink:href="#linear-gradient"/><linearGradient id="linear-gradient-7" x1="1487.85" y1="597.98" x2="1484.35" y2="594.49" xlink:href="#linear-gradient"/><linearGradient id="linear-gradient-8" x1="1483.28" y1="641.32" x2="1480.93" y2="638.96" xlink:href="#linear-gradient"/><linearGradient id="linear-gradient-9" x1="1388.04" y1="629.23" x2="1377.73" y2="618.92" xlink:href="#linear-gradient"/><linearGradient id="linear-gradient-10" x1="1363.04" y1="579.23" x2="1352.73" y2="568.92" xlink:href="#linear-gradient"/><linearGradient id="linear-gradient-11" x1="1452.48" y1="667.99" x2="1445.79" y2="661.3" xlink:href="#linear-gradient"/><linearGradient id="linear-gradient-12" x1="1377.47" y1="740.37" x2="1375.12" y2="738.01" xlink:href="#linear-gradient"/><linearGradient id="linear-gradient-13" x1="1391.47" y1="608.37" x2="1389.12" y2="606.01" xlink:href="#linear-gradient"/><linearGradient id="linear-gradient-14" x1="1405.47" y1="621.37" x2="1403.12" y2="619.01" xlink:href="#linear-gradient"/><linearGradient id="linear-gradient-15" x1="1315.64" y1="699.62" x2="1279.81" y2="663.8" xlink:href="#linear-gradient"/><linearGradient id="linear-gradient-16" x1="924.82" y1="620.26" x2="894.05" y2="589.49" xlink:href="#linear-gradient"/><linearGradient id="linear-gradient-17" x1="1011.32" y1="699.22" x2="976.26" y2="664.16" xlink:href="#linear-gradient"/><linearGradient id="linear-gradient-18" x1="1170.75" y1="677.93" x2="1142.61" y2="649.79" xlink:href="#linear-gradient"/><linearGradient id="linear-gradient-19" x1="1082.7" y1="699.35" x2="1046.94" y2="663.6" xlink:href="#linear-gradient"/><linearGradient id="linear-gradient-20" x1="1162.63" y1="743.02" x2="1147.36" y2="727.75" xlink:href="#linear-gradient"/><linearGradient id="linear-gradient-21" x1="967.15" y1="642.06" x2="944.59" y2="619.5" xlink:href="#linear-gradient"/><linearGradient id="linear-gradient-22" x1="1136.49" y1="671.34" x2="1120.64" y2="655.49" xlink:href="#linear-gradient"/><linearGradient id="linear-gradient-23" x1="1096.14" y1="618.07" x2="1085.83" y2="607.76" xlink:href="#linear-gradient"/><linearGradient id="linear-gradient-24" x1="851.95" y1="565.61" x2="842.82" y2="556.47" xlink:href="#linear-gradient"/><linearGradient id="linear-gradient-25" x1="873.7" y1="752.08" x2="865.68" y2="744.06" xlink:href="#linear-gradient"/><linearGradient id="linear-gradient-26" x1="939.63" y1="707" x2="898.32" y2="665.69" xlink:href="#linear-gradient"/><linearGradient id="linear-gradient-27" x1="939.85" y1="673.94" x2="936.04" y2="670.13" xlink:href="#linear-gradient"/><linearGradient id="linear-gradient-28" x1="997.32" y1="553.89" x2="993.86" y2="550.43" xlink:href="#linear-gradient"/><linearGradient id="linear-gradient-29" x1="1094.91" y1="724.94" x2="1091.45" y2="721.48" xlink:href="#linear-gradient"/><linearGradient id="linear-gradient-30" x1="696.54" y1="576.54" x2="692.93" y2="572.93" xlink:href="#linear-gradient"/><linearGradient id="linear-gradient-31" x1="806.29" y1="695.62" x2="802.82" y2="692.16" xlink:href="#linear-gradient"/><linearGradient id="linear-gradient-32" x1="1031.59" y1="553.42" x2="1028.01" y2="549.84" xlink:href="#linear-gradient"/><linearGradient id="linear-gradient-33" x1="1317.52" y1="665.73" x2="1313.88" y2="662.09" xlink:href="#linear-gradient"/><linearGradient id="linear-gradient-34" x1="1307.24" y1="681.43" x2="1303.77" y2="677.96" xlink:href="#linear-gradient"/><linearGradient id="linear-gradient-35" x1="938.07" y1="550.04" x2="934.58" y2="546.55" xlink:href="#linear-gradient"/><linearGradient id="linear-gradient-36" x1="1408.21" y1="557.63" x2="1404.72" y2="554.14" xlink:href="#linear-gradient"/><linearGradient id="linear-gradient-37" x1="1142.63" y1="553.87" x2="1139.22" y2="550.47" xlink:href="#linear-gradient"/><linearGradient id="linear-gradient-38" x1="1264.82" y1="553.37" x2="1261.33" y2="549.88" xlink:href="#linear-gradient"/><linearGradient id="linear-gradient-39" x1="1231.74" y1="679.57" x2="1228.77" y2="676.6" xlink:href="#linear-gradient"/><linearGradient id="linear-gradient-40" x1="1228.4" y1="676.96" x2="1228.02" y2="676.58" xlink:href="#linear-gradient"/><linearGradient id="linear-gradient-41" x1="1057.44" y1="581.17" x2="1054.11" y2="577.84" xlink:href="#linear-gradient"/><linearGradient id="linear-gradient-42" x1="949.48" y1="724.89" x2="946.15" y2="721.56" xlink:href="#linear-gradient"/><linearGradient id="linear-gradient-43" x1="1290.7" y1="581.19" x2="1287.37" y2="577.85" xlink:href="#linear-gradient"/><linearGradient id="linear-gradient-44" x1="1073.89" y1="681.37" x2="1070.61" y2="678.1" xlink:href="#linear-gradient"/><linearGradient id="linear-gradient-45" x1="1201.7" y1="538.18" x2="1198.45" y2="534.93" xlink:href="#linear-gradient"/><linearGradient id="linear-gradient-46" x1="749.95" y1="764.97" x2="746.66" y2="761.68" xlink:href="#linear-gradient"/><linearGradient id="linear-gradient-47" x1="849.34" y1="611.12" x2="821.39" y2="583.17" xlink:href="#linear-gradient"/><linearGradient id="linear-gradient-48" x1="856.27" y1="589.63" x2="853.86" y2="587.22" xlink:href="#linear-gradient"/><linearGradient id="linear-gradient-49" x1="928.18" y1="635.99" x2="925.74" y2="633.55" xlink:href="#linear-gradient"/><linearGradient id="linear-gradient-50" x1="1232.4" y1="649.39" x2="1230.04" y2="647.03" xlink:href="#linear-gradient"/><linearGradient id="linear-gradient-51" x1="908.89" y1="618.74" x2="884.44" y2="594.29" xlink:href="#linear-gradient"/><linearGradient id="linear-gradient-52" x1="1168.04" y1="765.23" x2="1157.73" y2="754.92" xlink:href="#linear-gradient"/><linearGradient id="linear-gradient-53" x1="1312.04" y1="748.23" x2="1301.73" y2="737.92" xlink:href="#linear-gradient"/><linearGradient id="linear-gradient-54" x1="1022.04" y1="781.23" x2="1011.73" y2="770.92" xlink:href="#linear-gradient"/><linearGradient id="linear-gradient-55" x1="1229.8" y1="746.22" x2="1221.79" y2="738.2" xlink:href="#linear-gradient"/><linearGradient id="linear-gradient-56" x1="1072.8" y1="742.22" x2="1064.79" y2="734.2" xlink:href="#linear-gradient"/><linearGradient id="linear-gradient-57" x1="802.8" y1="757.53" x2="793.66" y2="748.39" xlink:href="#linear-gradient"/><linearGradient id="linear-gradient-58" x1="778.8" y1="649.53" x2="769.66" y2="640.39" xlink:href="#linear-gradient"/><linearGradient id="linear-gradient-59" x1="990.8" y1="629.53" x2="981.66" y2="620.39" xlink:href="#linear-gradient"/><linearGradient id="linear-gradient-60" x1="913.64" y1="602.23" x2="903.33" y2="591.92" xlink:href="#linear-gradient"/><linearGradient id="linear-gradient-61" x1="688.83" y1="671.42" x2="678.52" y2="661.11" xlink:href="#linear-gradient"/><linearGradient id="linear-gradient-62" x1="1407.99" y1="788.41" x2="1399.98" y2="780.39" xlink:href="#linear-gradient"/><linearGradient id="linear-gradient-63" x1="1357.5" y1="900.54" x2="843.54" y2="386.58" xlink:href="#linear-gradient"/><linearGradient id="linear-gradient-64" x1="1380.41" y1="681.16" x2="1356.28" y2="657.03" xlink:href="#linear-gradient"/><linearGradient id="linear-gradient-65" x1="1391.04" y1="698.85" x2="1387.54" y2="695.35" xlink:href="#linear-gradient"/><linearGradient id="linear-gradient-66" x1="1375.47" y1="702.37" x2="1373.12" y2="700.01" xlink:href="#linear-gradient"/><linearGradient id="linear-gradient-67" x1="1458.68" y1="706.95" x2="1456.33" y2="704.59" xlink:href="#linear-gradient"/><linearGradient id="linear-gradient-68" x1="1284.68" y1="630.2" x2="1265.73" y2="611.25" xlink:href="#linear-gradient"/><linearGradient id="linear-gradient-69" x1="1295.96" y1="622.75" x2="1283.49" y2="610.28" xlink:href="#linear-gradient"/><linearGradient id="linear-gradient-70" x1="832.62" y1="377.48" x2="813.67" y2="358.53" xlink:href="#linear-gradient"/><linearGradient id="linear-gradient-71" x1="454.53" y1="299.69" x2="453.92" y2="299.07" xlink:href="#linear-gradient"/><linearGradient id="linear-gradient-72" x1="385.9" y1="382.05" x2="362.57" y2="358.73" xlink:href="#linear-gradient"/><linearGradient id="linear-gradient-73" x1="932.27" y1="454.8" x2="898.71" y2="421.24" xlink:href="#linear-gradient"/><linearGradient id="linear-gradient-74" x1="863.15" y1="449.91" x2="826.81" y2="413.57" xlink:href="#linear-gradient"/><linearGradient id="linear-gradient-75" x1="774.36" y1="427.69" x2="745.48" y2="398.82" xlink:href="#linear-gradient"/><linearGradient id="linear-gradient-76" x1="765.26" y1="494.16" x2="749.46" y2="478.36" xlink:href="#linear-gradient"/><linearGradient id="linear-gradient-77" x1="661.41" y1="494.22" x2="645.65" y2="478.47" xlink:href="#linear-gradient"/><linearGradient id="linear-gradient-78" x1="941.04" y1="418.96" x2="915.68" y2="393.59" xlink:href="#linear-gradient"/><linearGradient id="linear-gradient-79" x1="738.9" y1="421.97" x2="722.17" y2="405.23" xlink:href="#linear-gradient"/><linearGradient id="linear-gradient-80" x1="634.66" y1="421.43" x2="618.5" y2="405.27" xlink:href="#linear-gradient"/><linearGradient id="linear-gradient-81" x1="562.53" y1="428.53" x2="537.71" y2="403.71" xlink:href="#linear-gradient"/><linearGradient id="linear-gradient-82" x1="669.9" y1="427.98" x2="641.2" y2="399.28" xlink:href="#linear-gradient"/><linearGradient id="linear-gradient-83" x1="358.5" y1="333.47" x2="354.84" y2="329.81" xlink:href="#linear-gradient"/><linearGradient id="linear-gradient-84" x1="590.83" y1="305.36" x2="587.22" y2="301.75" xlink:href="#linear-gradient"/><linearGradient id="linear-gradient-85" x1="487.54" y1="375.21" x2="483.92" y2="371.59" xlink:href="#linear-gradient"/><linearGradient id="linear-gradient-86" x1="641.22" y1="301.47" x2="637.74" y2="298" xlink:href="#linear-gradient"/><linearGradient id="linear-gradient-87" x1="837.66" y1="329.38" x2="834.14" y2="325.86" xlink:href="#linear-gradient"/><linearGradient id="linear-gradient-88" x1="744.94" y1="301.42" x2="741.52" y2="298" xlink:href="#linear-gradient"/><linearGradient id="linear-gradient-89" x1="930.31" y1="440.65" x2="926.76" y2="437.1" xlink:href="#linear-gradient"/><linearGradient id="linear-gradient-90" x1="498.77" y1="415.45" x2="495.17" y2="411.84" xlink:href="#linear-gradient"/><linearGradient id="linear-gradient-91" x1="569.95" y1="440.65" x2="566.42" y2="437.13" xlink:href="#linear-gradient"/><linearGradient id="linear-gradient-92" x1="476.52" y1="439.14" x2="472.99" y2="435.61" xlink:href="#linear-gradient"/><linearGradient id="linear-gradient-93" x1="811.33" y1="300.99" x2="807.78" y2="297.44" xlink:href="#linear-gradient"/><linearGradient id="linear-gradient-94" x1="592.76" y1="475.68" x2="589.44" y2="472.36" xlink:href="#linear-gradient"/><linearGradient id="linear-gradient-95" x1="696.5" y1="475.7" x2="693.16" y2="472.36" xlink:href="#linear-gradient"/><linearGradient id="linear-gradient-96" x1="457.38" y1="527.37" x2="453.83" y2="523.83" xlink:href="#linear-gradient"/><linearGradient id="linear-gradient-97" x1="554.05" y1="494.75" x2="551.38" y2="492.09" xlink:href="#linear-gradient"/><linearGradient id="linear-gradient-98" x1="515.03" y1="353.67" x2="512.51" y2="351.14" xlink:href="#linear-gradient"/><linearGradient id="linear-gradient-99" x1="814.56" y1="531.28" x2="811.94" y2="528.66" xlink:href="#linear-gradient"/><linearGradient id="linear-gradient-100" x1="872.56" y1="535.61" x2="869.98" y2="533.03" xlink:href="#linear-gradient"/><linearGradient id="linear-gradient-101" x1="389.53" y1="436.34" x2="387.16" y2="433.97" xlink:href="#linear-gradient"/><linearGradient id="linear-gradient-102" x1="938.28" y1="521.84" x2="935.78" y2="519.34" xlink:href="#linear-gradient"/><linearGradient id="linear-gradient-103" x1="323.09" y1="300.17" x2="320.74" y2="297.83" xlink:href="#linear-gradient"/><linearGradient id="linear-gradient-104" x1="693.15" y1="521.77" x2="690.83" y2="519.45" xlink:href="#linear-gradient"/><linearGradient id="linear-gradient-105" x1="772.43" y1="386.54" x2="770.25" y2="384.36" xlink:href="#linear-gradient"/><linearGradient id="linear-gradient-106" x1="326.2" y1="409.39" x2="323.77" y2="406.96" xlink:href="#linear-gradient"/><linearGradient id="linear-gradient-107" x1="884.11" y1="338.11" x2="881.71" y2="335.72" xlink:href="#linear-gradient"/><linearGradient id="linear-gradient-108" x1="507.57" y1="524.95" x2="505.21" y2="522.59" xlink:href="#linear-gradient"/><linearGradient id="linear-gradient-109" x1="798.4" y1="479.06" x2="796.03" y2="476.69" xlink:href="#linear-gradient"/><linearGradient id="linear-gradient-110" x1="599.23" y1="374.4" x2="596.88" y2="372.06" xlink:href="#linear-gradient"/><linearGradient id="linear-gradient-111" x1="701.16" y1="325.22" x2="699.07" y2="323.14" xlink:href="#linear-gradient"/><linearGradient id="linear-gradient-112" x1="746.13" y1="433.44" x2="744" y2="431.31" xlink:href="#linear-gradient"/><linearGradient id="linear-gradient-113" x1="642.32" y1="433.37" x2="640.23" y2="431.28" xlink:href="#linear-gradient"/><linearGradient id="linear-gradient-114" x1="390.79" y1="502.33" x2="362.18" y2="473.71" xlink:href="#linear-gradient"/><linearGradient id="linear-gradient-115" x1="416.62" y1="465.09" x2="414.15" y2="462.62" xlink:href="#linear-gradient"/><linearGradient id="linear-gradient-116" x1="1288.25" y1="407.13" x2="1284.83" y2="403.7" xlink:href="#linear-gradient"/><linearGradient id="linear-gradient-117" x1="1046.62" y1="306.34" x2="1043.11" y2="302.82" xlink:href="#linear-gradient"/><linearGradient id="linear-gradient-118" x1="1199.63" y1="512.99" x2="1196.24" y2="509.59" xlink:href="#linear-gradient"/><linearGradient id="linear-gradient-119" x1="1084.05" y1="326.96" x2="1081.65" y2="324.56" xlink:href="#linear-gradient"/><linearGradient id="linear-gradient-120" x1="1208.26" y1="373.29" x2="1205.82" y2="370.86" xlink:href="#linear-gradient"/><linearGradient id="linear-gradient-121" x1="1119.58" y1="411" x2="1117.07" y2="408.49" xlink:href="#linear-gradient"/><linearGradient id="linear-gradient-122" x1="1290.8" y1="498.6" x2="1288.42" y2="496.22" xlink:href="#linear-gradient"/><linearGradient id="linear-gradient-123" x1="964.5" y1="537.03" x2="962.03" y2="534.56" xlink:href="#linear-gradient"/><linearGradient id="linear-gradient-124" x1="976.12" y1="339.38" x2="973.63" y2="336.89" xlink:href="#linear-gradient"/><linearGradient id="linear-gradient-125" x1="1046.36" y1="366.68" x2="1043.88" y2="364.2" xlink:href="#linear-gradient"/><linearGradient id="linear-gradient-126" x1="1061.14" y1="488.74" x2="1058.73" y2="486.33" xlink:href="#linear-gradient"/><linearGradient id="linear-gradient-127" x1="1258.86" y1="334.91" x2="1256.52" y2="332.57" xlink:href="#linear-gradient"/><linearGradient id="linear-gradient-128" x1="1131.76" y1="361.12" x2="1129.46" y2="358.82" xlink:href="#linear-gradient"/><linearGradient id="linear-gradient-129" x1="1030.11" y1="523.23" x2="1027.71" y2="520.84" xlink:href="#linear-gradient"/><linearGradient id="linear-gradient-130" x1="1249.17" y1="446.83" x2="1239.9" y2="437.56" xlink:href="#linear-gradient"/><linearGradient id="linear-gradient-131" x1="1132.34" y1="465.48" x2="1126.34" y2="459.48" xlink:href="#linear-gradient"/><linearGradient id="linear-gradient-132" x1="853.17" y1="427.99" x2="850.03" y2="424.86" xlink:href="#linear-gradient"/><linearGradient id="linear-gradient-133" x1="1091.14" y1="372.33" x2="1081.87" y2="363.06" xlink:href="#linear-gradient"/><linearGradient id="linear-gradient-134" x1="945.15" y1="337.19" x2="935.88" y2="327.92" xlink:href="#linear-gradient"/><linearGradient id="linear-gradient-135" x1="1013.35" y1="338.97" x2="1006.16" y2="331.78" xlink:href="#linear-gradient"/><linearGradient id="linear-gradient-136" x1="879.91" y1="306.53" x2="872.71" y2="299.34" xlink:href="#linear-gradient"/><linearGradient id="linear-gradient-137" x1="700.15" y1="363.32" x2="690.88" y2="354.05" xlink:href="#linear-gradient"/><linearGradient id="linear-gradient-138" x1="573.12" y1="374.64" x2="563.85" y2="365.37" xlink:href="#linear-gradient"/><linearGradient id="linear-gradient-139" x1="595.34" y1="361.1" x2="588.15" y2="353.91" xlink:href="#linear-gradient"/><linearGradient id="linear-gradient-140" x1="534.44" y1="319.65" x2="527.24" y2="312.45" xlink:href="#linear-gradient"/><linearGradient id="linear-gradient-141" x1="412.5" y1="377.34" x2="403.23" y2="368.07" xlink:href="#linear-gradient"/><linearGradient id="linear-gradient-142" x1="392.25" y1="495.09" x2="382.98" y2="485.82" xlink:href="#linear-gradient"/><linearGradient id="linear-gradient-143" x1="571.46" y1="532.32" x2="564.26" y2="525.12" xlink:href="#linear-gradient"/><linearGradient id="linear-gradient-144" x1="647.58" y1="528.39" x2="639.38" y2="520.19" xlink:href="#linear-gradient"/><linearGradient id="linear-gradient-145" x1="751.6" y1="530.13" x2="742.33" y2="520.86" xlink:href="#linear-gradient"/><linearGradient id="linear-gradient-146" x1="902.71" y1="503.8" x2="893.44" y2="494.53" xlink:href="#linear-gradient"/><linearGradient id="linear-gradient-147" x1="851.14" y1="499.06" x2="842.94" y2="490.85" xlink:href="#linear-gradient"/><linearGradient id="linear-gradient-148" x1="993.3" y1="501.96" x2="985.1" y2="493.76" xlink:href="#linear-gradient"/><linearGradient id="linear-gradient-149" x1="842.9" y1="371.03" x2="830.43" y2="358.56" xlink:href="#linear-gradient"/><linearGradient id="linear-gradient-150" x1="886.96" y1="639" x2="478.25" y2="230.29" xlink:href="#linear-gradient"/></defs><path class="cls-1" d="M536.75,446.73a2.22,2.22,0,0,0-.17.9A2.22,2.22,0,0,1,536.75,446.73Z" transform="translate(-320.28 -267.5)"/><path class="cls-2" d="M1205.13,790.63c-1.16,0-1.86.58-1.72,1.78a1.64,1.64,0,0,0,1.71,1.41,1.6,1.6,0,0,0,0-3.19Z" transform="translate(-320.28 -267.5)"/><path class="cls-3" d="M1029.15,626.81c3.24,3,7.26,5.4,9.55,9.24,1.79,3,4.1,3,6.39.19,3.35-4.15,6.53-8.41,9.82-12.59a9.75,9.75,0,0,0,2-7.49c-.32-2.74-2.22-4.35-5.36-4.55-4.34-.29-7.76,1.1-10.11,4.38l-5.27-2.45a6,6,0,0,0-6.93.78C1024.83,618.22,1024.55,622.49,1029.15,626.81Zm-.3-9.11a4.81,4.81,0,0,1,3.56-2.05,4.25,4.25,0,0,1,2.74.59l.09.06,0,0s0,0,0,0a1.09,1.09,0,0,1-1.53.14,3.15,3.15,0,0,0-2.89.59c-.67.91-1.82,2-1.7,3a7.09,7.09,0,0,0,2.63,4.65c1.13,1,2.35,1.87,3.53,2.79a21.93,21.93,0,0,1,4.77,5.08l.24.37-.89.51-.12-.13a23.44,23.44,0,0,0-6-6.11,23,23,0,0,1-3.07-2.59,7,7,0,0,1-2-3.37A4.5,4.5,0,0,1,1028.85,617.7Z" transform="translate(-320.28 -267.5)"/><path class="cls-4" d="M1056.42,627.38c-.12.16-.32.25-.31.62.6-.19,1.28-.06,1.75-.64a18.9,18.9,0,0,0,4.07-7.69c1.24-5.11-.86-10.35-4.61-11.44a8.74,8.74,0,0,0-5.26.5l-.17-.06a.81.81,0,0,0-.6.37l.63-.16c.06.2.21.07.32.06a6.74,6.74,0,0,1,3.84.33c3.52,1.6,5.18,7.05,3.63,11.93A20.15,20.15,0,0,1,1056.42,627.38Z" transform="translate(-320.28 -267.5)"/><path class="cls-5" d="M1454.41,763.63c-1.16,0-1.85.58-1.71,1.78a1.63,1.63,0,0,0,1.7,1.41,1.6,1.6,0,0,0,0-3.19Z" transform="translate(-320.28 -267.5)"/><path class="cls-6" d="M1495.41,716.63c-1.16,0-1.85.58-1.71,1.78a1.63,1.63,0,0,0,1.7,1.41,1.6,1.6,0,0,0,0-3.19Z" transform="translate(-320.28 -267.5)"/><path class="cls-7" d="M1486.29,598.66c1.57-.08,2-1.16,2.1-2.38.12-1.79-1.07-2.24-2.59-2.17-1.36.06-2.27.72-2.17,2.15C1483.75,597.86,1484.93,598.45,1486.29,598.66Z" transform="translate(-320.28 -267.5)"/><path class="cls-8" d="M1482.21,641.77a1.6,1.6,0,0,0,0-3.19c-1.16,0-1.85.58-1.71,1.77A1.64,1.64,0,0,0,1482.21,641.77Z" transform="translate(-320.28 -267.5)"/><path class="cls-9" d="M1386.49,630.78c-1.74-4.29-1.51-7.93,2.77-10.77-4.11,2.21-7.29.76-10.55-2.07,2.41,3.67,1.3,6.38-2.92,9.48C1381.25,626,1384.43,626.71,1386.49,630.78Z" transform="translate(-320.28 -267.5)"/><path class="cls-10" d="M1361.49,580.78c-1.74-4.29-1.51-7.93,2.77-10.77-4.11,2.21-7.29.76-10.55-2.07,2.41,3.67,1.3,6.38-2.92,9.48C1356.25,576,1359.43,576.71,1361.49,580.78Z" transform="translate(-320.28 -267.5)"/><path class="cls-11" d="M1446.72,668.92c2.1-3.28,4.39-3.42,7.26-2.43-2.66-1.58-3.08-3.49-2.22-5.92-1.85,2-4.29,1.91-7,1.72C1448.09,663.53,1447.16,665.79,1446.72,668.92Z" transform="translate(-320.28 -267.5)"/><path class="cls-12" d="M1376.41,737.63c-1.16,0-1.85.58-1.71,1.78a1.63,1.63,0,0,0,1.7,1.41,1.6,1.6,0,0,0,0-3.19Z" transform="translate(-320.28 -267.5)"/><path class="cls-13" d="M1390.4,608.82a1.6,1.6,0,0,0,0-3.19c-1.16,0-1.85.58-1.71,1.78A1.63,1.63,0,0,0,1390.4,608.82Z" transform="translate(-320.28 -267.5)"/><path class="cls-14" d="M1404.4,621.82a1.6,1.6,0,0,0,0-3.19c-1.16,0-1.85.58-1.71,1.78A1.63,1.63,0,0,0,1404.4,621.82Z" transform="translate(-320.28 -267.5)"/><path class="cls-15" d="M1294.51,708.64c2,4.22,5.15,5.46,8.42,3.1,6.4-4.62,10.38-11.17,14-17.92l-1.32-.92c-2.49,3.62-4.82,7.34-7.49,10.82-2.37,3.08-4.7,7.82-9,6.63s-4.61-6.49-5.16-10.53c-2.07-15.14-1-30.19,1.64-45.18.34-1.95,1.19-4,.17-5.94-1.21.06-1.56.58-1.67,1.28-2.34,14.81-4.17,29.66-3,44.7A39.57,39.57,0,0,0,1294.51,708.64Z" transform="translate(-320.28 -267.5)"/><path class="cls-16" d="M931.45,556.36c-.82-.77-1.66-2.33-3.61-.66,4,3.92,8,7.82,9.21,13.59,2.3,10.72.43,20.77-4.47,30.38-5.54,10.86-13.3,20.19-20.63,29.81-7.74,8.41-15.42,16.87-23.37,25.11,9.4-6.74,17.28-15,24.41-24,1.1-1.22,2.28-2.37,3.28-3.66,9-11.51,18.48-22.84,22.26-37.34C941.68,577.51,941.45,565.78,931.45,556.36Z" transform="translate(-320.28 -267.5)"/><path class="cls-17" d="M998.38,675.87C997.24,687,996,698,994.88,709.11c-.18,1.81-.45,3.76.56,5.62.61-.41,1-.57,1.06-.74.76-13.12,2.92-26.08,4.19-39.13.62-6.4,1.47-13-2-19-2.37-4.11-5.58-5.65-10-4.06,8.78,1.9,10.46,8,10.25,15.13C998.8,669.89,998.68,672.89,998.38,675.87Z" transform="translate(-320.28 -267.5)"/><path class="cls-18" d="M1151.2,641.2c14.74,12.69,13.38,29,9.83,46.46C1169.15,678.1,1166.16,645.43,1151.2,641.2Z" transform="translate(-320.28 -267.5)"/><path class="cls-19" d="M1060.93,708c2.75,5.7,6.24,6.47,10.87,2.21s7.93-9.32,11-14.64c.45-.77,1.36-1.7-.45-2.66a18.13,18.13,0,0,0-1.31,1.69c-3.22,5-6.2,10.23-10.74,14.23-3.51,3.09-5.89,2.6-7.54-1.75a106.46,106.46,0,0,1-2.87-10.51h0a199.39,199.39,0,0,1,3.46-48.1c-2.51.37-2.4,1.33-2.51,2.08-.95,6.89-2.21,13.75-2.74,20.67-.7,9.22-1.51,18.49.72,27.66h0A21.2,21.2,0,0,0,1060.93,708Z" transform="translate(-320.28 -267.5)"/><path class="cls-20" d="M1161.63,713.48c1.71,16.44,1.9,32.06-16,41.06,6.63-.56,11-4.42,13.84-9.69C1164.83,734.83,1165.1,724.24,1161.63,713.48Z" transform="translate(-320.28 -267.5)"/><path class="cls-21" d="M945.86,618.22c5.54,2.48,10.45,5.6,13,11.29,2.47,5.39,2.81,11.25,3.79,17,1.45-7.36.5-14.38-3.6-20.75C956.1,621.09,951.77,618.27,945.86,618.22Z" transform="translate(-320.28 -267.5)"/><path class="cls-22" d="M1129.76,649.77c-5.14.51-8.64,4.26-9.7,9.6a16.3,16.3,0,0,0,9.94,18.46c-3.63-4.09-7.57-7.86-8.21-13.67C1121.1,657.78,1124.78,653.73,1129.76,649.77Z" transform="translate(-320.28 -267.5)"/><path class="cls-23" d="M1097.36,608.84c-4.11,2.21-7.29.76-10.55-2.06,2.41,3.66,1.3,6.38-2.92,9.48,5.46-1.45,8.64-.72,10.7,3.36C1092.85,615.33,1093.08,611.68,1097.36,608.84Z" transform="translate(-320.28 -267.5)"/><path class="cls-24" d="M853.17,564.4c-3.65-2.32-3.34-5.36-1.81-9.14-3.35,2.91-6.25,4.21-10,2.63,3.56,2.58,3.89,5.87,2.82,9.74C846.4,564.3,849,562.81,853.17,564.4Z" transform="translate(-320.28 -267.5)"/><path class="cls-25" d="M872.71,742.65c-2.1,2.73-4.87,2.54-7.9,2.29,3.73,1.66,2.68,4.67,2.17,8.85,2.39-4.38,5-4.57,8.25-3.25C872.21,748.44,871.73,745.89,872.71,742.65Z" transform="translate(-320.28 -267.5)"/><path class="cls-26" d="M922.28,714.37c.42,2.75,1.38,5.6,5.34,4.65a9,9,0,0,1-3.79-5.51,134.62,134.62,0,0,1,.93-23.31A56.9,56.9,0,0,0,923,666.54c-2.23-7.37-7.6-11.77-14-11.54.08.31.1.84.26.89,11.4,3.53,13.34,12.8,13.56,22.82.14,6.28-.42,12.57-.66,18.86A63.84,63.84,0,0,0,922.28,714.37Z" transform="translate(-320.28 -267.5)"/><path class="cls-27" d="M940.45,671.84a2.29,2.29,0,0,0-2.63-2.3c-1.56.06-2.68,1-2.53,2.45a2.77,2.77,0,0,0,3,2.69C940,674.58,940.27,673.21,940.45,671.84Z" transform="translate(-320.28 -267.5)"/><path class="cls-28" d="M995.62,554.61a2.63,2.63,0,0,0,2.52-2.65,2.35,2.35,0,0,0-2.73-2.16,2,2,0,0,0-2.11,2.26C993.41,553.38,993.79,554.84,995.62,554.61Z" transform="translate(-320.28 -267.5)"/><path class="cls-29" d="M1093,720.87a2.16,2.16,0,0,0-2.18,2.68,2,2,0,0,0,2.22,2.12,2.56,2.56,0,0,0,2.6-2.51C1095.76,721.55,1094.51,720.8,1093,720.87Z" transform="translate(-320.28 -267.5)"/><path class="cls-30" d="M695.1,577.26a2.24,2.24,0,0,0,2-2.39c.07-1.69-.89-2.39-2.48-2.35s-2.65.75-2.42,2.41C692.41,576.43,693.64,577,695.1,577.26Z" transform="translate(-320.28 -267.5)"/><path class="cls-31" d="M804.27,691.64a2.08,2.08,0,0,0-2.14,2.18,2.59,2.59,0,0,0,2.48,2.55c1.61.12,2-1.29,2.3-2.64A2.16,2.16,0,0,0,804.27,691.64Z" transform="translate(-320.28 -267.5)"/><path class="cls-32" d="M1027.26,551.83c.24,1.37,1.37,2.19,3.27,2.32a2.39,2.39,0,0,0,1.56-2.39c.06-1.69-.83-2.43-2.42-2.32S1027,550.19,1027.26,551.83Z" transform="translate(-320.28 -267.5)"/><path class="cls-33" d="M1318.07,664.22a2.08,2.08,0,0,0-2.25-2.55c-1.43,0-2.66.41-2.67,2.08a2.75,2.75,0,0,0,2.42,2.67C1317.23,666.77,1317.74,665.47,1318.07,664.22Z" transform="translate(-320.28 -267.5)"/><path class="cls-34" d="M1306.06,682.28a2.77,2.77,0,0,0,1.8-2.88,2,2,0,0,0-2.4-1.85c-1.42.09-2.66.67-2.44,2.34C1303.21,681.33,1304.4,682,1306.06,682.28Z" transform="translate(-320.28 -267.5)"/><path class="cls-35" d="M934,548.17a2.47,2.47,0,0,0,2.22,2.59c1.91.11,2.34-1.32,2.53-2.51s-.88-2-2.14-2.13C935,546,934,546.52,934,548.17Z" transform="translate(-320.28 -267.5)"/><path class="cls-36" d="M1406.72,558.29c1.5.11,1.75-1.22,2-2.33a2.05,2.05,0,0,0-2.07-2.3c-1.52-.07-2.73.57-2.67,2.2A2.62,2.62,0,0,0,1406.72,558.29Z" transform="translate(-320.28 -267.5)"/><path class="cls-37" d="M1138.77,551.92c0,1.37.21,2.72,2,2.68a2.62,2.62,0,0,0,2.63-2.42,2.33,2.33,0,0,0-2.52-2.39A2,2,0,0,0,1138.77,551.92Z" transform="translate(-320.28 -267.5)"/><path class="cls-38" d="M1263.27,554.05c1.56-.08,2-1.15,2.09-2.37.12-1.8-1.07-2.25-2.59-2.18-1.36.06-2.26.72-2.16,2.16C1260.72,553.25,1261.9,553.85,1263.27,554.05Z" transform="translate(-320.28 -267.5)"/><path class="cls-39" d="M1231,679.87c1.22-.55,1.54-.76,1.21-2.31-.66-3-2.64-.93-3.72-.68C1228.91,677.84,1227.63,681.38,1231,679.87Z" transform="translate(-320.28 -267.5)"/><path class="cls-40" d="M1227.92,676.68a.47.47,0,0,0,.57.2C1228.4,676.67,1228.24,676.57,1227.92,676.68Z" transform="translate(-320.28 -267.5)"/><path class="cls-41" d="M1058,579.32c-.06-1.48-1-2-2.3-2s-2.28.65-2.19,2.1a2.26,2.26,0,0,0,2.61,2.34C1057.56,581.71,1057.86,580.54,1058,579.32Z" transform="translate(-320.28 -267.5)"/><path class="cls-42" d="M947.56,720.93a2,2,0,0,0-1.93,2.32c.09,1.38.46,2.65,2.28,2.33a2.54,2.54,0,0,0,2.37-2.53C950.13,721.31,948.92,720.82,947.56,720.93Z" transform="translate(-320.28 -267.5)"/><path class="cls-43" d="M1289.07,577.36c-1.31,0-2.28.54-2.3,2s.94,2.35,2.45,2.52c1.51-.06,1.85-1.09,1.9-2.34A1.84,1.84,0,0,0,1289.07,577.36Z" transform="translate(-320.28 -267.5)"/><path class="cls-44" d="M1072.27,682c1.53.19,1.81-1,2.13-2.43a1.81,1.81,0,0,0-1.94-2c-1.24,0-2.32.32-2.45,1.77A2.3,2.3,0,0,0,1072.27,682Z" transform="translate(-320.28 -267.5)"/><path class="cls-45" d="M1200.27,538.77c1.54,0,1.81-1.14,1.9-2.36,0-1.54-1-1.92-2.32-1.87s-2.15.74-2,2.2A2.2,2.2,0,0,0,1200.27,538.77Z" transform="translate(-320.28 -267.5)"/><path class="cls-46" d="M748.07,761.18c-1.22.16-2.24.61-2,2.78.14,1,1.18,1.7,2.63,1.61s1.63-1.43,1.65-2.58C750.38,761.49,749.38,761,748.07,761.18Z" transform="translate(-320.28 -267.5)"/><path class="cls-47" d="M832.4,625c7.09-2.15,10.93-7.51,13.31-13.83,5.1-13.54,4.82-26.63-4.62-38.52-1.17-1.8-2.43-3.47-5.3-3.83.75,2.75,2.66,3.72,4.11,5.07a36.61,36.61,0,0,1,6.54,26.89C845,610.7,840.7,618.9,832.4,625Z" transform="translate(-320.28 -267.5)"/><path class="cls-48" d="M853.35,588.17c-.2,1.13.68,1.76,2.16,2.22.32-.4,1-.91,1.2-1.56a1.64,1.64,0,0,0-1.56-2.06A1.67,1.67,0,0,0,853.35,588.17Z" transform="translate(-320.28 -267.5)"/><path class="cls-49" d="M928.57,635c.15-1.26-.57-1.76-1.67-1.76-.81,0-1.64.3-1.61,1.32a1.81,1.81,0,0,0,1.73,1.9C928,636.6,928.31,635.8,928.57,635Z" transform="translate(-320.28 -267.5)"/><path class="cls-50" d="M1232.78,648.26a1.44,1.44,0,0,0-1.44-1.61c-1.16,0-1.86.58-1.71,1.78a1.63,1.63,0,0,0,1.7,1.41A1.43,1.43,0,0,0,1232.78,648.26Z" transform="translate(-320.28 -267.5)"/><path class="cls-51" d="M881.71,631.29c-1.15,5.36-2.72,10.71-2.81,16.45,2.66-.4,2.14-2.07,2.33-3.23,2.1-12.45,4.52-24.89,8.87-36.73,5.52-15,8.44-32.18,28.14-38.69a11.1,11.1,0,0,0-8.92,1.36c-5,3-8.39,7.53-11.16,12.5C889.72,598,885.32,614.55,881.71,631.29Z" transform="translate(-320.28 -267.5)"/><path class="cls-52" d="M1158.71,753.94c2.41,3.67,1.3,6.38-2.92,9.48,5.46-1.44,8.64-.71,10.7,3.36-1.74-4.29-1.51-7.93,2.77-10.77C1165.15,758.22,1162,756.77,1158.71,753.94Z" transform="translate(-320.28 -267.5)"/><path class="cls-53" d="M1302.71,736.94c2.41,3.67,1.3,6.38-2.92,9.48,5.46-1.44,8.64-.71,10.7,3.36-1.74-4.29-1.51-7.93,2.77-10.77C1309.15,741.22,1306,739.77,1302.71,736.94Z" transform="translate(-320.28 -267.5)"/><path class="cls-54" d="M1012.71,769.94c2.41,3.67,1.3,6.38-2.92,9.48,5.46-1.44,8.64-.71,10.7,3.36-1.74-4.29-1.51-7.93,2.77-10.77C1019.15,774.22,1016,772.77,1012.71,769.94Z" transform="translate(-320.28 -267.5)"/><path class="cls-55" d="M1228.81,736.79c-2.09,2.73-4.87,2.54-7.9,2.29,3.73,1.66,2.68,4.67,2.17,8.85,2.39-4.38,5-4.57,8.26-3.24C1228.31,742.58,1227.83,740,1228.81,736.79Z" transform="translate(-320.28 -267.5)"/><path class="cls-56" d="M1071.81,732.79c-2.09,2.73-4.87,2.54-7.9,2.29,3.73,1.66,2.68,4.67,2.17,8.85,2.39-4.38,5-4.57,8.26-3.24C1071.31,738.58,1070.83,736,1071.81,732.79Z" transform="translate(-320.28 -267.5)"/><path class="cls-57" d="M802.2,747.17c-3.34,2.91-6.25,4.22-10,2.64,3.56,2.58,3.89,5.87,2.82,9.74,2.19-3.33,4.81-4.83,9-3.24C800.37,754,800.67,751,802.2,747.17Z" transform="translate(-320.28 -267.5)"/><path class="cls-58" d="M780,648.31c-3.64-2.32-3.34-5.36-1.81-9.14-3.34,2.91-6.25,4.22-10,2.64,3.56,2.58,3.89,5.87,2.82,9.74C773.25,648.22,775.87,646.72,780,648.31Z" transform="translate(-320.28 -267.5)"/><path class="cls-59" d="M992,628.31c-3.64-2.32-3.34-5.36-1.81-9.14-3.34,2.91-6.25,4.22-10,2.64,3.56,2.58,3.89,5.87,2.82,9.74C985.25,628.22,987.87,626.72,992,628.31Z" transform="translate(-320.28 -267.5)"/><path class="cls-60" d="M904.31,590.94c2.41,3.67,1.3,6.38-2.92,9.48,5.46-1.44,8.64-.71,10.7,3.36-1.74-4.29-1.51-7.93,2.77-10.77C910.75,595.22,907.57,593.77,904.31,590.94Z" transform="translate(-320.28 -267.5)"/><path class="cls-61" d="M679.5,660.13c2.41,3.67,1.3,6.38-2.92,9.48,5.46-1.44,8.64-.71,10.7,3.36-1.74-4.29-1.51-7.93,2.77-10.77C685.94,664.41,682.76,663,679.5,660.13Z" transform="translate(-320.28 -267.5)"/><path class="cls-62" d="M1407,779c-2.09,2.73-4.87,2.54-7.9,2.29,3.73,1.66,2.68,4.67,2.17,8.85,2.39-4.38,5-4.57,8.26-3.24C1406.5,784.77,1406,782.22,1407,779Z" transform="translate(-320.28 -267.5)"/><path class="cls-63" d="M1578,673c-4.54,7.52-11.82,7.71-19.23,7.89-15.55.37-30.83-2.45-46.21-3.93-16.85-1.62-33.5-1.81-50,2.71-18.21,5-34.09,14.59-50,24.35-11.45,7.05-22.79,14.35-36.62,16.17a22.18,22.18,0,0,1-24.87-18c-.23-1.34-.69-2.94,1-3.31,2-.44,1.59,1.64,2,2.71,1.06,2.78,2,5.61,4,7.93,4.87,7.24,14.17,10.48,19.32,6.74-13.17-2.41-13.17-2.41-18.21-8-.65-1.33-1.32-2.65-1.94-4-2-4.34-2.25-7.41,2.87-10.68a41.16,41.16,0,0,0,18-23.58c3-10.42-1.83-19.24-12.06-22.76a28.06,28.06,0,0,0-10.07-1.5c-4.85-.84-9.16.51-13.36,2.57a3.37,3.37,0,0,0-.66.33c-12.12,5.81-17.27,16.31-19.57,28.8a43.39,43.39,0,0,0-.67,9.76,27.44,27.44,0,0,1-3.09,9.68c-3.36,6.47-6.55,13.11-12.19,17.92-6.27,5.35-14.19,3.6-17.49-4a30.69,30.69,0,0,1-2-7.19,137.81,137.81,0,0,1,1-49.6c.86-4.44-.44-6.47-4.34-7.89a37.32,37.32,0,0,0-16.73-1.72c-6.91.68-9.23,2.45-10,9.4-1.59,15.45-4.52,30.5-10.69,44.84-3.68,8.58-7.38,17.17-14.55,23.53-7.72,6.84-15.8,4.5-18.73-5.34a51.23,51.23,0,0,1-2.2-12.74c-1.39-37.15,3.71-73.65,10.87-110,.28-1.45.21-3.11,2.55-2.66,2.94.55,1.42,2.27,1.12,3.75-3,14.61-6.33,29.17-7.45,44.1a1.22,1.22,0,0,1,0,.17c-.15.72-.6,1.54-.41,2.16-2.16,11.19-2.44,22.58-3.32,33.91-.66,10-1.12,19.93,0,29.89-.3,2.12.69,4,1.08,6,1.78,8.9,5.27,12.17,10.65,8.7-5,.49-6.83-2.18-7.93-5.73-.58-1.86-1.22-3.7-1.83-5.54h0c-.31-9.59-.44-19.18-.25-28.79.26-12.6,2.51-25,3-37.58,2.63-15.39,4.93-30.84,8.15-46.14.72-3.42,1.75-4.53,5.72-3.68a206,206,0,0,0,24.63,3.51c14.42,1.29,28.89,2.26,43.1-1.85,7.23-2.1,13.46-5.7,17.49-12.35.79-1.29,1.58-2.69.63-4.19-1.08-1.72-2.88-1.42-4.52-1.18-3.23.46-4.8,3-5.88,5.58-2.16,5.27-6.21,7.91-11.44,9.46-6.32,1.87-12.75,2.26-19.27,2.23-15.88-.05-31.49-2.46-47.07-5.22a1.18,1.18,0,0,1-.51-.23c-.63-3.36.85-6.36,1.7-9.45,1.69-6.17,3.5-12.31,5.26-18.46l-1.42-.41c-3.63,7.78-5.49,16.14-7.39,24.5.77.4.73,1.19.71,2a1.24,1.24,0,0,0-1.56.47c-.44.69-1.16,1-2.57.55-2.61-.93-.78-2.92-.5-4.09,1.75-7.26,3.88-14.43,5.74-21.66,1.37-5.32.11-7.78-4.93-9.7a28.53,28.53,0,0,0-20.5-.28c-3.51,1.27-6,3.4-6.51,7.41-.9,6.75-2.17,13.46-2.89,20.23-.34,3.15-1.47,3.72-4.44,3.41-10.43-1.08-20.88-2.27-31.39-2.06-18.82.39-36.37,4.31-50,18.71-1.47,1.57-4.59,3.21-2.65,5.58,1.66,2,4.53,1.34,6.85.23a9,9,0,0,0,3.91-3.79c5.54-9.95,15.18-13.5,25.39-16,15-3.66,30.1-1.74,45.2-.15,4.76.5,6.38,1.52,5.71,6.78a493.27,493.27,0,0,0-3.44,81.23,8.74,8.74,0,0,1-2.15,6.33c-8.78,10.79-19.92,18.5-32,25.09-1.46.79-2.52,1.35-3.69-.47-5.44-8.49-13.72-13.9-21.59-19.76-4.28-3.19-8.45-6.5-11.39-11.06-4.05-6.27-4.1-15.16-.12-20.76,4.12-5.8,10.23-7.61,18.23-5.4,10.42,2.86,17.38,13.54,17,25.9-.17,5.39-1.64,10.49-3.06,15.62-.31,1.12-.84,2.26.62,3a3,3,0,0,0,3.29-.3,8.09,8.09,0,0,0,2.51-3.64c2-4.53,2.1-9.37,2.5-14.17,1.65-20.18-7.78-32.89-27.61-35.8-18.1-2.65-36.44,5.32-39.13,28.57-.72,6.25-1,12.47-3.4,18.47-4.26,10.49-8.12,21.21-16.57,29.24-7.23,6.86-14.08,5.25-17.89-3.93a34.1,34.1,0,0,1-1.86-6.18c-3.37-16.72-2.12-33.42.7-50a7.51,7.51,0,0,0-5-8.37,36.45,36.45,0,0,0-14.88-1.55c-8.19.63-10.42,2.4-11.31,10.37-1.88,16.9-7.6,32.62-14.14,48.1-2.65,6.27-5.51,12.54-10.52,17.38-3.62,3.49-6.6,2.54-7.88-2.3-1-3.77-.7-7.59-.34-11.42,1.12-12.26,4.27-24.27,4.65-36.6.36-12-4.19-16.65-16.24-17-5.49-.18-11-.16-16.49-.18-3.5,0-5.37-.76-4.77-5.18a28.26,28.26,0,0,0-3.07-17.91c-3.27-5.74-9.35-8-14.86-5.76s-8.35,7.75-7,14.33c2,9.46,8.29,14.87,17.07,17.75,2.42.8,3.46,1.51,2.82,4.45-2.28,10.56-4.48,21.14-7.75,31.43-3,9.49-6,19.08-12.25,27.1-2.08,2.64-4.59,5.28-8.38,4.25-4-1.09-4.87-4.78-5.21-8.31-.66-6.82-.12-13.64.41-20.45.57-7.3,1-14.63-.5-21.89s-5-12.85-13.17-14.37c-12.36-2.3-24,3.57-30,15.66-.73,1.48-1.4,3-2.08,4.61a1.2,1.2,0,0,1-2.29-.65,68.93,68.93,0,0,0,1.15-8.93c.1-4.1,2-6.6,5-9.08a257.61,257.61,0,0,0,36.2-37.11c8-10.06,15.38-20.5,19.35-32.92,7-21.88-5.94-39.13-27.68-37.13a1.05,1.05,0,0,0-.48.16v-.12a17.53,17.53,0,0,0-6.39.64c-12.85,3-21.74,11.16-28.48,21.91-11.56,18.45-16.06,39.22-19,60.37-.65,4.67-1.14,9.06-1.83,14.09h0c-.81,11.62-1.48,23.24-1.33,34.9,0,0,0,.11-.07.16-1,1.82-2.16,4.62-3.19,6.41a58.37,58.37,0,0,1-7,10.12c-.48.58-6.3,7.62-7,8.43a69.84,69.84,0,0,1-15.11,12.91c-11.24,7-23.41,10.54-36.6,7.66-18.68-4.06-27.47-17.6-31-35-5.53-26.87-.05-52.4,10.73-77.13.91-2.1,2.14-2.71,4.17-2.43a2.76,2.76,0,0,1-.13,2.39,137.59,137.59,0,0,0-8.11,20.33c-6.48,20.53-7.13,41.21-1,61.88,2.54,8.55,6.83,16.23,14.29,21.7,6.94,5.1,16.24,6.72,22.71,3.91-.19-.82-.9-.94-1.53-1-17.43-.19-26.93-6.62-32.7-22.84-6.61-18.6-6.35-37.52-1.75-56.52,2.35-9.72,6.57-18.76,10.2-28,1.11-2,3-1.59,4.85-1.71,7-.5,14-.77,20.88-1.71,3-.41,4.26.42,5.74,2.92,6.33,10.7,17.7,13.94,28.85,8.53a30.24,30.24,0,0,0,12.93-12.11c9.57-16.15,8.13-37.57-15.2-45.71a66.71,66.71,0,0,0-32.51-2.59c-24.18,3.72-42.09,17.18-56,36.61-1.8,2.52-3,2.88-5.93,1.88-18.4-6.26-36.76-12.71-55.86-16.59-8.8-1.79-17.71-3.33-26.71-1.24-2.2.51-4.53,1.59-3.66,4.33s3.25,2.56,5.39,1.42c7.12-3.8,14.57-2.72,22-1.49,19,3.13,36.84,10,54.88,16.25,4.32,1.51,5,2.79,2.66,7-14.49,27-20.47,55.41-13,85.65,4.53,18.36,14.6,32.93,32.7,40.17,16.77,6.7,33.94,5.75,50.74-.38,22.22-8.1,37.76-23.83,49.27-44a.88.88,0,0,1,.19-.24c1.9,1,1,2.92,1.14,4.39,1.11,9,.77,18.18,3.4,27a2.2,2.2,0,0,0,.15.6.47.47,0,0,0,.06.09l0,.11v0a1.48,1.48,0,0,0,.13.21c2.78,3.13,6.44,1,9.66,1.44,3.55.52,5.44-1,5.91-4.69.73-5.69,1.55-11.36,2.59-17,1.73-9.46,3.09-19.09,8.26-27.48,3.1-5.05,7.81-5,11.18-.13,2.67,3.85,3.31,8.34,3.38,12.86.13,8.82.07,17.65.06,26.47a51.38,51.38,0,0,0,1.94,13.8c2.25,8.13,8.23,11.9,16.61,10.55,5.64-.91,10.22-3.83,14.22-7.72,7.79-7.59,12.57-17.07,16.68-26.94,6.23-15,10.06-30.59,13.46-46.35.28-1.26-.44-3.19,2.09-3.19,4.84,0,9.71,4.7,9.38,9.56-.51,7.64-1.49,15.25-1.9,22.88-.72,13.27-2.32,26.62,1.86,39.65,3.28,10.26,12.48,13.68,21.79,8.21a35.26,35.26,0,0,0,9-7.82c4.77-5.63,8.27-12,11.41-18.66A202.44,202.44,0,0,0,1018,691c1.32-4.08,2-8,3-9a1.71,1.71,0,0,1,2,0c1.06,1.06.83,5.66,1,7,1.22,9.48,2.55,18.37,7.75,26.56,7.19,11.33,19.29,15.84,32,11.76,11.24-3.59,17.94-12.14,23.48-21.9,3-5.3,5.07-11,7.43-17.25a1.2,1.2,0,0,1,2.17-.16c5.44,9.47,13.54,15.4,21.55,21.44,2.65,2,5.16,4.2,7.79,6.24,2.37,1.85,3,3.23-.37,4.84a34.48,34.48,0,0,0-8.92,6.33c-8.94,8.58-6.19,21.35,5.48,25.46,19.53,6.87,37.63-7.23,36.07-28.11-.14-1.83.06-3.86-.68-5.42-3.46-7.28.19-10.56,6.27-13.89,9.37-5.14,17.39-12.19,24.89-20.51a1.2,1.2,0,0,1,2.08.6l0,.14c2,12.46,3.74,25,10.67,36.06,8.17,13,22.33,14.8,33.42,4.21a50.94,50.94,0,0,0,8.69-11.51c4.4-7.58,7.21-15.83,10.19-24.46a1.2,1.2,0,0,1,2.32.18,99.78,99.78,0,0,0,4,16.57c5.65,15.77,16.87,24,31.35,22.31,10.84-1.25,18.58-7.63,24.56-16.31,2.74-4,5.06-8.24,7.7-12.58l-.06-.54c3.47,11,11,20.3,21.12,24.68,13.78,6,27.69,4.3,41.32-.68,11.83-4.33,22-11.65,32.18-18.83,21.11-14.9,44-24.57,70.24-25,17.53-.3,34.86,1.95,52.23,3.85a119.37,119.37,0,0,0,25.42.42c7.73-.81,14.31-3.7,17.92-11.48C1581.61,671,1579.06,671.16,1578,673ZM806.82,573c8.26-1.6,17.34,2.32,21.68,9.13a20.28,20.28,0,0,1-.65,22.95c-5.06,6.85-15.54,11.11-22.87,9.23a6.17,6.17,0,0,1-3.91-2.18c2.42-2.21,5.7-3.34,7.72-6.09,2.9-4,2.77-7.78-.55-10.62-3.1-2.66-7.46-2.2-10.7,1.06-2.9,2.91-3.76,6.6-3.89,10.47-.06,1.71-.26,2.79-2.17,3.18-7.49,1.52-15,2.46-23,1.71.66-1.63,1.15-2.83,1.64-4,1-1.33,2-2.63,2.86-4,6.56-9.76,14-18.52,25.23-23.25,1.09-.46,3.4-.41,2.7-2.07-.88-2.05-2.65-.14-3.75.35-12.84,5.71-21.37,15.83-28,27.83-2.15,1.45-1.68,6.46-6.93,4.39C773.12,593.44,784.77,577.21,806.82,573Zm-69.61,30.55c11.62-16.49,26.51-28.66,46-34.64a4.77,4.77,0,0,1,1.46-.2,12.13,12.13,0,0,1,2.26.82l-21.45,9.39A89.82,89.82,0,0,0,739,604.72c-.47.67-.85,2.15-2.11,1.3S736.71,604.21,737.21,603.51Zm16.34,134.64c-15.29-4.55-25.36-14.91-31.33-29.26-9.58-23-8.48-46.42-1.6-69.87a134.07,134.07,0,0,1,10.28-24.81c.88-1.67,1.69-3.43,4.2-4-.87,1.67-1.76,3.32-2.61,5-11.13,21.94-17.44,44.93-14.4,69.74,2.2,18,8.13,34.29,23.68,45.44,4.6,3.3,10,5,15.25,6.9C755.94,739.52,754.61,738.46,753.55,738.15ZM911,567.44c8-2.53,15.7,1.91,17.31,10.2,1.43,7.42-.88,14.17-4.07,20.65-9.43,19.14-24.11,34.13-39.07,48.85-3.14,3.09-6.13,6.42-10.83,9.17,4.31-26.17,7.65-51.72,20.68-74.6C898.68,575.24,903.48,569.8,911,567.44ZM853.25,724.37c-2.55-11.48-3.26-23.15-3.42-34.87,1.69-.07,1.77-.08,1.85,1.61a227.12,227.12,0,0,0,3.08,30.9C855,723.34,854.9,724.32,853.25,724.37Zm1.86-89c-.21,1.28-.11,2.65-1.06,3.72L850.9,678.3c-2.11-1-1.18-2.9-1.13-4.38.27-7.79.69-15.56,1.05-23.35,1.57-3.68-.46-8.37,3.17-11.48-2.34-2.57-.59-5.35-.13-7.89,3.53-19.36,8.36-38.31,19-55.24,5.4-8.61,12-15.88,21.92-19.53A24.79,24.79,0,0,1,905,554.71c.09,1.12-.16,1.87-1.52,2-15.16,1.21-23.72,11.29-30.65,23.24C862.85,597.09,858.39,616.07,855.11,635.4Zm45.27,99.85c-2.59-4.07-3.28-8.7-3.34-13.37-.11-8.15,0-16.3.14-24.44a44.33,44.33,0,0,0-1.63-13.8c-1.75-5.71-4.55-10.37-11.24-11.11a1.19,1.19,0,0,1-1.15-1.33c4.6-1,9.1,1.29,11.94,6.21A32.09,32.09,0,0,1,899,693.69c0,8.48-.16,17-.18,25.45A35.41,35.41,0,0,0,900,728.5c1.87,6.9,3.14,8.19,9.83,9.07C906.82,740.06,902.84,739.12,900.38,735.25Zm72.8-57.73c-.89,14.3-3.77,28.5-1.91,43-2.09-2.55-2.21-5.53-2.36-8.54-.61-12,1.81-23.82,2.16-35.76.07-2.16.1-4.31.1-6.47,0-5.88-1.16-11-8.29-12.53,5.41-1.2,8.85,1.64,10,7.89A50.6,50.6,0,0,1,973.18,677.52Zm65.77,40c-7.47-8.09-10-18.14-11.37-28.65-1.72-13-.82-25.79,1.28-38.66,2.39.38,1.41,1.8,1.32,2.75-1.37,14.6-2.53,29.17.79,43.7a50.91,50.91,0,0,0,9.08,19.72ZM1108.29,645a1.29,1.29,0,0,1,1.23.23c.78.91-.09,1.5-.66,2-2.64,2.28-4.37,5.26-6.84,7.8C1102.38,650.62,1105.15,647.67,1108.29,645Zm-1.12,50.64c-5.38-5-9.6-10.94-8.89-19,2.57,10.49,9.33,17.72,17.64,24,6.13,4.61,12.19,9.39,17.2,15.65-.87.3-1.32.58-1.45.48C1123.46,709.73,1115.07,702.94,1107.17,695.62ZM1134,730.71c-.29,3.6-1.34,6.93-4.7,8.77-2.66,1.46-5.57,1.36-7.8-.94s-1.61-4.93,0-7.3c2.06-3.12,5.25-5,8.22-7.12,1.76-1.25,2.68-.61,3.2,1.27S1134.27,728.79,1134,730.71ZM1199,582c1.61-9.84,4-23.1,4-23a10.26,10.26,0,0,1,1-2c1.21,4.28-.14,7.83-.69,11.4-.66,4.31-1.38,8-2.14,13.39-.15,1,0,2.13-1.39,2C1198.77,583.74,1198.87,582.79,1199,582Zm-5.25,88.3a411.47,411.47,0,0,1,2.28-58.68c.12-7.37,1.58-14.59,2.54-21.86.11-.83-.22-2.31,1.29-2.13s.89,1.47.68,2.31c-1.89,7.77-2.26,15.72-2.74,23.65-.54,7.71-1.29,15.41-1.59,23.13-.36,9.29-.32,18.6-.49,27.9C1195.69,666.37,1196.26,668.3,1193.75,670.3Zm1.44,6.29c2.1,16.41,4.27,32.73,13.89,47.65C1201.13,720,1191.76,687.46,1195.19,676.59ZM1265.72,707c-4.25-8.14-5.25-17-5.64-26-.3-6.78-.67-13.62,1.08-20.31,1.59,1.89.15,4.26,1,6.27-.38,13.1.07,26.1,4.64,38.61a50.3,50.3,0,0,0,14.16,18.29A28.38,28.38,0,0,1,1265.72,707Zm100.41-46c3.06,1.2,4.33,3.95,4.73,7.08,1.14,8.87-6.95,22.39-15.27,25.46-.69.25-1.22-.29-1.54-.94.09-10.87-.85-22.07,10-29.22-1.71-1.41-2.8-.33-3.85.37-3.5,2.33-5,5.95-6.46,9.72-2.73,7.2-1.55,14.7-1.9,22.08-1.37.25-2.64.48-2.78-1.59-.68-9.71-.33-19.24,4.87-27.9a15.61,15.61,0,0,1,2.87-3.41A8.49,8.49,0,0,1,1366.13,661Zm-39.34,38.26c-5.6-18,2.08-40.21,17.19-49.75,3.7-2.69,8.25.15,12-1.84.61,1.75-.33,1.93-1.75,1.83-7.79-.53-13.24,3.51-17.8,9.2-11.6,14.48-12.63,36.89-2.36,50.7a36.11,36.11,0,0,0,17.12,12.36c1.61.6,3.64.61,4.74,2.51C1344.89,724.65,1331,712.64,1326.79,699.21Zm-190.19,40c-2-1.43-1-2.62-.73-3.64,1.17-4.14,1.39-8.22-.41-12.24-.42-.94-1.24-2.07.23-2.59s1.58,1,1.89,1.89A20.16,20.16,0,0,1,1136.6,739.24Zm-190.82-89.5c-5.65-3.25-9.29-7.89-9.5-14.57-.12-3.93,1.56-6.84,5.48-8.07,4.1-1.29,7,.82,9,3.94a25.76,25.76,0,0,1,4.2,14.78c-.23,1.76,0,5.16-1.7,6.18" transform="translate(-320.28 -267.5)"/><path class="cls-64" d="M1381.25,660.65c1.77,14.79-6.88,24.8-16.26,34.52,9.25-6.37,16.1-14.25,17.84-25.6,2-13.92-4.47-24.82-14.86-24.24C1375.68,647.74,1379.43,653.4,1381.25,660.65Z" transform="translate(-320.28 -267.5)"/><path class="cls-65" d="M1389,695c-1.36.06-2.27.73-2.17,2.16.12,1.6,1.3,2.19,2.66,2.39,1.57-.08,2-1.15,2.1-2.37C1391.7,695.35,1390.51,694.91,1389,695Z" transform="translate(-320.28 -267.5)"/><path class="cls-66" d="M1372.7,701.41a1.63,1.63,0,0,0,1.7,1.41,1.6,1.6,0,0,0,0-3.19C1373.25,699.61,1372.56,700.21,1372.7,701.41Z" transform="translate(-320.28 -267.5)"/><path class="cls-67" d="M1457.62,704.21c-1.16,0-1.85.58-1.71,1.77a1.63,1.63,0,0,0,1.7,1.42,1.6,1.6,0,0,0,0-3.19Z" transform="translate(-320.28 -267.5)"/><path class="cls-68" d="M1284.34,612.28c-4.35-.29-7.77,1.1-10.11,4.38l-5.27-2.45a6,6,0,0,0-6.94.78c-4.38,3.9-4.67,8.17-.06,12.49,3.23,3,7.25,5.4,9.54,9.24,1.79,3,4.11,3,6.39.19,3.36-4.15,6.53-8.41,9.83-12.59a9.73,9.73,0,0,0,2-7.49C1289.37,614.09,1287.48,612.48,1284.34,612.28Zm-12.13,22-.13-.13a23.24,23.24,0,0,0-6-6.11,21.78,21.78,0,0,1-3.08-2.59,7,7,0,0,1-2-3.37,4.5,4.5,0,0,1,.57-3.66,4.79,4.79,0,0,1,3.56-2,4.25,4.25,0,0,1,2.74.59l.09.06,0,0,0,0a1.1,1.1,0,0,1-1.54.14,3.13,3.13,0,0,0-2.88.59c-.67.91-1.83,2-1.71,3.05a7.1,7.1,0,0,0,2.64,4.65c1.13,1,2.34,1.87,3.52,2.79a21.51,21.51,0,0,1,4.77,5.08c.08.11.15.23.24.37Z" transform="translate(-320.28 -267.5)"/><path class="cls-69" d="M1290.23,627.05c-.12.16-.33.25-.31.62.6-.19,1.27-.06,1.75-.64a19,19,0,0,0,4.06-7.69c1.25-5.11-.85-10.35-4.6-11.44a8.78,8.78,0,0,0-5.27.5l-.16-.06a.81.81,0,0,0-.61.37l.64-.16c.06.2.2.07.31.06a6.77,6.77,0,0,1,3.85.33c3.52,1.6,5.17,7,3.63,11.93A20.37,20.37,0,0,1,1290.23,627.05Z" transform="translate(-320.28 -267.5)"/><path class="cls-70" d="M837.64,364.11c-.33-2.74-2.22-4.34-5.36-4.55-4.35-.28-7.76,1.1-10.11,4.38l-5.27-2.45a6,6,0,0,0-6.93.79c-4.39,3.89-4.67,8.16-.07,12.49,3.23,3,7.26,5.4,9.55,9.23,1.78,3,4.1,3,6.39.19,3.35-4.15,6.53-8.4,9.82-12.59A9.74,9.74,0,0,0,837.64,364.11Zm-17.49,17.41-.12-.14a23.25,23.25,0,0,0-6-6.1,21.77,21.77,0,0,1-3.07-2.6l-2-3.37a4.5,4.5,0,0,1,.57-3.66,4.81,4.81,0,0,1,3.56-2,4.32,4.32,0,0,1,2.74.59l.09.06,0,.05,0,0a1.1,1.1,0,0,1-1.53.14,3.11,3.11,0,0,0-2.89.58c-.67.92-1.82,2-1.7,3.06a7.13,7.13,0,0,0,2.63,4.65l3.53,2.78a22,22,0,0,1,4.77,5.09l.23.36Z" transform="translate(-320.28 -267.5)"/><path class="cls-71" d="M454,299.49c.29-.18.53-.05.89-.17a.71.71,0,0,0-.87-.12c-.32-.08-.32.11-.35.25S453.87,299.51,454,299.49Z" transform="translate(-320.28 -267.5)"/><path class="cls-72" d="M392.92,343.5c-2.35-.82-4.4.37-6.54.73l-14.31,6.47c-1.31,1-2.63,1.94-3.91,3-11.59,9.18-17.33,20.78-14.15,35.79,1.27,6,3.94,11.35,9.32,15.17,1-1.78,0-2.41-.64-3.17-9.78-11.49-10.21-26.26-1-38.29,6.91-9.06,16.45-14,27.07-17.24C390.25,345.46,392.38,345.81,392.92,343.5Z" transform="translate(-320.28 -267.5)"/><path class="cls-73" d="M917.22,407.78c-10.69.07-19.51,15.82-18.47,31.77,1.09,16.66,10.47,28.89,21.53,27.24-14.5-4.12-19-15.18-19.49-28.39C900.34,425.39,904.35,414.13,917.22,407.78Z" transform="translate(-320.28 -267.5)"/><path class="cls-74" d="M841.08,400.18c-1.6,9.76-3.07,19.54-3.34,29.43-.24,8.83-.4,17.69,2.65,26.2,2.43,8.21,6,10,11.35,5.37,5.12-4.44,8.72-10.12,12-16,.38-.67.39-1.43-.87-2.05-2.61,3.8-5.13,7.75-8,11.47-2.21,2.91-4.33,6.94-8.44,6.46s-3.71-5.22-5.24-8.13h0c-3.08-18.3-.41-36.47,2-54.88C841.31,398.4,841.22,399.29,841.08,400.18Z" transform="translate(-320.28 -267.5)"/><path class="cls-75" d="M755.52,392.88a23.64,23.64,0,0,1,7.16,9.6c4.28,9.91,4.05,20.1,1.85,30.42-.28,1.33-1.38,2.71,0,4.13,2-.48,1.7-2.37,2-3.64a52.36,52.36,0,0,0-.58-28.39A27.45,27.45,0,0,0,757,391.31c-.84-.68-2-2.2-3-1S754.71,392.25,755.52,392.88Z" transform="translate(-320.28 -267.5)"/><path class="cls-76" d="M761.36,497.16c6-9.59,6-20.14,4.37-30.86-.15-.95-.3-2.47-1.66-2.2s-.77,1.62-.53,2.57a39.29,39.29,0,0,1,.55,16.92c-1.63,9.1-5.2,16.9-14.52,20.53-.87.34-1.7.63-1.45,2.53A19.86,19.86,0,0,0,761.36,497.16Z" transform="translate(-320.28 -267.5)"/><path class="cls-77" d="M644.38,505.15c-.08.06,0,.28-.23,1.67a21.48,21.48,0,0,0,14.24-10.94c5.05-9.23,5.3-19.15,3.66-29.27-.17-1.05-.19-2.89-1.77-2.46s-.52,2-.31,3C663.45,484.84,659.2,495.2,644.38,505.15Z" transform="translate(-320.28 -267.5)"/><path class="cls-78" d="M919.9,393.56a17.72,17.72,0,0,1,10.19,6.89c4.44,5.79,5.49,12.49,4.79,19.59-.13,1.35-1.29,2.85.72,4.37,4.22-10.69-.1-24.69-9.35-30.5a29.76,29.76,0,0,0-5.69-2.57c-1-.38-2.66-.89-3,.76C917.35,393.49,919,393.35,919.9,393.56Z" transform="translate(-320.28 -267.5)"/><path class="cls-79" d="M729,401.72c.84-.69,2.79-1.18,1.85-2.5s-2.36.14-3.31.86c-9.34,7.06-7,22.85,4.82,28.47-.88-3.07-3-4.09-4.43-5.71C722.07,416.07,722.5,407.13,729,401.72Z" transform="translate(-320.28 -267.5)"/><path class="cls-80" d="M627,399c-.47-.7-1.16-.31-1.56,0a18.62,18.62,0,0,0-3.46,2.77c-7.27,8.21-4.63,20.46,5.73,26.56.61-.92.48-1.44.06-1.95-10.44-12.57-10.45-12.8-1-25.75A1.26,1.26,0,0,0,627,399Z" transform="translate(-320.28 -267.5)"/><path class="cls-81" d="M552.71,393.22c3.75,1.49,6,4.55,8.15,7.7-.05.3-.1.6-.14.89,2,4,1.88,8.33,2.2,12.6a31.88,31.88,0,0,1-2.24,8.08c-2.92,6.85-7.73,12.17-12.81,17.28-1.07,1.08-1.82,1.68-.77,3.71,8.49-7.23,15.59-15,17.3-26.38,1.73-6.39.31-12.3-2.65-18-1.09-4.31-4.79-6-8-8.14-1.16.3-2.9-1.31-3.44.43C549.78,393,551.74,392.84,552.71,393.22Z" transform="translate(-320.28 -267.5)"/><path class="cls-82" d="M651.33,392.63c3.11,2.15,5.09,5.26,7.12,8.33,5.34,11.77,4.46,23.94,1.28,37.19,6.17-5.93,5.95-31.29-.32-39.07-1.2-3.51-3.79-5.9-6.54-8.14-.74-.6-1.74-1.71-2.65-.67S650.57,392.1,651.33,392.63Z" transform="translate(-320.28 -267.5)"/><path class="cls-83" d="M357,334.16c1.51.08,1.78-1.28,2.05-2.5,0-1.69-1-2.38-2.54-2.31-1.26,0-2.41.57-2.4,2.06A2.7,2.7,0,0,0,357,334.16Z" transform="translate(-320.28 -267.5)"/><path class="cls-84" d="M589.25,306c1.48.13,1.88-1.1,2.08-2.32a2.09,2.09,0,0,0-2.34-2.48c-1.25,0-2.39.56-2.46,2C586.44,305,587.67,305.9,589.25,306Z" transform="translate(-320.28 -267.5)"/><path class="cls-85" d="M485.68,371c-1.61,0-2.54.87-2.35,2.51A2.64,2.64,0,0,0,486,376c1.69-.26,2.07-1.52,2-2.93A2,2,0,0,0,485.68,371Z" transform="translate(-320.28 -267.5)"/><path class="cls-86" d="M639.12,302.15A2.5,2.5,0,0,0,642,300c.22-1.62-.8-2.37-2.27-2.59-1.54,0-2.6.69-2.54,2.33C637.19,300.91,637.65,302.11,639.12,302.15Z" transform="translate(-320.28 -267.5)"/><path class="cls-87" d="M836.26,330c1.55,0,1.77-1.32,2-2.65a2.41,2.41,0,0,0-4.81.34A2.44,2.44,0,0,0,836.26,330Z" transform="translate(-320.28 -267.5)"/><path class="cls-88" d="M742.83,302.13c1.68-.11,2.78-.82,2.87-2.4a2.08,2.08,0,0,0-2.19-2.28c-1.55-.09-2.64.56-2.56,2.27C741,301,741.47,302.06,742.83,302.13Z" transform="translate(-320.28 -267.5)"/><path class="cls-89" d="M926.14,438.87c.13,1.53,1.09,2.37,2.85,2.59A2.37,2.37,0,0,0,930.8,439c.09-1.73-1-2.39-2.51-2.35C926.89,436.66,926,437.4,926.14,438.87Z" transform="translate(-320.28 -267.5)"/><path class="cls-90" d="M496.7,411.41c-1.32.07-2.27.62-2.22,2.13a2.6,2.6,0,0,0,2.5,2.6c1.71.2,2.14-1.12,2.3-2.67C499.27,411.83,498.2,411.33,496.7,411.41Z" transform="translate(-320.28 -267.5)"/><path class="cls-91" d="M568.09,436.62c-1.38,0-2.31.66-2.26,2.12a2.5,2.5,0,0,0,2.48,2.62c1.78.09,2-1.44,2.25-2.7A2.21,2.21,0,0,0,568.09,436.62Z" transform="translate(-320.28 -267.5)"/><path class="cls-92" d="M474.48,435.12c-1.38.1-2.29.89-2.15,2.27a2.65,2.65,0,0,0,2.6,2.49c1.61-.08,2-1.26,2.05-2.46C477.07,435.78,476.1,435,474.48,435.12Z" transform="translate(-320.28 -267.5)"/><path class="cls-93" d="M809.53,301.75c1.45,0,2.07-.81,2.27-2.12.23-1.61-.38-2.59-2.06-2.61-1.4,0-2.69.37-2.7,2.12C807,300.73,808.22,301.34,809.53,301.75Z" transform="translate(-320.28 -267.5)"/><path class="cls-94" d="M591.16,471.77a2.18,2.18,0,0,0-2.38,2.43c.32,1.22.72,2.39,2.24,2.24a2.46,2.46,0,0,0,2.42-2.59A2,2,0,0,0,591.16,471.77Z" transform="translate(-320.28 -267.5)"/><path class="cls-95" d="M694.88,471.75a2.08,2.08,0,0,0-2.26,2.56c.15,1.27.69,2.34,2.21,2.13a2.53,2.53,0,0,0,2.41-2.72A2,2,0,0,0,694.88,471.75Z" transform="translate(-320.28 -267.5)"/><path class="cls-96" d="M455.44,523.31a1.92,1.92,0,0,0-2.19,1.89,2.42,2.42,0,0,0,2.22,2.81c1.75.28,2.31-1,2.43-2.44S457.09,523.47,455.44,523.31Z" transform="translate(-320.28 -267.5)"/><path class="cls-97" d="M552.34,491.65a1.52,1.52,0,0,0-1.36,1.89,1.88,1.88,0,0,0,2.11,1.76c.93-.12,1.33-1,1.36-2A1.73,1.73,0,0,0,552.34,491.65Z" transform="translate(-320.28 -267.5)"/><path class="cls-98" d="M514,354.15c1-.08,1.4-.94,1.35-1.89a1.54,1.54,0,0,0-1.67-1.61c-1,.12-1.67.66-1.64,1.67A1.71,1.71,0,0,0,514,354.15Z" transform="translate(-320.28 -267.5)"/><path class="cls-99" d="M811.51,529.88a1.77,1.77,0,0,0,2,1.87c1-.07,1.48-.88,1.47-1.9a1.67,1.67,0,0,0-1.82-1.6A1.48,1.48,0,0,0,811.51,529.88Z" transform="translate(-320.28 -267.5)"/><path class="cls-100" d="M869.51,534.62a1.78,1.78,0,0,0,2,1.49,1.67,1.67,0,0,0,1.56-1.83,1.55,1.55,0,0,0-1.71-1.64C870.07,532.65,869.27,533.34,869.51,534.62Z" transform="translate(-320.28 -267.5)"/><path class="cls-101" d="M386.6,435.32c.29.56.6,1.36,1.61,1.48s1.58-.55,1.65-1.51a1.5,1.5,0,0,0-1.45-1.77C387.39,433.42,386.85,434.06,386.6,435.32Z" transform="translate(-320.28 -267.5)"/><path class="cls-102" d="M938.68,520.39c0-1-.85-1.45-1.81-1.39a1.52,1.52,0,0,0-1.63,1.6,1.89,1.89,0,0,0,1.68,1.73C938.21,522.43,938.71,521.49,938.68,520.39Z" transform="translate(-320.28 -267.5)"/><path class="cls-103" d="M323.45,298.69a1.4,1.4,0,0,0-1.6-1.23c-1,.1-1.76.59-1.54,1.7a2,2,0,0,0,1.88,1.64A1.86,1.86,0,0,0,323.45,298.69Z" transform="translate(-320.28 -267.5)"/><path class="cls-104" d="M693.48,520.82c.09-1-.27-1.76-1.46-1.86-.82.25-1.77.5-1.61,1.66.12.93.63,1.79,1.7,1.72A1.56,1.56,0,0,0,693.48,520.82Z" transform="translate(-320.28 -267.5)"/><path class="cls-105" d="M771.21,387.09a1.53,1.53,0,0,0,1.55-1.27,1.45,1.45,0,0,0-1.26-1.91,1.37,1.37,0,0,0-1.58,1.2A1.61,1.61,0,0,0,771.21,387.09Z" transform="translate(-320.28 -267.5)"/><path class="cls-106" d="M324.86,406.49a1.51,1.51,0,0,0-1.47,1.81,1.6,1.6,0,0,0,1.73,1.6c1-.06,1.46-.84,1.5-2A1.64,1.64,0,0,0,324.86,406.49Z" transform="translate(-320.28 -267.5)"/><path class="cls-107" d="M883,338.53c1.21.11,1.37-.85,1.45-1.75a1.51,1.51,0,0,0-1.85-1.45,1.38,1.38,0,0,0-1.29,1.51A1.66,1.66,0,0,0,883,338.53Z" transform="translate(-320.28 -267.5)"/><path class="cls-108" d="M506.46,522.24a1.4,1.4,0,0,0-1.66,1.11,1.62,1.62,0,0,0,1.29,2c1.07.29,1.65-.33,1.9-1.34A1.49,1.49,0,0,0,506.46,522.24Z" transform="translate(-320.28 -267.5)"/><path class="cls-109" d="M795.6,477.74a1.64,1.64,0,0,0,1.5,1.79,1.57,1.57,0,0,0,1.74-1.54c.14-1-.51-1.57-1.74-1.77A1.55,1.55,0,0,0,795.6,477.74Z" transform="translate(-320.28 -267.5)"/><path class="cls-110" d="M598.44,374.78c.88-.06,1.09-.77,1.16-1.76a1.52,1.52,0,0,0-1.71-1.29c-.77,0-1.42.42-1.4,1.29A1.64,1.64,0,0,0,598.44,374.78Z" transform="translate(-320.28 -267.5)"/><path class="cls-111" d="M700.3,325.62a1.38,1.38,0,0,0,1.25-1.56c0-.89-.63-1.27-1.42-1.42-.7.24-1.47.52-1.48,1.4A1.41,1.41,0,0,0,700.3,325.62Z" transform="translate(-320.28 -267.5)"/><path class="cls-112" d="M745,430.75A2.25,2.25,0,0,0,743.5,432a1.52,1.52,0,0,0,1.32,1.91c1.06.18,1.5-.59,1.74-1.85C746.36,431.53,746.09,430.58,745,430.75Z" transform="translate(-320.28 -267.5)"/><path class="cls-113" d="M639.82,432a1.55,1.55,0,0,0,1.43,1.87c.82.08,1.29-.61,1.35-1.42s-.22-1.42-1-1.58C640.68,430.85,640,431.27,639.82,432Z" transform="translate(-320.28 -267.5)"/><path class="cls-114" d="M361.37,477.78c8-6.49,17.48-10.13,27-13.68,1.5-.56,3.77-.25,4.05-2.74-1.58-.57-2.9.65-4.4.63-3.63,1.11-6.82,3.42-10.69,3.81-7.42,4-15.1,7.57-21.06,13.83-8.54,9-9.52,19.51-2.3,28.26a34.35,34.35,0,0,0,17.91,11.22c.92.25,2,.92,2.8-1.08-5-2-10.2-3.71-14.56-7.13-10.66-8.38-11.73-19.41-2.65-29.44A35.68,35.68,0,0,1,361.37,477.78Z" transform="translate(-320.28 -267.5)"/><path class="cls-115" d="M415.26,465.57c1.18.2,1.52-.61,1.73-1.61a1.47,1.47,0,0,0-1.5-1.72c-1-.05-1.78.42-1.8,1.47A1.77,1.77,0,0,0,415.26,465.57Z" transform="translate(-320.28 -267.5)"/><path class="cls-116" d="M1286.74,407.94a2.67,2.67,0,0,0,2.23-2.8c0-1.53-1.24-2-2.46-2.06-1.74-.07-2.26,1.17-2.19,2.69A2.1,2.1,0,0,0,1286.74,407.94Z" transform="translate(-320.28 -267.5)"/><path class="cls-117" d="M1045,307.06c1.39.11,1.9-1.11,2.07-2,.26-1.89-.63-2.51-1.94-2.66s-2.42,0-2.57,1.62A2.52,2.52,0,0,0,1045,307.06Z" transform="translate(-320.28 -267.5)"/><path class="cls-118" d="M1200.34,511.41a2.05,2.05,0,0,0-2.07-2.4c-1.66-.22-2.51.64-2.57,2.25,0,1.34.55,2.37,2,2.46A2.46,2.46,0,0,0,1200.34,511.41Z" transform="translate(-320.28 -267.5)"/><path class="cls-119" d="M1082.44,327.49c1.22.28,1.82-.55,2.19-1.84a1.49,1.49,0,0,0-1.54-1.49,1.56,1.56,0,0,0-1.89,1.32A1.66,1.66,0,0,0,1082.44,327.49Z" transform="translate(-320.28 -267.5)"/><path class="cls-120" d="M1207,373.83a1.79,1.79,0,0,0,1.74-1.61c.16-1.33-.8-1.78-1.89-1.76a1.48,1.48,0,0,0-1.48,1.74A1.55,1.55,0,0,0,1207,373.83Z" transform="translate(-320.28 -267.5)"/><path class="cls-121" d="M1118.31,411.57a1.88,1.88,0,0,0,1.78-2.1c0-1-.89-1.46-1.9-1.42s-1.55.8-1.54,1.77A1.57,1.57,0,0,0,1118.31,411.57Z" transform="translate(-320.28 -267.5)"/><path class="cls-122" d="M1288,497.32a1.53,1.53,0,0,0,1.43,1.8,1.74,1.74,0,0,0,1.9-1.88c0-1.05-.74-1.46-1.94-1.63C1288.76,495.93,1288,496.27,1288,497.32Z" transform="translate(-320.28 -267.5)"/><path class="cls-123" d="M964.92,535.68a1.48,1.48,0,0,0-1.68-1.53c-1,.06-1.71.58-1.72,1.54a1.73,1.73,0,0,0,2,1.81A1.57,1.57,0,0,0,964.92,535.68Z" transform="translate(-320.28 -267.5)"/><path class="cls-124" d="M975,339.77c1.11.05,1.53-.65,1.54-1.68a1.49,1.49,0,0,0-1.76-1.52c-1,0-1.75.56-1.61,1.64A1.75,1.75,0,0,0,975,339.77Z" transform="translate(-320.28 -267.5)"/><path class="cls-125" d="M1044.93,363.79c-1,.14-1.62.7-1.45,1.8a1.71,1.71,0,0,0,1.77,1.63c1.16,0,1.38-1,1.39-1.91C1046.65,364.23,1046,363.71,1044.93,363.79Z" transform="translate(-320.28 -267.5)"/><path class="cls-126" d="M1061.64,487.59a1.6,1.6,0,0,0-1.62-1.7c-1.11-.12-1.6.6-1.66,1.59a1.44,1.44,0,0,0,1.52,1.72A1.64,1.64,0,0,0,1061.64,487.59Z" transform="translate(-320.28 -267.5)"/><path class="cls-127" d="M1257.6,335.42a1.61,1.61,0,0,0,1.69-1.67c0-1.14-.73-1.52-1.67-1.73-1.21.11-1.34,1-1.31,1.93S1256.66,335.46,1257.6,335.42Z" transform="translate(-320.28 -267.5)"/><path class="cls-128" d="M1130.6,361.54c1.05,0,1.56-.66,1.68-1.66a1.61,1.61,0,0,0-1.84-1.48,1.39,1.39,0,0,0-1.37,1.44A1.43,1.43,0,0,0,1130.6,361.54Z" transform="translate(-320.28 -267.5)"/><path class="cls-129" d="M1029.17,523.65a1.46,1.46,0,0,0,1.36-1.5c.07-1.1-.59-1.61-1.66-1.59s-1.78.5-1.62,1.6A1.69,1.69,0,0,0,1029.17,523.65Z" transform="translate(-320.28 -267.5)"/><path class="cls-130" d="M1247.77,448.24c-1.56-3.87-1.36-7.15,2.48-9.72-3.68,2-6.54.69-9.45-1.86,2.15,3.31,1.16,5.75-2.62,8.55C1243.07,443.91,1245.92,444.56,1247.77,448.24Z" transform="translate(-320.28 -267.5)"/><path class="cls-131" d="M1133.68,464.14c-2.39-1.42-2.76-3.14-2-5.33-1.65,1.85-3.84,1.72-6.23,1.55,2.94,1.12,2.11,3.15,1.71,6C1129.06,463.38,1131.11,463.25,1133.68,464.14Z" transform="translate(-320.28 -267.5)"/><path class="cls-132" d="M851.77,428.61c1.4-.07,1.81-1,1.88-2.14.1-1.62-1-2-2.32-2s-2,.65-1.94,1.94C849.49,427.89,850.55,428.42,851.77,428.61Z" transform="translate(-320.28 -267.5)"/><path class="cls-133" d="M1089.74,373.74c-1.56-3.86-1.36-7.15,2.48-9.71-3.68,2-6.54.68-9.45-1.86,2.15,3.3,1.16,5.75-2.62,8.54C1085,369.41,1087.89,370.07,1089.74,373.74Z" transform="translate(-320.28 -267.5)"/><path class="cls-134" d="M943.75,338.6c-1.56-3.87-1.36-7.15,2.48-9.72-3.68,2-6.53.69-9.45-1.86,2.15,3.31,1.16,5.75-2.62,8.55C939.05,334.27,941.9,334.92,943.75,338.6Z" transform="translate(-320.28 -267.5)"/><path class="cls-135" d="M1007.33,340.53c2.14-3.95,4.48-4.12,7.39-2.92-2.71-1.9-3.14-4.2-2.26-7.12-1.88,2.46-4.36,2.29-7.08,2.06C1008.73,334.05,1007.78,336.76,1007.33,340.53Z" transform="translate(-320.28 -267.5)"/><path class="cls-136" d="M873.88,308.09c2.14-3.95,4.48-4.12,7.39-2.92-2.71-1.9-3.14-4.2-2.26-7.12-1.88,2.46-4.36,2.29-7.08,2.06C875.28,301.61,874.33,304.32,873.88,308.09Z" transform="translate(-320.28 -267.5)"/><path class="cls-137" d="M698.74,364.73c-1.56-3.87-1.35-7.15,2.48-9.71-3.68,2-6.53.68-9.45-1.86,2.16,3.3,1.17,5.75-2.62,8.54C694.05,360.4,696.9,361.06,698.74,364.73Z" transform="translate(-320.28 -267.5)"/><path class="cls-138" d="M571.71,376c-1.56-3.86-1.35-7.14,2.48-9.71-3.68,2-6.53.69-9.45-1.86,2.15,3.3,1.17,5.75-2.62,8.55C567,371.72,569.87,372.37,571.71,376Z" transform="translate(-320.28 -267.5)"/><path class="cls-139" d="M587.37,354.68c3.34,1.5,2.4,4.21,1.94,8,2.14-4,4.48-4.12,7.4-2.92-2.71-1.9-3.14-4.2-2.26-7.12C592.57,355.08,590.09,354.91,587.37,354.68Z" transform="translate(-320.28 -267.5)"/><path class="cls-140" d="M528.41,321.21c2.14-3.95,4.48-4.12,7.39-2.93-2.71-1.89-3.13-4.19-2.26-7.11-1.88,2.46-4.36,2.29-7.07,2.06C529.81,314.73,528.87,317.44,528.41,321.21Z" transform="translate(-320.28 -267.5)"/><path class="cls-141" d="M401.5,375.72c4.9-1.3,7.75-.65,9.59,3-1.56-3.87-1.35-7.15,2.48-9.71-3.68,2-6.53.68-9.45-1.87C406.28,370.48,405.29,372.92,401.5,375.72Z" transform="translate(-320.28 -267.5)"/><path class="cls-142" d="M383.87,484.92c2.15,3.31,1.17,5.75-2.62,8.55,4.9-1.3,7.75-.65,9.59,3-1.56-3.87-1.35-7.15,2.48-9.71C389.64,488.78,386.79,487.47,383.87,484.92Z" transform="translate(-320.28 -267.5)"/><path class="cls-143" d="M570.56,523.84c-1.88,2.46-4.36,2.29-7.07,2.06,3.34,1.5,2.4,4.21,1.94,8,2.14-4,4.48-4.12,7.39-2.93C570.11,529.06,569.69,526.76,570.56,523.84Z" transform="translate(-320.28 -267.5)"/><path class="cls-144" d="M648.66,527.31c-3.26-2.09-3-4.83-1.62-8.23-3,2.62-5.6,3.8-8.92,2.37,3.19,2.32,3.49,5.29,2.53,8.78C642.6,527.23,645,525.88,648.66,527.31Z" transform="translate(-320.28 -267.5)"/><path class="cls-145" d="M752.67,521.83c-3.68,2-6.53.68-9.45-1.86,2.15,3.3,1.17,5.75-2.62,8.55,4.9-1.31,7.75-.65,9.59,3C748.63,527.68,748.84,524.39,752.67,521.83Z" transform="translate(-320.28 -267.5)"/><path class="cls-146" d="M903.78,495.5c-3.67,2-6.53.68-9.44-1.86,2.15,3.3,1.16,5.75-2.62,8.54,4.89-1.3,7.74-.65,9.58,3C899.74,501.34,900,498.06,903.78,495.5Z" transform="translate(-320.28 -267.5)"/><path class="cls-147" d="M841.68,492.12c3.19,2.32,3.48,5.29,2.53,8.77,1.95-3,4.3-4.35,8-2.91-3.27-2.09-3-4.83-1.62-8.24C847.6,492.36,845,493.54,841.68,492.12Z" transform="translate(-320.28 -267.5)"/><path class="cls-148" d="M983.83,495c3.19,2.32,3.49,5.29,2.53,8.78,2-3,4.31-4.35,8-2.92-3.27-2.09-3-4.83-1.62-8.24C989.76,495.27,987.16,496.44,983.83,495Z" transform="translate(-320.28 -267.5)"/><path class="cls-149" d="M833,356.9a6.74,6.74,0,0,1,3.84.32c3.52,1.6,5.17,7,3.63,11.94a20.61,20.61,0,0,1-3.29,6.18c-.12.16-.33.25-.31.61.6-.19,1.28-.06,1.75-.63a19,19,0,0,0,4.06-7.7c1.25-5.11-.85-10.34-4.6-11.44a8.67,8.67,0,0,0-5.26.51l-.17-.07a.82.82,0,0,0-.61.37l.64-.16C832.73,357,832.87,356.9,833,356.9Z" transform="translate(-320.28 -267.5)"/><path class="cls-150" d="M931.61,467.52c-12.81,6.35-26.85,1.27-32.56-11.82-5.82-13.34-4.94-26.61,1.51-39.49,2.48-4.95,6.27-8.75,11.82-10.32,9-2.55,15.91,2.71,15.83,12.06,0,2.1-.34,4.19-.35,6.28a1.89,1.89,0,0,0,1.93,2.06c1,0,1.48-.73,1.85-1.63,4.51-11.07-2-24.9-13.27-28.91-2.49-.89-5.19-.69-7.51-2-.51-1.18-1.74-.56-2.54-1l-9,0-2.86.87c-2.44-.16-4.54.76-6.68,1.87-16.73,8.68-22.88,23.47-22.59,41.28.11,6.91-1.89,12.55-5.23,18.1-2.94,4.89-6.09,9.66-11.16,12.66-5.7,3.39-10.83,1.94-13.84-4a31.43,31.43,0,0,1-3.14-9.33A146.57,146.57,0,0,1,835,402.72c.72-3.71-.37-5.45-3.3-6.67a34.68,34.68,0,0,0-21.5-1.73,8.1,8.1,0,0,0-6.62,7c-.92,5.16-1.87,10.26-4.19,15.09-8.8,18.38-24.08,29.76-41.21,39.23-1.08.6-2.07,1.13-3-.35-6.16-9.6-15.72-15.41-24.44-22.18-5.22-4.06-10.2-8.49-11.78-15.37-1.54-6.68-.65-12.94,4.51-17.85,5-4.75,10.89-5.05,17.12-2.8,8.25,3,13.26,9,15.46,17.34,2.12,8,.54,15.76-1.76,23.47-.41,1.38-2.1,3.15.24,4.28,2.15,1,3.72-.21,4.9-2,1.54-2.3,2-5,2.48-7.64,1.75-10.35,2.62-20.68-2.85-30.26-6.84-12-21.62-17.74-37.48-14.86-14.47,2.63-23.46,11.79-26.13,27a23.15,23.15,0,0,1-3.21,8.29c-9.21,14.91-22.86,24.66-37.82,32.89-1.08.59-2.08,1.14-3-.33-6.09-9.68-15.7-15.43-24.4-22.22-5.22-4.07-10.14-8.51-11.82-15.35s-.6-12.92,4.5-17.84c4.95-4.77,10.86-5.06,17.1-2.85a25.19,25.19,0,0,1,16.38,22.16c.43,6.72-.89,13.13-2.92,19.45-.38,1.21-1.34,2.6.48,3.49a3.32,3.32,0,0,0,4.07-.88,9.65,9.65,0,0,0,2.52-4.71c2-8.69,3-17.46,1.09-26.31-1.63-7.34-5.43-13.39-11.78-17.4-12.53-7.89-25.8-8.32-38.86-1.93-12.06,5.9-16.09,17-16.63,29.78a21.56,21.56,0,0,1-1,6.64c-3.42,9.3-7.17,18.47-13.21,26.43-3.81,5-7.92,9.77-14.1,12-9.43,5.17-19.42,2.93-25.56-5.78a29.88,29.88,0,0,1-4.62-9.17c-.41-1.46-1.74-3.41.43-4.31,2.76-1.16,1.55,2.18,2.76,2.92,3.15,12.35,16.45,20.9,23.18,14.81-2.65-1.13-5.67.46-8.18-1.19-4.27-.69-7.22-3.24-9.64-6.68-2.09-3-3-6.49-4.49-9.71a2.22,2.22,0,0,0-.17.9,2.22,2.22,0,0,1,.17-.9c-.56-2.42,1.5-2.9,2.85-4,12.36-9.69,23.09-20.27,20.32-38.13-2.56-6-7.14-9.61-13.36-11.21a1.61,1.61,0,0,1-2.06-.53,7.37,7.37,0,0,0-1.59-.47c-7.2-1.88-14-.55-20.59,3.05a17,17,0,0,0-6.35,4.45c-7.2,6.41-10.73,14.78-12.34,24a13.42,13.42,0,0,1-3.86,7.74c-3.94,3.92-8.72,6.59-13.27,9.62-7,2.58-13.91,5.3-21.29,6.67-2.77.51-3-.4-2.66-2.7.9-5.31,1.88-10.63,2.52-16,4-33.54,3.3-67.1-.14-100.63-.52-5-.86-10.13-2.3-15.25a8.94,8.94,0,0,1,1.83-2c1.34-1,2.34-2.16,3.69-3.15.07.06.18,0,.3,0,.22.18-.05.57.26.71,0,.19.2.25.43.28.11.21,0,.54.2.7,0,.25.22.33.43.44,0,.22-.24.49-.08.68,0,.24.23.32.39.45-.05.17-.09.33-.13.49-.16.38.05.61.26.83-.23.24-.07.38,0,.55s0,.36.12.49l.1.27a1.33,1.33,0,0,0,.37.8,1,1,0,0,0,1.09.42c.36-.1.47-.33.64-.54s.44-.34.29-.52a.17.17,0,0,0,0-.1l.08-.14c.15-.45.63-.92.59-1.36l.09-.25c.12-.06.27-.1.23-.22a1.71,1.71,0,0,0,.24-1.06l.22-.25h0c.6.37.78,1,1.25,1.45.06.09,0,.23.22.24h0c.1.2.21.39.31.58s.11.18.25.21a4.29,4.29,0,0,0,1.15,1.69h0l.24.42c.1.1.06.28.26.32h0v0l0,0a1.14,1.14,0,0,0,.34.59l1.75,2.37a7,7,0,0,0,1.64,2.46.61.61,0,0,0,.71.18,1.22,1.22,0,0,0,.74-.65l.16-.32c.63.22.78.74,1.06,1.17a2.85,2.85,0,0,0,1.12,1.11,1.61,1.61,0,0,0,1.65-.16,1.86,1.86,0,0,0,.65-.7,5.43,5.43,0,0,1,1.24-1.69c.29-.13.5,0,.79-.13a1.39,1.39,0,0,0,1.27-.75,3,3,0,0,1,1-.92h0a2.31,2.31,0,0,1,1.35.2,5.55,5.55,0,0,1,1.58,1.46,13,13,0,0,1,1.48,2.72l0,.09c.05.12.11.24.16.35l.09.18c.09.68.82,1,1.18,1.52a1.76,1.76,0,0,0,1.22.53,1.83,1.83,0,0,0,1.59-.71.81.81,0,0,0,.25-.63,2.32,2.32,0,0,0-.86-2c-1.23-1.38-2.86-2.51-3.78-4.08-.3-.73-1.07-1.19-1.43-1.88a13.44,13.44,0,0,1-.88-1.93c-.18-.23-.08-.54,0-.83a3.29,3.29,0,0,0,0-1.08,2.26,2.26,0,0,1,.92-1.09c.28-.19.51-.46.39-.7.15-.76-.43-1.16-.91-1.6a4.4,4.4,0,0,1-.64-2.15,2.08,2.08,0,0,1,.62-1.68.63.63,0,0,0,.41-.65c0-.74-.56-1.18-1.12-1.6a3.38,3.38,0,0,1-1.43-2.61c0-.62,0-1.29-.55-1.71a6.89,6.89,0,0,0-2.1-1.12,19.45,19.45,0,0,0-2.94-1.55,2.76,2.76,0,0,0-1-.41,8.3,8.3,0,0,0-2.46-.67,2.43,2.43,0,0,0-1.27,0,1.22,1.22,0,0,0-.68,0,.06.06,0,0,0-.05,0,5.39,5.39,0,0,1,1.2-.6,4.56,4.56,0,0,0,1.84-1.27,6.57,6.57,0,0,1,.67-.51,5.14,5.14,0,0,0,2.32-2.59,2.4,2.4,0,0,0,.34-1.21c-.07-1.32-1-2.27-1.16-3.54a1.08,1.08,0,0,0-.25-.93,5.52,5.52,0,0,1-.85-1.9,3.78,3.78,0,0,0-.69-1.62,2,2,0,0,1-.38-.92c-.07-.3-.12-.61-.21-.9a37.17,37.17,0,0,1-1.84-5.91,5.59,5.59,0,0,1-.26-2l0-.09-.24-.53c-.1-.2-.19-.4-.29-.61l-.24-.52-.33-.7-.12-.26c-.23.07-.25-.06-.33-.13a1.91,1.91,0,0,0-1.35-.5h0a2.79,2.79,0,0,0-1.76.31,4.64,4.64,0,0,0-1.76,1,11.55,11.55,0,0,0-2.55,1.73l-.29.15c-.15.12-.33.22-.39.38a5.42,5.42,0,0,0-1,.89c-.15.18-.3.35-.46.52a4.38,4.38,0,0,0-.93,1.2h0l-.07.1a1.84,1.84,0,0,0-.41.66,6.58,6.58,0,0,0-.78,1.33,9.11,9.11,0,0,0-.83,1.65,1.54,1.54,0,0,0-.39.73,27.85,27.85,0,0,0-1.82,12,4.72,4.72,0,0,0,0,1.83,7,7,0,0,0,.24,3.53c-.14.18,0,.29,0,.43-.17,0-.16-.13-.24-.2a.57.57,0,0,0-.35-.38s0-.06-.05-.07c-.06-.23-.3-.34-.48-.49a27.49,27.49,0,0,0-5.54-2.85,1.42,1.42,0,0,0-.64-.35l-.34-.25h0a.54.54,0,0,0-.38-.16c-1.36-.89-3.13-1.09-5.51-.29-.28.09-.76.17-.76.39s.41.28.82.18l.37-.08c1.88-.44,3.71-.79,5-.05a.54.54,0,0,0,.38.16c0,.14.2.18.34.24a1.29,1.29,0,0,0,.65.36,3.43,3.43,0,0,0,1.3.74,18.48,18.48,0,0,1,4.54,2.57l.07.07.24.52c0,.22.15.37,0,.62l-.79.18a4,4,0,0,0-1,.5l-.27.2a2.91,2.91,0,0,0-1.06,1.24l-.27,0a17.51,17.51,0,0,0-3.83.52l-2.24.1a3.18,3.18,0,0,0,2.11.07,28.3,28.3,0,0,0,3.77-.59l.41.1a3.45,3.45,0,0,0-1.81,1.4l-.61.16a8.78,8.78,0,0,1-1.62.37l-2.57.13a1.43,1.43,0,0,0-1.34-.11c-.11,0-.23-.1-.35,0s.1.12.08.22h0l-.25.17c.28-.12.4.17.71-.06l.95-.1a6.05,6.05,0,0,0,2.56.05l2.24-.4.22.16.06,0,.07.05c0,.16.2.19.43.15.07.08.21,0,.33,0,.1.13.27,0,.44-.05.1.34-.22.77-.16,1.12s-.33.64-.1.79.78-.25,1.15-.2c-.19.49-.37,1-.58,1.46-.07.19-.27.4.16.34a1.39,1.39,0,0,0,.46-.56h0l.06.08c-.2.24.13.15.21.21v.05a13.59,13.59,0,0,1,1.45-.39.15.15,0,0,0,.12,0s0,.05.09.06c.1.4.71.49.77.92l-.27.22a3.7,3.7,0,0,0-1.49,1c-.25.23,0,.24.11.29l1,.39a6.74,6.74,0,0,0,3,.85.56.56,0,0,1,.28.5c-1.26,1.17-2.55,2.34-3.94,3.4a5.06,5.06,0,0,0-1.33,1.53c-.12-.41-.23-.82-.36-1.23-2.17,1.7-1.06,3.42-.86,4.87a460,460,0,0,1,2.8,101.49c-.83,9.85-2.34,19.63-3.53,29.45h0c-.88,1.26-2.25,1.85-3.46,1.1s-.3-2.22-.13-3.33c.83-5.48,2-10.92,2.63-16.41,4-33.34,3.91-66.72.75-100.11-.53-5.51-1.49-11-2.46-16.43-1.07-5.94-3.58-6.9-8.72-3.63a20.29,20.29,0,0,0-6.23,5.74c-8.34,12.59-20.77,17.23-35,18.91-12,1.42-23.91,3.51-35.13,8.32s-20.68,11.4-25.22,23.38c-5.54,14.63-1.22,28.27,4.19,41.8,1.12,2.8,3.27,4.56,5.84,2.78s-.14-3.68-1.24-5.19c-14-19.17-7.79-44.56,13.5-55.2,3.93-3.32,8.73-4.84,13.43-6.55a88.59,88.59,0,0,1,10.83-3.46c11.92-3.42,24.57-2.72,36.52-6.7a13.37,13.37,0,0,1,.36,1.71,468,468,0,0,1-3.76,113c-.42,2.75-1.67,3.56-4.37,3.66a169,169,0,0,0-37.54,5.48c-12.5,3.35-24.39,8.05-34.15,17-6.85,6.25-11.63,13.69-11.72,23.38-.15,15.2,8.26,25,20.83,31.45,25.45,13.14,56.35,4.11,73.57-21,10.87-15.82,16.62-33.7,21.2-52.09.38-1.55.33-3.81,2.56-3.51,2.68.36.45,2.66,1,3.94-2.45,8-4.12,16.19-7,24.05-6.61,18.12-15.45,34.67-31.18,46.59-.76.58-1.8,1.12-1.1,2.43,15.88-7.05,35.34-40.77,40.14-69.4h0c2.14-2.57-.62-6.69,2.78-8.86,9.44-1.17,18.52-3.54,26.92-8.19,5-1.58,8.72-5.29,13.26-8.16.11,1.18.16,1.92.25,2.66,1.73,14.36,6.86,26.78,20.15,34.14,19.5,10.8,45.08,3.59,58.76-16.28a101.9,101.9,0,0,0,10.84-21.44c2.12,4.68,4.17,8.67,7.17,12.08a76.15,76.15,0,0,0,9.8,9.2c5.14,4.1,10.32,8.14,15.48,12.22,2,1.57,2.3,2.79-.37,4.18a41.28,41.28,0,0,0-9.8,7c-8.42,8.21-6.66,19.55,3.86,24.84,8.85,4.45,23.63,2.33,30.6-4.72,9.15-9.24,9.72-20.57,6.37-32.21-1.23-4.28-.26-6,3.24-8a109.12,109.12,0,0,0,28.61-22.85c2.41-2.75,4.6-5.71,7.29-9.06,1.7,11.84,8,20.11,16.51,26.92q8.4,6.7,16.88,13.35c2.38,1.87,3.11,3.27-.37,5a37.25,37.25,0,0,0-9.06,6.54c-8.64,8.33-6.92,19.84,3.81,25.1,8.94,4.38,23.58,2.19,30.57-4.91,9.45-9.6,9.3-21.29,6.07-33.19-.92-3.35-.34-4.65,2.4-6.23,12.9-7.46,24.6-16.42,33.66-28.49,2-2.65,3.75-5.47,5.62-8.22a13,13,0,0,1,.8,5.09c.32,12.25,2.14,24.22,7.66,35.3,9.58,19.23,30.53,23.17,46.74,9,5.59-4.89,9.34-11.16,13.11-17.52,2.08,3.75,3.72,7.5,6,10.76,13.13,18.37,41,21.86,60,7.73,7.51-5.58,13-12.79,17.85-21.1,0-3.16,0-6.33,0-9.49C948.43,452.28,942.53,462.1,931.61,467.52ZM357.86,516c-15.82-10.83-16.48-28.9-1.5-41.06a63.6,63.6,0,0,1,18.19-10.13,41.47,41.47,0,0,1,10.66-3.64h0a15.59,15.59,0,0,1,7.34-1.67c10-2.7,20.24-3.6,30.49-4.57,1.71-.16,3-.11,2.4,2.28-4.35,18.47-9.37,36.67-22.13,51.42C391,522.9,372.21,525.82,357.86,516Zm71.44-51.33C425.64,480,421.1,495,411.82,508c-4.42,6.21-9.9,11.15-17.22,13.67-.89.31-2.16,1.26-2.77,0s.82-1.63,1.75-1.93c11.09-3.63,17.14-12.45,22.23-22.11,6.32-12,9.71-25,12.68-38.16.36-1.59.83-3.15,1.3-4.7.06-.18.49-.25,1.06-.53C431.32,458,430.09,461.32,429.3,464.66ZM433,446.07c-.11.74-.12,1.51-.3,2.23-.24.92-.17,2.44-1.69,2-1.08-.33-.52-1.51-.39-2.35,1.36-8.28,2.62-16.56,3.41-24.92a651.86,651.86,0,0,0,2.8-88c-.06-1.37-.77-3,.8-4.09,1.38.52,1.06,1.7,1.09,2.66C439.86,371.2,439.05,408.77,433,446.07Zm114.13-38.76c4.72,1.62,6.64,7.78,4.58,15.24-2.13,7.73-6.94,13.46-13.6,17.73-1.06.68-2.12,1.44-2.46-.64h0c0-3.12,0-6.24,0-9.36h0V427.9c.09-.82.18-1.65.26-2.48.44-1.25.83-2.53,1.24-3.8.1-.31.21-.63.32-.94.21-.63.43-1.25.68-1.87a21.48,21.48,0,0,1,1.27-2.65,12.52,12.52,0,0,1,4.17-4.39c.39-.24,1-.4,1.39-.68l.14-.11a.79.79,0,0,0,.19-.26,1.08,1.08,0,0,0-.2-1,1.1,1.1,0,0,0-1-.59,1.78,1.78,0,0,0-.73.18,4.57,4.57,0,0,0-.72.4l-.33.2a15.58,15.58,0,0,0-6.36,8.28,25.72,25.72,0,0,0-1,3.47c-1.45,1.52-.94,3.44-1.07,5.23h0c-.17.65-.31,1.3-.44,2l-.09.59c-.08.47-.15.94-.2,1.41l-.06.64c0,.48-.07,1-.08,1.45,0,.18,0,.35,0,.53,0,.66,0,1.31.05,2h0a28.36,28.36,0,0,0,.84,5.26c0,1.5-.51,2.81-2.29,2.56-1.4-.2-1.08-1.61-1.18-2.57-.87-8.31-.34-16.49,2.8-24.31C536.22,409,541.79,405.47,547.14,407.31ZM518,401.16l6.09-4.86a25.38,25.38,0,0,1,12.63-2.74c1,.8,1.49,2.19-.16,2.06-8.66-.64-14.45,4.23-19.71,10.25C515.57,403.56,517.3,402.52,518,401.16Zm-6.83,10.6a10.1,10.1,0,0,1-2.66,7.58A13.51,13.51,0,0,1,511.21,411.76ZM509,449.53c-3-7.19-4.21-14.42-1.06-21.81-.53,6.72.52,13.28,2,19.81,4.93,12.83,14.51,20.57,27.56,24.49C527.88,473.82,512.72,461.43,509,449.53Zm97.23-55.14c.6-.26,1.18-.41,1.51.23a1.25,1.25,0,0,1-.15,1.19c-2.92,2.71-4.91,6.21-7.61,9.59C599.87,401.87,603.68,395.51,606.2,394.39Zm1.65,54.08a35.94,35.94,0,0,1-12.46-19.24c-.51-2.06-.9-4.11,1.07-6.46,1.08,11.16,6.41,19.25,14.7,25.7,6.12,4.77,12.29,9.5,17.65,15.17,1,1,2.42,1.8,2.32,3.55-1,.87-1.68.07-2.28-.55C622.38,460,615,454.38,607.85,448.47Zm17.09,42.93c-2.34.13-4.5-.44-5.83-2.57s-.87-4.31.46-6.31c2.3-3.44,5.7-5.62,9-7.84,1.36-.91,2.18-.54,2.58,1,.49,1.87.94,3.75,1.21,4.8C632.49,486.88,629.34,491.15,624.94,491.4Zm10.12-1.28c-2-1.43-1-2.62-.74-3.63,1.17-4.15,1.4-8.22-.4-12.25-.42-.94-1.24-2.07.22-2.59s1.59,1,1.9,1.89A20.16,20.16,0,0,1,635.06,490.12Zm76.1-95.78c-1.64,4.17-5.44,6.91-7.47,11C703.56,400,707.15,397,711.16,394.34Zm.68,54.33c-8.06-6.69-13.07-15.08-13.6-25.82-.13-2.56.14-5,2.11-7.08-1.58,14.59,4.51,25.29,15.81,33.74a124.94,124.94,0,0,1,16.28,14c1,1,2.31,1.9,2.42,3.53-1.11.89-1.74.08-2.34-.53C726.13,460,718.85,454.49,711.84,448.67Zm16.5,42.74c-2.35,0-4.43-.66-5.64-2.87s-.66-4,.54-5.9c2.25-3.48,5.64-5.66,9-7.88,1.21-.8,2.2-.85,2.64.84.52,2,1,4,1.36,5.2C736.07,487.25,732.79,491.35,728.34,491.41Zm10.43-1.48c-2-1.14-1-2.36-.71-3.36,1.16-4.15,1.42-8.23-.36-12.28-.39-.89-1.25-2.07.23-2.6,1.11-.41,1.39.87,1.69,1.64A19.15,19.15,0,0,1,738.77,489.93Zm162.37-95.34c2.62.41,5.29-.82,7.9.21-.2.75-.5,1.53-1.36,1.58A41.24,41.24,0,0,0,882.73,406C886.76,398.82,894,396.78,901.14,394.59Zm-30.79,38.63a1.63,1.63,0,0,1-.55-1.48c2.16-6.34,2.38-13.42,7.17-18.8-1.39,6.5-4,12.7-5,19.28A1.17,1.17,0,0,1,870.35,433.22Zm36.08,44c-.27,1.66-2.29.91-3.49.78a31.86,31.86,0,0,1-16.67-7,42.62,42.62,0,0,1-14.1-20.36c-.4-1.23-1.14-2.53.79-3.85,3.11,10,8.26,18.2,16.8,24a29,29,0,0,0,13.72,5C904.61,475.85,906.75,475.24,906.43,477.22Zm166.8-70.55c-4.06-.8-2.72,3.55-3.11,5.53-3.17,16.23-7.72,32-15.31,46.74-2.48,4.82-5.43,9.32-9.71,12.78-6.17,5-12.06,3.42-14.83-3.91a33,33,0,0,1-1.8-10.57,174.47,174.47,0,0,1,2.43-34c1.88-12,.44-14-11.77-15.3a7.22,7.22,0,0,0-1.79-.11c-2.23.3-3.42-.41-4.21-2.76-1.38-4.13-4.44-7-8.31-9-11.61-6-29.72-3.44-39.12,5.56-15.05,14.41-19,44.3-8.25,62.14,10.21,16.93,30.51,16.83,40.64-.23,1.36-2.28,2.49-4.7,4.35-8.25,1.12,6.38,2,11.67,3.64,16.77,5.42,16.75,20.9,22,35.26,11.81,5.85-4.13,10.17-9.7,13.76-15.81,10.07-17.15,15.55-35.89,18.88-55.32C1074.32,410.75,1076.65,407.34,1073.23,406.67Zm-112,11.85c-1.49,3.54-2.39,7.32-3.57,11-.16,2.14,0,4.32-.87,6.36,0,2.21,0,4.42,0,6.63,1,4,1.2,8.22,2.65,12.19A29.84,29.84,0,0,0,968.18,468c.53.44,1.37.7,1.26,1.65a1.4,1.4,0,0,1-.19.39c-6.84-2-13.27-13.63-13.52-24.55a34.9,34.9,0,0,1,0-11.67,14,14,0,0,1,.87-6.3c2.93-20.75,20.28-35.45,31-32-.22.9-1,1-1.7,1.1C972.82,398.35,965.91,407.27,961.19,418.52Zm43.22-2.49a128.46,128.46,0,0,0-2.43,25.43c-.06,6.92-2.16,13.26-5.29,19.28-1.56,3-3.88,5.63-7.63,5.38-3.92-.26-5.24-3.54-6.35-6.72-1.85-5.29-2.24-10.81-2.21-17.85.45-9.5,1.93-20.27,7.06-30.21,2.1-4.07,4.82-7.6,9-9.67a8.5,8.5,0,0,1,10.85,2.49c1.59,2.15,3.48,4.36-.56,6.32C1004.84,411.47,1004.83,414,1004.41,416Zm13.73,66c-6.28-5.37-8.62-12.82-10-20.52-2.5-13.83-1.87-27.67.66-41.45.13-.75.31-1.48,1.89-1.55-.48,4.69-1,9.31-1.42,13.93-1,10.93-.84,21.84,1.66,32.55,1.94,8.35,5.81,15.58,14.27,19.51C1022,485.46,1020,483.64,1018.14,482Zm-62.38-48.24c.11.24.22.48.34.72A1.22,1.22,0,0,0,955.76,433.77Zm.87-6.3c.12.26.25.52.37.77A1.11,1.11,0,0,0,956.63,427.47Zm78.57,40.79c1.14,2,3,2.24,5,1.84,1-.19,2.34-.41,2.16-1.72-.26-1.9-1.48-.71-2.27-.37-1.74.74-2.7-.59-3.88-1.35a19,19,0,0,1-1.49-6.67c-.88-15.38,1.76-30.56,2.75-45.87-2.1.13-1.81,2.13-1.91,3-1.65,14.24-3.83,28.47-2.82,42.87C1032.89,462.9,1032.91,466,1035.2,468.26Zm-45.9-7.05c.1-2.55-.83-4.56-1.65-6.59-2.11-14.14.24-27.68,5.41-40.85,2.1-2.61,3.21-6.09,6.61-7.55.79-.34,1.86-.78,1.11-1.88-.64-.92-1.69-.39-2.4,0a13.65,13.65,0,0,0-6.44,8.13c-6.61,14.44-9.27,29.33-5.2,45C987,459,987,460.73,989.3,461.21Zm-174.18,1.86c-6.37-9.75-7.83-20.86-8.59-32.1-.66-9.74.41-19.44,1.57-29.11a2.77,2.77,0,0,1,1.25-2.34c2.09,1.09.79,2.89.64,4.3-1.5,14-2.12,28,.52,42.05,1.07,5.67,3.49,10.78,5.72,16a67,67,0,0,0,11.65,12.67C821.94,472.57,818,468.42,815.12,463.07Z" transform="translate(-320.28 -267.5)"/></svg>