<svg xmlns="http://www.w3.org/2000/svg" viewBox="0 0 1102.88 757.05" xmlns:v="https://vecta.io/nano"><path d="M238.51 103.33c5.43.56 10.89.94 16.29 1.74 5.65.83 11.26 1.93 16.84 3.13 16.07 3.47 31.63 8.7 47.16 14 1.18.41 2.31.93 3.47 1.4 1.13 1.41.4 2.88.06 4.29-6.51 26.95 1.79 49.66 19.95 69.5 10.16 11.1 22.84 18.85 35.72 26.31.59.39 1.16.81 1.78 1.16.32.15.62.32.93.49 2 1.11 4.17 2.06 6.3 3 17 8.34 35 12.92 53.68 15a167.84 167.84 0 0 0 19 1.19 175 175 0 0 0 33.39-3 16.42 16.42 0 0 1 3.68-.47c2.37.08 4.2 1.41 6.08 2.64q17.85 11.61 35.84 23c2.69 1.22 5 3.16 7.94 4.53a7.94 7.94 0 0 0-.21-4.33l-7.42-36.24c-.61-3.09.22-4.87 3-6.36a108.62 108.62 0 0 0 24.66-18.06c16.81-16.64 27.08-36.33 25.78-60.64-.9-16.76-7.81-31.18-18.33-44.1-6.7-8.22-14.85-14.69-23.32-20.87-.88-.64-2.52-.84-2-2.61l13.05-10.59 18.08-13.86a382 382 0 0 1 32.91-22.69 249 249 0 0 1 30.74-16.22A173.31 173.31 0 0 1 687.7 1.49 130.06 130.06 0 0 1 709.28 0h9a110.64 110.64 0 0 1 20.07 1.71 127.86 127.86 0 0 1 20.64 5 107 107 0 0 1 33 18 97 97 0 0 1 12.9 12.45 147.6 147.6 0 0 1 13.44 18.38 153.72 153.72 0 0 1 9.44 18.26 225 225 0 0 1 9.41 25.19c3.05 9.86 5.75 19.83 7.94 29.93l6.8 32.48a178.66 178.66 0 0 0 6.64 25.63 78.13 78.13 0 0 0 12.48 23.29c5.23 6.53 11.38 12.19 19 16.05a79.48 79.48 0 0 0 23.35 7.53c4.93.8 9.88 1.08 14.82 1.58a133.45 133.45 0 0 0 20.18.39c8.34-.42 16.71-.17 25-.79 6.36-.48 12.7-.4 19-.44 3 0 6 .42 8.93.59s6 .3 8.93.6a128.21 128.21 0 0 1 21.24 4 86.15 86.15 0 0 1 30 14.68 81.39 81.39 0 0 1 23.37 28.29 142.41 142.41 0 0 1 11 30.89 201.6 201.6 0 0 1 3.88 21.26c.6 4.69 1.1 9.38 1.57 14.08.35 3.48.32 7 .66 10.42 1.31 13.33.41 26.68.59 40-.81 5.32-.41 10.7-.82 16l-1.54 18.58a102.9 102.9 0 0 1-1.15 10.75c-.47 2.28-.47 4.68-.79 7-.71 5.17-1.06 10.39-1.72 15.56-.55 4.31-1.35 8.59-2 12.89l-1.67 11.81q-1.2 7.74-2.5 15.46l-2.82 16.15-3.28 16.45-5.7 27.76-4.85 21.09-9.31 38.43-8.72 32.83q-5.79 21.06-11.81 42l-8.61 28.22-4.9 16.07c-.33 1.07-.79 2.09-1.19 3.14-1.33 1.51-3.16 1.3-4.86 1.3q-34.51.08-69 0a9.52 9.52 0 0 1-4.38-.67c-1.46-1-1.43-2.55-1.45-4-.09-5.85-.14-11.71 0-17.56.1-3.74 1-4.57 4.73-4.73 4.1-.16 8.22 0 12.33-.07 9.28-.24 15.71-6.64 15.82-15.88v-27.27c-.13-9.93-6.3-15.93-16.23-16h-12.33c-2.93 0-4.33-1.41-4.34-4.35v-9a10.69 10.69 0 0 0-.09-2.59c-2.11-6.91-5.19-9.45-12.39-9.51q-25-.2-50.07 0c-7.1.06-10.35 2.74-12.38 9.56a16.7 16.7 0 0 0 .07 2.74q.09 46.25 0 92.49c0 2 .26 4-1 5.81-1.61 1.25-3.54 1.07-5.39 1.07q-50.73 0-101.45 0a15.58 15.58 0 0 1-4.09-.35 4.31 4.31 0 0 1-2.67-2.43c-1.39-2.75-.84-4.24 2.19-4.93 5-1.13 10.06-1.76 15.07-2.8a147.6 147.6 0 0 0 23-6.41c8.64-3.33 14.21-9.4 17.38-17.92 2.94-7.91 4.11-16.12 4.51-24.52 1.31-27.68-3.67-54.58-9.68-81.38a625.8 625.8 0 0 0-22.08-74.75 12.37 12.37 0 0 1-1.1-4c6.29-13.47 4.65-27-.1-40.38-2.73-7.71-2.82-7.82 5.17-7.35 7.29.44 14.43.26 21.31-2.58 10-4.13 15.42-12.48 15.77-23.23.54-16.82-7.13-29.38-19.63-39.67-7.93-6.52-17-11.41-25.41-17.18a69.8 69.8 0 0 1-11.25-9.26 28 28 0 0 1-6.72-11.09c-.55-2.52-1.42-5-1.5-7.58a13.52 13.52 0 0 0-.45-4.65l-1.17-29.88c-.46-15.49-3.42-30.45-11.78-43.94-4.33-7-10-12.78-16.08-18.13-2.48-2.17-3-4.09-1.88-7.12 5.43-15 2.83-28.76-7.39-40.95-6.17-7.36-14.29-11.42-23.73-13.13-24.26-4.4-45.75 15.56-46.48 36.17 0 .88-.31 1.72-.43 2.59-.34 2.53-1.52 3.33-4.26 3.35-14.43.12-28.34 2.59-40.72 10.58-11.79 7.62-18.95 18.25-20.24 32.45-.36 4 .64 8 1.8 11.77a8.53 8.53 0 0 1-1.07 7.78c-12.09 18.41-17.69 38.82-19 60.69-2 33.85 5.78 65.57 20.18 95.93a76.33 76.33 0 0 0 6.65 11.28c.59 1.64-.78 2.19-1.7 2.93-16.52 13.36-30.3 29.24-42.39 46.6-14.91 21.35-26.48 44.58-38 67.81-5.16 10.38-10.7 20.59-15.31 31.24a9 9 0 0 1-1.84 2.81c-1 .84-1.79 2-3.06 2.57l-60.6 15.24a5.66 5.66 0 0 1-3.31.17c-1.85-1.11-2-3.09-2.36-4.88l-19.85-84.47c-2.56-11-9.1-17.71-20.31-19.72a18.76 18.76 0 0 0-5.59-.36c-79.4.18-158.8 0-238.2.07-7.42 0-14.42 1-20 6.69-5.88 5.94-8.4 12.88-6.6 21.15l11.63 50q13.93 59 27.75 118.1c.49 2.08 1.65 4.33-.21 6.4-1.73 1-3.63.76-5.49.76q-38.29 0-76.59 0c-2.06 0-4.29.46-6-1.3l-4.37-21.55-4.08-23.5c-1.65-8.17-2.65-16.43-4.17-24.62-1.08-5.85-1.65-11.81-2.51-17.71l-2-12.88c-.39-2.7-.63-5.43-1-8.15l-.74-5.54-1.32-9.59c-.35-2.84-.58-5.69-.92-8.53l-1.28-10c-.34-2.46-.49-5-.71-7.42-.32-3.59-.87-7.16-1.06-10.77-.21-4-.81-7.9-1.24-11.85 0-.25-.08-.5-.1-.75-.29-4.34-.32-8.72-.94-13-.66-4.69-.23-9.46-1.22-14.11a3.11 3.11 0 0 1-.08-.74c.22-5.13-.74-10.18-.85-15.29-.14-7-1.08-13.91-.81-20.9-1.18-8.94-.17-18-.85-26.89a294.63 294.63 0 0 1-.37-31c.25-8.84.19-17.7.73-26.52.3-4.85 0-9.76.74-14.53s0-9.49 1.17-14.12a2.69 2.69 0 0 0 .07-.75c-.24-4.38.8-8.67.93-13 .09-3.21.75-6.41 1.14-9.61l1-8.52q1-7.38 2-14.76l1.67-10.67c1.06-6.12 2-12.26 3.33-18.34 1.52-7.17 3.15-14.33 5-21.42 2.88-11 6.17-21.79 10.06-32.45q5.5-15.11 11.6-30a299.44 299.44 0 0 1 6.42-14.73l10.24-21.22a45.53 45.53 0 0 1 2.17-3.93 3.82 3.82 0 0 0 .62-2.47 3.66 3.66 0 0 1 2.53-.38c3.51.18 5.95-1.45 7.64-4.41 2.1-3.69 4.09-7.44 6.36-11 2.06-3.28 2.75-3.33 8-2 3 .73 5 2 4.94 5.47-.09 3.74-.12 7.49 0 11.23.27 7.46 2.69 9.78 10.1 9.82h6.74c5.74-.06 8.4-2.52 8.77-8.36.25-3.86 0-7.73.09-11.6.06-4.75.5-5.32 5-6.52 5.4-1.45 6.29-1.18 8.72 2.9 2.1 3.54 3.91 7.26 6.23 10.66 2.72 4 5.73 4.87 10 2.82a73.68 73.68 0 0 0 9.08-5.23c4-2.71 4.8-6.09 2.41-10.35l-6-10.37c-2.5-4.4-2.35-5 1.62-9 3.61-3.57 4.31-3.68 8.74-1.16 3.58 2 7.06 4.24 10.77 6 4.41 2.13 7.21 1.37 9.94-2.71a76.68 76.68 0 0 0 5-8.76c2.15-4.36 1.2-7.69-2.89-10.25-3.8-2.39-7.8-4.45-11.58-6.89-3.12-2-3.18-2.76-1.83-8.13.71-2.83 1.87-4.8 5.21-4.75 4 .07 8 .1 12 0 6.71-.2 9.12-2.81 9.33-9.4.18-4.08-.69-8.22.46-12.24z" fill="#a2c3f2"/><path d="M378.23 224.78c-12.89-7.15-25.35-14.9-35.65-25.66a86.26 86.26 0 0 1-19.09-29.63 70.07 70.07 0 0 1-4.11-30.49 67.76 67.76 0 0 1 2.39-12.83c.24-.83.34-1.7.5-2.55a3.17 3.17 0 0 0 .82-1.63c4.95-13.81 13.29-25.31 24.05-35.13 14-12.82 30.42-21.55 48.34-27.56a164.83 164.83 0 0 1 35.34-7.65 181.47 181.47 0 0 1 23.88-1.16c21.48.61 42.32 4.41 62.27 12.62l8.29 3.34c3.34 2.24 7.17 3.55 10.62 5.57a81.93 81.93 0 0 1 7.25 4.51 6.05 6.05 0 0 1 .73.61l.34.3a10.59 10.59 0 0 0 1.12.77c.26.15.52.32.76.49.5.35 1 .68 1.53 1a6.76 6.76 0 0 1 .77.55 17.91 17.91 0 0 0 3 2.46c1.46 1 2.58 2.34 4 3.31 17.12 15.56 28 34.18 28.52 57.93.52 21.65-8.34 39.37-22.65 54.85a105.67 105.67 0 0 1-27.71 21.39c-2.79 1.51-3.57 3.3-2.9 6.36l8 38.45a2.45 2.45 0 0 1-.67 2.21c-3.29-1.5-6.14-3.72-9.17-5.64l-27.87-17.91a13.1 13.1 0 0 0-3.58-1.95 5.76 5.76 0 0 1-3.35-1.26c-3.31-2.85-7-3-11.18-2.26a178 178 0 0 1-72.9-2c-1.43-.46-2.89-.83-4.33-1.26a13.3 13.3 0 0 1-1.43-.49 10.92 10.92 0 0 0-2.62-.76 5.09 5.09 0 0 1-.84-.26 16.7 16.7 0 0 0-1.6-.54 5.59 5.59 0 0 1-.78-.28 12.74 12.74 0 0 0-1.59-.5l-.81-.26a8.73 8.73 0 0 0-1.76-.28 17.63 17.63 0 0 1-5-1.77c-.45-.22-.89-.46-1.35-.66a15.52 15.52 0 0 1-.9-.48c-2.4-.9-4.58-2.3-7-3.08h0c-.43-.51-1.2-.36-1.68-.79z" fill="#ff593a"/><path d="M238.51 103.33a18.68 18.68 0 0 1 .53 2.92v12a7 7 0 0 1-4.6 6.65 11.87 11.87 0 0 1-5.09 1c-4.37-.06-8.73 0-13.1 0-2.41 0-2.69.27-3.32 2.62l-1.28 5.06c-.42 1.68-.28 2 1 2.79l8.71 5.1 5.17 3a7.64 7.64 0 0 1 3 9.47 81.61 81.61 0 0 1-6.64 11.62 7 7 0 0 1-9.27 2.35c-3.68-1.84-7.22-3.94-10.79-6a38.72 38.72 0 0 0-5.06-2.66l-7 6.93c-.11.65.6 1.44 1.07 2.27q3.42 6 6.93 12c2.71 4.6 1.85 8.7-2.66 11.56a135.67 135.67 0 0 1-9.71 5.6c-4.19 2.19-8.07 1.12-10.64-2.92-2-3.15-3.77-6.45-5.65-9.67q-1.23-2.1-2.5-4.17a1.66 1.66 0 0 0-1.91-.84l-6.49 1.7c-1.48.42-1.81.86-1.83 2.4v12a18.37 18.37 0 0 1-.49 5.56c-1.31 4.1-3.6 5.9-7.94 5.95q-5.06.06-10.11 0c-5.19-.06-7.46-2-8.58-7a17.51 17.51 0 0 1-.4-4.07v-12c0-2.06-.33-2.49-2.1-3-2-.57-4.09-1.07-6.14-1.58a1.62 1.62 0 0 0-1.93.77q-1.55 2.55-3 5.15l-4.23 7.48c-.83 1.36-1.51 2.85-3 3.77a8.35 8.35 0 0 1-8.18.73l-10.34-6c-3.82-2.36-4.88-6.35-2.89-10.38.49-1 1.09-2 1.65-2.93l6.16-10.7c.31-.53.58-1.09.95-1.8l-3.45-3.42-3.48-3.36c-1.94.2-3.35 1.52-5 2.41-3.38 1.88-6.71 3.84-10 5.81a8.08 8.08 0 0 1-6.83.81 7.39 7.39 0 0 1-4.21-3.52l-5.63-9.71a7.79 7.79 0 0 1 3-11l9.39-5.44 3.88-2.26c1.46-.9 1.61-1.24 1.23-2.72q-.8-3.07-1.67-6.13c-.43-1.53-.73-1.8-2.36-1.81h-13.1a25 25 0 0 1-3.36-.12 7.67 7.67 0 0 1-7-7.88q-.15-5.61 0-11.23c.12-4.39 2.64-7.15 7-7.8a27.27 27.27 0 0 1 3.67-.2h12.72c1.62 0 1.94-.28 2.37-1.81a172.73 172.73 0 0 0 1.45-5.41c.64-2.33.64-2.42-1.36-3.6l-9.39-5.44c-1.4-.82-2.84-1.58-4.18-2.5-3.4-2.34-4.55-6.22-2.66-9.85s4.07-7.45 6.36-11a7.24 7.24 0 0 1 9.59-2.5c3.44 1.74 6.73 3.78 10.11 5.67l5.58 3c1.94-1 3-2.88 4.62-4.25.92-.81 1.74-1.73 2.67-2.67l-6.06-10.52c-1-1.73-2.05-3.43-2.9-5.23a7.41 7.41 0 0 1 2.77-9.83c3.48-2.19 7.05-4.26 10.7-6.15a7.43 7.43 0 0 1 10.08 2.92c2.54 4.14 4.9 8.4 7.35 12.6.37.65.78 1.28 1.19 1.9a1.16 1.16 0 0 0 1.31.51l7.91-2.21a1.15 1.15 0 0 0 .78-1.16c0-.87.07-1.74.07-2.61V27.87a35.22 35.22 0 0 1 .28-4.48c.53-3.81 3.15-6.48 6.93-6.66 4.23-.21 8.49-.19 12.72 0 3.53.14 6 2.4 6.94 5.82a13.19 13.19 0 0 1 .37 3.7V40.1c0 1.71.22 2 1.74 2.4l6.13 1.68c1.54.4 1.89.3 2.74-1.15l7-12a20.74 20.74 0 0 1 1.6-2.53 7.35 7.35 0 0 1 9.39-2.18c3.76 1.95 7.46 4.06 11 6.35s4.42 6.45 2.36 10.24-4.28 7.58-6.51 11.35l-1.13 1.94c-1.17 2.09-1.18 2 .65 3.72s3.54 3.49 5.42 5.36l10.11-5.79c1.62-.93 3.28-1.8 4.87-2.78a7.76 7.76 0 0 1 11 2.9q2.63 4.76 5.45 9.39a8 8 0 0 1-3 11.26l-12 6.9c-.64.37-1.29.76-1.91 1.16a1.39 1.39 0 0 0-.6 1.63l1.86 6.85c.42 1.43.65 1.63 2.07 1.66 2.75.05 5.49 0 8.24 0l7.48.08c3.26.19 5.92 1.55 7.34 4.79z" fill="#3e8edd"/><path d="M761.89 749.72l3.35.14h105.34l3-.06c1.45-1.28 3.24-1.15 5-1.15q33.57 0 67.15 0c1.72 0 3.51-.16 5 1.15l3.36.06h71.63l3.72-.14c1.24-.05 2.74.17 4.1.17h46.81 2.62a3.8 3.8 0 0 1 4 3.61c0 2-1.52 3.34-4 3.53h-1.12H7.37a28.92 28.92 0 0 1-4.47-.17 3.35 3.35 0 0 1-2.83-4.11 3.51 3.51 0 0 1 3.12-2.8 29.08 29.08 0 0 1 3.37-.06h62.16l4.1-.16c.88 0 1.74.13 2.61.13h83.46 2.25c1.94-1.56 4.27-1.17 6.48-1.17q42.48 0 85 0h179.27l5.61.12c6.48-.24 13-.09 19.44-.1l100.59.16 39.94.72a19.29 19.29 0 0 0 5.2-.3 6.48 6.48 0 0 1 2.13-.4c6.34-.22 12.68-.17 19-.06h2.81c6.35-.11 12.69-.13 19 0h2.17c15.19-.26 30.38-.08 45.57-.11q31-.06 62 0c2.28-.09 4.54-.23 6.54 1z" fill="#31333e"/><path d="M933.17 170.35c-22.85.49-43-18.54-43.11-42.91a42.88 42.88 0 0 1 43-43.06c25.63 0 43.13 20.87 43.11 43 .03 24.36-20.17 43.43-43 42.97z" fill="#ffb12a"/><path d="M543.16 77.3l-7.43-4.57c0-1.3.7-1.2 1.56-.74 2.93 1 5.45 2.83 8.14 4.31l3.24 1.74 5.44 3.91a104.08 104.08 0 0 1 25.38 25.17 75.64 75.64 0 0 1 13 31.14 70.28 70.28 0 0 1-5.45 40.91 89.59 89.59 0 0 1-21.84 29.59 123.25 123.25 0 0 1-23.7 16.91c-.32.18-.63.4-1 .55a1.74 1.74 0 0 0-1 2.15l.92 4.77 7.56 37 .32 1.46a1.07 1.07 0 0 1-1.45 1.13 28.76 28.76 0 0 1-2.58-1.49l-6.29-4-.05-2.09c2.74-.95 4.05 2 6.65 2.46l-5.55-26.85-2-9.91c-1-5.06-.77-5.56 3.7-8a107.94 107.94 0 0 0 26.44-20c10.84-11.4 19.07-24.36 22-40.1 3.69-20.08-1-38.31-12.8-54.82a110.29 110.29 0 0 0-21-21.63c-1.31-1.14-2.68-2.21-4-3.33-1.37-.65-2.32-1.88-3.63-2.62h0c-.69-.61-1.55-1-2.27-1.55h0c-.39-.45-1.09-.31-1.48-.77h0a6.8 6.8 0 0 0-.83-.73z" fill="#9b473c"/><path d="M537.29 71.99c-.61.07-1.22.11-1.56.74l-9.62-5.19a1.67 1.67 0 0 1-.84-1.13 58.6 58.6 0 0 1 12.02 5.58z" fill="#bc5647"/><path d="M761.89 749.72l-4.1.17H651.52c-1.37 0-2.74-.1-4.11-.15-1.45-2.88-.49-5.92-.16-8.75 1.29-10.89.33-21.65-1.19-32.39a115.1 115.1 0 0 0-6.59-25.27c-1.8-4.65-1.25-5.71 3.67-6.61l69.31-11.76c4.23-.6 4.28-.6 3.08-4.56-6.64-22.23-12.07-44.78-16.64-67.51q-4.83-23.71-7.75-47.75a689.4 689.4 0 0 0 14.2 77.17c2.84 12.18 6.13 24.18 9.55 36.18 1.57 5.54 1.37 5.91-4.2 6.72-23.07 3.32-46 7.43-68.91 11.79l-40 7.79c-1.33.28-2.81.22-3.45 1.79-1.2 2.84-.82 6.36-3.72 8.45-4.77.33-9.49 1.9-14.33.67-1.76-1.39-1.29-3.39-1.33-5.2-.16-6.48.21-13-.22-19.44-.72-10.74-4.66-20.58-8.44-30.48-3.42-9-7.1-17.82-9.69-27.07a52.38 52.38 0 0 1 1.29-32.34c5.51-15.57 13-30.17 21.32-44.38a268.7 268.7 0 0 0-21.48 44.47c-5 13.79-3.55 27.15 1.3 40.54l11.32 30.08c2.8 8.07 4.74 16.27 4.31 24.88-.31 6.19.79 12.44-.67 18.6-3.55 2.83-7.94 1.33-11.88 2.22-2.54.58-5.21 0-7.76-.73-13-3.66-26.32-6.3-39.83-6.29-12.34 0-24.67 1.47-36.29 6.3a21.71 21.71 0 0 0-3.29 1.77c-1.94 1.24-3.88 2.63-3.72 5.21.18 2.81 2.65 3.31 4.78 4a2 2 0 0 1 1.2 1.21c-.72 1.77-2.55 1.84-4 2.52-2.44 1.19-4.4 2.69-3.51 5.75.82 2.83 3.12 3.22 5.7 3 1.52-.15 3.68-1.28 4.35.58.56 1.55-1.76 2.07-2.89 2.91a6.31 6.31 0 0 0-3 5.31c0 1-.06 2-1.16 2.57-7.57 1-15.17.44-22.76.34-3 0-3.75-2.5-4.29-4.88l-5.38-22.95-9.91-42.62c-.34-1.54-1.11-3.14.18-4.63l50.89-12.73 10.46-2.65a9.79 9.79 0 0 1 2.94-.35 1.23 1.23 0 0 1 .4.94 8.53 8.53 0 0 1-.3 1.57 66.89 66.89 0 0 0-2.44 12.76 58.09 58.09 0 0 1 4.62-17.42l5.32-11.11 21.42-42.76c6.09-11.84 12.25-23.65 19.36-34.92q8.45-13.41 18.13-26c7.93-10.29 17-19.51 26.35-28.45 2.33-2.22 5-4.09 7.5-6.13.57-.46 1.38-.63 1.68-1.41-.21-1.38.83-2 1.7-2.63a124.67 124.67 0 0 1 22.42-13.67 4.07 4.07 0 0 1 3.21-.47c2.07 1.59 1.27 3.87 1.37 5.9.33 6.11 1.68 11.77 6.12 16.38 4.05 4.2 9 6 14.67 6.38 13.83.9 25.94-3.8 37.27-11.13a78.05 78.05 0 0 0 19.95-17.83c1.84-2.42 4-3.6 7-3.29 27.89 3.71 51.54 14.49 66.24 40 3.74 6.5 6.26 13.58 8.93 20.57a2.53 2.53 0 0 1 0 2.5c3.28 8.2 6.13 16.56 8.86 25q5.89 18.09 10.77 36.48c1.94 7.33 3.76 14.68 5.41 22.07 1.6 7.14 3.14 14.3 4.2 21.56.54 3.67 1.51 7.3 1.91 11 .33 3 .73 5.93 1.14 8.87.5 3.57.25 7.21 1.17 10.72a13.27 13.27 0 0 1 .16 2.61c.26 4.59-.38 9.22.66 13.78a3 3 0 0 1-.07 1.48c-.71 2.2-.48 4.45-.52 6.68a74.39 74.39 0 0 1-4.54 25.18 33.35 33.35 0 0 1-6.56 11.2 30 30 0 0 1-10.8 7.17 99.21 99.21 0 0 1-16.36 5.15c-6.89 1.57-13.82 3-20.84 3.94-1.35.18-2.66.59-4 .9-.13 1.92.78 3.41 1.56 4.93z" fill="#f1f3f2"/><path d="M437.55 749.83H164.48h-3.36c-.33-3.86-1.52-7.56-2.39-11.31q-8.11-34.75-16.33-69.5-6.86-29.1-13.69-58.21l-7.82-33.11a24.2 24.2 0 0 1-.27-11.84c2.33-8.92 7.8-14.87 16.57-17.72a25.44 25.44 0 0 1 7-1.1h2.25 226.15 16.1c1.36 0 2.76-.26 4 .54-4.28 2.25-8.75.62-13.14.8a9 9 0 0 1 5.1 2 29 29 0 0 1 4.47 4 24.47 24.47 0 0 1 3.74 5.12 23.66 23.66 0 0 1 2.16 5.56c2.85 11.24 5.4 22.55 8 33.84q8.22 35.14 16.51 70.26l18.06 76.81c.37 1.21.98 2.57-.04 3.86z" fill="#404660"/><path d="M627.81 471.81a117.21 117.21 0 0 0-26.92 16.53c-1.08.09-1.5-.71-2-1.45a139.56 139.56 0 0 1-8.26-15.51 205.73 205.73 0 0 1-15-48.45 211.79 211.79 0 0 1-2.66-22.64 150.37 150.37 0 0 1 .31-23.92c1.87-20.83 7.69-40.35 19.55-57.82a10 10 0 0 1 .63-.92 2.76 2.76 0 0 0 .35-3.13 28.36 28.36 0 0 1-1.95-7.19c-1.68-11.9 2-22.17 9.67-31.11 6.44-7.48 14.68-12.31 24-15.4a76.83 76.83 0 0 1 29.36-4.16c1.24.08 1.52-.17 1.64-1.43a83.16 83.16 0 0 1 1.13-9.27c3.53-16.44 18.05-29.65 35.13-31.84 21.396-2.608 41.229 11.594 45.65 32.69a40.54 40.54 0 0 1-1.93 23.16 18.89 18.89 0 0 1-.85 2.08 1.53 1.53 0 0 0 .57 2.22 61.92 61.92 0 0 1 7.33 6.39c11 10.86 17.65 24 20.62 39.1a131.25 131.25 0 0 1 2.31 22.29l.77 26.56c.38.86.38 1.54-.78 1.68-2.18-2.14-2.77-5.23-4.62-7.61-2.17-2.78-4.29-5.7-7.44-7.26-4.27-2.12-5.2-5.65-5.42-9.83a83.52 83.52 0 0 0-8.22-32.08c-8.89-18.45-23.56-29.93-43.75-35.31a85.63 85.63 0 0 1 7.37 12 4.47 4.47 0 0 0 3.89 2.49c22.45 2.88 36.73 24 34.24 46a24.72 24.72 0 0 1-3.85 10.85c-3.93 6-9.6 8.48-16.66 8-12.58-1.14-21.28-7.76-26.67-19a49.64 49.64 0 0 1-4-11.65c-.82-4.1-1-4.19-4.89-2.63-18.51 7.54-37.89 10.43-57.74 10.8a41.57 41.57 0 0 1-7.83-.55c-3-.54-5.15.22-5.95 3.44a3.92 3.92 0 0 1-1 1.58 8.41 8.41 0 0 1-4.19 1.43c-14.26 2.09-24.36 16.62-25.16 30.08-.66 11 2.13 20.65 10.48 28.36 4.21 3.89 9.45 5.37 14.64 7.06 2.62 4.21 3.83 9.08 6.41 13.35a61.63 61.63 0 0 0 20.51 21.16c1.39.86 2.73 1.75 3.2 3.46.53 3.24.27 6.49.27 9.74-.06 4.47.49 9-.37 13.38-2 2.64-5.32 2.31-8 3.44a15.55 15.55 0 0 0-3.92.84zm161.92 59.24a190.37 190.37 0 0 0-7.85-19c-7.28-15-18.69-26-33.57-33.39a102.51 102.51 0 0 0-33.54-9.81c-2.53-.72-5-.14-7.5.3-3.2 0-6.43.67-9.56-.53a3.58 3.58 0 0 1-1.16-3c-.11-6.46-.1-12.92 0-19.38a5.16 5.16 0 0 1 2.61-4.64 80.74 80.74 0 0 0 15.14-12.58c2.53-1.08 5.29-1.32 7.91-2.1a24.86 24.86 0 0 0 11.7-7.67 8.11 8.11 0 0 1 5.7-3c18.42-1.78 27.57-18.09 28.15-31.29.07-1.57-.71-3.61 1.59-4.46a28.26 28.26 0 0 0 6.83 11 53.23 53.23 0 0 0 8.58 7.21q5.89 4 11.88 7.81a167.5 167.5 0 0 1 15.68 10.85 60.23 60.23 0 0 1 11.44 11.78 45.34 45.34 0 0 1 8.59 31.78c-.92 9.09-5.68 15.81-13.81 20.06a36 36 0 0 1-13.21 3.77 54.33 54.33 0 0 1-15.64-.68 2.58 2.58 0 0 0-1.83.13 5.91 5.91 0 0 0 .77 2.45 73.91 73.91 0 0 1 5.2 18.29c1.06 7.87 1.07 15.69-2 23.21-.45 1.09-.59 2.52-2.1 2.89z" fill="#2a3047"/><path d="M950.66 749.8l-4.1.19H877.7c-1.36 0-2.73-.12-4.1-.19l.12-4.48q0-45 0-90.09l.21-4.46c.83-1.68 2.43-1.56 3.89-1.56q34.29-.09 68.59 0c1.44 0 3.07-.19 3.86 1.56.52 2.6.16 5.22.26 7.83v2.62c.07 2 .29 2.21 2.1 2.28h2.62 12c9.22-.18 16.63 7.77 16.5 16.74-.14 9.48 0 19 0 28.45a16.34 16.34 0 0 1-13 16.13 19.88 19.88 0 0 1-4.09.33h-12.35c-.88 0-1.75 0-2.62.09a1 1 0 0 0-1 1 6.94 6.94 0 0 0-.1 1.11q.01 11.23.07 22.45z" fill="#ff593a"/><path d="M377.03 442.78c-23.734-.116-42.885-19.439-42.79-43.173s19.402-42.902 43.136-42.827 42.918 19.365 42.864 43.099c-.138 23.757-19.453 42.933-43.21 42.9z" fill="#ffb12a"/><path d="M437.55 749.83l-5.69-23.51-5.5-23.55-6.77-29.35-4.75-19.91-6.33-26.41-5.71-24.65-6.24-26.43c-.78-3.64-1.65-7.26-2.53-10.87-1.69-6.93-6.13-11.83-12.16-15.37a26.82 26.82 0 0 0-4.07-1.59c0-.21-.09-.38 0-.44s.23-.07.36-.07l14.59-.13c9.91 1.27 16.31 6.9 19.57 16.13a99.91 99.91 0 0 1 2.68 10.48q5.91 25.08 11.78 50.16 3.57 15.27 7.15 30.54a20.08 20.08 0 0 0 .73 2.1c.34 3.86 1.54 7.54 2.41 11.28l13.94 59.17c.11.48.17 1 .29 1.46.55 2.1.63 2.21 2.73 2.21l23.15-.06c4.77 2.06 9.61.56 14.42.32a1.24 1.24 0 0 1 .82 1.47c-1.15 1.93-3.39 2.47-5 3.89s-2.94 2.94-2 5.18 3 3.19 5.54 2.8a27 27 0 0 0 5.07-1.33 57.86 57.86 0 0 1 35.34-1.38 104 104 0 0 0 31.81 3.86c2-.09 4-.22 5.54 1.56 1.45 1.59 3.4 1.3 5.22 1.31h23.77a12.65 12.65 0 0 1 4.41.43 1.91 1.91 0 0 1 1 .91 3.13 3.13 0 0 1-2.13.52h-31.05a4.6 4.6 0 0 1-1.49-.07c-2.91-1-5.92-.67-8.89-.67q-61 0-122.01.01z" fill="#333647"/><path d="M1025.43 388.16c-2 .29-3.66-.87-5.41-1.82l-5.21-2.93a1.29 1.29 0 0 0-1.68.32c-.55.53-1.07 1.11-.65 2l1.78 3.29 2.51 4.58a7 7 0 0 1-2.65 9.17 75.11 75.11 0 0 1-7.16 4c-2.94 1.46-5.47.93-7.89-1.3a21.94 21.94 0 0 1-3.26-4.54c-.61-.94-1-2-1.6-3s-1-2.16-2.43-1.82c-1.11.25-1.39.81-1.42 2.66v5.61a10.94 10.94 0 0 1-.94 4.36 6 6 0 0 1-5.71 4.08h-9a6.05 6.05 0 0 1-5.82-4.33 12.37 12.37 0 0 1-.82-4.76v-6a1.67 1.67 0 0 0-1.33-1.59 1.49 1.49 0 0 0-1.87.81l-3.39 5.81a10.75 10.75 0 0 1-2.61 3.15 6.09 6.09 0 0 1-7 1 76.57 76.57 0 0 1-7.81-4.39 6.93 6.93 0 0 1-2.42-8.94c.71-1.58 1.66-3.06 2.5-4.58l1.79-3.29c.43-.82 0-1.41-.58-2a1.3 1.3 0 0 0-1.67-.38l-5.21 2.92a11.21 11.21 0 0 1-6 1.91 6.7 6.7 0 0 1-5.74-3 56.79 56.79 0 0 1-4.25-7.47c-1.63-3.53-.54-6.94 2.67-9.12 1.34-.91 2.79-1.64 4.18-2.47l3.18-2a1.17 1.17 0 0 0 .62-1.56c-.29-.69-.58-1.48-1.47-1.51l-7.1-.06a9.37 9.37 0 0 1-4.67-1.12 6.17 6.17 0 0 1-3.63-5.66v-8.23a6.81 6.81 0 0 1 7-6.77h7.86a1.9 1.9 0 0 0 1.83-1.05c.52-1 .5-1.71-.29-2.32a19.93 19.93 0 0 0-2.19-1.41l-4.51-2.66a11.57 11.57 0 0 1-2.29-1.9 6 6 0 0 1-1.46-6.52 32.42 32.42 0 0 1 4.92-8.76c2.46-3.13 5.86-3.93 9.29-2l3.58 2 3.62 2a1.63 1.63 0 0 0 2-.45 1.55 1.55 0 0 0 .29-2l-3.27-5.44a9.56 9.56 0 0 1-1.68-4.88 7.09 7.09 0 0 1 3.28-6.34l6.43-3.81a8.19 8.19 0 0 1 5.82-.71 5.84 5.84 0 0 1 4.09 3l4.23 7.05c.42.71.93 1.17 1.81.92a1.68 1.68 0 0 0 1.37-1.58l.08-7.11a8.18 8.18 0 0 1 2.95-6.59 6.71 6.71 0 0 1 4.42-1.74h6.74c4.78.07 7.91 3.07 8.18 7.87.09 1.49 0 3 0 4.49v2.62a2 2 0 0 0 1.34 2c.77.28 1.34 0 2-1.15 1.29-2.13 2.51-4.31 3.87-6.39 2.43-3.74 6-4.74 10-2.71a57.7 57.7 0 0 1 6.44 3.78 7.18 7.18 0 0 1 2.57 9.51c-1.22 2.45-2.75 4.74-4.11 7.11a1.65 1.65 0 0 0 .44 2.32 1.61 1.61 0 0 0 1.74.29c1.22-.62 2.42-1.29 3.63-1.95 1.53-.83 3-1.75 4.59-2.49a6.12 6.12 0 0 1 7 1 10.59 10.59 0 0 1 2.23 2.5c1.37 2.23 2.62 4.53 3.86 6.83 1.43 2.68.65 5.08-1.16 7.24-1.55 1.85-3.73 2.87-5.78 4.06-1.07.63-2.16 1.23-3.2 1.91a1.49 1.49 0 0 0-.71 1.6 2.18 2.18 0 0 0 1.65 1.8c.74.08 1.5.06 2.24.07 2.12 0 4.25.08 6.37 0 3.29-.14 6.85 3.47 6.74 6.73-.09 2.49 0 5 0 7.48-.08 4.57-2.85 7.37-7.5 7.55-2.5.1-5 0-7.49 0-1.06 0-1.53.66-1.88 1.52a1.06 1.06 0 0 0 .26 1.34c1 .71 2.08 1.37 3.15 2 1.38.84 2.75 1.71 4.19 2.45 1.93 1 2.81 2.75 3.56 4.63a3.81 3.81 0 0 1 .09 2.91 27.28 27.28 0 0 1-1.22 3.12c-.92 1.77-2 3.48-3 5.2a7 7 0 0 1-6.84 4.03zm-256.09-7.67c-.93 1.07-.54 2.38-.59 3.59a36.1 36.1 0 0 1-7.22 20.8c-5.69 7.62-13.21 11.9-22.8 12.34a3.4 3.4 0 0 0-2.93 1.22c-5.31 7-12.61 10.24-21.17 11a7 7 0 0 1-4 .85c-5.44-.58-10.84-1.44-16.21-2.48a4.15 4.15 0 0 1-2.26-1.23c-.91-1.8-.33-3.41.67-5 2.47-1.14 4.91-.09 7.33.21 4 .48 7.86 1.39 11.83 1.82a14.7 14.7 0 0 0 7-.9 22 22 0 0 0 9-4.18c1.76-1.27 1.7-2.24-.43-3a19.93 19.93 0 0 1-3.68-1.74c-12-8.52-17.42-24.4-13.33-39a37.58 37.58 0 0 1 7.34-14.52 11.65 11.65 0 0 1 4.24-3.53c1 0 2-.09 3-.12 5.74-.12 10-2.88 12.93-7.62a26.45 26.45 0 0 0 3.74-12.4 41.1 41.1 0 0 0-6.76-25.95c-6.46-9.83-15.63-15.48-27.31-17-.62-.08-1.23-.19-1.84-.31a2.51 2.51 0 0 1-1.94-1.57 75.32 75.32 0 0 0-9.19-15 54.58 54.58 0 0 1 9.61 2.68 64.9 64.9 0 0 1 25.82 16.71 68.81 68.81 0 0 1 14.44 23.83 88.82 88.82 0 0 1 5.45 25.87c0 .62.06 1.24.14 1.86a14.53 14.53 0 0 0 .72 4c.58 1.25 2.23 1.47 3.36 2.23a29.71 29.71 0 0 1 12.25 16c1.23.71.8 2.1 1.3 3.11.04 2.56 1.13 4.92 1.49 7.43z" fill="#3e8edd"/><path d="M661.07 66.04h6.11c4.32.35 8.63.83 13 1.26.5 0 1 .11 1.49.15 4.27.29 4.87-.07 7.54-3.47 2.84-3.62 5.77-7.16 8.71-10.7 1.33-1.61 2.29-3.57 4.19-4.69 1 .26.59 1.21.84 1.82a9.89 9.89 0 0 1 .54 1.78l3.94 17.43c.14.6.43 1.18.56 1.78a2.64 2.64 0 0 0 1.9 2.09l14.63 5.62 5.92 2.27c.42.17 1 .3 1 1.12l-4.25 2.71-15 9a3.86 3.86 0 0 0-2 3.26c-.66 4.7-.47 9.44-.77 14.14-.18 2.8-.74 5.58-.62 8.61a7.06 7.06 0 0 1-3.2-1.74l-7.29-6.4-8-6.72a2.7 2.7 0 0 0-2.75-.53l-13.33 3.48c-2.17.56-4.32 1.19-6.5 1.67a5 5 0 0 1-3 .19q3.09-7.46 6.16-14.82 1.29-3.1 2.61-6.19a3.85 3.85 0 0 0-.41-4.12c-3.66-5.33-7.07-10.83-10.6-16.26a6.87 6.87 0 0 1-1.42-2.74zM253.8 317.39l8.27-12.88c.43-.69 1.23-1.29 1-2.29a2 2 0 0 0-.63-.29c-5.37-.26-10.64 1-16 .95-2.17.81-4.44.45-6.67.59a2.78 2.78 0 0 1-2.53-1.23l-10.42-12.67a19.75 19.75 0 0 0-2.26-2.48c-.9-.76-1.06-2.26-2.61-2.63l-1.59 6.24-3.8 16.7a2.67 2.67 0 0 1-1.89 2.06l-13.57 5.27a66.49 66.49 0 0 0-8 3.38 2.64 2.64 0 0 0 1.34 1.54l9 5.33 9.26 5.6a3.19 3.19 0 0 1 1.68 3.06 30.42 30.42 0 0 0 .25 6 29 29 0 0 1 .44 4.81c.07 3.85-.15 7.72 1.17 12a31 31 0 0 0 2.88-2l13.42-11.85a5.25 5.25 0 0 1 5.43-1.4q7.2 1.94 14.42 3.8a48.58 48.58 0 0 0 7.31 1.65c-.34-1.08-.52-1.94-.86-2.73l-7.2-16.8c-1.05-2.39-1.69-4.61.35-6.83a21.57 21.57 0 0 0 1.81-2.9z" fill="#f1f3f2"/><path d="M873.89 648.66c.87-6.14 4.44-9.65 10.41-10.19.87-.08 1.74-.05 2.61-.05h50.36a23.27 23.27 0 0 1 3.34.13c5.68.81 8.91 4.23 9.63 10.09-1.1 1.16-2.55.8-3.87.81q-34.3 0-68.6 0c-1.29.04-2.74.35-3.88-.79z" fill="#fe593a"/><path d="M388.95 229.25c2 .32 3.8 1.55 5.89 1.62.45.37 1.12.25 1.55.68h0c.6.7 1.64.09 2.26.75h0c.62.7 1.67.1 2.3.77h0c1 .63 2.33.34 3.28 1.13a2.92 2.92 0 0 1 1.56.33 21.71 21.71 0 0 0 4.43 1.23c21.11 5.34 42.45 8.08 64.26 6.13 5.46-.49 10.9-1 16.3-1.92a6.65 6.65 0 0 1 4.37.45l2.31 1.29a152 152 0 0 1-27.37 3.49c-3.86.13-7.71.52-11.58.42-22.62-.57-44.57-4.39-65.47-13.32a37.93 37.93 0 0 1-7.35-3.6 1.26 1.26 0 0 1 1.81-.12l.75.1c.15.17.43.38.7.57z" fill="#9c473d"/><path d="M873.89 648.66h76.35a2.46 2.46 0 0 1 0 2.12 6.36 6.36 0 0 0-3.28-.46h-69.77a7 7 0 0 0-3.29.47 2.85 2.85 0 0 1-.01-2.13z" fill="#9d453a"/><path d="M501.1 639.11a3.87 3.87 0 0 1-.2 2.89 51 51 0 0 0-3.45 15.63c-.09 1.34-.66 2.09-1.3 1.83-1.08-.43-.91-1.41-.81-2.24a74.31 74.31 0 0 1 3-14.6.65.65 0 0 0 .34-.57l.19-.82c.68-.81.82-2.13 2.23-2.12z" fill="#8a8e9f"/><path d="M387.39 228.54l-1.81.12a14.93 14.93 0 0 1-5.73-3.09 4.4 4.4 0 0 1 1.42.1l6.12 2.87z" fill="#b14d44"/><path d="M767.89 373.06c-.88-.85-.9-2.06-1.3-3.11.57-.28.49-.91.74-1.36.94 1.39.56 2.96.56 4.47z" fill="#557bac"/><path d="M378.23 224.78c.7 0 1.35.07 1.67.82a1.79 1.79 0 0 1-1.67-.82z" fill="#b14d44"/><path d="M555.27 85.43c14.29 10.49 25.45 23.51 31.73 40.27 6.51 17.39 5.92 34.71-1.42 51.75-5.27 12.24-13.34 22.48-23.28 31.28a118.18 118.18 0 0 1-22 15.39l-1.31.73c-1.85 1.12-1.94 1.27-1.53 3.28q2.36 11.53 4.75 23.07l3.1 15c.2 1 .3 1.94.49 3.28-3.07-1.06-5.09-3.43-7.84-4.41-.89-1.28-.92-2.84-1.22-4.28l-7.5-36.63c-.45-2.17-.37-2.42 1.7-3.54a122.67 122.67 0 0 0 16.94-11c11.77-9.17 21.53-20 28.1-33.57a70 70 0 0 0 6.83-37.82 71.29 71.29 0 0 0-9.47-28.93 93.77 93.77 0 0 0-16.45-20.81l-2.41-2.35c-.13-.65.04-.97.79-.71z" fill="#a2c3f2"/><path d="M451.06 128.49h-82.32a31.35 31.35 0 0 1-3.36-.08 2.77 2.77 0 0 1-2.4-2.49 2.68 2.68 0 0 1 2-2.8 14.87 14.87 0 0 1 3.33-.33h14.59 149.29a37 37 0 0 1 4.47.18 2.84 2.84 0 0 1 2.62 2.71 3 3 0 0 1-2.91 2.81h-3.36z" fill="#fffdfc"/><path d="M451.17 147.49H368.8a31.6 31.6 0 0 1-3.37-.08 2.79 2.79 0 0 1-2.45-2.82 2.69 2.69 0 0 1 2.35-2.51 33.13 33.13 0 0 1 3.73-.13h164 3c2 .13 3.32 1.33 3.21 2.88s-1.32 2.51-3.11 2.61h-3zm-.1 19.72h-82a33.23 33.23 0 0 1-3.74-.11 2.73 2.73 0 0 1-2.34-2.9 2.68 2.68 0 0 1 2.44-2.43 22.69 22.69 0 0 1 2.61-.08h166.25a20.64 20.64 0 0 1 2.61.1 2.68 2.68 0 0 1-.09 5.33c-1.24.12-2.5.09-3.74.09z" fill="#fff"/><path d="M495.04 240.38l-7 1a177.25 177.25 0 0 1-76.43-4.64l-2.47-.82a.45.45 0 0 1-.18-.5q.09-.24.18-.24l9.52 1.75c5.49 1 11 1.65 16.61 2.23a179.73 179.73 0 0 0 20.49.6 164.89 164.89 0 0 0 31.08-3.44 4.31 4.31 0 0 1 3.85.66c1.43 1.17 3.31 1.73 4.35 3.4z" fill="#a3c2f1"/><path d="M555.27 85.43l-.78.75c-1.5-.68-2.45-2.06-3.75-3-.2-.67-.05-1 .72-.73 1.3.95 2.84 1.61 3.81 2.98z" fill="#a5a7c6"/><path d="M551.46 82.49l-.72.73a6.15 6.15 0 0 1-3.06-2.93c1.64.04 2.63 1.2 3.78 2.2z" fill="#b08b94"/><path d="M409.13 235.21v.74a6.54 6.54 0 0 1-3.77-1.4q-.37-.18-.24-.36a.33.33 0 0 1 .25-.18c1.23.48 2.69.24 3.76 1.2z" fill="#bbabce"/><path d="M403.89 234.41c-1-.48-2.32-.29-3.06-1.38 1.08 0 2.21-.28 3 .74.26.14.34.28.27.42s-.12.22-.21.22z" fill="#cd91a2"/><path d="M545.43 78.72a2.36 2.36 0 0 1 2.27 1.55 2.31 2.31 0 0 1-2.27-1.55z" fill="#b08b94"/><path d="M398.62 232.29c-.85 0-1.7.07-2.26-.75.83.02 1.74-.21 2.26.75z" fill="#e26962"/><path d="M400.89 233.05c-.87.05-1.73.08-2.3-.77.83.05 1.79-.25 2.3.77z" fill="#d38692"/><path d="M543.96 77.97c.62 0 1.21.1 1.48.77a1.43 1.43 0 0 1-1.48-.77z" fill="#bb6f5f"/><path d="M396.39 231.55a1.69 1.69 0 0 1-1.55-.68 1.41 1.41 0 0 1 1.55.68z" fill="#e26962"/><path d="M403.89 234.41v-.64l1.5.24v.54z" fill="#c9b2d7"/><path d="M543.16 77.3l.82.69z" fill="#bb6f5f"/><path d="M388.95 229.25l-.81-.61z" fill="#b14d44"/><path d="M189.69 106.42a32.1 32.1 0 0 0-1.26-6.59c-6.661-24.764-32.136-39.441-56.9-32.78s-39.441 32.136-32.78 56.9c4.08 15.7 14.25 26.25 29.42 32 2.65.76 3.89-1.34 5.12-2.85a152.18 152.18 0 0 1 12.91-13.47c11.67-11.23 24.74-20.43 39.83-26.56 4.26-1.74 4.26-1.76 3.66-6.65z" fill="#fff"/><path d="M128.17 155.94a3.3 3.3 0 0 0 2.29-1.09l2.79-3a135.59 135.59 0 0 1 15.84-16.3 130.15 130.15 0 0 1 32.1-21.45c2.13-1 4.36-1.8 6.56-2.65a2.45 2.45 0 0 0 1.86-2.8 16.75 16.75 0 0 1 .08-2.23c1.28 2.09.81 4.44.49 6.55l-1.16 8.86a46 46 0 0 1-11.68 22.12 46.85 46.85 0 0 1-21.09 12.88 29.6 29.6 0 0 1-7.3 1.36c-1 .05-2 .27-2.95.37a13.42 13.42 0 0 1-3.33.19c-3.55-.6-7.23-.45-10.64-1.71-1.27-.47-2.81.06-3.86-1.1z" fill="#a2c3f2"/><g fill="#f1f3f2"><path d="M645.72 749.69a61.18 61.18 0 0 1-8.56.19c-3.59 0-7.19 0-10.79-.09a4.58 4.58 0 0 1-.93-3.87c1.82-20.18.66-40-5.91-59.41-1.33-3.92-.53-5.06 3.62-6l7.71-1.54c5.74-1.12 6.73-.63 8.75 4.67a126.87 126.87 0 0 1 7.69 34.94 145.94 145.94 0 0 1-.38 27.25c-.14 1.38-.12 2.8-1.2 3.86z"/><path d="M624.1 749.79c-6.44.12-12.88.29-19.31-.1-.87-1.83-.24-3.67-.08-5.51 2.25-15.71.16-31.05-3.92-46.21-.32-1.21-.75-2.38-1-3.61-.25-2.87-2.91-5.43-1.11-8.57 5.37-2.12 11.09-2.64 16.69-3.67 2.41-.45 3.17 1.37 3.82 3.24a127.65 127.65 0 0 1 5.74 23.92 148.21 148.21 0 0 1 .69 36.45c-.14 1.53-.29 2.97-1.52 4.06z"/></g><path d="M624.1 749.79a119.42 119.42 0 0 0 1.36-25.3 135.63 135.63 0 0 0-6.8-37.72c-1.68-4.86-.75-4-5.71-3.3-4.79.72-9.52 1.83-14.28 2.77a.87.87 0 0 1-1.36 0c-.09-.49-.27-1.07.29-1.33a11.26 11.26 0 0 1 2.45-.84l34.1-6.65q18.18-3.43 36.38-6.66l32.44-5.38c3.93-.64 7.88-1.12 12-1.71a9.83 9.83 0 0 0-.65-3.65q-4.83-16.32-8.86-32.84c-3.15-12.82-6.09-25.7-8.53-38.67-1.92-10.16-3.54-20.37-5.2-30.57-.66-4-1.11-8.14-1.61-12.22a24.83 24.83 0 0 1-.1-3 .78.78 0 0 1 .54-.84c.66-.18.9.28 1 .77a22.72 22.72 0 0 1 .6 2.93c1.12 10 2.7 20 4.41 29.93a779 779 0 0 0 19.16 82.59c.55 1.91 1.2 3.8 1.75 5.72a1.08 1.08 0 0 1-.81 1.44 14.88 14.88 0 0 1-2.54.6c-9.18.94-18.23 2.7-27.35 4.07-7.14 1.07-14.24 2.43-21.35 3.71l-23.51 4.35c-.49.09-1 .11-1.47.23-1.26.3-1.68 1-1.17 2.21a97.8 97.8 0 0 1 4.15 11.61 137.11 137.11 0 0 1 4 19.38 143.87 143.87 0 0 1 1.32 21.25 155.89 155.89 0 0 1-1.38 17.13h-1.69c.27-3.35.65-6.7.8-10.06a168.67 168.67 0 0 0 0-19.08 121.42 121.42 0 0 0-8.59-38.6c-.23-.57-.46-1.16-.73-1.71a1.75 1.75 0 0 0-1.83-1c-.87.08-1.75.12-2.6.28q-5.7 1.07-11.37 2.21c-1.68.33-2 .93-1.42 2.67a131.74 131.74 0 0 1 5 18.39 133.35 133.35 0 0 1 2.39 28.26c-.09 5.11.1 10.23-.78 15.31a23.38 23.38 0 0 0-.13 3.36z" fill="#838597"/><path d="M605.54 744.59a12.46 12.46 0 0 1-.75 5.1l-1.66.38a.35.35 0 0 1-.06-.43c-2-1.36-4.49-2.5-2.42-5.62 1.71-.53 3.39-.75 4.89.57z" fill="#8a8b9c"/><path d="M950.97 117.6c0 2.73-.13 4.84-1.12 6.77-.57 1.12-1.28 2.24-2.73 2.21a3.13 3.13 0 0 1-2.71-2.26 14.3 14.3 0 0 1 .18-12.24 4.78 4.78 0 0 1 .88-1.18 2.27 2.27 0 0 1 3.32 0 6.77 6.77 0 0 1 1.83 3.59 28 28 0 0 1 .35 3.11zm-35.68.54a13.91 13.91 0 0 1 .9-5.22 5.85 5.85 0 0 1 1.45-2.14 2.17 2.17 0 0 1 3 0 6.92 6.92 0 0 1 1.43 2.14 14.76 14.76 0 0 1 .14 10.55 7.17 7.17 0 0 1-1.32 2.2c-1.15 1.34-2.69 1.22-3.78-.23-1.55-2.09-1.81-4.54-1.82-7.3z" fill="#33333c"/><path d="M933.23 144.73a17.66 17.66 0 0 1-13.48-5.36 3.26 3.26 0 0 1-1.27-2.2.88.88 0 0 1 .26-.64c.16-.14.54-.26.65-.17a10.46 10.46 0 0 1 1.66 1.45c5.32 6.15 16 5.91 21 2.57a17.3 17.3 0 0 0 3.65-3.17 5.09 5.09 0 0 1 1.13-.94.77.77 0 0 1 .67.09.93.93 0 0 1 .31.63c.07 1-.6 1.59-1.18 2.23a17.57 17.57 0 0 1-13.4 5.51z" fill="#3e3a3b"/><path d="M605.54 744.59l-5.33.12c-2.58 1.64-5.62 1.31-8.37 1.4-7.84.26-15.64 1.36-23.51 1a3.38 3.38 0 0 0-2.13-.48l-9 .09a71.9 71.9 0 0 1-22.11-2.86 67.36 67.36 0 0 0-20.23-2.9 49.24 49.24 0 0 0-17.19 3 35.2 35.2 0 0 1-6.78 1.93 6.3 6.3 0 0 1-5.26-1.35 4.66 4.66 0 0 1-.67-6.92 11.33 11.33 0 0 1 3.1-2.67c1.37-.85 2.8-1.61 4.2-2.41.62-1.24-.19-.93-.85-.79l-5 1.12-1.43.35a8.34 8.34 0 0 1-7.81-2.2 3.46 3.46 0 0 0 0-1.11c-1-2.86.39-4.79 2.53-6.37 1.18-.87 2.46-1.61 3.81-2.49-.67-.75-1.42-.41-2-.21a11.83 11.83 0 0 1-4.4.66c-2.21-.08-3.72-1.39-4.48-3.79a4.79 4.79 0 0 1 1.47-5.37 12 12 0 0 1 2.6-1.44c1.36-.6 2.77-1.1 4.16-1.64 2.69-2.31 6.17-2.41 9.35-3.35a226.51 226.51 0 0 1 23.06-3c-7.75.46-15.4 1.72-23 2.93-3.39.69-6.64 1.9-10 2.78-2.74.21-4.9-.67-6.13-3.28a3.34 3.34 0 0 1-.12-2.88 8.21 8.21 0 0 1 2.86-3.83 34.49 34.49 0 0 1 10.83-4.93 163.82 163.82 0 0 1 16.46-3.21c4-.63 8-.2 11.89-1.14a3 3 0 0 1 1.11 0c4.08.68 8.23.27 12.3.78a156.32 156.32 0 0 1 16.93 2.77c4.11 1 8.25 1.88 12.31 3.06a20 20 0 0 0 8.5.56c2.6-.37 5.2-.53 7.81-.66a16 16 0 0 0 2.54-.54c.77.1 1.53-.16 2.3 0l15.08-1c1.85-.63 3.63-1.86 5.67-.59a119.43 119.43 0 0 1 4.53 18.8 49.73 49.73 0 0 1 1.06 10c-.1 2.62.62 5.16.64 7.79 0 4.49-.81 8.91-.86 13.38 0 .22-.29.56-.44.89z" fill="#f69d85"/><path d="M579.89 695.25a3.06 3.06 0 0 1-.38.6c-1 1-1.12.92-1.92-.55.34-8.73.27-17.47 0-26.2-.15-4.35-1.43-8.58-2.7-12.76-1.93-6.33-4.39-12.46-6.77-18.62-3.09-8-6.35-16-8.5-24.34a66.18 66.18 0 0 1-2.13-12.49c-.37-6.09 1.06-11.88 2.77-17.63a148.85 148.85 0 0 1 7.63-19.49 282.48 282.48 0 0 1 15.12-28.38c.38-.62.62-1.39 1.37-1.7a.89.89 0 0 1 .7.06.88.88 0 0 1 .39.6c.1.94-.53 1.61-1 2.35q-5.56 9.31-10.46 19a205.06 205.06 0 0 0-10.63 24.32 62.93 62.93 0 0 0-3.58 13.71 47.07 47.07 0 0 0 1 16.71 192 192 0 0 0 7.72 23c2.87 7.44 5.88 14.83 8.26 22.45a66.24 66.24 0 0 1 3 19.51q.03 9.94.11 19.85z" fill="#848798"/><path d="M708.02 468.24c.46-.19 1-.63 1.37-.52 1.78.47 3.73.11 5.38 1.15-2.82-.34-5.13.36-6.44 3.12a86.86 86.86 0 0 1-29.44 23.16 58.85 58.85 0 0 1-18.09 5.78 41.41 41.41 0 0 1-15.25-.4c-8.94-2.16-14.09-7.95-16.19-16.73a37.09 37.09 0 0 1-.77-9.28c0-1 .32-2-.75-2.71.4-.41.82-.8 1.2-1.23.62-.68 1.25-.43 1.88-.06 1.72 2.64.82 5.58.9 8.38.26 10.16 5.87 16.86 15.67 19.06a34.94 34.94 0 0 0 15.93-.56c16.73-4 30.23-13.24 41.52-25.95a26.21 26.21 0 0 1 3.08-3.21z" fill="#858798"/><path d="M600.61 693.64c-1.88.25-3.7 1.12-5.67.59l2.37-8.06h1.36c-.24 1.16.33 2.15.66 3.2l1.28 4.27z" fill="#8e8c99"/><path d="M489.95 706.41a58.55 58.55 0 0 0-9.07 2.85l-.61-.64a25.89 25.89 0 0 1 9.64-2.92c.24.15.33.3.26.46s-.14.25-.22.25z" fill="#f3cbc0"/><path d="M498.72 642.05l-.34.57a.6.6 0 0 1 .34-.57z" fill="#a2c3f2"/><path d="M719.89 423.49c-3.1 2-6.5 1.48-9.82 1-5.68-.77-11.33-1.74-17-2.63-1.35-.45-1.61-1.82-2.36-2.78-2.55-3.3-6.81-4.11-9.88-1.84a7 7 0 0 0-1.43 9.93c2.31 3.17 6.45 3.64 9.91 1.11 1-.71 1.72-1.85 3.12-1.87l13.04 2.08a47 47 0 0 0 9.16.91 12.07 12.07 0 0 1-3.26 4 57 57 0 0 1-11.85 9 3.77 3.77 0 0 0-2.22 3.82l.14 21.63a3.43 3.43 0 0 1-1.54 2.84c-7.77 6.87-15.84 13.32-25.37 17.65a34.5 34.5 0 0 1-15.2 3.34c-9.56-.2-16.06-5.8-17.06-15.32-.3-2.79-.83-5.73.76-8.4q.06-7 .14-14c1.11-.92 2.4-.52 3.59-.37 10.77 1.37 21.27-.69 31.79-2.47-11.66 2.06-22.52-.78-33.09-5.39a6.6 6.6 0 0 1-2.45-2.24c-2.47-1.66-5-3.19-7.4-5a60.86 60.86 0 0 1-21.23-29.42c-.28-.82-.63-1.61-1-2.41-1.38-1.28-1.63-3-2-4.73-1.89-8.4-1.35-16.79-.24-25.23 1.41-10.62 1.81-21.35 3.87-31.88.38-1.92.47-4 2.34-5.32l2-5.22c.52-1.25 1-1.52 2.25-1.3a81.66 81.66 0 0 0 17.87 1 172.82 172.82 0 0 0 29.17-4 120.6 120.6 0 0 0 25.13-8.23 11 11 0 0 1 1.31-.36 40.86 40.86 0 0 1 1.11 5 48.9 48.9 0 0 0 6.08 15.56c5.49 8.85 13.38 13.84 23.8 14.73-.45 1.23-1.53 1.93-2.36 2.84-11.27 12.35-12.94 32.24-3 46.17a34.73 34.73 0 0 0 8 7.71c.4 4.36-1.96 7.34-4.82 10.09z" fill="#f69d85"/><path d="M613.39 339.57a102.31 102.31 0 0 0-2.9 16.86c-.75 8-1.82 16-2.72 24.06a64.66 64.66 0 0 0 1.28 24c.19.72.26 1.46.38 2.2-8.36-.82-14.77-5-19.52-11.7-10.14-14.19-8.06-35.46 4.71-47.49a28 28 0 0 1 18.77-7.93z" fill="#3e8edd"/><path d="M639.03 468.01l.07 7.1a18.29 18.29 0 0 0 3.88 10.31 13.93 13.93 0 0 0 10.25 5.33 33.44 33.44 0 0 0 16.35-3 76.79 76.79 0 0 0 16.53-10.11c3.92-3.07 7.57-6.48 11.33-9.73l10.58.34c.09 1-.56 1.6-1.09 2.29a78.44 78.44 0 0 1-16 15.05 73.22 73.22 0 0 1-27.89 12.9 37.39 37.39 0 0 1-17.72 0c-7.21-1.9-11.5-6.57-13.65-13.48-1.1-3.5-1.06-7.11-1-10.73 0-1.24.13-2.48.2-3.73a42.12 42.12 0 0 1 8.16-2.54z" fill="#f1f3f2"/><path d="M639.01 443.54c4.85 2.24 9.72 4.43 15 5.54 2.54.53 5.11.91 7.67 1.32a50.71 50.71 0 0 0 7.77.58 13 13 0 0 0 4.78-.54 2.24 2.24 0 0 1 2.38.17 2.53 2.53 0 0 1-1.88 1.08l-14.17 2.94a9.83 9.83 0 0 1-2.6.1c-2.26-.15-4.43.46-6.64.69s-4.1-.91-6.26-.69a13.35 13.35 0 0 1-5.87-.72q-.09-5.23-.18-10.47z" fill="#d1836b"/><path d="M950.54 694.49q0-8.79 0-17.59l.11-3a1.07 1.07 0 0 1 1-1 16.61 16.61 0 0 1 1.87-.09h12.35a10 10 0 0 1 4 .65 6.68 6.68 0 0 1 4.24 5.29 13.9 13.9 0 0 1 .13 2.24q0 13.47 0 26.94a12.54 12.54 0 0 1-.06 1.5 6.65 6.65 0 0 1-5.21 6.09 10.75 10.75 0 0 1-2.58.4q-6.91 0-13.84 0c-1.64 0-2-.34-2-2v-19.46z" fill="#a2c3f2"/><path d="M376.89 404.69h12.31c2.22 0 2.55.41 2.4 2.71a19.07 19.07 0 0 1-4.4 11.39c-4.666 5.42-12.71 6.351-18.49 2.14-5-3.86-6.38-9.07-6.89-14.56-.08-.93.6-1.57 1.64-1.64.87-.07 1.74 0 2.61 0z" fill="#3d393f"/><path d="M367.12 389.78c.07 3.16-.34 5.34-1.49 7.32-1.32 2.29-3.71 2.31-4.91-.06a13.73 13.73 0 0 1 0-12.87 3.81 3.81 0 0 1 .66-.89 2.27 2.27 0 0 1 3.56 0 9.06 9.06 0 0 1 1.89 4.39 11.73 11.73 0 0 1 .29 2.11z" fill="#33333c"/><path d="M387.27 390.57a11.77 11.77 0 0 1 .84-5.09 10 10 0 0 1 1.33-2.2 2.14 2.14 0 0 1 3.51.09 6.41 6.41 0 0 1 1.16 1.88 15.39 15.39 0 0 1 0 10.88c-.49 1.31-1.23 2.55-2.82 2.61-1.8.07-2.49-1.33-3.11-2.72a12.87 12.87 0 0 1-.91-5.45z" fill="#32323c"/><path d="M568.33 747.16c.54-.47.95-1 1.84-1.08l15.58-.74a72 72 0 0 0 8.15-.55 40.2 40.2 0 0 1 6.31-.08 14.36 14.36 0 0 0 2.86 4.93l-3 .25q-14.73 0-29.46 0h-1.87c-.62 0-1-.53-.86-1.26l.45-1.47z" fill="#eae8e8"/><path d="M491.42 731.75a2.19 2.19 0 0 1 2.34-.53.3.3 0 0 1 .12.55 13.22 13.22 0 0 1-1.61.77z" fill="#8e565a"/><path d="M928.89 343.87h4.87a3 3 0 0 0 3.15-2.6l1.33-5a2.4 2.4 0 0 0-1-2.92l-4.79-2.91-4.47-2.71c-1.47-.98-1.91-2.24-1.08-3.89 1.07-2.11 2.27-4.15 3.54-6.15a2.3 2.3 0 0 1 3.26-.81l6.8 3.91c5.2 3.06 4.56 2.69 8.11-.86l1.6-1.57a3.3 3.3 0 0 0 .79-4.09c-.88-2-2.19-3.75-3-5.71a13.17 13.17 0 0 0-1.93-3.23 2 2 0 0 1-.07-2.91 8.42 8.42 0 0 1 1.67-1.49q2.21-1.41 4.5-2.66c2.29-1.25 3.26-1.05 4.63 1.15l4.72 8.06c.91 1.71 1.94 2.44 4.32 1.81l4.67-1.3a3.15 3.15 0 0 0 2.38-3.5 60.29 60.29 0 0 1 0-6.16c.11-1.26 0-2.54.08-3.81a2.81 2.81 0 0 1 2.47-2.84 56.07 56.07 0 0 1 7.1 0 2.75 2.75 0 0 1 2.47 2.84v6.74V305a2.88 2.88 0 0 0 2.08 2.82q3 .93 6.14 1.6a2.58 2.58 0 0 0 3.05-1.82 12.5 12.5 0 0 1 1-1.91c5.18-8.52 4.67-9.8 9.76-6.69a33.54 33.54 0 0 1 4.7 3.06 2.14 2.14 0 0 1 .46 2.68l-4.29 7.48a13.41 13.41 0 0 0-1.16 2.34 3.14 3.14 0 0 0 1 3.75 18.81 18.81 0 0 1 3.23 3.2c1.23 1.64 2.64 1.66 4.25.32a12.82 12.82 0 0 1 3.47-2.1c1.92-.76 3.63-2 5.5-2.9a2.35 2.35 0 0 1 3.27.81c1.27 2 2.47 4 3.54 6.15.83 1.65.47 2.83-1.08 3.89s-3 1.81-4.47 2.71-3.24 1.87-4.79 2.9a2.48 2.48 0 0 0-.88 3.38 8.86 8.86 0 0 1 .49 1.59c1 4.54 1.18 5.54 4.19 5.62 2.37.06 4.75 0 7.12 0h2.62a3 3 0 0 1 3.08 3.06c.1 2.12.08 4.24 0 6.36-.07 1.92-1 2.73-3.22 3.1a8.26 8.26 0 0 1-1 .08c-3 .06-6 0-9 0-2.12 0-2.57.43-3.14 2.46l-1.19 4.32c-.63 2.27-.44 2.82 1.52 4 2.68 1.59 5.41 3.09 8 4.74 2.43 1.52 2.64 2.68 1.21 5.23-.86 1.52-1.64 3.09-2.57 4.56-1.19 1.88-2.46 2.21-4.44 1.14-2.31-1.24-4.54-2.61-6.81-3.92-.64-.37-1.27-.79-1.94-1.11a2.76 2.76 0 0 0-3.44.48l-3.7 3.71a3.27 3.27 0 0 0-.5 4.41c1.08 2 2.26 3.87 3.37 5.82.62 1.08 1.22 2.18 1.77 3.29a2.13 2.13 0 0 1-.63 2.69 7.48 7.48 0 0 1-1.21.88l-5.18 3c-1.57.88-2.4.74-3.57-.66a18.59 18.59 0 0 1-1.43-2.18c-1.41-2.35-2.76-4.74-4.23-7-1.16-1.83-1.46-1.88-3.7-1.36-1.45.33-2.92.62-4.36 1-2.11.58-2.88 1.49-3 3.74-.09 2.62 0 5.24 0 7.86 0 4.61-.16 4.75-4.92 4.76h-3.74c-2.88-.08-3.39-.6-3.45-3.6v-6.73-2.25c-.16-2.26-.87-3.19-3-3.76-1.56-.43-3.19-.63-4.71-1.16a2.4 2.4 0 0 0-3.17 1.16q-2.37 3.81-4.6 7.7a8.49 8.49 0 0 1-2.06 2.62 1.75 1.75 0 0 1-2.08.25c-2.16-1.23-4.38-2.38-6.49-3.71-1.9-1.2-2.09-2.78.25-5.4a15.14 15.14 0 0 0 2.92-5.54c.26-.81.94-1.51 1.17-2.33a3 3 0 0 0-.65-3.13l-3.7-3.71c-1.48-1.4-2.25-1.55-4-.6-2.3 1.23-4.54 2.59-6.81 3.89a21.36 21.36 0 0 1-2.28 1.28 2.38 2.38 0 0 1-3.27-.89c-1.29-2-2.54-4-3.65-6.09a2.76 2.76 0 0 1 1.23-3.85c2.65-1.65 5.36-3.18 8-4.76.43-.25.88-.47 1.3-.73a2.46 2.46 0 0 0 1.1-2.92c-.53-2-1.09-4-1.7-6a2 2 0 0 0-1.87-1.42c-2.95-.08-5.9 0-8.85 0a13.22 13.22 0 0 1-2.6-.17c-2-.41-2.7-1.33-2.75-3.4a68.06 68.06 0 0 1 .07-6.85 2.26 2.26 0 0 1 2-2.12c2.07-.19 4.15-.09 6.23-.09z" fill="#a2c3f2"/><path d="M745.29 359.54c7.13-.12 11.78 3.33 15.23 8.6a27.58 27.58 0 0 1 3.84 10.79 28.09 28.09 0 0 1-3.68 19 20.81 20.81 0 0 1-13.79 10.56c-4.6 1.07-8.63-.18-12.38-2.56-5-3.18-7.62-8.09-9-13.68a28.59 28.59 0 0 1 4.38-23.76 21.6 21.6 0 0 1 9.66-8 13.66 13.66 0 0 1 5.74-.95z" fill="#305879"/><path d="M692.39 426.38l-1.67 2a7.71 7.71 0 0 1-8.56 2.07c-3.29-1.09-4.91-3.71-5.33-7-.37-2.86 1.66-6.24 4.42-7.65a8.22 8.22 0 0 1 8.77 1 10.61 10.61 0 0 1 3 5.06c.22 1.54-.62 2.98-.63 4.52z" fill="#315777"/><path d="M719.89 423.49c1.66-3.33 3.89-6.37 5-10l5.41 2.28c.89.39 1 1 .29 1.67-3.09 2.92-6.42 5.36-10.7 6.05z" fill="#2d324a"/><path d="M514.76 713.82l2.21.24a.4.4 0 0 1 .35.54c-.08.21-.19.48-.36.55a3.26 3.26 0 0 1-1.08.23 122.33 122.33 0 0 0-23.8 4.17 6.15 6.15 0 0 1-1.43.09c-.1 0-.28-.14-.28-.22s-.05-.6.06-.67a7.47 7.47 0 0 1 2-1 110.33 110.33 0 0 1 16.82-3.17c1.82-.16 3.64-1.04 5.51-.76z" fill="#bd624d"/><path d="M489.95 706.41a2.42 2.42 0 0 0 0-.71c1.67-1.28 3.75-1.09 5.65-1.49 2.91-.61 5.86-1 8.81-1.39 1.84-.23 3.74-.06 5.57-.35a18.52 18.52 0 0 1 4.8-.49 2.06 2.06 0 0 1 1 .43c.1.07 0 .49-.07.64a1 1 0 0 1-.63.34l-7.39.85c-3 .13-5.89.78-8.84 1.1s-5.87 1.38-8.9 1.07z" fill="#be6551"/><path d="M520.99 726.6c0 .12 0 .3-.06.33a2.46 2.46 0 0 1-1 .4 82.9 82.9 0 0 0-21.6 3.66 5.45 5.45 0 0 1-1.46.07c-.11 0-.3-.13-.3-.2s0-.55.12-.63a5 5 0 0 1 1.3-.66 67.54 67.54 0 0 1 13.4-3.08 52 52 0 0 1 7.78-.65 6 6 0 0 1 1.46.21c.16.06.26.37.36.55z" fill="#bc614c"/><path d="M698.13 382.85a6 6 0 0 1 6 7.59c-.72 2.64-4.73 5-7.4 4.22a7.81 7.81 0 0 1-4.14-2.36 5.59 5.59 0 0 1 1.8-8.27 6.44 6.44 0 0 1 3.74-1.18zm-69.6 6.74c-1.82.34-3.35-.52-4.59-2.11-3.13-4-.15-8.5 3.65-9.08a12.55 12.55 0 0 1 2.6-.06 5.43 5.43 0 0 1 4.89 7.68c-.87 1.87-2.31 3.59-4.8 3.57z" fill="#d1836b"/><path d="M688.47 368.8a14 14 0 0 1-1.89 7.09c-.73 1.2-1.72 2.31-3.23 2.18-1.69-.14-2.48-1.53-2.94-3a13.82 13.82 0 0 1 1.1-10.81c.69-1.34 1.67-2.58 3.42-2.46s2.42 1.52 2.93 3a9.52 9.52 0 0 1 .61 4zm-36.73-3.92a17.74 17.74 0 0 1-1.15 5.43 7.07 7.07 0 0 1-1.83 2.77 2.68 2.68 0 0 1-4.4-.54 7.8 7.8 0 0 1-.76-1.69 13.54 13.54 0 0 1 1.29-10.77c.72-1.37 1.79-2.6 3.46-2.36s2.37 1.64 2.82 3.14a11.2 11.2 0 0 1 .57 4.02z" fill="#32323d"/><path d="M680.08 352.86a24.15 24.15 0 0 1 15 5.67 2.15 2.15 0 0 1 .9 1.56 1.53 1.53 0 0 1-.4 1.36 1.3 1.3 0 0 1-1.38.25 11.51 11.51 0 0 1-2.81-1.78 18.61 18.61 0 0 0-12.88-3.62 1.6 1.6 0 0 1-1.93-1.27 1.68 1.68 0 0 1 1.3-2 19.78 19.78 0 0 1 2.2-.17z" fill="#b25b47"/><path d="M654.79 406.95a16 16 0 0 1-4.68-1.08 1 1 0 0 1-.8-1.08 1.06 1.06 0 0 1 1.46-.72 10.5 10.5 0 0 0 3.27.56c5.11-.18 10.22-.25 15.19-1.65a11 11 0 0 1 4.33-.62c1.51-.13 2.68-1.11 4-1.66a11.24 11.24 0 0 1 1.7-.55.78.78 0 0 1 .62.29.7.7 0 0 1 0 1 10.82 10.82 0 0 1-1.44 1.08c-1.11.73-2.48 1-3.42 2-6.4 3.69-12.99 5.8-20.23 2.43z" fill="#b35c48"/><path d="M656.95 385.73a16.36 16.36 0 0 1 .49-2.13q2.85-7.89 5.77-15.77a1.94 1.94 0 0 1 .63-.9 1.58 1.58 0 0 1 1-.2c.15 0 .38.38.37.58a5.74 5.74 0 0 1-.24 1.81q-2 5.42-4.18 10.79a30.81 30.81 0 0 0-1.67 5.33c-.37 1.85-.22 2.44 1.33 3.39 1.06.64 2.21 1.13 3.32 1.7a14.29 14.29 0 0 1 1.62.91.75.75 0 0 1 .23.64c0 .2-.23.51-.4.54-2.29.5-7.44-2.3-8.06-4.41a12.6 12.6 0 0 1-.21-2.28z" fill="#b55e4a"/><path d="M651.39 349.91c1.9-.29 3.78.51 5.72.91a3.07 3.07 0 0 1 1.26.77 1.32 1.32 0 0 1 .36 1.68 1.45 1.45 0 0 1-1.41 1 4.48 4.48 0 0 1-1.08-.26 16.59 16.59 0 0 0-12.64 1.13 10.37 10.37 0 0 1-1 .45 1.37 1.37 0 0 1-1.63-.57 1.65 1.65 0 0 1 .11-2.07 4.58 4.58 0 0 1 1.22-.84c2.84-1.23 5.71-2.46 9.09-2.2z" fill="#b35d48"/><path d="M673.56 402.36c-3.1 1.91-6.64 2.43-10.12 2.85a54.74 54.74 0 0 1-8.1 0c-.44 0-.86-.38-1.3-.59a4.49 4.49 0 0 0 3-1.14 11.16 11.16 0 0 1 7.79-2.69h5.15a4.23 4.23 0 0 1 3.58 1.57z" fill="#db7776"/><path d="M654.79 406.95c5.71 1.41 11.22.2 16.7-1.35 1.18-.34 2.35-.72 3.53-1.08-.85 2.62-2.77 3.9-5.33 4.73a22.15 22.15 0 0 1-8 1.32 16.41 16.41 0 0 1-4.66-1.21c-1.14-.4-1.66-1.47-2.24-2.41z" fill="#da7877"/><path d="M389.03 411.35a11.15 11.15 0 0 1-6.66 8.77c-5 2.17-12.76 1.65-16.26-6a24.17 24.17 0 0 1-.93-2.8c3.48-1.76 20.42-1.75 23.85.03z" fill="#feb02a"/><path d="M389.03 411.35h-23.85a11.12 11.12 0 0 1-.82-4.28c3.4-.52 22.67-.48 25.59 0-.13 1.47-.06 2.96-.92 4.28z" fill="#fdffff"/><path d="M979.13 382.07c-17.14-.28-31.77-13.23-31.93-31.86-.16-18.46 15.35-32.64 32.06-31.86 16.76-.71 32.18 13.59 31.93 32-.25 18.72-15.01 31.52-32.06 31.72zm-252.43 3.42a26.36 26.36 0 0 1 6.42-18.13 17.35 17.35 0 0 1 11.58-6.16 13.77 13.77 0 0 1 6.87 1.43 16.67 16.67 0 0 1 8.8 9.22c4.16 9.86 3 19.22-3.23 27.89a16.59 16.59 0 0 1-11.52 7c-6 .81-10.7-1.76-14.24-6.45a23 23 0 0 1-4.68-14.8z" fill="#3e8edd"/><path d="M979.53 322.9c-15.42-.18-27.54 12.78-27.44 26.76a27.32 27.32 0 0 0 7.35 19 26.8 26.8 0 0 0 38.52 1c5.35-5.32 8.44-11.66 8.29-19.89.64-13.92-11.76-26.7-26.72-26.87z" fill="#a2c3f2"/></svg>