<svg xmlns="http://www.w3.org/2000/svg" xmlns:xlink="http://www.w3.org/1999/xlink" viewBox="0 0 431.01 429.51" xmlns:v="https://vecta.io/nano"><style><![CDATA[.O{fill:#263238}.P{fill:#e8505b}.Q{fill:#fafafa}.R{fill:#455a64}.S{opacity:.3}.T{fill:#fff}.U{fill:#f5f5f5}.V{fill:#e0e0e0}.W{opacity:.2}.X{fill:#ebebeb}.Y{fill:#ffbe9d}]]></style><g class="V"><use xlink:href="#B"/><path d="M404.8 89.3c0-.17.79-.31 1.75-.31s1.76.14 1.76.31-.79.3-1.76.3-1.75-.18-1.75-.3zm-7 0c0-.17.79-.31 1.75-.31s1.75.14 1.75.31-.78.3-1.75.3-1.75-.18-1.75-.3z"/><use xlink:href="#C"/><use xlink:href="#C" x="-7"/><use xlink:href="#B" x="-35.01"/><path d="M369.79 89.3c0-.17.79-.31 1.76-.31s1.75.14 1.75.31-.79.3-1.75.3-1.76-.18-1.76-.3zm-7 0c0-.17.79-.31 1.75-.31s1.75.14 1.75.31-.78.3-1.75.3-1.75-.18-1.75-.3z"/><use xlink:href="#C" x="-35.01"/><use xlink:href="#C" x="-42.01"/><use xlink:href="#B" x="-70.02"/><use xlink:href="#B" x="-77.02"/><path d="M329.8 87.28c.16 0 .3.79.3 1.75v.27l-.3-.3c.84 0 1.48.14 1.48.3s-.64.27-1.48.3h-.3v-.3a2.53 2.53 0 0 1 0-.27c-.01-.96.13-1.75.3-1.75z"/><use xlink:href="#D"/><use xlink:href="#E"/><use xlink:href="#E" y="-7"/><path d="M329.8 59.28c.16 0 .3.78.3 1.75s-.14 1.75-.3 1.75-.31-.79-.31-1.75.14-1.75.31-1.75z"/><use xlink:href="#D" y="-28.01"/><use xlink:href="#D" y="-35.01"/><use xlink:href="#E" y="-35.01"/><use xlink:href="#E" y="-42.01"/><path d="M329.8 24.27c.16 0 .3.78.3 1.75s-.14 1.75-.3 1.75-.31-.79-.31-1.75.14-1.75.31-1.75zm0-7.01c.16 0 .3.79.3 1.76s-.14 1.75-.3 1.75-.31-.79-.31-1.75.14-1.76.31-1.76z"/><use xlink:href="#D" y="-70.02"/><path d="M330.3 3.79c0 .08-.2.16-.52.21l.21-.21a6.84 6.84 0 0 1 .09 1.22c0 1-.14 1.75-.3 1.75s-.31-.78-.31-1.75a7.93 7.93 0 0 1 .09-1.22v-.25h.18c.38.08.56.16.56.25z"/><use xlink:href="#F"/><use xlink:href="#F" x="7"/><use xlink:href="#G"/><use xlink:href="#G" x="7"/><use xlink:href="#H"/><use xlink:href="#H" x="7"/><use xlink:href="#F" x="42"/><path d="M386.3 3.79c0 .16-.79.3-1.75.3s-1.76-.14-1.76-.3.79-.31 1.76-.31 1.75.14 1.75.31z"/><use xlink:href="#G" x="42"/><use xlink:href="#H" x="35"/><use xlink:href="#H" x="42"/><use xlink:href="#F" x="77"/><use xlink:href="#I"/><path d="M415.3 16.83c-.17 0-.31-.79-.31-1.76s.14-1.75.31-1.75.3.79.3 1.75-.13 1.76-.3 1.76z"/><use xlink:href="#J"/><use xlink:href="#K"/><use xlink:href="#K" y="7"/><use xlink:href="#I" y="35.01"/><use xlink:href="#I" y="42.01"/><use xlink:href="#J" y="35.01"/><use xlink:href="#J" y="42.01"/><use xlink:href="#K" y="42.01"/><use xlink:href="#K" y="49.01"/><use xlink:href="#I" y="77.02"/><path d="M412.14 85.26h6.33v6.33h-6.33zm-85.51.87h6.33v6.33h-6.33zM412.14 0h6.33v6.33h-6.33zm-85.51.62h6.33v6.33h-6.33zM82.22 112.69c11.06-9.7 12.06-25.54 10-39.45-.34-2.33-.36-4.81-1.69-6.74s-4.08-3-6.06-1.82c-1.64 1-2.17 3.1-3 4.88a13.65 13.65 0 0 1-4.89 5.82c-1.4.94-3.18 1.61-4.74 1-2.13-.89-2.68-3.65-2.92-6l-1.35-13a21.54 21.54 0 0 0-1.46-6.81 7.25 7.25 0 0 0-5.05-4.37c-2.28-.37-4.87 1.2-5.08 3.52a21.83 21.83 0 0 0 .25 2.9 2.46 2.46 0 0 1-1.17 2.45 2.84 2.84 0 0 1-2.67-.78 31 31 0 0 1-6.45-7.75 43.57 43.57 0 0 0-6.12-8.06c-2.45-2.31-5.68-4-9-3.82s-6.66 2.61-7.14 6 1.8 6.47 4.16 8.88a52.31 52.31 0 0 0 11.91 9.09 4.27 4.27 0 0 1 2 1.74c.68 1.49-.62 3.19-2.09 3.86-1.67.77-3.56.8-5.35 1.21s-3.65 1.43-4.15 3.21c-.69 2.47 1.57 4.74 3.7 6.15a44.67 44.67 0 0 0 14 6.13A15.25 15.25 0 0 1 53 82.76c1.51 1 2.57 3 1.92 4.77s-2.73 2.48-4.55 2.35a32.15 32.15 0 0 1-5.31-1.38c-3.32-.86-7.41-.18-9.15 2.8a7.37 7.37 0 0 0-.06 6.57 17 17 0 0 0 4.15 5.35 44.89 44.89 0 0 0 20.51 11.28c7.68 1.75 14.6 1.69 21.66-1.81"/></g><g class="Q"><path d="M83.54 123.02a102.48 102.48 0 0 0-5.9-18.69 208.88 208.88 0 0 0-10.71-21.46l-3.1-5.49-3.13-5.26a105.68 105.68 0 0 0-6.86-9.3c-2.33-2.85-4.64-5.47-6.82-7.91s-4.26-4.66-6.25-6.61a82.88 82.88 0 0 0-10-8.51c-1.26-.9-2.26-1.58-2.94-2l-.78-.5c-.18-.12-.27-.17-.28-.16l.25.19.76.54 2.89 2.09a88.35 88.35 0 0 1 9.91 8.58c2 2 4 4.2 6.2 6.64s4.46 5.07 6.77 7.92a108.34 108.34 0 0 1 6.82 9.29c1.09 1.67 2.09 3.44 3.11 5.24l3.09 5.48a211.66 211.66 0 0 1 10.73 21.38 104.08 104.08 0 0 1 6 18.61"/><path d="M60.57 72.12a4.7 4.7 0 0 0 .12-1l.13-2.78v-9.16l.12-9.15c0-1.17.1-2.11.15-2.77a4.71 4.71 0 0 0 0-1 4.48 4.48 0 0 0-.19 1l-.28 2.76c-.19 2.34-.27 5.59-.25 9.17l.09 9.15v2.78a5.21 5.21 0 0 0 .11 1zm-30.43-2.28a6.77 6.77 0 0 0 1.21 0h3.27c2.76 0 6.58.12 10.79.44s8 .79 10.73 1.2l3.24.51a6.44 6.44 0 0 0 1.19.16 6.13 6.13 0 0 0-1.16-.32 47.87 47.87 0 0 0-3.22-.65c-2.73-.49-6.53-1-10.75-1.33a105.42 105.42 0 0 0-10.82-.32c-1.39 0-2.51.11-3.28.18a6.1 6.1 0 0 0-1.2.13zm47.08 33.98a1.85 1.85 0 0 0 .16-.39l.39-1.13 1.31-4.22c1.07-3.57 2.38-8.55 3.75-14.07l3.62-14.1 1.18-4.25.32-1.16a2.36 2.36 0 0 0 .08-.42 1.54 1.54 0 0 0-.17.39c-.1.31-.23.68-.39 1.13-.33 1-.78 2.43-1.31 4.22-1.06 3.57-2.37 8.56-3.75 14.08L78.79 98l-1.18 4.25-.31 1.16a1.16 1.16 0 0 0-.08.41z"/><path d="M36.19 95.42a1.27 1.27 0 0 0 .41.12l1.19.26 4.4.91 14.47 3.12 14.5 3 4.42.77 1.21.18a1.55 1.55 0 0 0 .43 0 2.56 2.56 0 0 0-.41-.12l-1.2-.26-4.39-.9-14.47-3.13-14.51-3-4.42-.77-1.21-.18a2.19 2.19 0 0 0-.42 0z"/></g><circle cx="262.42" cy="346.54" r="124.55" transform="matrix(.707107 -.707107 .707107 .707107 -207.88 245.48)" class="V"/><path d="M222.72 403.25c-54.284 0-98.29-44.006-98.29-98.29s44.006-98.29 98.29-98.29 98.29 44.006 98.29 98.29c-.061 54.259-44.031 98.229-98.29 98.29zm0-195.58c-53.732 0-97.29 43.558-97.29 97.29s43.558 97.29 97.29 97.29 97.29-43.558 97.29-97.29c-.061-53.707-43.583-97.229-97.29-97.29zm0 211.25c-62.96 0-114-51.04-114-114s51.04-114 114-114 114 51.04 114 114c-.05 62.94-51.06 113.95-114 114zm0-226.93c-62.408 0-113 50.592-113 113s50.592 113 113 113 113-50.592 113-113c-.055-62.385-50.615-112.945-113-113zm0 198.19c-34.474.004-65.556-20.76-78.75-52.609s-5.903-68.511 18.474-92.887 61.038-31.668 92.887-18.474 52.613 44.276 52.609 78.75c-.055 47.043-38.177 85.165-85.22 85.22zm0-169.45c-34.069-.004-64.785 20.515-77.826 51.99s-5.836 67.705 18.252 91.796 60.318 31.3 91.794 18.263 51.999-43.751 51.999-77.819c-.05-46.494-37.726-84.175-84.22-84.23zm0 156.1c-39.693 0-71.87-32.177-71.87-71.87s32.177-71.87 71.87-71.87 71.87 32.177 71.87 71.87c-.072 39.663-32.207 71.798-71.87 71.87zm0-142.74c-39.14 0-70.87 31.73-70.87 70.87s31.73 70.87 70.87 70.87 70.87-31.73 70.87-70.87c-.044-39.122-31.748-70.826-70.87-70.87zm0 129.05c-23.537.004-44.759-14.172-53.769-35.917s-4.031-46.776 12.612-63.42 41.674-21.621 63.42-12.612A58.19 58.19 0 0 1 280.9 304.96c-.039 32.116-26.064 58.141-58.18 58.18zm0-115.37c-23.132-.004-43.989 13.927-52.844 35.297a57.19 57.19 0 0 0 12.391 62.328c16.356 16.358 40.955 21.253 62.326 12.402S279.9 328.092 279.9 304.96c-.033-31.568-25.612-57.151-57.18-57.19zm0 103.05c-25.328 0-45.86-20.532-45.86-45.86s20.532-45.86 45.86-45.86 45.86 20.532 45.86 45.86c-.028 25.316-20.544 45.832-45.86 45.86zm0-90.72c-24.775 0-44.86 20.085-44.86 44.86s20.085 44.86 44.86 44.86 44.86-20.085 44.86-44.86c-.028-24.764-20.096-44.832-44.86-44.86z" class="Q"/><path d="M213.38 4.92h48.33v48.33h-48.33z" class="X"/><path d="M165.705 266.623l108.75-7.613 8.361 119.44-108.75 7.613z" class="O"/><path d="M271.21 317.43l-1.59-35.21-94.74 8.89 3.62 36.58 92.71-10.26zm19.83 61.11l-121.42 8.16a7.69 7.69 0 0 1-8.18-7.15h0a7.68 7.68 0 0 1 7.15-8.18l121.42-8.16a7.69 7.69 0 0 1 8.18 7.15h0a7.69 7.69 0 0 1-7.15 8.18z" class="R"/><path d="M21.86 111.76h404.06V294.8H21.86z" class="X"/><path d="M21.86 294.8l10.44 5.44 383.62-.36 10-5.08H21.86z" class="V"/><path d="M131.46 277.53l-.72-123.27h189.41V278.8l-188.69-1.27z" class="R"/><path d="M170.55 254.07c7.33-.39 14.78 1.34 22.11 2.18l-3.93-1A23.61 23.61 0 0 1 215 229.72c5.21.61 10.33 2.95 15.5 2.08 9.49-1.6 14.36-12.89 23.37-16.27 11.51-4.32 24.91 5.78 36.26 1.05 4.6-1.91 7.95-6 12.22-8.54 3.65-2.19 8.95-2.83 12-.3v-26.53c-3 5.86-10.5 8.71-17.22 8.16-7.14-.59-13.63-4.17-19.83-7.73s-12.55-7.22-19.65-8.22c-10.11-1.29-19.9 3.22-29.7 6-8.85 2.49-18.38 3.57-27.21 1-.3-.09-.58-.2-.88-.3a14.94 14.94 0 0 1-3.68 2.62c-7.52 3.64-17.55-1.24-24.41 3.52-4.11 2.85-5.54 8.19-8.56 12.18-5.57 7.36-19 9.49-26.7 4.33v60.9 7.88h4.05a39 39 0 0 1 29.99-17.48zm116-54.32a4 4 0 0 1 1.54-.74l.22-.08h-.08a4.57 4.57 0 0 1 3.207 8.532A4.57 4.57 0 0 1 287 199.5z" class="Q"/><g class="P"><use xlink:href="#L"/><path d="M296.3 219.75c-6 4.3-11.87 9.61-19.18 10.85-9 1.54-18.09-3.52-27.17-2.47-16.38 1.89-24.89 21.79-40.51 27.07-5.43 1.83-11.05 1.71-16.76 1.05-7.33-.84-14.78-2.57-22.11-2.18a39 39 0 0 0-30 17.52h4a29.8 29.8 0 0 1 14.4-8.08 29.12 29.12 0 0 1 23.49 4.53c1.54 1.1 3 2.36 4.44 3.59h29.81c1.32-.75 2.64-1.49 4-2.17 5.4-2.75 11.57-4.65 17.49-3.39a15.22 15.22 0 0 1 9.13 5.59h31.93a8.77 8.77 0 0 1 5.15-4.54c2.41-.74 5.19-.46 7.25-1.91 2.4-1.68 2.85-5 3.82-7.73a17.81 17.81 0 0 1 19.42-11.06v-32.46c-6.75-2.47-12.68 1.56-18.6 5.79zm-28.22 45.55c-5.08 2.5-12-.31-14-5.64-1.52-4.19.39-9.18 4-11.74l-.79.37a9 9 0 0 1 2.95-1.54 7.79 7.79 0 0 1 1-.32l-.18.08a10.64 10.64 0 0 1 11.05 4.28c3.06 4.78 1.03 12.01-4.05 14.51zm35.42-36.22a2.68 2.68 0 1 1-2.62-4.68l-.27.13a2.37 2.37 0 0 1 .93-.45l.14-.05h-.05a2.7 2.7 0 0 1 1.87 5z"/><use xlink:href="#M"/><use xlink:href="#N"/><use xlink:href="#O"/><path d="M225.82 168.28c-5.33.39-11-.53-15.77 1.94-4.24 2.22-6.82 6.72-10.29 10 .29.09.58.21.87.29 8.83 2.56 18.36 1.48 27.21-1 9.8-2.76 19.6-7.28 29.7-6 7.1.91 13.48 4.62 19.68 8.18s12.69 7.14 19.83 7.73c6.73.56 14.19-2.29 17.23-8.16v-21.84h0-76.56c-.37 5.23-6.61 8.46-11.9 8.86zm59.36 36.46a4.44 4.44 0 1 0 3.07-5.77h.08l-.22.08a4 4 0 0 0-1.54.74l.45-.21a4.63 4.63 0 0 0-1.84 5.16z"/><use xlink:href="#P"/></g><g class="S T"><use xlink:href="#P"/></g><g class="P"><use xlink:href="#Q"/><path d="M163.21 198.47c3-4 4.45-9.33 8.56-12.18 6.86-4.76 16.89.12 24.41-3.52a14.94 14.94 0 0 0 3.68-2.62c3.48-3.25 6.06-7.75 10.3-10 4.74-2.47 10.43-1.55 15.76-2s11.43-3.59 11.8-8.87H136.15l.15 43.3.21.13c7.71 5.25 21.13 3.12 26.7-4.24z"/></g><g class="S T"><use xlink:href="#L"/></g><g class="S T"><path d="M209.3 159.42h-73.15l.15 43.3.21.13c7.71 5.16 21.13 3 26.7-4.33 3-4 4.45-9.33 8.56-12.18 6.86-4.76 16.89.12 24.41-3.52a14.94 14.94 0 0 0 3.68-2.62c3.48-3.25 6.06-7.75 10.3-10 4.74-2.47 10.43-1.55 15.76-2s11.43-3.59 11.8-8.87"/></g><path d="M265.38 211.85l-7-27.37.08.05-78.35 19.94h0l.07-.13 7 27.39-.13-.07 78.39-19.81-78.34 20h-.09v-.1l-7-27.39v-.1h.11 0l78.29-19.84h.06v.06l6.91 27.37z" class="O"/><g class="R"><use xlink:href="#R"/><use xlink:href="#R" x="-78.294" y="20.18"/><use xlink:href="#R" x="-6.984" y="-27.496"/><use xlink:href="#R" x="-46.478" y="-17.462"/><use xlink:href="#R" x="-39.506" y="10.035"/><use xlink:href="#R" x="-81.879" y="6.02"/><use xlink:href="#R" x="-3.518" y="-13.896"/><use xlink:href="#R" x="-85.252" y="-7.204"/></g><g class="O"><path d="M199.3 206.75l-5.64 1.43-.68-2.67 14.44-3.67.68 2.68-5.64 1.43 3.64 14.34-3.16.81zm24 3.31l-10.18 2.59c.84 1.8 2.73 2.62 5 2a4.8 4.8 0 0 0 3.17-2.3l2.1 1.45a6.76 6.76 0 0 1-4.69 3.45c-4.35 1.1-7.88-1-8.86-4.84a6.66 6.66 0 0 1 5-8.34 6.52 6.52 0 0 1 8.27 5c.03.35.1.69.19.99zm-10.72.58l7.37-1.87a3.64 3.64 0 0 0-4.48-2.23 3.7 3.7 0 0 0-2.93 4.1zm22.96 2.18l-4.48-3.65-2.21 5.35-3.35.85 3.38-7.88-6.46-5.16 3.38-.86 4.26 3.45 2.11-5.07 3.28-.83-3.25 7.58 6.76 5.35zm13.29-4.13a4.92 4.92 0 0 1-2.7 1.62c-2.84.72-4.85-.37-5.58-3.24l-1.59-6.25-2.14.54-.61-2.43 2.14-.54-.76-3 3-.77.75 3 3.48-.89.62 2.43-3.48.89 1.57 6.17a1.73 1.73 0 0 0 2.29 1.49 2.76 2.76 0 0 0 1.57-1z"/><path d="M263.8 205.65c0 .05-17.51 4.56-39.15 10l-39.21 9.85c-.02-.06 17.52-4.55 39.16-10.05l39.2-9.8zm163.5.66a7 7 0 0 0 3.51-6.47 9.05 9.05 0 0 0-.78-4 8.68 8.68 0 0 0-3.2-3.6c-2.93-2-7.37-2.34-11.46-.59s-7.88 5-12 8.27a35.94 35.94 0 0 1-6.86 4.49 21.13 21.13 0 0 1-8.48 1.91A22.35 22.35 0 0 1 371.3 199a20 20 0 0 1-4.69-8.67 13.49 13.49 0 0 1 1.15-10 11.12 11.12 0 0 1 3.56-3.75 8.36 8.36 0 0 1 4.91-1.42 7.3 7.3 0 0 1 4.58 2.09 10 10 0 0 1 2.42 4.33 12.42 12.42 0 0 1-1 9.39 13.1 13.1 0 0 1-7.1 5.66 17.47 17.47 0 0 1-8.66.66 28.44 28.44 0 0 1-7.75-2.69c-4.74-2.38-8.7-5.32-12.56-7.57a32.39 32.39 0 0 0-11.11-4.46 16.87 16.87 0 0 0-8.91.89 13.14 13.14 0 0 0-4.73 3.16l-.58.65-.39.49c-.2.27-.32.4-.32.4s.09-.15.28-.43l.36-.51.57-.67a13 13 0 0 1 4.74-3.27 16.89 16.89 0 0 1 9-1 32.43 32.43 0 0 1 11.24 4.43c3.9 2.24 7.87 5.16 12.57 7.5a28.06 28.06 0 0 0 7.64 2.63 17.08 17.08 0 0 0 8.42-.66 12.68 12.68 0 0 0 6.83-5.46 11.92 11.92 0 0 0 .94-9 9.42 9.42 0 0 0-2.29-4.1 6.79 6.79 0 0 0-4.25-1.94 7.74 7.74 0 0 0-4.59 1.33 10.79 10.79 0 0 0-3.4 3.58 12.94 12.94 0 0 0-1.09 9.62 19.45 19.45 0 0 0 4.56 8.45 21.87 21.87 0 0 0 16.33 7.17 20.72 20.72 0 0 0 8.29-1.84 35.9 35.9 0 0 0 6.79-4.42c4.09-3.27 7.86-6.6 12.1-8.27s8.76-1.36 11.76.68a8.91 8.91 0 0 1 3.26 3.75 9.11 9.11 0 0 1 .76 4.12 7.92 7.92 0 0 1-2.06 5.31 4 4 0 0 1-.66.57 2.18 2.18 0 0 1-.53.35z"/></g><g class="S"><use xlink:href="#M"/><use xlink:href="#Q"/><use xlink:href="#N"/><use xlink:href="#O"/></g><use xlink:href="#S" class="P"/><g opacity=".5"><use xlink:href="#S"/></g><path d="M338.24 288.53l-35.71-63-2.91-5.63a8.47 8.47 0 0 0-6.83-4.55l-5.76-.47s.42-6.68-2.69-6.16c-2 .34-9.28 6.59-7.87 8.43s5.54-2.91 5.54-2.91l1.57 11.69s-10.95-6.37-12.71-6a1.65 1.65 0 0 0-.45 3.14A30.85 30.85 0 0 1 283 236.56h0l25.3 56.52-8.64 6.91 10.26 26.85 21.63-14.8a16.77 16.77 0 0 0 6.69-23.51z" class="Y"/><g class="O"><path d="M264.795 213.549l1.046.545-.097.186-1.046-.545z"/><path d="M265.71 213.9l4.49.13 25.54 14.05a1.92 1.92 0 0 1 .77 2.58h0a1.92 1.92 0 0 1-2.61.8l-25.35-13.54-3.08-3.5a.31.31 0 0 1 .24-.52z"/></g><path d="M293.18 226.67l-1.81 3.47-1.04-.54 1.83-3.5 1.02.57z" class="R"/><path d="M190.54 227.95c-1.79-.18-8.56 5.86-8.56 5.86l-3.35-12.07s4.49.4 5.69-1.58-11-1.79-11.24-.45.7 5 .7 5l-4.61.89a9 9 0 0 0-7.28 7.84l-.76 6.44.13.05-35.68 59.61c-5.674 9.47-3.73 21.647 4.61 28.88l35.75 25.4 13.36-29.1-26.42-17.36 30.27-58.4s6.82-17.09 8.2-17.93a1.64 1.64 0 0 0-.81-3.08z" class="Y"/><path d="M315.3 328.48l-.42-4.15a18.13 18.13 0 0 0-6.87-12.45h0a18.14 18.14 0 0 1-7-14.88l.06-1.73-18.27 11.23a39.19 39.19 0 0 0-5.44 4.43v-.09s-39 .64-95.66 8.92L160.3 312l1.85 1.45c1 5.7-.88 10.74-4.89 14.92h0a18.08 18.08 0 0 0-5 13.3l.17 4.17s12.81 8.35 22.14 11.49l.34.1a111.38 111.38 0 0 0 49.78 9.51c34.87-1.42 63.52-20 67.28-22.52 8.78-4.58 23.33-15.94 23.33-15.94z" class="P"/><path d="M181.73 319.76a2 2 0 0 1 .38.3c.24.2.58.53 1 .95a27.21 27.21 0 0 1 3.27 3.91 23.8 23.8 0 0 1 3.26 6.84 21.74 21.74 0 0 1 .77 9.24 16.41 16.41 0 0 1-1.41 4.63 29.81 29.81 0 0 1-2.3 3.86 20.15 20.15 0 0 1-5.34 5.37 17.46 17.46 0 0 1-4.62 2.18 12.4 12.4 0 0 1-1.34.35 1.7 1.7 0 0 1-.48.07c0-.05.64-.2 1.76-.62a18.65 18.65 0 0 0 4.48-2.28 20.65 20.65 0 0 0 5.14-5.35 28.57 28.57 0 0 0 2.24-3.8 15.82 15.82 0 0 0 1.35-4.49 21.6 21.6 0 0 0-.71-9 24.35 24.35 0 0 0-3.1-6.77 31.07 31.07 0 0 0-3.11-4 18.07 18.07 0 0 1-1.24-1.39z" class="O"/><g class="W"><path d="M281.35 350.6c2.82-2 1.42-6.13-1.72-7.61s-6.84-.59-10.14.49c-10.66 3.48-20.72 8.58-31.36 12.11s-22.28 5.41-33 2.25c-7.49-2.2-12.53-7.12-20.28-6.24-3.53.4-4.64 4.89-9.86 6a114.65 114.65 0 0 0 23.45 7.36 108.92 108.92 0 0 0 29.25 1.83 130.37 130.37 0 0 0 29.56-5.94 148 148 0 0 0 24.1-10.25z"/><path d="M190.18 334.42s.92-9.47-4.79-15.21l-3.82.58s5.02 3.63 8.61 14.63z"/></g><path d="M208.3 309.27c-.2.52 1.93 22.44 1.93 22.44s11.11 15.5 28.59.41l2.1-23.9z" class="Y"/><g class="W"><path d="M210.3 331.71s-5.15-8.55-6.58-14.92l4.24-.51 1 1.18z"/></g><g class="O"><path d="M302.03 337.91a2.25 2.25 0 0 1-.42.3l-1.29.74a20.52 20.52 0 0 1-5.12 2 12.94 12.94 0 0 1-3.81.3 18.1 18.1 0 0 1-4.28-.9 19 19 0 0 1-8.22-5.59 18.12 18.12 0 0 1-2.79-4.38 31.16 31.16 0 0 1-1.56-4.56 20.77 20.77 0 0 1-.61-8.11 12.21 12.21 0 0 1 1.93-5.13 7.48 7.48 0 0 1 .92-1.18c.22-.25.35-.38.36-.36s-.08.16-.28.43a10.68 10.68 0 0 0-.83 1.22 12.65 12.65 0 0 0-1.73 5.07 20.91 20.91 0 0 0 .7 7.94 32.19 32.19 0 0 0 1.56 4.47 18 18 0 0 0 2.74 4.25c4.56 5.32 11.43 7.24 15.83 6.17a22.08 22.08 0 0 0 5.1-1.8 19.52 19.52 0 0 1 1.8-.88z"/><path d="M277.14 332.42a.68.68 0 0 1-.2.14l-.6.33-2.34 1.26-3.75 1.88-5.07 2.29-6.28 2.45-7.35 2.41a133.67 133.67 0 0 1-17.33 3.75 139.51 139.51 0 0 1-17.69 1.27h-4c-1.29 0-2.54-.11-3.76-.16l-6.72-.5s-3.89-.47-5.52-.67a66.84 66.84 0 0 1-4.14-.66l-2.61-.48-.68-.14-.23-.06a.65.65 0 0 1 .24 0l.69.09 2.62.38 4.15.57s3.46.46 5.52.59 4.29.38 6.7.44l3.75.14h4a142.35 142.35 0 0 0 17.61-1.31 139.94 139.94 0 0 0 17.27-3.69l7.35-2.36 6.28-2.38 5.09-2.21s2.76-1.28 3.78-1.8l2.38-1.17.63-.29z"/></g><g class="W"><path d="M220.08 337.84a7 7 0 0 0 6.65 9.51 7.94 7.94 0 0 1 3.08.11c1.18.46 1.82 1.67 2.6 2.66a9.24 9.24 0 0 0 16.53-5.27 3.21 3.21 0 0 1 .47-2c1-1.16 2.8 0 4.16.67 3.45 1.8 8.09 0 10-3.39s1.3-7.83-.89-11.05a17.33 17.33 0 0 0-9.46-6.45c-2.38-.73-5-1.17-6.86-2.83-2.69-2.39-2.94-6.43-3-10"/></g><g class="O"><path d="M248.52 269.83c2.44 5.36 3.72 8.45 4.09 14.16a42.81 42.81 0 0 1-7.35 27.7h0c-4.17 6.34-16.62 14.24-20.31 15.31s-18.36-8.07-21.33-18.34-6.78-16.52-1.73-34.47c5.18-18.4 30-19 30-19s16.65 0 19.69 9.65-3.06 4.99-3.06 4.99z"/><path d="M222.3 290.42a11.89 11.89 0 0 0-8.64 18.55c2.06 3 5.45 5 7 8.27 1.46 3 1.15 6.53.46 9.78s-1.76 6.49-1.72 9.82 1.51 6.91 4.52 8.33 7.41-.58 7.43-3.91c-1 5.27 5.07 10.45 10.11 8.61s6.36-9.72 2.19-13.1c3.69.87 7.82.86 11-1.23s4.76-6.74 2.6-9.85c-2.54-3.69-8.35-3.36-11.56-6.48-2.66-2.59-2.8-6.72-3-10.42-.28-5.32-1.08-10.78-3.79-15.36s-7.73-8.13-13.05-7.76"/></g><path d="M231.87 341.06a3 3 0 0 1-.54-.25 5 5 0 0 1-.61-.36 7.4 7.4 0 0 1-.78-.58 12 12 0 0 1-3.52-5 15.47 15.47 0 0 1-1-4.16 19.94 19.94 0 0 1 .15-4.91 50.57 50.57 0 0 1 3.23-10.72 50.36 50.36 0 0 0 3.19-10.66 19.49 19.49 0 0 0 .15-4.79 16.19 16.19 0 0 0-1-4.07 12.28 12.28 0 0 0-3.39-5c-1.1-.92-1.85-1.25-1.82-1.31a3.37 3.37 0 0 1 .54.24 4.32 4.32 0 0 1 .61.36 6 6 0 0 1 .8.56 11.86 11.86 0 0 1 3.6 5 15.66 15.66 0 0 1 1 4.15 19.84 19.84 0 0 1-.1 4.91 49.3 49.3 0 0 1-3.08 10.76 51.29 51.29 0 0 0-3.23 10.6 19.67 19.67 0 0 0-.2 4.8 15.8 15.8 0 0 0 .91 4.07 12.4 12.4 0 0 0 3.31 5c1.07.96 1.81 1.31 1.78 1.36z" class="Q"/><path d="M246.9 337.06a2.49 2.49 0 0 1-.62.14 9.28 9.28 0 0 1-1.82.08 10.53 10.53 0 0 1-9.08-6 10.83 10.83 0 0 1-1.08-5.26 19.46 19.46 0 0 1 1.4-5.72l2.09-5.88a26 26 0 0 0 .48-11.88 20.45 20.45 0 0 0-4.1-8.77 18.58 18.58 0 0 0-4.87-4.35l-2.15-1.15a2.47 2.47 0 0 1 .6.2 12.23 12.23 0 0 1 1.65.78 17.79 17.79 0 0 1 5.13 4.27 20.49 20.49 0 0 1 4.28 8.92 25.78 25.78 0 0 1-.44 12.1 62.39 62.39 0 0 1-2.11 5.93 19.41 19.41 0 0 0-1.4 5.56 10.55 10.55 0 0 0 3.67 8.6 10.79 10.79 0 0 0 6 2.44 20.89 20.89 0 0 0 2.37-.01z" class="R"/><path d="M231.78 286.78a14.67 14.67 0 0 0-1.75-1.36 5.82 5.82 0 0 0-8.59 3.2 14 14 0 0 0-.43 2.18s-.09-.21-.12-.61a5.17 5.17 0 0 1 .2-1.68 6 6 0 0 1 9.13-3.4 5.13 5.13 0 0 1 1.25 1.14c.24.32.34.52.31.53z" class="P"/><g class="R"><path d="M222.3 327.59a1.71 1.71 0 0 1-.36-.28 10.49 10.49 0 0 1-.93-.91 16.62 16.62 0 0 1-2.71-3.98 16 16 0 0 1-1.78-6.88 9.26 9.26 0 0 1 .78-4.12 16.72 16.72 0 0 1 2.72-3.63 10.27 10.27 0 0 0 2.35-3.64 6.87 6.87 0 0 0-.13-4c-.75-2.5-2.07-4.62-2.31-6.69a6.39 6.39 0 0 1 .82-4.68 3.3 3.3 0 0 1 1-.9c.26-.15.4-.22.41-.2a5.24 5.24 0 0 0-1.2 1.21 6.29 6.29 0 0 0-.66 4.53c.27 2 1.59 4 2.4 6.61a7.28 7.28 0 0 1 .16 4.25 10.37 10.37 0 0 1-2.45 3.84 16.79 16.79 0 0 0-2.65 3.51 8.88 8.88 0 0 0-.85 3.93 16 16 0 0 0 1.63 6.72 18.76 18.76 0 0 0 2.54 4l1.22 1.31zm21.13-10.24a9.53 9.53 0 0 1 .07-1.43l.2-3.88a34.38 34.38 0 0 0-1.8-12.56 20.84 20.84 0 0 0-7.55-10 21.6 21.6 0 0 0-4.73-2.31 2.03 2.03 0 0 0 .37.05 8.48 8.48 0 0 1 1 .27 14.73 14.73 0 0 1 3.54 1.68 20.46 20.46 0 0 1 7.83 10.1 32.53 32.53 0 0 1 1.68 12.75l-.37 3.89a6.45 6.45 0 0 1-.24 1.44z"/><path d="M234.35 289.15a13.07 13.07 0 0 1 0-2.35 12.22 12.22 0 0 0-.82-5.44 6.18 6.18 0 0 0-4-3.46 14.94 14.94 0 0 0-2.28-.31 4 4 0 0 1 2.37-.05 6.42 6.42 0 0 1 2.39 1.08 6.32 6.32 0 0 1 2 2.52 11.16 11.16 0 0 1 .72 5.68 9.44 9.44 0 0 1-.38 2.33z"/></g><path d="M235.96 270.56a9.22 9.22 0 0 1-1.37-.52 8.34 8.34 0 0 0-3.41-.45 8.23 8.23 0 0 0-3.27 1c-.78.44-1.21.81-1.27.75s.3-.52 1.07-1.06a7 7 0 0 1 3.43-1.24 7.13 7.13 0 0 1 3.59.62c.85.45 1.27.85 1.23.9z" class="U"/><path d="M248.02 270.52a23.7 23.7 0 0 0-2.55-2.54 12.41 12.41 0 0 0-15.92.2 23.94 23.94 0 0 0-2.49 2.61 3.38 3.38 0 0 1 .48-.86 10.55 10.55 0 0 1 1.77-2 12.31 12.31 0 0 1 16.39-.21 11.29 11.29 0 0 1 1.83 2 3 3 0 0 1 .49.8z" class="R"/><path d="M242.38 256.47c0 .1-1.28.17-3.26.76a17.43 17.43 0 0 0-11.35 10.54c-.74 1.93-.9 3.22-1 3.2a3 3 0 0 1 .06-.91 13.88 13.88 0 0 1 .59-2.41 16.51 16.51 0 0 1 11.6-10.77 14.19 14.19 0 0 1 2.45-.42 2.78 2.78 0 0 1 .91.01z" class="U"/><path d="M226.72 256.36c.06.06-.55.72-1.23 2a10.67 10.67 0 0 0 .1 10.53c.7 1.24 1.33 1.88 1.26 1.94a5.41 5.41 0 0 1-1.58-1.75 10.14 10.14 0 0 1-.1-10.9 5.25 5.25 0 0 1 1.55-1.82zm-13.8 3.73a16.34 16.34 0 0 0 .77 2.57 11.13 11.13 0 0 0 4.25 4.72 23.33 23.33 0 0 0 6 2.47 17.69 17.69 0 0 1 2.61.8 12.17 12.17 0 0 1-2.7-.44 20.13 20.13 0 0 1-6.19-2.39 10.67 10.67 0 0 1-4.31-5 6.73 6.73 0 0 1-.46-2 1.79 1.79 0 0 1 .03-.73zm7.61 43.72a3 3 0 0 1-.49-.12c-.32-.09-.78-.25-1.36-.48a18.3 18.3 0 0 1-4.56-2.73 17.8 17.8 0 0 1-4.84-6.21 15.86 15.86 0 0 1-1.15-9.53 14.48 14.48 0 0 1 4.67-8.38 14.13 14.13 0 0 1 7.17-3.21 12.78 12.78 0 0 1 5.3.36 8.33 8.33 0 0 1 1.35.51 3.14 3.14 0 0 1 .45.23c0 .06-.65-.25-1.85-.55a13.42 13.42 0 0 0-5.2-.19 14 14 0 0 0-6.91 3.22 14.19 14.19 0 0 0-4.47 8.1 15.55 15.55 0 0 0 1.08 9.24 17.65 17.65 0 0 0 4.64 6.13 19.92 19.92 0 0 0 4.4 2.82l1.77.79zm-1.33 10.55a3.23 3.23 0 0 1-.62-.28c-.4-.2-1-.51-1.72-1a32.78 32.78 0 0 1-5.74-4.42 34.16 34.16 0 0 1-8.89-14.48 21.84 21.84 0 0 1-1-6.77 14.44 14.44 0 0 1 1.74-6.63 17 17 0 0 1 4-5 19.86 19.86 0 0 1 9.78-4.36 26 26 0 0 1 7.24-.09 27.24 27.24 0 0 1 1.95.32 3.09 3.09 0 0 1 .66.18 3.44 3.44 0 0 1-.68-.07l-1.95-.23a27.44 27.44 0 0 0-7.16.25 19.6 19.6 0 0 0-9.52 4.37 15.29 15.29 0 0 0-5.56 11.27 21.36 21.36 0 0 0 1 6.62 34 34 0 0 0 2.37 5.8 34.72 34.72 0 0 0 6.29 8.55 35.73 35.73 0 0 0 5.59 4.52l2.22 1.45zm24.17-10.72a27.28 27.28 0 0 0 2.66-5.76 20.59 20.59 0 0 0 .82-6.79 19.15 19.15 0 0 0-2.21-8 19.36 19.36 0 0 0-11.34-9.6 10 10 0 0 0-4.57-.24c-1.07.24-1.61.54-1.63.5s.12-.1.38-.24a6.72 6.72 0 0 1 1.2-.45 9.48 9.48 0 0 1 4.71.07 17.2 17.2 0 0 1 6.24 3.14 20.26 20.26 0 0 1 5.49 6.55 19.09 19.09 0 0 1 2.23 8.25 20 20 0 0 1-.95 6.92 18.9 18.9 0 0 1-2 4.26 11.42 11.42 0 0 1-.73 1.05 1.92 1.92 0 0 1-.3.34z" class="R"/><path d="M238.34 33.03h153.98v114.81H238.34z" class="T"/><path d="M392.3 147.85v-2.1-6.1l-.05-23.2-.11-83.41.21.21h-154 0l.26-.26V147.8l-.23-.23 111.13.11 31.57.07h8.38 2.16 0-2.14-8.33l-31.52.06-111.33.28h-.24v-.24V33.04v-.26h.27 154 .21V33l-.11 83.55-.05 23.14v6.06l-.08 2.1z" class="O"/><path d="M317.73 100.82h93.63v36.4h-93.63z" class="Q"/><g class="O"><path d="M411.36 137.22v-.66-1.89-7.23l-.1-26.62.18.18-93.62.08h0l.26-.26v36.4l-.25-.25 67.07.11 19.5.07h5.23 1.36.47-.44-1.33-5.18l-19.44.07-67.24.12h-.25v-.25-36.4-.26h.27l93.62.08h.18v.18l-.1 26.73v7.19 1.86c0 .44-.19.75-.19.75z"/><path d="M317.73 100.82h93.63v7.8h-93.63zm11.13 13.74h9.19v9.19h-9.19z"/><path d="M334.42 120.13h9.19v9.19h-9.19zm16.35-5.57h9.19v9.19h-9.19z"/></g><path d="M356.34 120.13h9.19v9.19h-9.19z" class="U"/><path d="M365.54 129.33a4.46 4.46 0 0 1-.05-.71l-.06-1.89-.12-6.6.23.23h-9.19l.25-.25h0v4.84 4.34l-.23-.23 6.6.12 1.89.06a4.46 4.46 0 0 1 .71 0 2.64 2.64 0 0 1-.62.05l-1.84.06-6.74.11h-.22v-.23-4.34-4.84h0l.27-.27h9.19.23v.22l-.11 6.74-.06 1.84a2.64 2.64 0 0 1-.13.75z" class="O"/><path d="M371.22 114.56h9.19v9.19h-9.19z" class="U"/><path d="M380.42 123.76a4.46 4.46 0 0 1-.05-.71l-.06-1.89-.12-6.59.23.22h-9.19l.26-.26h0v4.89 4.34l-.22-.23 6.59.12 1.89.06a4.46 4.46 0 0 1 .71.05 2.59 2.59 0 0 1-.61 0l-1.85.06-6.73.12h-.23v-.23-4.34-4.84h0l.27-.27h9.19.23v.23l-.12 6.73-.06 1.85a2.59 2.59 0 0 1-.13.69z" class="O"/><path d="M376.79 120.13h9.19v9.19h-9.19z" class="U"/><g class="O"><path d="M385.99 129.33a4.46 4.46 0 0 1-.05-.71l-.06-1.89-.12-6.6.23.23h-9.2c-.05.06.5-.49.26-.25h0v4.84 4.34l-.23-.23 6.6.12 1.89.06a4.46 4.46 0 0 1 .71 0 2.64 2.64 0 0 1-.62.05l-1.84.06-6.74.11h-.22v-.23-4.34-4.84h0c-.23.23.32-.32.26-.27h9.2.23v.22l-.11 6.74-.06 1.84a2.64 2.64 0 0 1-.13.75z"/><path d="M376.79 120.13h3.63v3.63h-3.63zm13.23-5.57h9.19v9.19h-9.19z"/><path d="M395.59 120.13h9.19v9.19h-9.19z"/></g><path d="M395.59 120.13h3.63v3.63h-3.63zm-55.69 91.71h89.98v34.98H339.9z" class="Q"/><path d="M430 246.95h-90.23v-35.23H430zm-90-.25h89.73v-34.73h-89.71z" fill="#222221"/><path d="M339.9 211.84h89.98v7.5H339.9z" class="O"/><use xlink:href="#T" class="U"/><path d="M353.86 237.58a4 4 0 0 1-.05-.68l-.06-1.83-.11-6.38.22.23h-8.89l.26-.26h0v2.38 2.3 4.19l-.23-.22 6.37.11 1.84.06a6.46 6.46 0 0 1 .68.05 19.26 19.26 0 0 1-2.37.11l-6.52.12h-.22v-.23-4.19-2.3-2.38h0l.26-.26h8.89.23v.22l-.12 6.52a22 22 0 0 1-.18 2.44z" class="O"/><path d="M353.86 228.69l-8.89 8.89" class="Q"/><path d="M344.97 237.58a75.65 75.65 0 0 1 8.89-8.89 38.46 38.46 0 0 1-4.26 4.63 37.33 37.33 0 0 1-4.63 4.26z" class="P"/><use xlink:href="#T" x="11.57" class="O"/><use xlink:href="#T" x="23.13" class="R"/><g class="P"><use xlink:href="#T" x="34.7"/><use xlink:href="#T" x="46.27"/></g><g opacity=".5" class="T"><use xlink:href="#T" x="46.27"/></g><use xlink:href="#T" x="57.84" class="P"/><g class="S"><use xlink:href="#T" x="57.84"/></g><use xlink:href="#T" x="69.41" class="P"/><g opacity=".7"><use xlink:href="#T" x="69.41"/></g><path d="M75.14 33.03h125.82v87.62H75.14z" class="T"/><g class="O"><path d="M200.96 120.66v-1.61-4.63l-.05-17.65-.11-63.73.21.21H75.2h0l.26-.26v87.62l-.24-.24 90.69.12 25.87.06h6.87 1.78.61-2.33-6.83l-25.81.07-90.85.11h-.24v-.23-87.62-.26h.27 125.81.21v.21l-.11 63.86v17.6 4.6c0 1.05-.2 1.77-.2 1.77z"/><path d="M75.14 33.03h125.82v10.95H75.14z"/></g><path d="M81.97 38.82a1.31 1.31 0 1 1-1.31-1.4 1.35 1.35 0 0 1 1.31 1.4zm5.33 0a1.32 1.32 0 1 1-1.32-1.4 1.35 1.35 0 0 1 1.32 1.4zm5.32 0a1.31 1.31 0 1 1-1.32-1.4 1.35 1.35 0 0 1 1.32 1.4z" class="T"/><path d="M87.1 54.71h17.93v43.02H87.1z" class="P"/><path d="M114.75 54.71h17.93v43.02h-17.93z" class="X"/><path d="M142.4 54.71h17.93v43.02H142.4z" class="Q"/><path d="M170.05 55.05h17.93v43.02h-17.93z" class="V"/><path d="M85.02 102.48H193.7v9.83H85.02z" class="P"/><path d="M185.44 110.3l2.34 11.83 1.92-3.3 4.13 5.9 2.07-1.33-4.13-5.9 3.79-.55-10.12-6.65z" class="O"/><path d="M97.36 131.07h55.38v94.99H97.36z" class="Q"/><path d="M152.74 226.06v-.47-1.36V219l-.06-19.63-.12-68.3.24.24H97.43h0l.26-.26-.06 95-.2-.2 40.38.1 11.09.06h2.9 1-1-2.87l-11.05.05-40.5.11h-.2v-.2l-.06-95v-.26h.27 55.37.24v.24l-.11 68.46-.07 19.57v5.19 1.33c0 .33-.08.56-.08.56z" fill="#222221"/><g class="O"><path d="M97.36 131.07h55.38v8H97.36zm13.31 17.99l.67 8.87 2.47-3.23 4.15-.18-7.29-5.46zm23.93 0l.53.36 1.51 1.09 5.34 3.9.34.25h-.42l-4 .18h-.14l.12-.06-2.49 3.23-.24.31v-.39l-.4-6.45c0-.69-.07-1.29-.1-1.81s0-.63 0-.62 0 .26.08.7.11 1.15.18 1.86l.56 6.3-.26-.08 2.47-3.24v-.05h.22l4-.16-.09.26-5.12-3.95-1.51-1.17-.58-.46zm-25.54 38.59c-.06-.06 2.7-3 6.16-6.56l6.38-6.35c.06.06-2.69 3-6.16 6.57l-6.38 6.34zm38.45-6.54a16.3 16.3 0 0 0-.31-2 8.19 8.19 0 0 0-2.89-4.46 7.69 7.69 0 0 0-7.54-1.17 7.79 7.79 0 0 0-3.65 2.86 8.26 8.26 0 0 0 0 9.49 7.72 7.72 0 0 0 11.19 1.7 8.21 8.21 0 0 0 2.89-4.47 16.68 16.68 0 0 0 .31-2 7 7 0 0 1-.19 2 8.22 8.22 0 0 1-2.87 4.61 7.89 7.89 0 0 1-7.78 1.26 8.08 8.08 0 0 1-3.81-2.95 8.53 8.53 0 0 1 0-9.85 8.07 8.07 0 0 1 3.8-2.95 7.89 7.89 0 0 1 7.78 1.26 8.22 8.22 0 0 1 2.87 4.61 7.07 7.07 0 0 1 .2 2.06zm-7.21 21.1l.2.14.58.48 2.18 1.87.07.06-.07.08-9.3 10.69h0-.06l-1.12.17-2 .3h-.21v-.21l.72-3.67h0 0l6.31-7.26a16.34 16.34 0 0 1 2.67-2.67l-.18.17-.51.54-1.84 2.08-6.23 7.33v-.07l-.72 3.67-.17-.19 2-.3 1.12-.17h-.09l9.39-10.61v.13l-2.08-1.91-.56-.53c0-.05-.1-.11-.1-.12zm-20.22 12.95a1.33 1.33 0 0 1 0-.26v-.73-2.73l-.07-9.64.14.14h-13l.16-.16h0v3.64 3.46 6.29l-.14-.13 9.37.07h2.66.7.26-.23-.68-2.62l-9.46.07h-.13v-.14-6.29-7.06h0c-.13.14.19-.19.16-.15h13 .13v.13l-.07 9.73q0 1.66 0 2.7v.7a1.66 1.66 0 0 1-.18.36z"/><path d="M109.06 201.8a24.84 24.84 0 0 1-5.63 0 26.49 26.49 0 0 1 5.63 0z"/><path d="M107.09 204.42a31.48 31.48 0 0 1 0-6.34 31.48 31.48 0 0 1 0 6.34z"/></g><path d="M11.72 159.37h73.33v73.33H11.72z" class="U"/><circle cx="141.76" cy="303.13" r="13.74" transform="matrix(.707107 -.707107 .707107 .707107 -212.53 147.45)" class="V"/><circle cx="143.11" cy="297.63" r="12.02" transform="matrix(.707107 -.707107 .707107 .707107 -208.24 146.78)" class="Q"/><circle cx="103.4" cy="256.04" r="11.58" class="P"/><path d="M103.41 264.92a8.88 8.88 0 0 1-6.289-15.159 8.88 8.88 0 0 1 15.159 6.289 8.88 8.88 0 0 1-8.87 8.87zm0-17.69a8.82 8.82 0 0 0-6.237 15.057 8.82 8.82 0 0 0 15.057-6.237 8.83 8.83 0 0 0-8.82-8.82z" class="O"/><g class="W"><path d="M104.35 247.95a5.74 5.74 0 0 0-5.996 8.917 5.74 5.74 0 0 0 10.386-2.757 5.12 5.12 0 0 0-.81-3.39c-1-1.49-1.82-2.38-3.58-2.77"/></g><g class="O"><path d="M101.23 263.52l.66.91 3.53-.12.68-.79h-4.87z"/><circle cx="337.81" cy="263.16" r="7.34"/></g><path d="M340.49 263.16a2.68 2.68 0 0 1-5.36 0 2.68 2.68 0 0 1 4.575-1.895 2.68 2.68 0 0 1 .785 1.895z" class="R"/><g class="O"><use xlink:href="#U"/><use xlink:href="#V"/><use xlink:href="#V" x="-5.68"/><path d="M52.07 243.05c0-.13.64-.24 1.43-.24s1.42.11 1.42.24-.64.25-1.42.25-1.43-.11-1.43-.25z"/><use xlink:href="#U" x="-22.73"/><use xlink:href="#U" x="-28.41"/><path d="M35.03 243.05c0-.13.64-.24 1.42-.24s1.42.11 1.42.24-.64.25-1.42.25-1.42-.11-1.42-.25z"/><use xlink:href="#V" x="-34.09"/><use xlink:href="#V" x="-39.77"/><path d="M17.98 243.05c0-.13.64-.24 1.42-.24s1.43.11 1.43.24-.64.25-1.43.25-1.42-.11-1.42-.25z"/><use xlink:href="#U" x="-56.82"/><use xlink:href="#U" x="-62.5"/><path d="M2.57 241.42c.14 0 .25.64.25 1.42v.21l-.25-.24c.69 0 1.21.12 1.21.24s-.52.23-1.21.25H2.3v-.46c0-.78.14-1.42.27-1.42z"/><use xlink:href="#W"/><use xlink:href="#W" y="-5.68"/><use xlink:href="#W" y="-11.32"/><use xlink:href="#X"/><path d="M2.57 213.01c.14 0 .25.64.25 1.42s-.11 1.42-.25 1.42-.27-.63-.27-1.43.14-1.41.27-1.41z"/><use xlink:href="#X" y="-11.36"/><use xlink:href="#W" y="-34.09"/><path d="M2.57 195.97c.14 0 .25.63.25 1.42s-.11 1.42-.25 1.42-.27-.64-.27-1.39.14-1.45.27-1.45zm0-5.69c.14 0 .25.64.25 1.43s-.11 1.42-.25 1.42-.24-.64-.24-1.42.11-1.43.24-1.43z"/><use xlink:href="#X" y="-34.09"/><use xlink:href="#X" y="-39.77"/><path d="M3 173.67c0 .06-.16.13-.43.17l.18-.17a6.54 6.54 0 0 1 .07 1c0 .78-.11 1.42-.25 1.42s-.27-.67-.27-1.43a5.45 5.45 0 0 1 .07-1v-.2h.14c.33.07.49.14.49.21zm5.68 0c0 .13-.64.24-1.42.24s-1.42-.11-1.42-.24.63-.25 1.46-.25 1.38.11 1.38.25z"/><use xlink:href="#Y"/><use xlink:href="#Y" x="5.68"/><use xlink:href="#Y" x="11.36"/><use xlink:href="#Z"/><use xlink:href="#Z" x="5.68"/><use xlink:href="#Z" x="11.36"/><path d="M48.45 173.67c0 .13-.63.24-1.42.24s-1.42-.11-1.42-.24.69-.25 1.42-.25 1.42.11 1.42.25z"/><use xlink:href="#Y" x="39.77"/><path d="M59.82 173.67c0 .13-.64.24-1.43.24s-1.42-.11-1.42-.24.64-.25 1.42-.25 1.43.11 1.43.25z"/><use xlink:href="#Z" x="34.09"/><use xlink:href="#Z" x="39.77"/><use xlink:href="#a"/><use xlink:href="#b"/><use xlink:href="#b" y="5.68"/><use xlink:href="#b" y="11.36"/><use xlink:href="#a" y="22.73"/><use xlink:href="#a" y="28.41"/><path d="M71.96 212.66c-.14 0-.25-.64-.25-1.43s.11-1.42.25-1.42.25.64.25 1.42-.11 1.43-.25 1.43z"/><use xlink:href="#b" y="34.09"/><use xlink:href="#b" y="39.77"/><path d="M71.96 229.7c-.14 0-.25-.64-.25-1.42s.11-1.42.25-1.42.25.64.25 1.42-.11 1.42-.25 1.42z"/><use xlink:href="#a" y="56.86"/><use xlink:href="#a" y="62.5"/><path d="M69.39 239.78h5.14v5.14h-5.14zm-69.39.7h5.14v5.14H0zm69.39-69.89h5.14v5.14h-5.14zm-69.39.5h5.14v5.14H0z"/></g><defs ><path id="B" d="M411.81 89.3c0-.17.78-.31 1.75-.31s1.75.14 1.75.31-.79.3-1.75.3-1.75-.18-1.75-.3z"/><path id="C" d="M390.8 89.3c0-.17.78-.31 1.75-.31s1.75.14 1.75.31-.78.3-1.75.3-1.75-.18-1.75-.3z"/><path id="D" d="M329.8 80.28c.16 0 .3.79.3 1.75s-.14 1.75-.3 1.75-.31-.78-.31-1.75.14-1.75.31-1.75z"/><path id="E" d="M329.8 73.28c.16 0 .3.78.3 1.75s-.14 1.75-.3 1.75-.31-.78-.31-1.75.14-1.75.31-1.75z"/><path id="F" d="M337.3 3.79c0 .16-.78.3-1.75.3s-1.75-.14-1.75-.3.79-.31 1.75-.31 1.75.14 1.75.31z"/><path id="G" d="M351.3 3.79c0 .16-.79.3-1.75.3s-1.75-.14-1.75-.3.78-.31 1.75-.31 1.75.14 1.75.31z"/><path id="H" d="M365.3 3.79c0 .16-.78.3-1.75.3s-1.75-.14-1.75-.3.78-.31 1.75-.31 1.75.14 1.75.31z"/><path id="I" d="M415.3 9.82c-.17 0-.31-.78-.31-1.75s.14-1.75.31-1.75.3.79.3 1.75-.13 1.75-.3 1.75z"/><path id="J" d="M415.3 23.83c-.17 0-.31-.79-.31-1.75s.14-1.75.31-1.75.3.78.3 1.75-.13 1.75-.3 1.75z"/><path id="K" d="M415.3 30.83c-.17 0-.31-.78-.31-1.75s.14-1.75.31-1.75.3.78.3 1.75-.13 1.75-.3 1.75z"/><path id="L" d="M314.38 207.7c-3.08-2.53-8.38-1.89-12 .3-4.27 2.57-7.62 6.63-12.22 8.54-11.35 4.73-24.75-5.37-36.26-1.05-9 3.38-13.88 14.67-23.37 16.27-5.17.87-10.29-1.47-15.5-2.08a23.61 23.61 0 0 0-26.27 25.53l3.93 1c5.71.66 11.33.78 16.76-1.05 15.62-5.28 24.13-25.18 40.51-27.07 9.08-1 18.15 4 27.17 2.47 7.31-1.24 13.14-6.55 19.18-10.85s11.87-8.26 18.62-5.79v-5.79a5.66 5.66 0 0 0-.55-.43z"/><path id="M" d="M295.45 257.55c-1 2.76-1.42 6.05-3.82 7.73-2.06 1.45-4.84 1.17-7.25 1.91a8.77 8.77 0 0 0-5.15 4.54h35.67v-25.31a17.81 17.81 0 0 0-19.45 11.13z"/><path id="N" d="M158.95 263.51a29.8 29.8 0 0 0-14.4 8.08h42.33l-4.44-3.59a29.12 29.12 0 0 0-23.49-4.49z"/><path id="O" d="M238.17 266.11c-5.92-1.26-12.09.64-17.49 3.39-1.35.68-2.67 1.42-4 2.17h30.61a15.22 15.22 0 0 0-9.12-5.56z"/><path id="P" d="M261.08 246.51l.22-.09a7.79 7.79 0 0 0-1 .32 9 9 0 0 0-2.95 1.54l.79-.37c-3.57 2.56-5.48 7.55-4 11.74 1.92 5.33 8.88 8.14 14 5.64s7.11-9.73 4.07-14.51a10.64 10.64 0 0 0-11.13-4.27z"/><path id="Q" d="M304.57 225.2a2.84 2.84 0 0 0-3-1.15h.05l-.14.05a2.37 2.37 0 0 0-.93.45l.27-.13a2.69 2.69 0 0 0 .886 4.893 2.69 2.69 0 0 0 2.824-4.093z"/><path id="R" d="M264.025 210.832l2.026-.514.514 2.026-2.026.514z"/><path id="S" d="M182.47 320.59c2.74-4.93 9.09-6.66 14.73-6.47s11.21 1.82 16.85 1.56c12.9-.61 24.07-10.89 37-10.52 7.75.22 15.31 4.33 22.93 2.9 1.84-.35 4-.93 5.37.37a3.4 3.4 0 0 1 .12 4.24 9.24 9.24 0 0 1-3.64 2.75c-19.7 9.95-42.5 10.92-64.39 13.67-5.6.7-11.3 1.53-16.86.55s-11.09-4.13-13.32-9.31"/><path id="T" d="M344.97 228.69h8.89v8.89h-8.89z"/><path id="U" d="M69.12 243.05c0-.13.64-.24 1.42-.24s1.42.11 1.42.24-.63.25-1.42.25-1.42-.11-1.42-.25z"/><path id="V" d="M63.44 243.05c0-.13.63-.24 1.42-.24s1.42.11 1.42.24-.64.25-1.42.25-1.42-.11-1.42-.25z"/><path id="W" d="M2.57 235.74c.14 0 .25.63.25 1.42s-.11 1.42-.25 1.42-.24-.64-.24-1.42.11-1.42.24-1.42z"/><path id="X" d="M2.57 218.69c.14 0 .25.64.25 1.42s-.11 1.42-.25 1.42-.24-.63-.24-1.42.11-1.42.24-1.42z"/><path id="Y" d="M14.36 173.67c0 .13-.63.24-1.42.24s-1.42-.11-1.42-.24.64-.25 1.42-.25 1.42.11 1.42.25z"/><path id="Z" d="M31.41 173.67c0 .13-.64.24-1.42.24s-1.42-.11-1.42-.24.63-.25 1.42-.25 1.42.11 1.42.25z"/><path id="a" d="M71.96 178.56c-.14 0-.25-.63-.25-1.42s.11-1.42.25-1.42.25.64.25 1.42-.11 1.42-.25 1.42z"/><path id="b" d="M71.96 184.25c-.14 0-.25-.64-.25-1.42s.11-1.42.25-1.42.25.63.25 1.42-.11 1.42-.25 1.42z"/></defs></svg>