<svg xmlns="http://www.w3.org/2000/svg" viewBox="0 0 1351.09 707.02" xmlns:v="https://vecta.io/nano"><style><![CDATA[.AG{fill:#fff}.AH{fill:#092371}.AI{fill:#ffb27e}.AJ{fill:#087ec2}.AK{fill:#ccc}.AL{fill:#2b468b}.AM{fill:#233863}.AN{fill:#071c5a}.AO{fill:#bfd7fa}.AP{fill:#e5e5e5}.AQ{fill:#f5d7bf}.AR{fill:#aeccf9}.AS{fill:#b3cff9}.AT{fill:#bfd7f9}]]></style><path d="M680.69 107.32a3.8 3.8 0 0 1 .83-2c3.19-4.82 6.66-9.43 10.2-14 2.87-3.7 6.15-7 8.86-10.85a15.88 15.88 0 0 1 1.8-1.87l7.33-7.35c4.22-4.32 8.82-8.21 13.45-12.09a196.36 196.36 0 0 1 20.72-15.39c4.77-3.05 9.54-6.09 14.56-8.76l11.13-5.86c6.39-3.22 13-5.94 19.65-8.55l11.76-4.4c3.95-1.4 7.73-2.53 11.64-3.63 4.38-1.24 8.78-2.38 13.21-3.39 6.34-1.45 12.67-3.06 19.1-4 4.11-.6 8.21-1.4 12.38-1.79 4.51-.42 9-1 13.52-1.49 3.69-.43 7.43-.12 11-.72 5.79-1 11.56-.49 17.34-.61s11.62 0 17.43 0a4.78 4.78 0 0 1 1.47.05c3 1 6.12.6 9.19.68a9.4 9.4 0 0 1 3.64.48 2.27 2.27 0 0 0 1.08.21c3.73-.38 7.34.69 11 .86 2.92.13 5.82.78 8.73 1.2l6.19.85c6.32.91 12.55 2.27 18.81 3.52 5.78 1.16 11.54 2.4 17.23 4l13.14 3.68c5.48 1.48 10.84 3.3 16.18 5.19q9.24 3.26 18.31 6.94c7.08 2.9 14 6.1 20.93 9.34 5.81 2.73 11.48 5.72 17.1 8.77 5.83 3.15 11.57 6.53 17.15 10.17l12.28 8.19c5.17 3.56 10.22 7.28 15.1 11.22l9.1 7.52c9.21 7.32 17.16 15.93 25.51 24.14 2.12 3.2 5.16 5.6 7.39 8.72 1.64 2.3 3.73 4.25 5.52 6.45 1.94 2.38 3.85 4.79 5.61 7.32l12.22 18q3.57 5.61 6.72 11.49l6 11.45c3.21 6.4 5.9 13 8.55 19.66s4.8 13.21 6.79 19.94 3.77 13.75 5.14 20.75l2 10.1c.42 2.41.39 4.92 1 7.29.8 3.25.28 6.63 1.26 9.85a11.07 11.07 0 0 1 .16 2.95c.06 2.33-.18 4.67.62 7a8.1 8.1 0 0 1 .12 2.57q0 14.65 0 29.29a9.41 9.41 0 0 1-.42 3.65 3.31 3.31 0 0 0-.27 1.45c.37 4.09-.6 8.09-.82 12.13a55.81 55.81 0 0 1-1 7.67c-.55 2.78-.48 5.6-1.14 8.38-1.13 4.77-1.68 9.66-2.65 14.47-1.93 9.64-4.44 19.15-6.79 28.69-.82 3.33-1.21 6.76-1.78 10.14l-1.33 8a16.3 16.3 0 0 0-.15 2.21 16 16 0 0 1-.51 4.39 15.89 15.89 0 0 0-.24 3.67c-.14 3.19.15 6.37-.58 9.57a14.39 14.39 0 0 0 .21 7 5.44 5.44 0 0 1 .33 1.8c-.28 4.58.36 9.1.83 13.62.34 3.29.93 6.57 1.59 9.81a155.57 155.57 0 0 0 6.09 22 164.82 164.82 0 0 0 7.52 18.08c2.74 5.39 5.35 10.84 8.43 16l7.22 12 16.93 26.88c2.31 3.77 4.61 7.57 6.68 11.51 1.66 3.16 3.49 6.24 5 9.47a149.71 149.71 0 0 1 9.73 25.12 117.67 117.67 0 0 1 3.21 14.73c.48 3.63 1.24 7.27 1 11-.2 2.95-.1 5.93 0 8.89a93.72 93.72 0 0 1-1.36 15.77 157.64 157.64 0 0 1-5.62 24 189.65 189.65 0 0 1-7.24 19.75c-2.65 6.11-5.32 12.21-8.37 18.13-.27.54-.46 1.11-.65 1.58.55 1 1.36.63 2 .69s1.23 0 1.85 0h80.63 3.34a1.45 1.45 0 0 1 1.42 1c-1.5 1.14-3.28.94-5 .94q-47.55 0-95.12 0a13 13 0 0 1-4-.41c-1.37-.42-1.28-1.5-1.3-2.66 0-3.51-.76-4.18-4.25-4.51-2.13-.2-4.48.59-6.3-1.24-1.27-4.67-.51-9.42-.51-14.13a8.23 8.23 0 0 1 .19-1.21c.25-3.45-.61-6.9-.07-10.36a10.66 10.66 0 0 1 .19-1.13c.42-2.37-1.1-4.85.39-7.16 2.12-1.47 4.57-.6 6.84-.95 1.65-.25 3.3-.61 3.63-2.56s-1-2.61-2.5-3.18c-1.7-.58-3.44-.33-5.15-.33q-49.21 0-98.44 0c-2.11 0-5.41 1-6-1.21s2.89-2.29 4.59-3.24c9-5.07 13.8-12.86 14.47-23.07a61.79 61.79 0 0 0-.74-17c-2.48-8.56-8.06-14.2-16.3-17.39-2.53-1-2.5-1.07-1.59-2.87a17.27 17.27 0 0 1 5.5-.43h56.94 3.32c2-.08 4.08-.08 5-2.38s.09-4.31-2-5.75c-2.42-1.39-5.07-.66-7.62-.77-4.43-.2-5.25-.82-5.3-5.16v-18.47-2.77c-.09-4.77-.12-9.55 0-14.32v-2.06c.25-3.1-1.08-6.52 1.76-9.13 2.59-1.14 5.35-.57 8-.72 3.54-.19 5.35-1.62 5.34-4.3 0-2.43-1.85-4.08-5-4.43a38.49 38.49 0 0 0-4.43-.11q-27.37 0-54.75 0c-2 0-4 .26-5.82-.64-1.41-1.63.32-2.2 1.13-2.78 3.65-2.6 5.43-6.22 6.49-10.44 3.32-13.24 2.44-26.47.16-39.7a141.77 141.77 0 0 0-4.81-19.8c-.53-1.62-1.23-3.27-.49-5 1.88-1.32 4-.87 6.09-.88 9 0 18-.59 26.73-2.88a32.24 32.24 0 0 0 5.56-2 11.36 11.36 0 0 0 6.59-8.74c1.76-8.82.08-17.43-1.31-26a205.54 205.54 0 0 0-6.17-25.86 23.94 23.94 0 0 1-1.41-5.72c1.84-3.34 4.52-6.16 6-9.76 5.41-13.61 4-26.58-3.67-38.94-5.6-9-13.32-15.82-21.71-22a110.92 110.92 0 0 1-13.13-10.83c-6.28-6.37-8.39-14.43-9.73-23.09-2.56-16.58-10.33-30.52-23.5-41.15a24.77 24.77 0 0 0-17.58-5.64 116.3 116.3 0 0 0-19 2.77c-8.56 2-14.34 7.21-18.52 14.72-7.21 13-11 27-12.69 41.53-1.38 11.69-1.72 23.41 1.51 34.91 1.27 4.53 3 8.9 6.68 12.12a3.47 3.47 0 0 1-.1 2.16c-3.6 11.87-6.6 23.9-9.89 35.85-.45 1.65-.84 3.36-2.36 4.46-1.88.87-3.88.6-5.84.6q-45 0-90 0h-3c-3.69.1-3.94.42-2.59 3.87l17.59 43.62 10.18 25.44c.42 1.29 1 2.51 1.41 3.82a5.51 5.51 0 0 1-1.68 3.6c-16.87 20.54-30.23 43.4-43.69 66.2-1.45 2.44-2.3 5.64-5.88 6.12-11.27.36-22.54.12-33.8.13a7.45 7.45 0 0 1-2.88-.47c-2.87-2.72-2.38-6.66-3.65-10-.37-2.41-1.28-4.7-1.67-7.12l-18.29-68.75q-10.86-40.83-21.83-81.62-16.08-60-32.14-119.9-11.83-44.22-23.65-88.42l-7.59-28.28c-1.76-6.34-1.77-6.34-8.49-6.34q-35.94 0-71.9 0c-1.94-.03-4.01.46-5.69-1.04zM7.49 703.63a1.39 1.39 0 0 1 1.12-.84l3.33-.08h69.7 2.22c1.07-.09 2.58.52 3.08-.52.66-1.37-1-2-1.78-2.85-2.42-2.48-4.26-5.41-6.35-8.14-4-5.28-8-10.62-11.71-16.11-3.39-5-6.46-10.19-9.62-15.33l-6.79-11.43c-.44-.75-.8-1.54-1.19-2.31l-8.3-16.56c-3.29-6.37-5.81-13.06-8.56-19.65-3-7.06-5.3-14.33-7.63-21.6a209 209 0 0 1-7.3-28.18c-.52-3-1.25-6-1.94-9-.41-1.8-.25-3.64-.72-5.47-.66-2.6-.4-5.42-1-8-.92-3.74-.16-7.63-1.25-11.33a10.71 10.71 0 0 1-.15-3q0-15.21 0-30.4a9.64 9.64 0 0 1 .48-4 2.27 2.27 0 0 0 .21-1.08c-.39-3.48 1-6.82.8-10.28-.1-1.88.57-3.65.85-5.46q1.34-8.54 3.21-17c1.55-7.1 3.56-14.06 5.73-21 2.24-7.17 4.83-14.22 7.66-21.17a270.29 270.29 0 0 1 12.81-26.29 237.23 237.23 0 0 1 15-24.58l13.88-19.1 6.45-8.53c1.29-1.64 2.8-3.09 4.05-4.79a61.36 61.36 0 0 1 5.83-6.66 5 5 0 0 0 1.56-4.25c1.77-.12 1.79 1.48 2.23 2.47a225.35 225.35 0 0 0 82.87 96.85 10.83 10.83 0 0 1 3.24 2.42c2.75 6.9 3.79 14.26 5.55 21.41l10.91 45.64a31.78 31.78 0 0 1 1.32 7.62c-.56 3.07-3.06 4.69-5.14 6.55l-24.28 22.23-33.5 30.79-25.26 23.37c-1.35 1.3-1.58 2.27-.22 3.68 6.27 6.46 12.16 13.27 18.38 19.79l19.24 20.86c1.19 1.21 2.92 2.54 1.3 4.66-5.55 1.89-11.44 1.59-17.12 2.6-3.52.63-7.13.68-10.63 1.49-6.38 1.47-10 6.73-9.05 13.2 1.38 9.72 3.16 11.15 12.79 9.8l26.44-3.31c6.22-.94 7.88-3.15 7.51-9.51a6.76 6.76 0 0 1 .35-3.28c1-1.38 2-.47 2.76.21 4 3.61 7.18 8 10.92 11.8a1.85 1.85 0 0 1 .26 2.37c-4.77 2-9.91 1.67-14.87 2.38-6.83 1-13.69 1.92-20.58 2.52a5.91 5.91 0 0 0-3.16 1c4.86 0 9.62-.9 14.41-1.4 8-.82 15.89-2.21 23.91-2.6 2.94-.15 5.16 1.16 7.11 3.28l25.3 27.51c3.86 4.08 4.15 4 8.23.13l51.36-47.48c10.12-9.39 20.1-19 30.63-27.92 1.13-1 2.22-2 3.81-2.15l103.62-.08c5.55 0 11.1-.32 16.63.22 1.82.58 1.91 2 1.82 3.59-.47 8.5-1.3 17-2 25.46q-1.71 20.46-3.42 40.93c-.37 4.29-1.2 8.54-.28 12.9.82 3.84 2.08 7.32 5 10.1.8.76 2.5 1.57 1.1 3.24-1.73.88-3.61.71-5.45.71q-201 0-402.06 0c-1.9-.02-3.98.3-5.66-1.06z" class="AJ"/><path d="M680.69 107.32l4.44.12h76.36c4.8 0 4.32-.48 5.61 4.37q8.8 33.06 17.62 66.12 7 26.08 14 52.17l15.22 56.42 13 49 17.32 64.29 10 37.53q6 22.51 12.09 45 2.38 8.94 4.77 17.87a7.91 7.91 0 0 1 .08 1.47c-2.53 2.15-5.58.85-8.38 1.28q-88.51.12-177 0H519.45a22.4 22.4 0 0 1-2.59-.06 80.51 80.51 0 0 0-8.51 0q-145.26 0-290.51 0c-.87 0-1.73 0-2.59-.06-5.21-.41-5.67-.71-6.92-5.9q-15.5-64.5-31-129l-14.2-59.08-40.51-168.24-6.68-28.12c-.38-1.74-1.35-3.55 0-5.32 2.09-1.54 4.5-1.38 6.76-.9a41.53 41.53 0 0 0 8.82.61l61.73-.07c7.36-.07 14.71-1.33 22.1-.62a7.78 7.78 0 0 1 1.44.19 14.13 14.13 0 0 0 4.76.5q22.61 0 45.22 0c4.31 0 8.53-1.2 12.89-.89 28 2 56 .4 84 .89a23.53 23.53 0 0 0 5.17-.21 12.47 12.47 0 0 1 1.34-.33 54.49 54.49 0 0 1 11.42.06 20.4 20.4 0 0 0 2 .44q43.37.17 86.73-.08c4.64 0 9.3-.9 14-.77a8.18 8.18 0 0 1 4.94 1.24c1.48 0 3 .13 4.43.13h182.57c1.48.07 2.96 0 4.43-.05z" fill="#b2b2b2"/><path d="M381.92 107.26l-11.88.07c-1.54-3.74-.23-7.51.08-11.22 1.25-14.93 1.71-29.81-1.15-44.61a51.32 51.32 0 0 0-4-12.69c-3.62-7.48-9.07-9.6-16.78-6.48-6.53 2.65-11.86 7.07-16.93 11.79a160.4 160.4 0 0 0-20.05 23.26 355.1 355.1 0 0 0-22.76 35.06c-2 3.54-1.89 3.79 2.19 3.79q36.85 0 73.72 0c1.93 0 4-.45 5.67 1.06a4.31 4.31 0 0 1-1.28.62c-1.1.1-2.22.06-3.33.06q-38.16 0-76.31 0c-2 0-3.92-.28-5.87-.46a43.1 43.1 0 0 0-12.16.18 17.36 17.36 0 0 1-3.3.27q-23.89 0-47.79 0c-1.2 0-2.5.36-3.54-.62 1.37-1.51 3.21-1 4.88-1.06l43.72.05c3.69 0 5.86-1.29 7.64-4.5 10.27-18.39 21.48-36.29 34.91-52.7 8.74-10.68 18.26-20.43 30.3-27.45a.89.89 0 0 0 .41-.78c-6.79-1.67-13.77-2.28-20.71-3a172.92 172.92 0 0 0-24.4-.81c-28.44 1.13-55.77 7-81.73 18.9a214.67 214.67 0 0 0-30.65 17.2c-3.72 2.5-3.83 2.65-1.85 6.47a141.56 141.56 0 0 0 22.2 31.33c3.95 4.25 8.14 8.25 12.29 12.29 1.11 1.08 2.58 2 2.35 4-3 0-5.91.07-8.87.13s-5.9-.28-8.81.59a9.15 9.15 0 0 1-2.57.08h-68a24.87 24.87 0 0 1-4-.39c-2.52-.4-5.12-.79-7.59.38a23.42 23.42 0 0 1-5.38 2.41c-4.12 1.39-4.2 1.51-3.08 5.87 1.36 5.27 2.37 10.61 3.74 15.87.35 1.37 1.14 2.84-.07 4.22-2-.43-3 .52-3.88 2.37a209.26 209.26 0 0 0-18.67 65.23 225.41 225.41 0 0 0-1.55 32.13c.06 3.46.88 6.85.84 10.32 0 2.46 1.94 3.19 3.81 3.95 14.07 5.76 28.41 10.73 42.82 15.52 3 1 6.27 1.49 8.88 3.56 1.52 3.56 3.08 7.11 2.29 11.14-2.11 1.31-3.88-.37-5.8-.7-2.26-.39-4.3-1.54-6.55-2-13.15-4.27-26.28-8.62-39.22-13.49-4-1.52-4.17-1.36-3.47 3 1.28 7.94 3.51 15.65 5.54 23.42.91 3.47 2.75 5 6.33 4.6a11.89 11.89 0 0 1 4.06.33c7.94.49 15.9.73 23.8 1.72l17.14 2.28a5.64 5.64 0 0 1 3.05 1.16 24.85 24.85 0 0 1 3.35 12.91c-2.07 1.54-4.27.46-6.36.18-13.8-1.85-27.58-3.75-41.52-4.18-2.79-.09-2.86.63-1.91 2.83a208.41 208.41 0 0 0 32.57 52.66 211.79 211.79 0 0 0 35.33 33.49 14.46 14.46 0 0 1 3 2.76c2.37 5.31 3.07 11.06 4.3 16.66a2 2 0 0 1-.63 2c-4.94-2.32-9.11-5.84-13.56-8.91-3.23-2.24-6.3-4.71-9.36-7.18-2-1.63-4-3.35-5.83-5.09-4.24-4-8.8-7.54-12.71-11.84-3.46-3.83-7-7.62-10.28-11.59l-6.53-8c-3.84-4.67-7.18-9.69-10.53-14.7a161.26 161.26 0 0 1-9.46-15.85c-1.07-2.08-2.27-4.09-3.37-6.15a118.74 118.74 0 0 1-5.17-11.44 4.06 4.06 0 0 0-.65-.86l-2.56-6.53a230.22 230.22 0 0 1-10.57-34.22c-1.29-5.5-2.08-11.11-3.06-16.69a11.7 11.7 0 0 1-.13-2.58 3.82 3.82 0 0 0-2.66-4c-1-.43-2-1-3-1.43-7-3-14-6.21-20.78-9.73a176 176 0 0 1-28.37-18 66.55 66.55 0 0 1-14.22-14.94c-3.34-5-5.75-10.34-5.83-16.5-.08-5.85 2.18-10.81 5.92-15.14 4.61-5.35 10.43-8.95 16.94-11.6a118.16 118.16 0 0 1 27.77-7.39l12.75-2c3.66-.46 7.35-.69 11-.89 3.08-.16 6.09-1 9.2-.78a1.56 1.56 0 0 0 1.66-1.19c.59-1.62 1.28-3.2 1.84-4.84a197.61 197.61 0 0 1 11.4-25.69c.29-.55.54-1.11.83-1.65a1.73 1.73 0 0 0-.14-2c-1-1.4-1.92-2.87-2.9-4.3a167.76 167.76 0 0 1-13.83-24.46 94 94 0 0 1-7.37-23.29 50.79 50.79 0 0 1-.85-10.28c.28-8.5 2.22-16.57 7.16-23.72a41.8 41.8 0 0 1 12.33-11.51c6.79-4.31 14.32-6.51 22.12-7.94a95.37 95.37 0 0 1 17.63-1.56 170.2 170.2 0 0 1 22.1 1.37q9.15 1.23 18.18 3c7.25 1.45 14.38 3.37 21.52 5.28a29.22 29.22 0 0 0 5.72 1.38c1.86.11 3.39-1.35 5.07-2.09a221.91 221.91 0 0 1 39.09-13.33c5.51-1.28 11-2.69 16.61-3.49 4.85-.7 9.72-1.44 14.63-1.87 4.31-.38 8.64-.27 12.9-.75a106.17 106.17 0 0 1 11.81-.53 34.37 34.37 0 0 1 5.89.45 47.38 47.38 0 0 0 6.65.23 112.75 112.75 0 0 1 13.21 1.31l11.68 1.68a212.86 212.86 0 0 1 27.25 6.59 236.66 236.66 0 0 1 27.59 10.59 222.22 222.22 0 0 1 40.61 24.17 166.3 166.3 0 0 1 13.27 10.62c4.92 4.47 10.17 8.66 14.53 13.71 4.19 4.84 8.61 9.48 12.64 14.47 4.34 5.38 8.33 11 12.38 16.59.93 1.29 1.64 2.74 2.46 4.12h-10.74a17 17 0 0 0-5.49.5 9.22 9.22 0 0 1-2.94.17q-42 0-84 0a8.37 8.37 0 0 1-3.65-.39c1.43-2 3.58-1.32 5.44-1.33l77.78-.06c1.56 0 3.79.78 4.53-.58.91-1.7-1.25-3-2.23-4.25a215.13 215.13 0 0 0-60.79-54.55 204.51 204.51 0 0 0-25.76-13 7.84 7.84 0 0 0-3.45-1c1.13 3.42 2.58 6.53 3.41 9.85 3.93 15.62 4.33 31.46 3.14 47.42l-1 13.28c-.13 1.52-.05 3.05-1.68 3.87z"/><path d="M7.49 703.63l5.17-.22q201.6 0 403.2-.05l5.18-.15a5.74 5.74 0 0 1 3.88-.92l28.9.07c4.69-.24 9.39-.09 14.08-.1h123.42c1.36 0 2.72 0 4.07.11 2.47-.2 4.94-.1 7.4-.1q109 0 218 0c3.2 0 6.4.35 9.61.08 2.59-.19 5.19-.06 7.78-.06q200 0 400.07 0c2.53 0 5.22-.66 7.52 1.1h101.4c1.22 0 2.45.2 3.67.31a7.32 7.32 0 0 1 .2 1.46c-.07 1.11-.53 1.63-1.5 1.76a10.27 10.27 0 0 1-1.47.07h-1335-3.71c-1.85-.09-2.19-.55-2-2.64a4.74 4.74 0 0 1 .13-.72z" fill="#323956"/><path d="M544.23 33.14c-.46-1.25-1.6-1.41-2.67-1.71l-11.7-3.4-12.44-3.47-19.88-5.65a13.71 13.71 0 0 1-4.46-1.72 2.59 2.59 0 0 1 2.42-.24c2.78.84 5.62.57 8.45.63a54.71 54.71 0 0 1 9.2.61c2.39.45 4.93.1 7.4.15a42.73 42.73 0 0 1 7.72.54c2.26.46 4.68.14 7 .2a39.26 39.26 0 0 1 7 .53 29.89 29.89 0 0 0 7 .17 10.76 10.76 0 0 1 6 1.47 64.89 64.89 0 0 1 6.49 3.56c1 .69 1.07.59 2.4-.62a21.37 21.37 0 0 0 5.48 3.62c13.19 6.57 26.29 13.28 39.09 20.43-.06 0 .1.09.1.09a.71.71 0 0 0-.12-.11c-13.19-7.62-25.24-16.87-37.89-25.2a32.21 32.21 0 0 0-5.81-3.2 4.8 4.8 0 0 1 1-2.72q4.5-7.6 9-15.2c.19-.31.33-.66.53-1 .77-1.2 1.66-1.23 2.65-.09a6.44 6.44 0 0 1 .48.56q4.62 6.42 9.25 12.83l9.73 13.4 7 9.45 9.49 13.12a2.45 2.45 0 0 1 .58 2.17c-1.57-.05-3.17.59-4.57-.65-21.35-5.34-42.35-11.95-63.57-17.74a7 7 0 0 1-2.35-.81z" class="AG"/><path d="M544.23 33.14a3.18 3.18 0 0 1 2.45-.3c3.51 1.1 7 2.08 10.59 3.08l24.77 7 18 5.22q5.1 1.47 10.21 3c.07 0 .14.2.14.31s-.11.21-.18.32l-8.4-1-13.83-2-13.1-2-6.19-.89-20.4-2.88c-2.08-.25-4.13-.6-6.2-.9-1.56-.23-1.85-.79-1.15-2.28 1.07-2.29 2.23-4.48 3.29-6.68zm65.28 15.58a8.06 8.06 0 0 1-3.4-1.32c-5.93-3-12-5.78-17.76-9-7.23-3.95-14.62-7.55-22-11.26-1.29-.65-2.33-1.36-2.2-3l.85-4.37c.76-.39 1.44-.85 2.37-.2l12.14 8.37 13.78 9.27 15 10.12a3.09 3.09 0 0 1 1.21 1.35z" class="AK"/><path d="M516.82 501.82l4.06-.14h338.16l4.07.14c1.89 2.5 3.77 4.92 7.51 4.43 1.29-.17 1.67 1.17 2 2.19a60.55 60.55 0 0 1 2.54 9.55c-1.47 1.6-3.43 1.12-5.22 1.13-12.1.05-24.2-.17-36.29.08s-21.6 5.4-27 16.83a23.59 23.59 0 0 0-2 7.09c-1 8.12-1.42 16.3.6 24.28 2.57 10.16 9.15 17 18.89 20.8 1.26.5 3.71.3 3 3-1.6.88-3.36.7-5.07.7-9.51 0-19 .19-28.53-.06-4.48-.12-7.76.8-8.77 5.66-1.23 1.11-2.76 1-4.23 1h-11.12-522a23.32 23.32 0 0 1-5.9-.29c-.6-.15-1.22-.43-1.24-1.17 0-.53.47-.83.87-1.1a12.9 12.9 0 0 1 3-1.34l70.11-24.1q71-24.28 142-48.65 27-9.2 54-18.54c2.2-.77 4.46-.74 6.56-1.49z" class="AG"/><path d="M913.7 518.36a10.64 10.64 0 0 0 2-3.06c8.15-14.1 16.5-28.08 25.41-41.72a298.79 298.79 0 0 1 22.13-30.09c1.57-2 3.82-1.45 5.83-1.45q32.77-.08 65.56 0h58.16c1.82 0 4 .76 5.29-1.48a4 4 0 0 1 2.38-2.36c2-.6 4-.32 6.07-.41 8.88 1 17.8 1.6 26.72 2.14 1.45.09 3-.08 4.11 1.14a167.44 167.44 0 0 1 6.81 26.37 112.76 112.76 0 0 1 1.54 25 66.49 66.49 0 0 1-2.6 14.88c-1.36 4.88-3.92 8.71-8.75 10.72-1 1.13-2.4 1.19-3.75 1.19h-66.45a10 10 0 0 1-1.1-.13 177.83 177.83 0 0 1-41.92-11.87c-5.59-2.3-11-5.16-16.69-7.08-1.9-.34-2.83-2.48-4.86-2.6a51.07 51.07 0 0 0-4.54-2.48c-4.4-1.84-6.75-1.16-9.46 2.84-2.31 3.39-3.76 7.2-5.34 10.95-3.12 7.38-5.55 15.07-10.14 21.76a37 37 0 0 1-3.15 4.11 360.79 360.79 0 0 1-29.98 30.71l-21.76 20.1c-2.1 1.92-4.33 3.68-6.39 5.63-3.69 3.42-7.49 6.72-11.35 10-2 1.77-3.8 3.72-6.7 3.85-5.89-.83-12.09-.23-17.38-3.78-2.63-1.66-3.2-3.76-1.49-6.46a27.07 27.07 0 0 0 1.76-4c6.11-11.14 11.8-22.5 17.83-33.69l20.2-36.61a4.34 4.34 0 0 1 2-2.12z" class="AL"/><path d="M1137.4 441c-9.06-.12-18.09-.92-27.12-1.66-1.33-.11-2.65-.42-4-.64a13.86 13.86 0 0 0-5.73-.24c-4.3.36-4.64.19-5.63-4 0-3.42-.51-6.87.72-10.2 1.16-3 3.84-4 6.52-5 8.37-3.08 17.16-4.56 25.8-6.65 6.36-1.54 12.81-2.63 19.14-4.31 2.62-.7 3.15-2 1.81-4.29-5.21-8.94-11-17.52-16.65-26.94-.9 3.84-.36 7.2-1.2 10.38a38.08 38.08 0 0 0-.74 4c-1.45 9-6.39 15.3-14.58 19.2-9 4.3-18.2 8.28-27.43 12.11a3.52 3.52 0 0 1-1.12.15c-.75-.06-1.49-.18-2.24-.19-7.3-1.6-13.64 1.11-19.88 4.34-1.61.84-3.31 1.83-5.05.18a20.67 20.67 0 0 1-2.69-5.22l-20.79-51.65c-.61-1.54-1.75-3.06-.75-4.87l7.65-28.37c1.18-4.74 2.83-9.36 4.27-14-.94-2.73 1.26-4 2.72-5.48a27.92 27.92 0 0 1 8.94-5.85c7-2.88 14-5.62 21.55-6.37a2.72 2.72 0 0 1 1.07.4c3.12 5.14 7.62 5.8 13.11 4.52 6.7-1.57 12.47-5.18 18.68-7.84 13 .85 25.46 3.38 36 11.77 5.1 4.05 7.83 9.86 10.53 15.51a276.06 276.06 0 0 1 13.39 34.13c.44 1.37 1.24 2.78.19 4.24a155.86 155.86 0 0 1 5.07 17.31c1.31 5.36 2.64 10.74 3.49 16.19.48 3 .71 6.12 1.16 9.12a61.46 61.46 0 0 1 .51 10.3 31.8 31.8 0 0 1-1.49 8.68 9.22 9.22 0 0 1-4.39 5.29 24.69 24.69 0 0 1-7.51 3l-9.71 2.08a11.72 11.72 0 0 1-2.22.11 18.5 18.5 0 0 0-5.86.58 9 9 0 0 1-2.94.16zm108.41 262.38l-3.71.07H833.57c-1.11 0-2.22-.07-3.33-.11-11.06-2.27-19.11-12-19.94-24.07-.71-10.38 6.56-21 16.81-24.49.93-.33 1.87-.62 2.83-.9a26.47 26.47 0 0 1 6.64-.56h167.16c2.08 0 4.23-.3 6.15.89 1.69 2.55 1.51 5.16.28 7.81-1.94 1.5-4.26 1.16-6.42 1-3.44-.16-5.6 1.38-7 4.35-3.86 8-3.8 15.93.67 23.73a6.51 6.51 0 0 0 6.31 3.71c1.47-.06 3 0 4.44 0q110 0 220.06 0c2.42 0 5-.55 7.15 1.14l5.11.17c.86 0 1.72 0 2.56.06 3.1.35 4.45 2.49 3.44 5.41-.23.67-.47 1.23-.68 1.79z" fill="#555"/><path d="M1190.85 556.66v18.78 2.58c.08 1.08.49 1.5 1.66 1.53l7 .07c1.31 0 2.73-.44 3.87.64-1.94 1.89-4.41 1.29-6.68 1.29q-65.17.06-130.35 0-20.55 0-41.1 0a19.06 19.06 0 0 1-5.88-.46c-2-.86-2.31-2.76-2.58-4.59-2.17-14.54-4.53-29.05-7.46-43.46-.31-1.54-.7-3.22.94-4.41a10.41 10.41 0 0 1 4.72-.66q85.49 0 171 0c1.93 0 4-.36 5.56 1.32a5.33 5.33 0 0 0-.73 3.06v5.69c-1.27 1.07-2.8.75-4.24.75q-13.82 0-27.62 0a11.09 11.09 0 0 0-4.68.68 4.44 4.44 0 0 1-1.26 0 150.29 150.29 0 0 0-23.53-.08c1.17 1.71 2.81 3.05 3.61 5 1.6 4.19.69 8.55.85 12.82.16 4.54.29 4.92 4.2 2.66 5.47-3.16 10.4-2.5 15.63.4 3 1.65 3.4 1.29 3.35-2-.07-4.43.51-8.87-.44-13.26-.33-1.93-2.83-3.39-1.23-5.73 2.14-.86 4.36-.42 6.54-.44h24.59c1.44 0 3-.3 4.23.76q0 7.39 0 14.81c-3.3 1.79-6.92 1.35-10.45 1.45-3.81.11-7.59-.64-10.38-.41 4.62-.2 10.24 1 15.92.16 1.72-.17 3.49-.17 4.94 1.05z" class="AG"/><path d="M1035.81 365.49l5.92 15.12q9.14 22.62 18.31 45.22a9.38 9.38 0 0 1 .3 1.07 16.08 16.08 0 0 1 1.8 2.87 14.08 14.08 0 0 1 .47.85c.55 1 .85 2.12 1.39 3.14a27.56 27.56 0 0 1 1.76 4c.32 1.32.51 2.6-1.12 3.26a17.34 17.34 0 0 1-5.51.45q-45.59 0-91.16 0c-2.2 0-4.48.31-6.43-1.15-1.53-2.42-2.29-5.17-3.35-7.79q-13-32.09-25.83-64.21a5.26 5.26 0 0 1-.72-2.47c.32-.7 1-.54 1.57-.56 1-.05 2 0 3 0h94.83c1.57-.04 3.13.15 4.77.2z" class="AP"/><path d="M1235.35 696.04l-3.68.17h-228.12c-4.41 0-4.47 0-6.87-3.69a25.29 25.29 0 0 1 1-28.83 4.45 4.45 0 0 1 4.06-2h8.15c1.6 1.71.49 3.46 0 5.18-.7 2.79-2.36 5.12-3.73 7.58a66.46 66.46 0 0 0-5.38 9.28c-1.14 2.54-.46 3.42 2.36 3 3.41-.45 6.22-2.23 8.89-4.3a61.9 61.9 0 0 0 13.41-14.69c1.92-2.85 3.85-5.8 7.49-6.83a39.31 39.31 0 0 1 5.93-.27q94.68 0 189.36 0c2.4 0 5-.61 7.12 1.17 0 2.08-.17 4.17.6 6.19.19.51-.23.92-.63 1.23-3-1.39-6.28-1-9.38-1l-38.33-.1a8.82 8.82 0 0 0-3.23.55c-3.42.31-6.86.07-10.3.11-5.06 0-5.06 0-3.1 4.5 1.52 4.89.41 10 1 14.83a1.71 1.71 0 0 0 2-.34c3.69-3.09 7.31-3 11 0 1.57 1.26 2.73 1.09 2.64-1.32-.14-4.19.44-8.41-.73-12.53-.3-1.42-1.1-2.67-1.38-4.09-.19-.93-.09-1.7 1.15-1.67l37.75.06c3.64 0 7.37-.28 10.91 1v4.81a11.49 11.49 0 0 0 .56 4.72 1.34 1.34 0 0 1-.55 1.62c-2.5-1.54-5.24-.54-7.87-.72s-5.13 0-7.69 0h12.08c1.2 0 2.48-.25 3.48.74z" class="AG"/><path d="M1081.17 305.97a112.52 112.52 0 0 0-16 4.45 53.18 53.18 0 0 0-10.31 5 21.93 21.93 0 0 0-5.09 4.26 7 7 0 0 0-2 3.45c-.57.41-1.08 1.09-1.8.11a34.14 34.14 0 0 1-4.2-7.8 53.19 53.19 0 0 1-3.5-15.86 124 124 0 0 1 10.5-59.58 55.74 55.74 0 0 1 6.8-11.43 23.73 23.73 0 0 1 11.22-8.15 72.86 72.86 0 0 1 14.42-3.25l8.11-.83a27 27 0 0 1 17.54 4.71 42.36 42.36 0 0 1 9.08 8.13 74.81 74.81 0 0 1 15.78 31.09 80 80 0 0 1 1.23 8 31.41 31.41 0 0 0 11 20.39c3.38 2.88 6.91 5.59 10.44 8.3a138.42 138.42 0 0 1 12.23 10.19 59.84 59.84 0 0 1 12.91 17.5c5.28 11.32 5.92 22.81.94 34.42a35.57 35.57 0 0 1-4.75 7.92c-.47.6-.92 1.18-1.78 1.13a80.52 80.52 0 0 0-3-9.5 244.59 244.59 0 0 0-11.2-27.73c-1.56-3.21-3.31-6.33-5.06-9.44a26.23 26.23 0 0 0-9.92-9.72 48.06 48.06 0 0 0-8.72-4 88.55 88.55 0 0 0-22.38-4.59c-2.44-.19-3.27-2.25-3.93-4-2.91-7.48-5.59-15.05-4-23.34.57-3-.36-5.89-.71-8.81a2.49 2.49 0 0 0-3-2.2c-12.91 1-22.89-5.8-33-12.24-3.7-2.35-4.61-2.27-6.16 1.85a33.94 33.94 0 0 0-2 17.12 54.8 54.8 0 0 0 7.54 20.35c2.1 3.48 4.72 5.7 9.09 4.64a3.18 3.18 0 0 1 2.5.42c1.74 2.85 2.59 5.8 1.18 9.04z" class="AM"/><path d="M913.7 518.36c-1.74 4.22-4.34 8-6.48 12l-9.14 16.47-21.94 41.48a6.59 6.59 0 0 1-1.87 2.7 7.13 7.13 0 0 1-4.26.93h-37.62c-1.68 0-3.5.21-4.78-1.33-2.49-1-5-1.95-7.47-3.14-8.49-4.18-13.65-11.15-16-20.14a27.93 27.93 0 0 1-1-8c.1-3.7 0-7.4 0-11.1a30.82 30.82 0 0 1 5.34-17.38 28.45 28.45 0 0 1 18-11.91 37.72 37.72 0 0 1 8.43-.8h35.9c1.47 0 3-.09 4.43-.14s2.7.21 4.06.22h30.36c1.33 0 2.68.09 4.04.14z"/><path d="M1152.31 609.27a18 18 0 0 1 1.39 7.16v10.37c-.33 12.49-8.1 22.18-17.91 25.72-.67.24-1.31.55-2 .85.46.77 1.11.48 1.62.51 1.24.06 2.47 0 3.71 0q50.37 0 100.75 0c1.43 0 3-.44 4.31.5-2 1.89-4.42 1.29-6.69 1.29q-55.74.06-111.48 0h-77.84a21.17 21.17 0 0 1-6.25-.43 1.9 1.9 0 0 1-1.31-1.3c-.17-1.35.72-2.28 1.35-3.31 3-4.82 2.47-7.15-2.11-10.54a18.19 18.19 0 0 0-3.13-1.91 14 14 0 0 0-2.7-1.18c-7.46-1.74-11.38-6.81-13.23-13.88-.77-3-2.36-5.69-2.48-8.84.49-1.79 2.15-2.56 3.31-3.77 2.06-2.17 4.78-1.72 7.32-1.72q59.65 0 119.3 0a11.65 11.65 0 0 1 4.07.48z" class="AH"/><path d="M944.85 85.06h7.39a22 22 0 0 1 5.86.56c2 .56 4.12.41 6.2.75a139.65 139.65 0 0 1 15.43 3.55 113.91 113.91 0 0 1 19.57 7.68c3.08 1.53 6 3.38 8.95 5.18 2.51 1.54 5 3.17 7.4 4.85a106.27 106.27 0 0 1 8.64 6.91 76.39 76.39 0 0 1 7.08 6.48c2.39 2.64 4.63 5.41 6.92 8.15a29.25 29.25 0 0 1 3.65 4.64c.52.95.52 1.56-.38 2.23l-9.24 6.74c-1.08.76-1.78.61-2.52-.47-4.41-6.49-10.26-11.66-15.78-17.1a52 52 0 0 0-7-5.46c-5.58-3.86-11.24-7.63-17.48-10.34a114.13 114.13 0 0 0-21.68-7.26c-3.36-.71-6.79-1.08-10.16-1.64-5.43-.9-10.83-.4-16.24-.62-4.45-.19-8.79.7-13.17 1.28a87.36 87.36 0 0 0-14.32 3.27 97.26 97.26 0 0 0-11.39 4.32 100 100 0 0 0-22.08 13.35c-3.82 3.11-7.84 6-11.07 9.75s-6.57 7-9.28 11c-.9 1.34-1.35 1.44-2.68.54l-7.85-5.52a7.93 7.93 0 0 1-1.08-1c-1-1-1.1-1.45-.35-2.6a34.94 34.94 0 0 1 3.25-4.47c3.72-4.11 7.21-8.44 11.36-12.15a120.05 120.05 0 0 1 12.51-10.32 137.15 137.15 0 0 1 17.12-10.25 116 116 0 0 1 25.35-9c4.67-1 9.4-1.73 14.14-2.42 4.58-.7 9.1-.36 12.93-.61z" class="AG"/><path d="M1152.31 609.27a1.94 1.94 0 0 1-1.61.75h-3.33-119.3a11.63 11.63 0 0 1-2.21 0c-2-.41-3.21.58-4 2.26-1.29-1.27-1.09-2.93-1.21-4.51-.28-3.82-1-7.59-1.32-11.4-.18-2.06-.53-4.23 1.11-6 1.69-1 3.57-.82 5.41-.82q50.64 0 101.3 0c2 0 4.26-.53 5.77 1.52a29.75 29.75 0 0 1 11.08 5.55c3.99 3.4 7.1 7.41 8.31 12.65z" class="AH"/><path d="M1014.89 155.23l-6.33 4.65-4.17 3a1.51 1.51 0 0 1-2.52-.33c-2.44-3.62-5.86-6.32-8.8-9.47a48.2 48.2 0 0 0-11.41-8.7 69.48 69.48 0 0 0-19.8-8c-4.44-1-8.89-1.92-13.49-1.67a40.85 40.85 0 0 1-5.19 0c-7-.48-13.74 1.15-20.26 3.3a65.15 65.15 0 0 0-12.13 5.34 115.42 115.42 0 0 0-11.88 8.08 30 30 0 0 0-6 6c-1.55 2.08-3.62 3.71-4.88 6-.34.62-.92.66-1.56.22l-9.4-6.52c-1.32-.94-1.51-1.81-.52-3.15a73.79 73.79 0 0 1 4.9-6c2.18-2.36 4.43-4.65 6.81-6.81a83.75 83.75 0 0 1 30.19-17.32 68 68 0 0 1 11.4-3c3.13-.46 6.27-1.21 9.52-1a93.73 93.73 0 0 0 9.63 0c6.23-.29 12.25 1 18.19 2.5a75.67 75.67 0 0 1 17.19 6.6 90 90 0 0 1 16.8 11.32c1.93 1.7 3.94 3.33 5.77 5.16a26.14 26.14 0 0 1 2.32 2.39c1.9 2.42 3.68 4.87 5.62 7.41z" class="AG"/><path d="M1191.57 529.34c-1 0-2-.13-3-.14h-176.48-2.22c-2.48-2.22-3.89-8.71-2.54-11.66 5.07-1.39 10.25-.25 15.36-.65 12.73 0 25.47-.37 38.17.82a2.87 2.87 0 0 1 1 .39l17 .12q23.85 0 47.69 0c2.59 0 5.18-.11 7.76-.18 1.73 0 3.46.14 5.19.15h59.31a21.6 21.6 0 0 1 3.32.11 4.5 4.5 0 0 1 4 3.86 9.06 9.06 0 0 1 0 2.94 4.47 4.47 0 0 1-4.56 4c-2.22.1-4.45 0-6.67 0-1.11.11-2.22.19-3.33.24zm-58.68 61.76l-3.32-.18h-106.4l-3 .09c-2.49-2.52-3.13-7-1.53-10.84h53.31 126.25c1.73 0 3.46.07 5.18.1 2.58 1.58 3.17 4 2.72 6.75a4.37 4.37 0 0 1-4.31 3.85c-1.11.09-2.23 0-3.34 0h-60.8l-4.76.23z"/><path d="M1041.17 654.44l4.07-.06q38.91 0 77.8 0 58.54 0 117.07.13l4.07-.12a3.49 3.49 0 0 1 2.25 1.77 3.63 3.63 0 0 1-2.59 5.39 24.87 24.87 0 0 1-3.67.16l-4.79.18-3.68-.18h-196.18l-4.06.17c.34-2.43 2.51-3.12 4.11-4.34 2.21-.36 2.91-3.47 5.6-3.1z" fill="#555"/><path d="M945.3 148.01c8.31.86 16.54 1.9 24.19 5.76a62.07 62.07 0 0 1 16.79 11.88c1.63 1.66 3.05 3.54 4.54 5.33a1.22 1.22 0 0 1-.3 1.92l-9.4 6.5a1.75 1.75 0 0 1-2.66-.16 42.28 42.28 0 0 1-3.15-3.13c-4.25-4.85-9.73-7.9-15.53-10.38a27.43 27.43 0 0 0-6.39-1.72c-2.9-.46-5.77-1.41-8.74-1.07-4.87.56-9.7 1.15-14.36 3a51.32 51.32 0 0 0-12.09 7 24.91 24.91 0 0 0-5.4 5.54 13.43 13.43 0 0 1-1.12 1.46 1.36 1.36 0 0 1-2 .27l-10-7c-.79-.56-.8-1.05-.18-1.86a60.55 60.55 0 0 1 16.92-15.19c6-3.62 12.61-5.41 19.26-7.19 3.29.14 6.38-1.11 9.62-.96zm18.53 43.19a4.91 4.91 0 0 1-.83 1.15l-4.44 3.29-11.91 8.68c-.78.58-1.38.83-2.28.2l-16.94-11.81c-1.12-.79-1.17-1.4-.15-2.38 2.31-2.19 4.24-4.78 7.34-6.1 4.58-2 9.08-3.26 14.25-2.2a27.56 27.56 0 0 1 9.83 3.83 28.59 28.59 0 0 1 4.58 4.28 4.49 4.49 0 0 1 .55 1.06z" class="AG"/><path d="M961.54 440.29l5.93-.05h93.34l4.81-.06c1.07-1 2.43-1 3.78-1l25.34.06c1.45 0 3-.16 4.15 1a11 11 0 0 1 .45 1.75 1 1 0 0 1-1.05 1.23l-3.7.07H968.08l-4.8.17c-1.31-.64-1.57-1.89-1.74-3.17z" class="AK"/><path d="M1153.02 538.87c3.48-.89 7-.76 10.58-.75q13.63 0 27.26 0v1.54q-16.08 0-32.15 0c-1.18 0-2.5-.41-3.46.73-1.28.26-2.23.05-2.23-1.52z" fill="#f6d6bd"/><path d="M872.67 508.44a3.51 3.51 0 0 0-3.11-1.49 19 19 0 0 1-2.92 0 2.33 2.33 0 0 1-2.61-2 10.58 10.58 0 0 0-.92-3.12l8.06-.14c.53 2.24 1.49 4.39 1.5 6.75z" class="AK"/><path d="M1190.85 556.66a135.51 135.51 0 0 1-21.38-1c.32-.73 1-.44 1.45-.44h8.89a24.34 24.34 0 0 0 5.87-.52 23.86 23.86 0 0 1 5.16-.2l.01 2.16z" class="AQ"/><path d="M148.29 626.33a10.2 10.2 0 0 0-2.5-3.6c-5-4.51-9-10-13.86-14.67a68 68 0 0 1-5.14-6.17c-.41-1.25.59-1.75 1.28-2.4l44.48-41.17 28-25.79c1.35-1.28 2.61-3.56 5.23-2.23 3 7.88 4.29 16.22 6.27 24.36l11.62 49c.68 3 2.14 3.91 5.13 3.9h62.63c1.77 0 3.76-.57 5.16 1.19a9.86 9.86 0 0 1-1.77 1.87c-2.74 1.75-4.65 4.41-7.14 6.4-3.77 3-6.88 6.73-10.58 9.76-3.06 2.52-5.64 5.52-8.68 8-3.74 3-6.89 6.71-10.57 9.77-2.85 2.38-5.3 5.16-8.16 7.48-3.93 3.2-7.25 7-11.09 10.29-2.63 2.24-5 4.79-7.64 7-3.56 2.88-6.54 6.36-10 9.25-3.05 2.53-5.78 5.34-8.66 8-1.17 1.08-2.49 2-3.76 3a.93.93 0 0 1-1.31-.21c-2.93-3.15-6.44-5.76-8.84-9.42a4.1 4.1 0 0 0-.73-.83c-4.62-4.11-8.19-9.2-12.66-13.45-2.76-2.63-4.87-5.86-7.68-8.47-1.36-1.27-2.69-2.11-4.57-1.88.58-2.19 2.48-1.53 3.91-1.76 4.47-.71 9.11-.77 12.53-4.55a10.41 10.41 0 0 0 3-8.76 64.91 64.91 0 0 0-.91-6.94c-1.65-6.54-6.76-10.12-13.48-9.36L152.52 627c-1.51.12-3 .6-4.23-.67z" fill="#e0ebfd"/><path d="M453.82 703.21a3.73 3.73 0 0 1-.73.13h-31.33a4.83 4.83 0 0 1-.73-.12c-5.76-3.36-7.36-8.93-7.87-15a25.21 25.21 0 0 1 0-4.43l1.79-20.24.88-10.3 2.52-31.3 1.09-11.77c.06-.62.1-1.24-.51-1.65-1.42-.61-2.92-.3-4.38-.3q-92.57 0-185.11 0c-1.34 0-3.37.9-3.92-.84-.46-1.45 1.15-2.6 2.34-3.47 3.08-2.25 5.82-5 9.45-6.44 26.53 1 53.08.38 79.62.39q233.37.1 466.75 0c3.56 1.16 7.48 1 10.89 2.77.82 3.05 1.77 6.12-1.21 8.64-2.27.81-4.64.53-7 .53h-217a26.39 26.39 0 0 1-3.33 0c-3.37-.45-5.74.67-6.81 4-1.58 1.36-3.6 1.5-5.52 1.9l-80.23 16.22-42.12 8.56c-4.92 1-5.07 1.42-5.45 6.27l-2.48 28.38c-1.23 5.16-.22 10.1 1.91 14.76 2.06 4.49 6.12 6.27 10.83 6.51 4.43.23 8.88 0 13.31.09 1.59 0 3.24-.17 4.6 1 .96 1.94 1.19 3.86-.25 5.71z" class="AK"/><path d="M237.27 598.16l-9.1 6.86a21 21 0 0 0-2 1.72.77.77 0 0 0-.15.66.65.65 0 0 0 .49.39l3.7.07q92.22 0 184.43 0c1.42 0 3-.5 4.26.61l-4.44.12H301.02l-4.44.12s-2.95-.13-4.43-.13h-63.98c-5.08 0-4.27.28-5.32-4.11q-8.45-35.03-16.75-70.03c-.37-1.54-.48-3.17-1.36-4.56a4.1 4.1 0 0 1-1.49-2.86c-2-9-4.38-17.89-6.42-26.88a22 22 0 0 1-.21-4.35c-.18-3.11-1.17-6-1.88-9l-13.61-56.81a71.52 71.52 0 0 0-2.48-9.65c0-2.5-1-4.82-1.51-7.21a88.84 88.84 0 0 0-2.97-11.53 15.09 15.09 0 0 1-2-4.74l-18.13-75.89c-.55-2.23-1.55-4.46-.74-6.86a92.85 92.85 0 0 0-3-12.64 59.58 59.58 0 0 1-5-20.72 71.12 71.12 0 0 0-2.54-11.15c-1.29-1-1.5-2.48-1.85-3.92l-29.48-123.45c-.48-2-1.42-4-.49-6.13q-2.26-9.86-4.55-19.72l-.79-3.22c-.4-1.77-.27-2 1.51-2.68q3.83-1.35 7.68-2.61c.3-.09.69.1 1.05.16q5.53 23.22 11.1 46.43 9.39 39 18.83 78.07 7 29.15 14 58.3 9.3 38.68 18.61 77.36 7.07 29.32 14.11 58.65 8.68 35.81 17.27 71.61c.11.48.16 1 .31 1.45.35 1.12.68 1.89 2.37 1.79a14.38 14.38 0 0 1 1.84.14c1.2 1.21 1.42 2.84 1.81 4.39l21.38 86.3c.47 1.87 1.32 3.82-.2 5.65z" class="AP"/><path d="M196.62 495.74c1.33 3.07 1.76 6.39 2.57 9.6l5.1 21.58c.22.95.31 1.94.45 2.91-.12.21-.2.49-.38.62-3.22 2.32-5.6 5.57-8.68 8-4.27 3.35-7.6 7.73-12.11 10.79a3.2 3.2 0 0 0-.27.25c-3.61 3.52-7.34 6.93-11 10.39-5 4.74-10.43 9-15.08 14.16-3.5 2.37-6 5.86-9.28 8.42-3.89 3-7.1 6.78-11 9.83-3.65 2.87-6.79 6.38-10.16 9.61a11 11 0 0 1-3.74-3.53 55.84 55.84 0 0 0-6.23-6.8c-3.42-3.54-6.38-7.5-10-10.84-.85-.78-.79-1.61.14-2.17a27.42 27.42 0 0 0 5-4.42c3.92-3.91 8.17-7.47 12.22-11.25 2.78-2.6 5.42-5.39 8.38-7.76 4.34-3.46 7.84-7.84 12.37-11a3.71 3.71 0 0 0 .54-.51c4.75-5.19 10.18-9.67 15.37-14.38 4.09-3.71 7.74-7.93 12.32-11.1a1.54 1.54 0 0 0 .26-.25c3.72-4.13 8.3-7.35 12.1-11.38 2.72-2.88 6-5.06 8.73-8l2.38-2.77z" class="AH"/><path d="M148.29 626.33a12.41 12.41 0 0 0 4-.42c2.11-.67 4.36-.29 6.56-.83 2.71-.67 5.62-.47 8.38-1 3.26-.64 6.57-.63 9.84-1.21 6.58-1.16 13.59 2.41 15 9.75a23.48 23.48 0 0 1 .69 4.72 9.55 9.55 0 0 0 .41 2.53 6.58 6.58 0 0 1 0 3.27c-1.44 6.37-5.39 9.81-11.95 10.71a62 62 0 0 1-7.31.77c-.43 0-.85.41-1.28.63a64.26 64.26 0 0 0-12.44 1.33 12 12 0 0 1-1.47.15 105.15 105.15 0 0 0-11.33 1.35c-2.79.42-5.62.61-8.43.91a13.51 13.51 0 0 0-2.55.36 14.26 14.26 0 0 1-4.41.35 1.31 1.31 0 0 1-1.43-.91 1.65 1.65 0 0 1 1.33-1.91 35.68 35.68 0 0 1 5.09-.81 112.68 112.68 0 0 0 11.33-1.39c2.8-.41 5.63-.57 8.43-.91l8.76-1.16c1.34-.16 2.7-.23 4.05-.31.85-.05 1.75 0 2.39-.71 2.49-1.7 5.45-1.27 8.2-1.74 6-1 8.55-3.88 8.55-10a26.29 26.29 0 0 0-.67-5.87c-1.07-4.58-4.79-7.6-9.42-7.08l-26.78 3.29c-9.45 1-18.91 2-28.3 3.45-10.4 1.54-10.53 7.31-8.76 14.64.66 2.75 3 3.07 5.3 2.91 4.68-.32 9.34-.91 14-1.52 5.38-.71 10.79-1.22 16.15-2.1 3.67-.6 4.79-2.45 4.25-6.76-.41-3.33-2-4.51-5.66-4.17-5.9.56-11.76 1.43-17.65 2.06a7 7 0 0 1-3.3-.09 2.3 2.3 0 0 1-1.55-1.91 2.08 2.08 0 0 1 1.13-2.14 3.62 3.62 0 0 1 1.35-.6c7.94-1 15.8-2.68 23.87-2.47 2.81 1.15 5.38 2.55 5.88 6a40.53 40.53 0 0 0 .38 5.14 7.74 7.74 0 0 1-6.31 8.91c-4.62.55-9.2 1.51-13.87 1.57-2.7 1-5.59.58-8.36 1.23a70.78 70.78 0 0 1-8.4 1 12.53 12.53 0 0 0-2.54.34 4.32 4.32 0 0 1-2.86-.16c-4-1.24-5.89-3.51-6.17-7.71a20.19 20.19 0 0 0-.5-3.27c-1.7-7.22 4.44-13.83 9.89-14.48 3.89-.47 7.8-.9 11.64-1.55 2.79-.47 5.66-.22 8.38-1.13a2.84 2.84 0 0 1 1.08-.17 33.23 33.23 0 0 0 7.39-.88z"/><path d="M152 629.33a4.71 4.71 0 0 1 1.72-.64c3.11.19 6.1-.69 9.16-.91s5.82-.77 8.73-1.16l7.66-.94c4.65-.16 9.63 3.79 10 8.12.22 2.81.53 5.61.61 8.43a6.89 6.89 0 0 1-2.24 5.27 10.75 10.75 0 0 1-7.16 3.37c-2.81.18-5.57 1-8.42.72-4.24-4.45-8-9.34-12.48-13.55a5.47 5.47 0 0 0-.94-.57 19.82 19.82 0 0 0-5.19-5.14c-.46-1.02-2.02-1.51-1.45-3z" fill="#e0ebfd"/><path d="M134.98 486.32c.23 2.75-1.16 4.81-3.43 6.39a37.58 37.58 0 0 0-3.39 2.25c-3.55 3-8.56 1.56-11.35-1.34a12.28 12.28 0 0 1-1.12-1.46l-9.24-13.38-8.68-12.41a11.85 11.85 0 0 1-1.06-1.95.67.67 0 0 1 .3-.94 1.73 1.73 0 0 1 1.05-.07 2.79 2.79 0 0 1 1.28 1.28l5.09 7.26 11.08 16.16c.9 1.32 1.79 2.66 2.78 3.91a6.27 6.27 0 0 0 8.28 1.47c1.26-.78 2.52-1.56 3.72-2.43a6.51 6.51 0 0 0 1.74-8.83c-1.75-2.83-3.63-5.58-5.52-8.32l-12.24-17.6-4.67-6.65a6.22 6.22 0 0 0-8.76-1.72 27.05 27.05 0 0 0-3.06 2.09 3.18 3.18 0 0 0-.68 4.59l9.85 14.31q1.37 2 2.79 3.91a3.12 3.12 0 0 0 4.48 1c.43-.24.81-.56 1.22-.84 2.81-1.89 3.1-3.36 1.21-6.09q-3.5-5-7-10a15.64 15.64 0 0 1-.92-1.59.8.8 0 0 1 .13-1c.44-.45.89-.27 1.26.12a13.54 13.54 0 0 1 1.49 1.64q3.18 4.54 6.29 9.13c.55.81 1 1.72 1.48 2.56 1.17 1.91.76 3.92-1.07 5.68a16.6 16.6 0 0 1-4 2.65 4.69 4.69 0 0 1-5.95-1.44c-.62-.76-1.23-1.54-1.79-2.35l-11.26-16.48c-2-3.07-1.53-5.38 1.42-7.63a21.47 21.47 0 0 1 3.63-2.54 8.38 8.38 0 0 1 10.6 2.44c1.4 1.87 2.69 3.83 4 5.75q8.86 12.74 17.75 25.46a10.33 10.33 0 0 1 2.27 7.01z"/><path d="M281.62 475.86c-.86 1.88-.47 3.89-.55 5.84-.16 4 .09 3.77-4 3.77h-41.85c-3.15 0-3.16 0-3.94-3.1q-11.11-43.93-22.11-87.87-12.48-49.68-24.89-99.38-13.86-55.23-27.77-110.46-3.26-12.9-6.49-25.82c-.15-.6-.21-1.22-.31-1.82.21-1.68 1.61-1.66 2.78-1.86a25.11 25.11 0 0 1 4.07-.14q293.18 0 586.36 0c2.59 0 5.55-.84 7.5 1.92l3.54 12.45q7.29 26.38 14.56 52.79 5.45 19.79 10.86 39.6 5.65 20.5 11.33 41 5.46 19.8 10.9 39.59 5 18.19 10 36.38 4.83 17.48 9.65 34.95 4.79 17.3 9.54 34.6l9.37 33.94.48 1.78a1 1 0 0 1-.89 1.35 9.05 9.05 0 0 1-1.48.09h-3-407.79a19.47 19.47 0 0 0-3 0c-1.86.3-2.68-.69-3.2-2.22-1.54-1.23-1.42-3.1-1.67-4.75l-4.42-31.52a7 7 0 0 1 .2-3.65c2.93-5.48 2.82-11.65 3.84-17.54l5.22-31.29a5.63 5.63 0 0 1 1.36-3.35 4.87 4.87 0 0 1 1.91-1c2.91-.9 3.56-2.88 3.12-5.71a50.84 50.84 0 0 1-1-8.34 41.07 41.07 0 0 0 .71-18c.26-4.77 1.39-9.42 2.12-14.12 1-6.4 1-6.38-5.29-6.43a13.37 13.37 0 0 1-5.07-.49c-1.76-1.15-1.88-3.12-2.28-4.88-2.76-11.9-6.17-23.65-8.92-35.54-2.39-10.39-8.61-17.16-17.29-22.38a199.91 199.91 0 0 0-26.9-14c-2.61-2.56-5.31-5-7.83-7.7a21.65 21.65 0 0 1-1.07-4 5.52 5.52 0 0 1 .58-3.63c7.65-3 7.7-9.85 8-16.31a99.28 99.28 0 0 0-1.12-23.17 8.78 8.78 0 0 1 0-3.31 4.58 4.58 0 0 1 2.26-2.8c2.35-1.65 2.33-3.6.69-5.7-4.78-6.08-10.26-11.41-17.07-15.16-10.78-5.94-21.36-3.52-31.57 1.48-8 3.93-13.15 10.3-13.85 19.61-.28 3.65.56 7.14 1.47 10.59a66.57 66.57 0 0 0 9.71 20.71c2.42 3.51 5.39 6.45 9.65 7.73a18.16 18.16 0 0 1 1.58.66 3.82 3.82 0 0 1 1 .67c1.61 4.26-.33 8-1.64 11.9a53.43 53.43 0 0 1-10.66 7.46 100.89 100.89 0 0 0-19.67 5.1 36 36 0 0 0-20.34 19.37c-9.79 21.4-17.72 43.42-21.88 66.69-1.81 10.21-2.92 20.48-1.38 30.91 2 13.17 8 20 20.92 23.11 1.32.32 2.66.55 4 .78 6.07 1 6.06 1 6.33 7.28a39.41 39.41 0 0 1-.31 7.12c-1 4.88-.3 9.8-.44 14.7a47.86 47.86 0 0 1-.1 4.79 10.07 10.07 0 0 1-.2 1.34c-1 4.75-.32 9.56-.43 14.34a40.78 40.78 0 0 1-.12 4.42 8.65 8.65 0 0 1-.23 1.35c-.9 3.61-.22 7.28-.45 10.91-.07 1.51.35 3.2-1.14 4.37z" fill="#e9f3fd"/><path d="M750.4 156.98a5.73 5.73 0 0 0-2.84-.71h-2.59-593.64a2.16 2.16 0 0 0-1.64.73c-1.08-1.84-1.21-4-1.74-6l-4.73-18.61c-.83-3.33-.58-3.61 2.81-3.65h2.22q294.66 0 589.31 0c6.19 0 4.86-1 6.63 5 2.13 7.19 3.86 14.51 6.05 21.69a7.88 7.88 0 0 1 .16 1.55z" fill="#555"/><path d="M282.43 459.98l-.15-.23.14-.23c1.86-1.24 2.77-2.55 1.08-4.75-1.27-1.65-.59-3.79-.58-5.7 0-3-.37-6.09.26-9.11l-.15-.23.13-.23c1.15-.86 2.08-2 1.46-3.4-1.76-4-.78-8.1-.87-12.16.51-1.18 1.59-1.47 2.67-1.74a185.3 185.3 0 0 0 46.65-18.3c-14.36 2.62-28.87 4.54-43.61 4-2.06-.07-3.66.32-4 2.77-.09.7-.41 1.45-1.41 1.37-.42-1.56.65-3.54-.4-4.65-1.26-1.32-3.46-.9-5.25-1.18a46.75 46.75 0 0 1-11.38-3.13 20.88 20.88 0 0 1-10.4-9.64 34.77 34.77 0 0 1-3.59-10.84 75.34 75.34 0 0 1-.54-19.56c1.81-19.69 7.33-38.46 14.08-56.93a241 241 0 0 1 10-23.48c.49-1 1.06-2 1.51-3 2.89-6.37 7.85-10.65 13.88-13.86a69.55 69.55 0 0 1 18.82-6.5 23.52 23.52 0 0 1 6.57-.91c.48 3.67 2.6 6.61 4.39 9.66l18.87 32.69a21.34 21.34 0 0 0 2.23 2.95 191.29 191.29 0 0 1 6.61 29.63c.08.84.08 1.67.14 2.51-1.56 13.06-3.72 26-6.16 38.93a5 5 0 0 1-.74 1.68c-4.36 5.36-5.31 11.31-3 17.8a9.63 9.63 0 0 1-.55 5.76 8 8 0 0 0-.9 3.61 9 9 0 0 1-.21 1 15 15 0 0 0-.57 3.53 8.59 8.59 0 0 1-.2 1 16.13 16.13 0 0 0-.55 3.52 7 7 0 0 1-.23 1 2.44 2.44 0 0 1-.43 1c-1.92 1.74-2.43 3.65-.88 5.92.25.37.11 1 .06 1.45a3.87 3.87 0 0 1-.29 1c-1.1 1.07-1 2.36-.59 3.67a5.58 5.58 0 0 1-.12 1 19 19 0 0 0-.49 3.44 6.55 6.55 0 0 1-.2 1 15.31 15.31 0 0 0-.53 3.43 6.68 6.68 0 0 1-.2 1c-.47 1.47-.5 2.68 1.57 2.66a15.85 15.85 0 0 1 2.83.34c4.61.71 9.25.15 13.86.34a5.63 5.63 0 0 1 2.33.45c1 .23 1.28 2 2.7 1.34 5.06-2.43 8.77-.88 11.45 3.82a5.71 5.71 0 0 1 .54 2.23v8.5c0 1.23.19 2.64-.63 3.57-1.64 1.85-1 3.09.42 4.71 1.62 1.86.65 4.56 1.59 6.73a67.08 67.08 0 0 1 .22 9.92c0 1.34 0 2.73-1.2 3.72-13.71.32-27.42.08-41.13.13h-41.5c-1.34 0-2.72.34-4-.34l.06-3.71c1.81-1.79 2.52-3.35 1-6.08-1.72-3-.74-6.81-.5-10.2-.01-1.52-.36-3.12.01-4.69z" class="AH"/><path d="M237.27 598.16c.28-3.16-1-6.05-1.67-9l-6.58-26.47q-7.2-29-14.4-57.93a13.85 13.85 0 0 1-.34-2.92l4.06-.15h294.41l4.07.15a46.49 46.49 0 0 1-7.84 3.14l-19.26 6.51c-9.39 3.4-19 6.28-28.33 9.7-7.76 2.84-15.64 5.31-23.44 8l-28.31 9.74c-8.11 3-16.39 5.4-24.48 8.38-9 3.33-18.25 6.06-27.27 9.37-8.22 3-16.62 5.48-24.83 8.5-8.91 3.28-18 6.1-26.93 9.21q-12.75 4.41-25.52 8.77-13.11 4.5-26.23 9l-12.19 4.32c-.41.15-1 .09-1.22 1h543.38c.22.11.32.25.31.43s-.06.28-.11.28h-3-544.28z" class="AK"/><path d="M368.53 484.73q0-7 0-14c1-1.25 2.65-1 3.94-1.6 9.24-1.59 18.57-2.72 27.66-5.16a5.44 5.44 0 0 1 2.94 0 3.06 3.06 0 0 1 2 3.23c-.07 4.58.86 9.09.83 13.66 0 1.71.06 3.53-1.83 4.51l-22 .09c-4.28 0-8.56 0-12.84-.08a1.58 1.58 0 0 1-.7-.65z" class="AN"/><path d="M404.17 485.44a5 5 0 0 0 .73-2.79c-.14-2.54.08-5.06-.53-7.63-.49-2.09-.17-4.37-.21-6.56v-2.2c0-1-.78-1.43-1.65-1.66 1.59-5.17-.2-10.24-.5-15.34-.13-2.2-.72-4.4.4-6.51 4.61-1 9.21-1.56 13.64.74l1.85 13.89q1.3 9.5 2.62 19l.9 7c-.54 2.11-.54 2.17-2.18 2.17l-15.07-.11z" class="AH"/><path d="M368.53 484.73l.73.67-5.18.1h-78.12-3a1.33 1.33 0 0 1-1.21-.7zm-86.1-24.75c-.11 1.51 1.16 1.65 2.1 2.15a.53.53 0 0 1-.17 1c-1.68.13-1.89 1.18-1.86 2.54v6.22c0 1.28.14 2.44 1.38 3.16a1.91 1.91 0 0 1 .55.47c1.48 1.78 1.17 3.62-.87 4.9a7.82 7.82 0 0 1-1.71.58l-.23-5.16.34-12.32a8 8 0 0 1 .47-3.54z" class="AL"/><path d="M180.75 32.44c-7.92-1.79-15.82-3.59-23.89-4.6a121.48 121.48 0 0 0-17.69-1.4c-6.28.14-12.56-.3-18.83.72-7 1.15-13.72 3-19.88 6.57-8.84 5.16-13.07 13.1-13.73 23.11-.46 7 1 13.74 3.15 20.33a114.14 114.14 0 0 0 11.5 24.38 47.59 47.59 0 0 0 5.42 8l5.79-8.51c1.9-2.71 3.87-5.41 5.85-8.08s3.8-5.15 6-7.54 4.18-5.17 6.4-7.64 4.64-4.8 7-7.16l7.08-7.07c2.29-2.42 4.95-4.45 7.46-6.63s5.11-4.25 7.74-6.29 5.08-3.9 7.71-5.73 5.36-3.93 8.21-5.68 5.76-3.17 8.54-5.7c-1.55-.45-2.68-.85-3.83-1.08zM79.46 165.86h-1.48v.08a12.64 12.64 0 0 0-2.22 0c-5.07 1-10.24 1.13-15.34 2-5.71.91-11.4 1.87-17 3.2a83.3 83.3 0 0 0-20.78 7.54 28.23 28.23 0 0 0-7.29 5.61c-4 4.32-4.74 9.3-2.81 14.69a28 28 0 0 0 5.83 9.36 83 83 0 0 0 11.4 10.53 170.73 170.73 0 0 0 22.77 14.42c5.55 2.95 11.24 5.66 16.87 8.47a23.58 23.58 0 0 0 2.35 1.07 1.07 1.07 0 0 0 1.55-1 10 10 0 0 0-.06-3 28 28 0 0 1-.51-7.35 77.1 77.1 0 0 1 .16-9.62 47.84 47.84 0 0 0 .48-7.35c-.13-4 1.06-7.82.88-11.78a3.83 3.83 0 0 1 .12-.73c.41-2.54.94-5.08 1.2-7.64a110.82 110.82 0 0 1 2.05-11.6c1-4.93 2.38-9.8 3.57-14.69.43-1.81.15-2.15-1.74-2.21z" class="AH"/><path d="M153.38 314.1l3 11.77q6.09 25.47 12.12 51l5.58 23.31a8.81 8.81 0 0 1 .11 1.46c-4.37-3.19-8.61-6.54-12.79-10-3.06-2.53-5.81-5.33-8.69-8-.72-.67-1.51-1.26-2.24-1.92a23.75 23.75 0 0 1-3.5-3.28c-2.05-2.82-4.72-5-7-7.64-2.91-3.34-5.77-6.73-8.53-10.2a207.93 207.93 0 0 1-13.37-19 182.83 182.83 0 0 1-13.79-26.16 39.18 39.18 0 0 1-2.41-5.8.85.85 0 0 1 1-1.1c2.53.82 5.14.48 7.71.57 2 .07 4-.13 5.87.59a2.53 2.53 0 0 0 1.1.11c3.72-.33 7.38.51 11 .92 4.87.55 9.79.84 14.61 1.91a61.23 61.23 0 0 0 7.68.92 8.74 8.74 0 0 1 2.54.54z" class="AJ"/><path d="M197.17 105.8a22.86 22.86 0 0 0-1.93-2.23 132.44 132.44 0 0 1-9-9.79c-3.19-4.07-6.47-8-9.39-12.32a142.51 142.51 0 0 1-9.27-15.54c-.49-1-.69-2.15-2-2.75a213 213 0 0 0-40 42.13 1.73 1.73 0 0 0-.36 1.87c.88 0 1.83.12 2.79.12h66.24 2.22c.99-.05 1.3-.7.7-1.49z" class="AH"/><path d="M105.99 296.44h6.62a4.34 4.34 0 0 0 3.27-1.33l10-9.2c1.72-1.54 3.62-2.89 5.42-4.35l2.49-2.15s.86-.87-.3-2.27c2.4 0 4.38 1.48 6.67 1.92a43.29 43.29 0 0 1 5.24 1.71c.75.78.67 1.83.9 2.77q2.07 8.42 4.08 16.85a5 5 0 0 1 0 1.1 8.42 8.42 0 0 0-1.75-.55c-3.43-.25-6.8-.87-10.19-1.4-3-.47-6.14-.39-9.14-1-3.87-.74-7.82-.51-11.7-1.21-2.75-.49-5.65-.16-8.48-.23-1.07-.03-2.24.24-3.13-.66zm452.49 317.39c.77-1.22.5-2.64.76-4a1.42 1.42 0 0 1 1.48-1.34h2.59 227.14l3 .07c1.77.84 1.76 2.51 1.8 4.08v9.52 2a47.74 47.74 0 0 1-.24 7.56 5.79 5.79 0 0 0 0 3.61c.15 3.27.91 6.57-.63 9.72-1.49 1.17-3.29.84-5 1.07-2.09.29-3.47 1.32-3.47 3.58s1.4 3.29 3.48 3.59a29.1 29.1 0 0 0 4.07.15h30.73c1.68 0 3.8-.66 4.77 1.65-8.79 2.65-14.49 8.35-16.79 17.17-3 11.45 2.74 23.56 13.46 28.86l4.65 2.22h-8.51H600.3c-1.6 0-3.2-.11-4.8-.16-1-4.48-4.27-4.68-8.11-4.63-6.86.1-13.76.66-20.57-.81a25.11 25.11 0 0 1-7.9-2.93c-5.31-3.47-7.76-8.28-7.18-14.69l1.4-17.24a14.82 14.82 0 0 0 .44-5.51c0-.87.07-1.72.12-2.59l3.52-36.86c.14-1.48-.05-2.98 1.26-4.09z" class="AJ"/><path d="M566.48 696.84a3 3 0 0 1 .73 0c6.18 1.16 12.43.61 18.65.71 2.57.05 5.14 0 7.7 0 1.64 0 1.82.26 1.89 2 .05 1.22 0 2.45.05 3.67-1.35.06-2.7.17-4.05.17q-66.79 0-133.57 0c-1.36 0-2.71-.1-4.06-.16v-5.67c1.4-1.38 3.2-1.19 4.9-1.19q50.4 0 100.81 0c2.3-.04 4.64.71 6.95.47z" class="AG"/><path d="M609.5 48.73c.73 0 1.48.15 1.74 1 .21.63-.86.11-1.73-1z" fill="#9fc3f7"/><path d="M585.09 554.29a14.83 14.83 0 0 1-4.92 11.36 10.54 10.54 0 0 1-3.45 2.09c-5.42 2-10.6 1.29-15.61-1.35a22.23 22.23 0 0 1-10.37-11.63 16.1 16.1 0 0 1-.67-11.2c1.46-4.73 4.85-7.54 9.44-9.13s8.79-.37 12.89 1.47c6.66 3 10.39 8.49 12.4 15.3a15 15 0 0 1 .29 3.09z" class="AK"/><path d="M784.55 598.14l-.2-.71.11-3a4 4 0 0 1 3.58-3.64 24.17 24.17 0 0 1 3-.07q16.28 0 32.56 0l4.06-.14 8.88.28h33.71l4.07.12c-.1 2-1.4 3.58-2.19 5.33s-.81 1.72.83 3.24a4.13 4.13 0 0 1 .47.55 2.34 2.34 0 0 1-1.09 1 15.32 15.32 0 0 1-4.77.49q-33.9 0-67.82 0c-2 0-4 .17-5.74-1a31.24 31.24 0 0 0-4-.12 6 6 0 0 1-5.46-2.33z" class="AH"/><path d="M793.96 600.55l3.32-.14h72l3.32.13c-.3 3.63-3.31 5.47-5.69 7.15-8 5.72-16 11.87-26.39 12.94a71.4 71.4 0 0 0-9.55 1.19c-1 .16-2.42.26-2.61 1.64s.92 2 1.84 2.56a19.16 19.16 0 0 0 5.3 2.63c6.92 2 14 3.21 21.19 2.16 3.29-.48 6.38.36 9.51 1a52.8 52.8 0 0 0 10.59 1.64c5.83 0 7.49-1.64 7.54-7.45v-2.6c-.28-5.78.27-11.33 3.84-16.23a10.38 10.38 0 0 1 3.08-3.11 5.8 5.8 0 0 0 3.54-1.66c.77-.76 1.67-1.39 2.52-2.08a17 17 0 0 1 6.49-1.16q41 0 82.06 0a17.52 17.52 0 0 1 4.4.33c1.94.53 2.39 2.26 3.06 3.81 2.26 5.25 3.59 10.86 6.48 15.85a1.44 1.44 0 0 1-.56 1.1c-2.76 1.72-4.42.29-5.61-2.08a57.12 57.12 0 0 1-2.69-7.67c-1.51-4.54-2.5-5.3-7.17-5.31-27.65-.07-55.29.09-82.94-.09-6.05 0-8.51 4.36-10.85 8.7-1.91 3.54-3.19 7-1.08 11.45 2.34 4.95-3 13.7-9.93 13.4-5.36-.23-10.47-1.5-15.68-2.34-1.45-.23-2.87-.83-4.36-.65-11.65 1.39-23.28-1-34.92-.13-1.43.1-3 .16-4-1.26.59-1.49 1.89-.86 2.88-.87h14.7c-5.57.37-12.65-.23-19.78.49-7.68.78-15.44-.1-23.12-1.14l-.5-.48v-8.12c1.9-1.36 4.07-.63 6.12-.75 4-.23 8 .6 12 .34-5 .17-10-.62-15-.38a4 4 0 0 1-3.16-.74v-10.18a7.08 7.08 0 0 0-.73-3.87 2.6 2.6 0 0 0 .57-2q-.01-2.99-.03-6.02z" class="AG"/><path d="M908.35 590.77c.85-1.6 2.5-2.35 3.75-3.51l23.35-21.57c6.5-5.87 12.69-12.07 18.79-18.33 4.12-4.24 8-8.71 12-13.08a1.66 1.66 0 0 1 1.69 1.15c1.59 3.79 3.54 7.46 4 11.64a79.62 79.62 0 0 0-.08 16.26c.71 7.34 5.44 11.89 11.65 15.17 2.3 3.08 3.16 6.77 4.32 10.33.35 1.08.28 2.2-1.1 2.68a15.85 15.85 0 0 1-5.13.45q-33.63 0-67.25 0c-2.05-.01-4.23.41-5.99-1.19z"/><path d="M971.26 546.8l-4.07-11a8.49 8.49 0 0 0-1-1.52 54.64 54.64 0 0 0 8.48-14.55q3.39-8.94 7.37-17.64a21.71 21.71 0 0 1 4.83-7.33 5.68 5.68 0 0 1 6.41-1.36c2.52 1 5.06 1.86 7 3.91a4.71 4.71 0 0 1 .73.68 6.71 6.71 0 0 1 .85 1.27 17.5 17.5 0 0 1 2.29 7c.22 2.95-1.59 5.14-2.94 7.43l-22.23 38.3c-1 1.68-1.48 4.09-4.16 4.22-2.78-2.52-3.45-5.86-3.56-9.41z" class="AM"/><path d="M908.35 590.77l3.7.13h72.19l3.33-.1a12.32 12.32 0 0 1 3.6 9.64c-1.6 0-3.2-.07-4.8-.07h-85.76c-1.11 0-2.22 0-3.33-.06 3.64-3.23 7.19-6.57 11.07-9.54z" class="AH"/><path d="M840.58 619.8l5.36-1.19a31.69 31.69 0 0 0 9-4.1c3.33-2.06 6.78-3.94 10-6.21a34.54 34.54 0 0 0 7.73-7.77l.79-.38a23.14 23.14 0 0 0 11.6 3.34c2.09.09 4.17.39 6.26.59l-3.24 5.3a17.53 17.53 0 0 0-2.68 9.37c0 1.58-.05 3.17-.07 4.76-7.81 2.42-15.85 3-24 3.21a36.52 36.52 0 0 1-17.17-3.52c-1.56-.76-3.3-1.34-3.58-3.4z" class="AI"/><path d="M1061.87 518.14l-17 .1q-8.85 0-17.69 0c-1.47 0-2.94-.1-4.42-.16-8.14-3.76-13.52-10.53-18.87-17.34a1 1 0 0 1 .06-1.33 1.08 1.08 0 0 1 1.33-.29l13.13 5.83a207.38 207.38 0 0 0 24.58 8.84c4.6 1.38 9.28 2.25 13.93 3.31a19 19 0 0 0 2.93.27 2.32 2.32 0 0 1 2.02.77z" class="AM"/><path d="M1004 499.44a68.72 68.72 0 0 0 16.25 16.65l2.56 2-15.7.16c-2.55-2.29-2.53-5.58-3.27-8.55-.28-1.13-.06-2.38-.53-3.52a32.44 32.44 0 0 0-2.5-7.38l-.43-.86a.6.6 0 0 0-.11-.61c.94-.66 1.61 0 2.24.53a14.67 14.67 0 0 1 1.49 1.58z" class="AJ"/><path d="M1095.93 434.32a12.39 12.39 0 0 0 .39 2.12 2.08 2.08 0 0 0 2.18 1.55h5.46a2.65 2.65 0 0 1 2.34.7c-2 .3-4-.43-5.93.12-2.24.94-4.61.72-6.93.65-7.48-.23-15 .62-22.45-.46a3.26 3.26 0 0 1-.2-.27c2.49-2.28 3.7-5.55 6.15-7.85 2.19-.37 4.06.79 6.07 1.27a35.93 35.93 0 0 0 9.12 1.11 5 5 0 0 1 3.8 1.06z" fill="#333"/><path d="M1070.51 438.12c1.38.73 2.89.53 4.35.59 7.4.31 14.8.22 22.2 0 1.1 0 2.21.05 3.31.08l-1.48 1.42-33.27-.06-.72-2.6c1.97-.84 3.87-.93 5.61.57z" fill="#43558c"/><path d="M1079.64 297.13l-4.37.77a5.2 5.2 0 0 1-4.42-1.38 14.18 14.18 0 0 1-2.85-3.38 57.94 57.94 0 0 1-7.83-19.43c-1.23-6.16-.4-12.28 1.12-18.3a11.7 11.7 0 0 1 1.31-3c2.81-4.8 2.23-3.87 5.81-1.42a118.8 118.8 0 0 0 15.24 9.06 37.08 37.08 0 0 0 18.22 4h2.59a1.16 1.16 0 0 1 1.24 1.09c.62 4.49 1.94 9 .55 13.53a5.51 5.51 0 0 0-.25 2.53 87.65 87.65 0 0 0 3.32 14.77 16.38 16.38 0 0 0 4.3 7.22c-6.17 3.84-12.62 7-19.82 8.43a13.61 13.61 0 0 1-6.53-.12c-2.82-.78-4.85-2.29-5.59-5.24a2.76 2.76 0 0 1 2-1.56c8.25-2.63 13.25-8.65 16.92-16.29-5.49 4.86-12.09 7.12-18.83 9.09a2.09 2.09 0 0 1-2.13-.37z" class="AI"/><path d="M1087.77 422.29l8.65-4.09c3.39-1.45 6.83-2.76 10.15-4.4 2.31-1.14 4.7-2.13 7.06-3.18a59.39 59.39 0 0 0 6.38-3.69 17.82 17.82 0 0 0 7.41-8.93 51.16 51.16 0 0 0 2.61-9.95 39.59 39.59 0 0 0 .76-9.53 4.59 4.59 0 0 1 .6-2.48c.28-.53.83-.68 1.15-.23a22.8 22.8 0 0 1 1.85 2.75 49.47 49.47 0 0 0 3.54 5.61c.56.81 1.09 1.64 1.63 2.46 1.2 1.81 1.63 4 3.35 5.62 1.55 1.47 2.45 3.65 3.59 5.55 1.26 2.11 2.49 4.24 3.66 6.4a14.29 14.29 0 0 1 .86 2.43 1.15 1.15 0 0 1-.65 1.52 12.92 12.92 0 0 1-2.4.92c-6.76 1.75-13.66 2.94-20.44 4.59-8.46 2-17.09 3.48-25.29 6.56-2.17.82-4.48 1.5-5.63 3.85a8.66 8.66 0 0 1-8.84-1.78z" fill="#333"/><path d="M1087.77 422.29l8.84 1.78c-1 3.36-.68 6.82-.68 10.25a36.36 36.36 0 0 1-16.14-2.1 27.57 27.57 0 0 0-3.16-.8c-3.21 0-6.08.65-8.52 3.08-1.69 1.68-3.51 1.18-4.75-.93-1-.73-.94-2-1.54-3l.49-.47a5.44 5.44 0 0 0-.49.47 6.89 6.89 0 0 1-1.48-3.7 2.2 2.2 0 0 0 2.71.18c3-1.49 6-2.84 9-4.3 2.49-1.22 4.95-2 7.83-1.31a28.91 28.91 0 0 0 5.53.3 5.67 5.67 0 0 0 1.52.45z" class="AI"/><path d="M1079.64 297.13c4.46-1.37 9-2.58 13.16-4.72a28.8 28.8 0 0 0 6.5-4.17 3.73 3.73 0 0 1 2.14-1c.48 1.14-.23 2.17-.68 2.94-1.9 3.29-3.81 6.56-6.64 9.25a24.69 24.69 0 0 1-9.63 5.88l-2.81.92a.66.66 0 0 1-.5-.23 35.4 35.4 0 0 0-1.54-8.87z" fill="#ed975e"/><path d="M1086.95 422.22a1.44 1.44 0 0 1-1.52-.45 1.59 1.59 0 0 1 1.52.45z" fill="#ebf3fe"/><path d="M999.58 619.67a1.78 1.78 0 0 0 .06-.65 1.72 1.72 0 0 1 2.31-.22c3.33 6.53 4.26 13.79 6.37 20.69a44.38 44.38 0 0 1 2 12.33c0 .93.42 2-.73 2.61q-87 0-174.09 0a39.91 39.91 0 0 0-6.57.72c-1.18-1-2.6-.6-3.92-.61h-33.34-2.59c-3.17-.13-4.69-1.75-4.66-4.92 0-3 1.53-4.54 4.51-4.67 1.73-.08 3.45-.11 5.18-.16 2.1-1.5 4.52-1 6.83-1q91.2 0 182.39 0h2.6c8.24 0 10.47-1.93 12.13-10.07.97-4.71.63-9.44 1.52-14.05z" class="AH"/><path d="M1009.62 654.44c-.25-7.9-2.45-15.42-4.54-23l-3.39-12.38c.68-1.06 1.84-1.08 2.9-1.26a43.42 43.42 0 0 0 11.15-3.27c1-.46 2-.91 3.13-.34l2.86 8.73c.6 1.73 1.35 3.41 2 5.12a11.9 11.9 0 0 0 7.93 7.1 19.56 19.56 0 0 1 5.74 2.39 2.57 2.57 0 0 1-.31 2.13c-4.57 7.7-8.33 15.9-14 23a40.14 40.14 0 0 1-14.72 11.39c-.94.44-1.92 1.25-3.06.37.28-1.37 1.2-2.4 1.82-3.59 1.47-2.84 2.87-5.73 2.66-9.07a24.55 24.55 0 0 0-.17-7.32z" class="AI"/><path d="M1018.87 614.22a5.09 5.09 0 0 0-1 .35 35.87 35.87 0 0 1-16.14 4.52l-2-.07a2.16 2.16 0 0 1-2.17-1.64l-3.06-8.29-3.23-8.62q-1.8-4.85-3.61-9.67-2.26-6-4.52-12c-1.56-1.06-1.89-2.83-2.52-4.42-1.9-4.83-3.66-9.71-5.37-14.61-.44-1.25-1.22-2.5-.2-3.84a5.79 5.79 0 0 0 1.35-1.19l8.64-14.94 9.63-16.5 8.1-14c.62-1 .45-2.13.63-3.2 1.43 2.7 1.82 5.74 2.78 8.59.39 1.14.68 2.32 1 3.48a94.78 94.78 0 0 0 2.76 11c.08 3.11 1 6.06 1.64 9.07 2.63 13.3 4.78 26.68 6.64 40.11a11.25 11.25 0 0 0 .54 1.74c-.12 3.34.68 6.58 1 9.87a3 3 0 0 0 .49 1c-.1 4.57.75 9 1.27 13.55.29 2.56.24 5.15.34 7.73-1.05.63-2.24.98-2.99 1.98z" class="AL"/><path d="M1157.55 544.7a2.47 2.47 0 0 1 .6 1.71v15.57c0 1-.51 1.3-1.45.88l-8.43-3.82a5.15 5.15 0 0 0-5.24-.07c-2.39 1.28-4.93 2.3-7.41 3.39a3.49 3.49 0 0 1-2.08.62c-.78-.49-.55-1.29-.55-2q0-5.57 0-11.12a14.92 14.92 0 0 0-.81-5.82c2.39-1 4.87-.32 7.3-.37 6.07-.11 12.05.84 18.07 1.03z" class="AJ"/><path d="M1157.55 544.7a2.42 2.42 0 0 1-2.32.81c-3-.14-6.11.28-9.16-.55-1.61-.43-3.42-.14-5.14-.15s-3.44 0-5.16 0a7 7 0 0 1-3.56-.74c-1.33-1.65-2.53-3.42-4.48-4.44a1 1 0 0 1 1.13-1.1c8 .16 16.12-.48 24.16.34h0l2.23 1.48c.92 1.38 2.2 2.55 2.3 4.35z" fill="#0771ae"/><path d="M1153.02 538.87l-22.21.05c-1.05 0-2.26-.4-3.08.71-.36-.05-.74-.11-.81-.53a.66.66 0 0 1 .3-.57 6.06 6.06 0 0 1 1.75-.39h22.08a2.19 2.19 0 0 1 1.97.73z" fill="#f6d6bd"/><path d="M993.17 399.44a6.49 6.49 0 0 1 5.85 6.41 3.31 3.31 0 0 1-3.2 3.35 6.82 6.82 0 0 1-7-5.7c-.39-2.59 1.49-4.34 4.35-4.06z" fill="#fffefd"/><path d="M1063.36 433.57c.36 0 .93 0 1 .18.9 1.57 2 1 3 .3a5.83 5.83 0 0 0 1.62-1.46c1.51-2.17 3.61-2.29 5.88-1.85a8.42 8.42 0 0 1 1.69.68l-2 4.76a2.28 2.28 0 0 1-2.7 1.83 9.18 9.18 0 0 0-1.47.11 28 28 0 0 1-5.62-.54 12.21 12.21 0 0 1-1.4-4.01z" fill="#555"/><path d="M1005.37 674.44a39.64 39.64 0 0 0 17.33-12.64 83.62 83.62 0 0 0 8-12.38l6.77-11.82a18.32 18.32 0 0 1 5.12 3.52 6.11 6.11 0 0 1 1.46 8.24 11.35 11.35 0 0 1-2.89 3.75 27.23 27.23 0 0 1-5.27 5.18l-4.39 3.67a50.57 50.57 0 0 0-5.94 7.48 58.64 58.64 0 0 1-12.78 13.71 25.42 25.42 0 0 1-7.69 4.3 10.24 10.24 0 0 1-5.08.47 1.32 1.32 0 0 1-1.12-1.61 6.12 6.12 0 0 1 .42-1.4 47.06 47.06 0 0 1 6.06-10.47z" class="AM"/><path d="M1187.82 673.82a12 12 0 0 1 .57 2.51v13.27a.79.79 0 0 1-1.24.75l-5.38-3.21s-3-1.34-4.66 0a41.69 41.69 0 0 1-4.4 2.69 2 2 0 0 1-1.7.44c-.53-.63-.33-1.39-.33-2.1q0-3.87 0-7.74a32.43 32.43 0 0 0-.45-6.6c5.94-1.94 11.75-1.58 17.59-.01z" class="AH"/><path d="M1187.82 673.82c-.23.08-.47.25-.69.23-5.61-.48-11.24-.1-16.86-.26a21.19 21.19 0 0 0-2.68-4.32c-.58-.77-.25-1.36.79-1.38h10.22c1.58 0 3.16-.06 4.74-.09.58.56 1.58-.07 2.08.74 1.06 1.54 2.39 3 2.4 5.08z" fill="#081f65"/><path d="M1185.42 668.7a3.56 3.56 0 0 1-2.08-.74l26.23-.08q11.08 0 22.17 0a18.44 18.44 0 0 1 2.58.1c.7.11.9.75 1 1.38h0c-2.94-.06-5.92.29-8.8-.66a4.85 4.85 0 0 0-1.48 0h-38.51c-.36-.06-.74-.02-1.11 0z" fill="#f5d6be"/><path d="M1235.35 680.5h-18.12a10.48 10.48 0 0 1-1.48-.07c-.18 0-.45-.25-.46-.41a.75.75 0 0 1 .3-.59 2.56 2.56 0 0 1 1.75-.4q7.95 0 15.9 0c1.1 0 2 .22 2.11 1.51z" fill="#f7dbc4"/><path d="M1035.85 658.25a20.28 20.28 0 0 1 5.27-5.18v1.41c-1.28.59-2.06 1.73-3 2.65a3.24 3.24 0 0 1-2.27 1.12z" fill="#3f4c76"/><path d="M558.48 613.83c.09 5.18-.85 10.28-1.15 15.43-.21 3.43-.76 6.84-1.08 10.26l-1 12.13c-.11 1.22-.42 2.42-.63 3.62-1.36 1.73-3.4 1.87-5.32 2.23q-60.9 11.31-121.75 22.88c-5.49 1-5.79.71-4.95-5.11.1-2.58-.18-5.18.63-7.71a8 8 0 0 0 .12-2.2c.07-2.21-.15-4.45.64-6.59a1 1 0 0 0 0-.37c-.28-4.2.85-8.31.82-12.5v-1.48c.14-3.18.7-3.94 3.68-4.57 2.76-.59 5.54-1.07 8.31-1.62l20.22-4q14.15-2.79 28.22-5.71l27.76-5.71 24.21-4.71 19.43-4.15a12.46 12.46 0 0 1 1.84-.12z" class="AG"/><path d="M422.62 675.27v4.47c2.61.5 4.82-.46 7-.85 5.8-1 11.53-2.32 17.31-3.42l17.37-3.13 9-1.7 11.57-2.06 8.31-1.6 14.43-2.82 13.72-2.62 18.44-3.34 14.79-2.93-.09 2.25c-.75 1.72.14 3.62-.57 5.34.08 5.8-.76 11.53-1.21 17.29-.52 6.76 2 11.73 8.2 14.62 1.77.83 3.67 1.39 5.51 2.07-.87 1-2 .67-3.13.68h-16.66-92.84-17.72a13.59 13.59 0 0 1-9.89-4.23 9.09 9.09 0 0 1-1.66-2.41 27.43 27.43 0 0 1-2.45-14.69c.02-.33.37-.62.57-.92z" class="AP"/><path d="M152 629.33l1.49 1.87c.34.41.45.78-.06 1.13-4.33-.32-8.56.63-12.82 1.15-2.92.36-5.84.77-8.78 1a14.73 14.73 0 0 0-4 .79 1.19 1.19 0 0 0-.93 1.38 1.64 1.64 0 0 0 1.47 1.42.65.65 0 0 0 .36 0c2.45-1 5.11-.5 7.65-1.11a59.43 59.43 0 0 1 8.77-1 14.07 14.07 0 0 0 3.29-.43 6.68 6.68 0 0 1 2.18-.29 4.62 4.62 0 0 1 5 4.4 31.35 31.35 0 0 1 .08 4.44c-.08 2.7-1.63 4.17-4.38 4.49-3.29.38-6.56.92-9.84 1.32-2.8.35-5.62.56-8.42.9l-9.85 1.27c-1.59.18-3.21.09-4.8.24-3.09.3-4.53-1.82-4.85-4-.28-1.94-.68-3.89-.78-5.83a8.46 8.46 0 0 1 4.39-8 17.81 17.81 0 0 1 7.73-2.22c3.54-.36 7.07-.81 10.58-1.32 2.07-.29 4.23.15 6.21-.77 3.48.15 6.83-1.18 10.31-.83z" class="AJ"/><path d="M470.83 191.12c.15-.78.46-1.42 1.38-1.46l3.33-.05h55.24a14.89 14.89 0 0 0 5.13-.5 9.17 9.17 0 0 1 2.93-.22h113.44c2 .07 2.21.16 2.8 2.22l1.85 7.14 6.41 24.24 2.84 11.46 6 22.45 7.14 27.87q4.65 17.28 9 34.62l8 30.69 6.19 23.16 7.15 27.86 9 34.63c2.14 8.59 4.53 17.11 6.81 25.67.07.23.19.46.24.7a1.21 1.21 0 0 1-1.1 1.57c-1 .07-2 .07-3 .07h-64.07a17.49 17.49 0 0 0-4.76.46 14.66 14.66 0 0 1-4 .26q-50.24 0-100.47 0h-39.34c-3.85 0-3.83 0-4.9-3.81-3.18-11.24-6-22.57-8.87-33.89l-6.9-26-5.7-22.14-9-34.26-8.85-33.9-8.94-34.26-8.11-31.05c-1.7-6.79-3.62-13.54-5.51-20.29a14.21 14.21 0 0 1-.28-3.67c1.48-1.19 3.25-1 5-1h25.48c4 0 4.35-.46 3.41-4.28q-2.37-9.69-5-19.31c-.42-1.66-1.23-3.34.03-4.98z" class="AG"/><path d="M415.96 443.44c-4.55-.32-9.11-.55-13.68-.42-3.74 1.18-7.66.86-11.37.44-8-.91-16 0-24-1.16-3.27-1.5-6.72-1-10.11-.79-1.14.07-2.17.26-3.09-.55a3 3 0 0 0-2 0c-3.67-.7-7.38-.1-11.06-.32-1.33-.08-2.72.35-4-.36a5.12 5.12 0 0 0-2.72-.06c-2.23-.43-2.6-1.74-1.71-3.64a.4.4 0 0 0 .05-.53c.74-1.22-.15-2.71.68-3.92a.45.45 0 0 0 .06-.56c.75-1.2-.14-2.69.67-3.88a.51.51 0 0 0 .06-.6c.75-1.19-.49-2.73.67-3.85a.54.54 0 0 0 .06-.62c.45-3 .05-6.18 1.49-9a.28.28 0 0 0 0-.45c.7-1.25-.17-2.77.69-4a.35.35 0 0 0 0-.5c.72-1.23-.17-2.74.68-3.95a.4.4 0 0 0 0-.53c.74-1.21-.14-2.71.68-3.91.93-1.83.7-3.87 1-5.81a32.26 32.26 0 0 0 13.45-5.03 16 16 0 0 0 5.33-5.49c1.92-3.56.73-5.89-3.29-6.46-3.51-.5-7-1.19-10.6-.61a2 2 0 0 1-2-.52c1-1.64.94-3.56 1.25-5.35l5.25-32.05c.17-1.1.24-2.21.36-3.31.32-1-.19-2.29 1.17-2.85 5.47-1 11-.68 16.48-.25a90.11 90.11 0 0 0 11.73.3c11.28 1.2 22.61 1.28 33.92 1.73 3.35.07 6.78-.53 9.86 1.41 2.79.57 5.62.28 8.43.45.73 0 1.47 0 2.2.06 1.89.12 2.21.41 2 2.19-.25 2.19-.6 4.36-1 6.54l-2.16 12.66c-.74 1.66-2.06 1-3.2.73-3.26-.67-6.5-1.51-9.81-1.87-4.67-.52-6.55 1.8-4.91 6.24 2.17 5.91 6.92 9.43 12.22 12.32 1.16.63 2.63.82 3.2 2.29-.32 4.68-.55 9.36-2.63 13.7-1 1.92-.91 4.08-1.25 6.12l-6.25 38.65-1 5.81a1.83 1.83 0 0 1-1.8 1.56z" class="AJ"/><path d="M751.95 364.61h-28.9c-2 0-2.58.08-3.31-2.4-1.72-5.78-3-11.68-4.52-17.49l-6-22.44-7.11-27.85c-.52-2-1.18-4-1.7-6s-.24-2.3 1.9-2.37h1.85 56c3 .06 3 .06 3.72 2.89l5.86 22.47 9.15 34.94c1.47 5.59 2.67 11.25 4.47 16.75.31 1 0 1.44-1 1.49s-2 0-3 0h-27.41zm31.69 97.88h-21.12a12.59 12.59 0 0 0-4.39.47 8.05 8.05 0 0 1-2.56.25h-6.67c-2.94 0-2.73-.15-3.49-2.79-1.57-5.43-2.83-10.94-4.27-16.41l-6.69-25.31-6.4-25c-.58-2.26-1.36-4.47-2-6.73-.41-1.57.18-2.26 1.87-2.34h2.59 28.16c2.83 0 5.69.35 8.44-.65a3.41 3.41 0 0 1 1.11-.06H786a3.11 3.11 0 0 1 3.3 2.37c.24.7.3 1.45.49 2.16l5.92 22.84 9 34.24 3.81 14.63c.51 2 .24 2.3-1.91 2.37h-2.6zm-83.98-273.62h20a18.26 18.26 0 0 0 5.49-.53 15.09 15.09 0 0 1 4-.19h5.55c3 0 2.77.13 3.54 2.73 1.45 4.95 2.61 10 3.93 15l7.15 27.08 3.22 12.87 4.76 17.81c.1.35.26.69.33 1.05.25 1.22-.27 2-1.45 2.05-1 .06-2 0-3 0h-33.61a12.86 12.86 0 0 0-4.4.44 7.72 7.72 0 0 1-2.55.27H697.8c-3 0-2.76-.13-3.53-2.73-1.44-4.83-2.59-9.74-3.88-14.61l-6.5-24.58-3.93-15.73-4.75-17.81c-.1-.36-.26-.7-.33-1.06-.25-1.21.26-2 1.45-2 1-.07 2 0 3 0z" class="AG"/><path d="M421.89 336.01l-9.68-.33a11.81 11.81 0 0 0-6.69-1.76c-6.65.2-13.23-.9-19.87-.86-1.83 0-3.72.12-5.28-1.16-5-11.88-9.55-23.89-11.69-36.69.64-4.07-.5-8-.72-12.08-.37-6.73-1.12-13.45-1.45-20.19-.06-1.21-.45-2.46.51-3.52 2.95 1.23 6 2.27 8.82 3.73 6.25 3.21 12.49 6.43 18.42 10.23a79.35 79.35 0 0 1 9.22 6.8 20.87 20.87 0 0 1 6.47 9.7c2.41 7.64 4.49 15.37 6.43 23.14l5.51 22.99z" class="AH"/><path d="M327.38 239.79a17.34 17.34 0 0 1-8.89-5.68 17.87 17.87 0 0 1-1.2-1.41c-6.54-8.89-11.11-18.65-12.18-29.73a22.09 22.09 0 0 1 8.51-20.24 38.22 38.22 0 0 1 18.06-8 33 33 0 0 1 11.77-.18 24.86 24.86 0 0 1 8 2.82c5.47 3.17 10.51 6.89 14.44 11.94.68.88 1.5 1.64 2.23 2.47a21.48 21.48 0 0 1 1.87 2.29c1.52 2.3 1.17 4.19-1 5.73-.9.63-1.9 1.12-2.86 1.68-2.14 2.37-5.07 2.29-7.88 2.41-3.69.16-7.38-.1-11.07.67-4.11.87-6.52 3.2-7.42 7.26-.51 2.28-.76 4.65-2.07 6.69-2 3.09-4.62 3.58-7.47 1.4-1.39-1.07-2.71-3.28-4.65-1.55-1.73 1.54-1 4 .12 5.47 3.23 4.15 3.09 9 3.41 13.76a2.86 2.86 0 0 1-.42 2.11h-1.19z" class="AM"/><path d="M328.62 239.74a24.82 24.82 0 0 1-1.14-8.73 5.72 5.72 0 0 0-1.5-4.41 9.59 9.59 0 0 1-2.35-5.71c-.19-1.63-.06-3.32 1.6-4.21s3.09.08 4.32 1.15c.64.56 1.09 1.34 1.7 1.94a2.66 2.66 0 0 0 3.69.28 7.4 7.4 0 0 0 3.11-4.84l.78-4c1-4.63 3.27-6.77 7.87-7.63a34.85 34.85 0 0 1 7.35-.53 37.59 37.59 0 0 0 12-1.55l1.48 11a42.73 42.73 0 0 1 .23 4.8v10.74a45.48 45.48 0 0 1-1.52 10.57 15.35 15.35 0 0 1-.88 2.43 5.19 5.19 0 0 1-4.34 3.54 11.64 11.64 0 0 0-2.1.67 39.73 39.73 0 0 1-24.36-1.52c-.46-.27-.21.63-.19.14 0-.13.13-.17.36-.06a37.7 37.7 0 0 0 19.95 4.11 5.21 5.21 0 0 1 4.19 1c.71 1.21.57 2.59.79 3.9a23.22 23.22 0 0 1 2 7.85 24.17 24.17 0 0 0-.39 3.6 8.1 8.1 0 0 1-7.66 6.89c-6.36.65-12.79 1-19-1.3a2.66 2.66 0 0 1-1.57-1.47c-1.62-5.62-4.31-10.83-6.15-16.37l2.07-8.81c.3-1.17.54-2.39-.34-3.47z" class="AI"/><path d="M470.83 191.12a68.57 68.57 0 0 0 2.07 8.6l5 18.92a1.36 1.36 0 0 1-1.12 1.91 16.28 16.28 0 0 1-2.21.12h-32.62a3 3 0 0 1 1.22-2.23c5-4.84 9.53-10.19 14.31-15.27l12.3-13z" fill="#accbf9"/><path d="M284.07 412.02c1.12-1.12.44-2.59.73-3.88a1.32 1.32 0 0 1 1.22-1.18l2.58-.08h12.57c2 0 4 .15 5.86-.59a5.05 5.05 0 0 1 1.83-.14c3.84.08 7.55-.8 11.32-1.27s7.51-1.19 11.28-1.72c1.33-.18 2.65-.47 4-.66a.6.6 0 0 1 .52.34.72.72 0 0 1-.22.63 159 159 0 0 1-14.36 7.63c-3 1.35-6.09 2.66-9.18 3.89a157.36 157.36 0 0 1-20.3 6.76c-2.62.64-5.21 1.38-7.82 2.08-.86-1.47-.52-3-.23-4.52a43.21 43.21 0 0 1 .2-7.29zm42.86-159.99a19.08 19.08 0 0 1 3.72 6.67l2.94 8.65c.2.57.23 1.2.74 1.63a7.39 7.39 0 0 1 2 3.9c2.25 8.6 4.09 17.29 6 26 .35 1.64 1 3.38-.34 4.94a3 3 0 0 1-1.57-1.48l-6.38-11.26-12.65-21.71c-1.36-2.34-2.58-4.77-4-7.08a3.68 3.68 0 0 1 0-3.85c.88-.62 1.78-1.21 2.62-1.88a35.43 35.43 0 0 1 6.92-4.53z" class="AN"/><path d="M428.36 377.18a19.57 19.57 0 0 1-8.63-4.65 26.14 26.14 0 0 1-4.88-4.92 16.62 16.62 0 0 1-2.77-5.93 6.24 6.24 0 0 1 .23-3.57 3.42 3.42 0 0 1 3.31-2.42c2.75-.23 5.36.52 8 1a60.66 60.66 0 0 1 6 1.49 2.34 2.34 0 0 0 1.75-.24c.24 2 .94 4 1 6.11a30.29 30.29 0 0 1-1.85 12.2c-.43.85-.96 1.66-2.16.93z" class="AI"/><path d="M360.92 260.84l-.86-3.79a10.77 10.77 0 0 1-.36-4.22 15.21 15.21 0 0 1 4.85 3.87l2.47 2.72a27.85 27.85 0 0 1 .75 8.72c-.09 2.35.95 4.52.8 6.9a15 15 0 0 0 .53 6.54 5.79 5.79 0 0 1 .15 1.83c.07 2.8-.12 5.59.64 8.38a4.16 4.16 0 0 1-.49 3.87 3.38 3.38 0 0 1-1.81-2.64c-2-9.4-4.59-18.67-6.46-28.1.2-1.37-.53-2.7-.21-4.08z" class="AN"/><path d="M358.91 248.93h-9.23c-6.41.11-11.9-2.32-17-5.91.32-.9.78-.47 1.17-.35l6 1.78c3 .92 6.07.75 9.14.76h10c-.05 1.23-.07 2.49-.08 3.72z" fill="#e3925b"/><path d="M728.38 174.12a4.53 4.53 0 0 1 .302-9.052 4.53 4.53 0 0 1 4.488 4.462 4.63 4.63 0 0 1-4.79 4.59z" fill="#f9994a"/><path d="M428.36 377.18l2.23-1 1.29 8.32a16.2 16.2 0 0 1 .26 2.18 3.81 3.81 0 0 1-2.63 4 7.7 7.7 0 0 1-3.21.63 23.16 23.16 0 0 1 .7-5.81l1.36-8.32z" fill="#304a8c"/><path d="M283.17 439.96l.07 11.81c0 1.11-.07 2.23 1.37 2.67.76.23 1 1 1.32 1.68.7 1.83 0 3.07-2 3.37a12 12 0 0 1-1.47 0c-.14-6.18.15-12.34.43-18.51a3.87 3.87 0 0 1 .28-1.02zm.71-20.66l.23 4.52-.12 8a3 3 0 0 0 1.24 2.83c1.29.91 1.19 2.33.71 3.63s-1.68 1.21-2.78 1.22l.26-16.22c.03-1.33-.2-2.71.46-3.98z" class="AL"/><path d="M327.38 239.78l.03-.13.03.12-.06.01z" class="AI"/><path d="M169.83 144.01c0 2.91-2.07 4.53-4.88 3.83a6.83 6.83 0 0 1-5.57-6.47c-.07-2.4 1.56-4 4.32-3.95a6.28 6.28 0 0 1 6.13 6.59zm36.34.06c0 2.88-2.09 4.47-4.9 3.76-3.54-.9-5.7-3.56-5.52-6.82a3.22 3.22 0 0 1 3.22-3.33c4.32-.37 7.2 2.21 7.2 6.39zm-25-6.4c3.6-.41 6.37 3.53 6.42 6.24 0 2.28-2.48 4.51-4.68 4-2.9-.71-5.05-2.31-5.93-5.35s.46-4.77 3.49-4.86z" fill="#e8f2fd"/><path d="M361.79 264.49q2.24 9.13 4.48 18.27 1.57 6.45 3.13 12.9a28.57 28.57 0 0 0 1.71 7.12q4.74 14.34 9.54 28.65c-.32 1.34-1.38 1.8-2.54 2.16a3.79 3.79 0 0 1-2.08.6l-7.7-.29c-6-.53-12-.41-18-.61a5.22 5.22 0 0 0-1.07.22c-.26.33-.51.31-.76 0l-1.06-6.16c-1-6.66-2.81-13.17-4.46-19.7-.32-1.28-.18-2.72-1.08-3.84-.13-3.46-1.13-6.77-1.83-10.12-1.62-7.68-3.35-15.34-5.51-22.89a12.12 12.12 0 0 1-.24-1.81 53.31 53.31 0 0 0 16.85 1.45 15 15 0 0 0 3.64-.54c3.1-.93 5.13-2.8 5.7-6.08.76-.45.93.29 1.28.67zm5.38 177.07c1.7-.46 3.4 0 5.1 0l27.15 1a7 7 0 0 1 2.87.46l2.11 18.31c.27 1.93-.48 2.66-2 3.22l-10.34 2.34c-6.56 1.45-13.24 2.18-19.89 3.12-3 .87-3.57-.13-4.22-3.26-1.35-6.48.34-13-.86-19.34a2.61 2.61 0 0 0 0-2c-1-1.3-1.24-2.59.08-3.85z" class="AG"/><path d="M309.17 326.09a10.33 10.33 0 0 1 0 1.35c-.34 5 .94 9.75 1.75 14.59a58 58 0 0 0 4.65 14.41 36.17 36.17 0 0 0 7.74 11.61 52.78 52.78 0 0 0 6.59 5.91.74.74 0 0 1 .19.65.63.63 0 0 1-.54.31c-8.22-1.44-16.44-2.86-24.31-5.77a17.21 17.21 0 0 1-7-4.7 4.92 4.92 0 0 1-1.26-4.7c.64-3.11.93-6.29 1.7-9.4a49.08 49.08 0 0 1 2.89-8.35q2.43-5.38 4.55-10.9a15 15 0 0 1 3.05-5.01z" class="AN"/><path d="M341.87 376.38a21.77 21.77 0 0 1 10.52-.05c1.52.39 3.15 0 4.7.65 2.24.89 2.46 1.08 2.57 3.38a7.32 7.32 0 0 1-1.36 4.81 21.5 21.5 0 0 1-7.13 6.27 39.3 39.3 0 0 1-8.16 3.3 4.61 4.61 0 0 1-3.84-.3 6.25 6.25 0 0 1-1.63-4.34 24.84 24.84 0 0 1 2-11.06c.45-1.18.98-2.31 2.33-2.66z" class="AI"/><path d="M367.1 447.44c.61 1.28.42 2.66.49 4l.94 17.37a4.77 4.77 0 0 0 .33 1.09l3.32.14c-1 1-2.4.48-3.6.69-1.07-.81-.83-2-.78-3 .08-1.59-.19-2.89-1.87-3.55a3 3 0 0 1-1.08-.95c-.86-1.05-.77-2.15.52-2.65s1.69-1.49 1.68-2.82l.05-10.32zm.07-5.88l-.1 3.87a4.22 4.22 0 0 1-2.06-.69 1.34 1.34 0 0 1-.81-1.49c.27-1.12-.1-1.59-1.26-1.54h-3.67a3.33 3.33 0 0 0-3.12 1.44c-.61.78-1.24.63-1.75-.14a3.88 3.88 0 0 1-.7-2.05l12.08.2a5.73 5.73 0 0 1 1.39.4zm-31.23-28.03a32.28 32.28 0 0 1-1.49 9c0-1.59 0-3.09-1.69-4.09a1.25 1.25 0 0 1 .17-2.12c1.5-.46 2.17-1.68 3.01-2.79zm.69 26.7l13.66.27a5.71 5.71 0 0 1 1.4.41l-12.74.07c-.85 0-1.72.05-2.32-.75zm-2.24-17.04a6.28 6.28 0 0 1-.67 3.85 2.42 2.42 0 0 0-.14-.67c-.32-.6-1-1.18-1-1.74.07-.9 1.13-1.04 1.81-1.44zm-2.22 13.34a4.12 4.12 0 0 1 0 1c-.37 1.49.49 2.15 1.69 2.59-.81 0-1.83.31-2.22-.68a2.35 2.35 0 0 1 .53-2.91zm.76-4.45a6.43 6.43 0 0 1-.68 3.92c.1-1.33-.57-2.79.68-3.92zm5.24-31.88a6.38 6.38 0 0 1-.68 3.91c.05-1.32-.62-2.78.68-3.91zm-1.51 8.89c0 1.37.12 2.75-.69 4 .09-1.37-.6-2.86.69-4zm-3 18.55a6.37 6.37 0 0 1-.67 3.88c.1-1.31-.56-2.76.67-3.88zm3.73-23a6.59 6.59 0 0 1-.68 3.95c.09-1.34-.54-2.81.68-3.95z" class="AL"/><path d="M348.51 333.5h.76a2.79 2.79 0 0 1-.54 2.16 3.59 3.59 0 0 1-.22-2.16z" fill="#e0c7b6"/><path d="M999.58 619.67c.13.2.37.4.38.61a49.76 49.76 0 0 1-.92 14.71 25.61 25.61 0 0 1-3.65 8.05 3.29 3.29 0 0 1-3.31 1.86c-.86-.08-1.73 0-2.59 0H798.58c-1.48 0-3-.09-4.44-.14v-10.22l.53-.49a7 7 0 0 1 3.58-.62c6.48 0 13 .59 19.45.38a3.22 3.22 0 0 1 2.4.72h25.94c1.6 0 3.14-.08 4.58 1a3.42 3.42 0 0 0 3.87-.07c2.3-1.36 4.8-.85 7.24-.9a1.09 1.09 0 0 1 .71.14c1.88 1.66 4.17 1.22 6.36 1.33a2.93 2.93 0 0 1 1.43.28c2.24 1.45 4.74 1.16 7.2 1.18a10.27 10.27 0 0 1 1.11 0c4.33.54 7-1.51 8.49-5.42 1.59-1.6 1.27-3.63 1.3-5.59a3 3 0 0 0-1.19-2.93c-1.31-.83-1-2.14-1-3.34s-.07-2.23 1.09-2.94a2 2 0 0 0 1.08-1.84c-.12-2.21 1.37-3.61 2.5-5.19.49-.7 1.48-1.23 1.63-2 .44-2.06 1.93-2.64 3.61-3.22 1.47-.51 2.7-1.61 4.53-1a12.87 12.87 0 0 0 3.68.1h79.68a20.54 20.54 0 0 0 2.22 0 3.76 3.76 0 0 1 4.37 2.53 21.72 21.72 0 0 1 1.84 4.73 30.12 30.12 0 0 0 2.47 6.9c1 2.28 1.24 2.27 3.7 1.61a10 10 0 0 1 1.04-.22z" class="AG"/><path d="M794.17 622.63h7.4a15 15 0 0 1 5.11.53 9.83 9.83 0 0 0 2.94.19h4.44c-1.28.39-.44.07-.73.47a.48.48 0 0 1-.31.2l-2.58.07h-16.28l.01-1.46z" class="AQ"/><path d="M553.98 662.86l-.08-3.68a2 2 0 0 1 .65-1.66c.07 1.81.28 3.63-.57 5.34z" fill="#fa9746"/><path d="M794.17 634.52c-.91-1.12-.91-1.13 0-2.24h0a1.58 1.58 0 0 1 0 2.17z" fill="#fcecdc"/><path d="M840.58 619.8c3.31 2.72 7.31 4 11.35 5 5.93 1.51 11.94 1.12 18 .44 5.12-.59 10.18-1.7 15.37-1.73a20.83 20.83 0 0 1 .09 5.9 5.18 5.18 0 0 1-3.75 4.58 12.18 12.18 0 0 1-3.64.56 39.3 39.3 0 0 1-9.16-1.1c-1.33-.25-2.63-.67-4-.94a30.27 30.27 0 0 0-9.17-.56 52.06 52.06 0 0 1-20.47-2.27 20.55 20.55 0 0 1-5.33-2.54 10.89 10.89 0 0 1-2.73-2.47c-1.24-1.64-1-2.78 1-3.26a48.23 48.23 0 0 1 12.44-1.61z" fill="#243863"/><path d="M794.17 634.49v-2.18h7.75a7 7 0 0 1 2.2.1c2.65.88 5.36.59 8 .6l25.47.05a7.59 7.59 0 0 1 3.31.29c-1 .7-2 .4-3 .41h-15.14c-1 0-2-.19-2.73.72z" class="AQ"/><path d="M974.96 555.98a9.53 9.53 0 0 0 1 3.5l7 19.37c-7.52-2.48-11.42-8-12.17-15.56-.5-5.12-.09-10.33-.06-15.5a3.08 3.08 0 0 1 .44-1c1.45 3.02 2.18 6.28 3.79 9.19z" fill="#fae9d9"/><path d="M1000.38 497.92a.67.67 0 0 1 .43.86.79.79 0 0 1-.43-.86z" class="AL"/><path d="M1061.82 430.6c.06-.72 0-1.51 1.11-1.45a.91.91 0 0 1 .62.26c.08.13 0 .45-.13.61a1.58 1.58 0 0 1-1.6.58z" fill="#fdf4eb"/><path d="M593.94 377.93h58.23 3c1.4.06 1.62.27 2 1.67.31 1.11 0 1.78-1 1.88a24.62 24.62 0 0 1-2.58.09l-119.36.1H532c-1.32-.1-1.87-.85-1.72-2.27a1.23 1.23 0 0 1 1.12-1.25l3.33-.11h59.31zm-25.22-91.15h-58.55-3c-1 0-1.51-.67-1.83-1.54-.26-.68 0-1.37.67-1.39 2.47-.06 4.85-.74 7.34-.73q57.09 0 114.17-.06a28.43 28.43 0 0 1 3.33.11 1.83 1.83 0 0 1 1.56 1.81 1.29 1.29 0 0 1-1.07 1.63l-3.33.11h-59.29z" class="AR"/><path d="M581.52 370.54h-49.64c-1.11 0-2.22 0-3.33-.08-.91-.07-1.32-.71-1.34-1.87s.43-1.61 1.5-1.68 2 0 3 0l117.79-.09h3c1 0 1.68.62 2 1.86a.82.82 0 0 1-.7 1.07 14.88 14.88 0 0 1-2.21.11h-7.78c-3.2.06-6.41-.28-9.58.52a12.68 12.68 0 0 1-3 .06h-49.71zm-48.53 19.62c1-.68 2.15-.38 3.23-.38h23.34a17.74 17.74 0 0 0 4.41-.37 14 14 0 0 1 3.31-.21l88.56-.08h2.6c.87 0 1.27.54 1.55 1.32.65 1.79.4 2.3-1.42 2.3q-12.42 0-24.83 0l-95.57.1h-2.59c-2.11-.06-2.11-.07-2.59-2.68zm47.25-61.95h59.24l3 .06a1.84 1.84 0 0 1 1.51.91 1.21 1.21 0 0 1-.69 2 29.09 29.09 0 0 1-3 .11h-29.25a18.18 18.18 0 0 0-5.14.42 11.12 11.12 0 0 1-3 .16l-81.44.07h-2.23a2.24 2.24 0 0 1-2.29-2 1.16 1.16 0 0 1 1-1.58l3.33-.08h58.86zm-8.07-30.28h-59-3c-1.15-.07-1.68-.58-2-1.82a.81.81 0 0 1 .66-1.1c1.1-.12 2.21-.12 3.32-.13h30.77a17.55 17.55 0 0 0 4.78-.41 11.5 11.5 0 0 1 2.94-.17l80.44-.07a22.42 22.42 0 0 1 2.59.09c1 .13 1.6.9 1.64 2.12 0 .69-.29 1.26-1 1.32-1.22.11-2.46.13-3.69.13h-58.45z" fill="#adccf9"/><path d="M568.27 317.08h49.66a17.55 17.55 0 0 0 4.78-.41 11.47 11.47 0 0 1 2.94-.17h13.34c1.61 0 2.32.8 2.31 2.25 0 .68-.32 1.22-1 1.27l-3.33.1-63.38.06a19 19 0 0 0-5.51.44 8.85 8.85 0 0 1-2.58.14h-47.44-1.48a2.31 2.31 0 0 1-2.51-2.17 1.12 1.12 0 0 1 .87-1.38 52.89 52.89 0 0 1 3.33-.1h50zm36.99 86.9h-53.74a44.51 44.51 0 0 0-5.14.42 59.69 59.69 0 0 1-8.14.12c-1.57 0-2.25-.94-2.34-2.74a.69.69 0 0 1 .59-.79l3-.08 56.33-.05a19.38 19.38 0 0 0 5.52-.43 10.69 10.69 0 0 1 3-.15h54.84l2.59.08a1.33 1.33 0 0 1 1.11.84c1 1.95.62 2.71-1.57 2.72q-13.71 0-27.43 0h-28.62zm-17.61-48.35h58.93 3c1 0 1.5.7 1.81 1.57.24.68-.05 1.33-.71 1.37l-3.33.1H602.5a19.71 19.71 0 0 0-5.51.44 11.14 11.14 0 0 1-2.95.14l-65.27.19a26.36 26.36 0 0 1-3-.11 1.89 1.89 0 0 1-1.54-1.84 1.3 1.3 0 0 1 1.11-1.61c1.11-.09 2.22-.1 3.33-.1h58.93z" fill="#adcbf9"/><path d="M584.6 309.07h-48.92a16.77 16.77 0 0 0-5.51.47 4.78 4.78 0 0 1-1.47.11h-14.83a2.38 2.38 0 0 1-2.62-1.56c-.46-1.22-.09-2 1.14-2.08 1-.06 2 0 3 0h64.86a19.39 19.39 0 0 0 5.52-.44 11.1 11.1 0 0 1 3-.14h45.58a20.69 20.69 0 0 1 2.23.06 1.93 1.93 0 0 1 1.86 1.92 1.28 1.28 0 0 1-1.13 1.59l-3.33.09H584.6zm-28.43-72.81h44.8a23 23 0 0 1 3.32.14 1.65 1.65 0 0 1 1.34 1.56c.08.54-.12 1.09-.63 1.17a22.75 22.75 0 0 1-3.3.19h-33.33a19.35 19.35 0 0 0-5.51.44 11 11 0 0 1-2.94.15h-48.13-1.48c-2-.07-2.24-.3-2.72-2.28-.18-.73.13-1.27.82-1.31a61.67 61.67 0 0 1 3.33-.08h44.43zm-1.8-5.89h-34.84-1.85c-1.87-.05-2.63-.77-2.74-2.66a1.05 1.05 0 0 1 .56-.81 30.61 30.61 0 0 1 3.31-.19h44.11 25.57a26.53 26.53 0 0 1 3 .1c1.06.11 1.63.88 1.68 2.08a1.15 1.15 0 0 1-1 1.35 28.27 28.27 0 0 1-3.32.13h-34.48z" class="AR"/><path d="M378.11 333.59c.38-1.26 1.66-1.48 2.54-2.16a22.56 22.56 0 0 0 2.53.41q10.85.51 21.67 1a27 27 0 0 1 4.38.44 3.81 3.81 0 0 1 3 2.43 73.13 73.13 0 0 1-8.51-.09c-6.14-.74-12.3-.4-18.44-.79-2.38-.19-4.92-.09-7.17-1.24z" fill="#0771ae"/><path d="M738.77 315.7h-17.79c-1 0-2-.06-2.95-.14-.17 0-.38-.29-.45-.49-.15-.47.24-.71.57-.74a24.94 24.94 0 0 1 2.59-.12h36.31a7.4 7.4 0 0 1 2.92.23c.29.12.43.3.3.58s-.25.49-.41.5l-2.94.18h-18.15z" class="AO"/><path d="M749.25 355.72h-18.48a2.85 2.85 0 0 1-2.11-.43c-.11-.1-.08-.49 0-.65a1 1 0 0 1 .63-.32l2.21-.09q18.12 0 36.23 0a18.16 18.16 0 0 1 2.55.22c.14 0 .33.35.33.53s-.2.5-.35.52a14.5 14.5 0 0 1-2.18.21h-9.24-9.62z" fill="#bfd6f9"/><path d="M748.67 351.97h-17.79a24.05 24.05 0 0 1-2.94-.19.67.67 0 0 1-.61-.78c0-.17.29-.34.49-.41a2.19 2.19 0 0 1 .73-.07q20 0 40 0a3.52 3.52 0 0 1 1.05.26c.06 0 .1.18.1.28s0 .3-.07.35a2.42 2.42 0 0 1-1 .47l-3.7.08h-16.26z" fill="#b4d0f9"/><path d="M764.54 329.97a17.27 17.27 0 0 1-6.06 1.22h-34a3.66 3.66 0 0 1-2.49-.39c-.07-.06-.06-.22-.06-.34s0-.28.06-.32a1.45 1.45 0 0 1 .65-.31 27.03 27.03 0 0 1 2.21-.09h36.91c.7-.02 1.41.1 2.78.23zm-45.96-10.85a27.28 27.28 0 0 1 8.31-1.19h30.4l3.31.16c.16 0 .33.31.43.5a.36.36 0 0 1-.3.56 12.42 12.42 0 0 1-1.81.22q-19.28 0-38.56 0a14.57 14.57 0 0 1-1.78-.25z" class="AS"/><path d="M724.46 339.8c.27-.52.76-.47 1.21-.47h5.55a19.66 19.66 0 0 0 5.87-.47 7.65 7.65 0 0 1 2.2-.13q12.39 0 24.78 0a13.43 13.43 0 0 1 2.19.22c.18 0 .37.31.46.51.23.57-.3.61-.59.65a16.26 16.26 0 0 1-1.85.06q-18.86 0-37.72 0c-.7-.01-1.48.27-2.1-.37z" fill="#b2cef9"/><path d="M768.27 347.21c-.87.69-1.9.38-2.85.39h-16.67c-2.83 0-5.64.18-8.47.44a131.47 131.47 0 0 1-13.32 0 .59.59 0 0 1-.52-.79.71.71 0 0 1 .51-.41 20.5 20.5 0 0 1 2.22-.12q18.51 0 37 0c.74.05 1.52-.18 2.1.49z" fill="#b0cdf8"/><path d="M733.88 296.44h-10a16.3 16.3 0 0 1-2.21-.15c-.16 0-.34-.29-.43-.48a.38.38 0 0 1 .28-.58 7.22 7.22 0 0 1 1.44-.24q11.12 0 22.23 0a7 7 0 0 1 1.43.24.38.38 0 0 1 .28.58c-.09.2-.27.47-.44.49a18.05 18.05 0 0 1-2.2.14h-10.38z" fill="#b7d1f9"/><path d="M719.94 322.7c1-.74 2.14-.39 3.19-.4h27.36a29.12 29.12 0 0 0 5.88-.43 11.55 11.55 0 0 1 5.48.1c.18 0 .32.33.43.53s0 .48-.31.51l-1.83.12q-19 0-38.08 0c-.71 0-1.49.21-2.12-.43z" fill="#afcdf8"/><path d="M762.95 326.75l-3.63.09h-27.41a22.32 22.32 0 0 0-5.14.43 12.71 12.71 0 0 1-5.14 0c-.17 0-.32-.31-.42-.51s0-.5.32-.54a8.87 8.87 0 0 1 1.45-.2q19.44 0 38.89 0a5.6 5.6 0 0 1 1 .2zm-37.1 16.69c.49-.51 1.13-.39 1.73-.4 16-.36 36.38-.2 39.81.31a.56.56 0 0 1-.07.23c-.08.08-.19.2-.29.21q-19.58 0-39.16.08a10.81 10.81 0 0 1-1.79-.22c-.09.01-.16-.12-.23-.21z" fill="#afccf8"/><path d="M719.29 299.16c2.91-.69 28-.75 31.67-.33-.46.18.35-.17.06.23-.07.1-.18.23-.28.23-.86 0-1.72.11-2.58.11-9.61.04-19.22.04-28.87-.24z" fill="#afccf9"/><path d="M767.61 425.44h-17.35c-1 0-2 0-3-.07a1.62 1.62 0 0 1-.85-.51c-.27-.29.25-.82.89-.85q1.29-.06 2.58-.06h36.18a18.07 18.07 0 0 1 2.21.07 1.63 1.63 0 0 1 .85.52c.27.3-.23.82-.89.85l-2.95.06h-17.72zm5.39 20.75h-17.78c-1 0-2 0-3-.12-.32 0-.73-.27-.57-.74.06-.2.28-.47.44-.49l2.95-.14h19.27q8.34 0 16.67 0a29 29 0 0 1 2.94.18c.16 0 .32.3.41.5a.36.36 0 0 1-.29.57l-2.92.23h-18.16z" class="AT"/><path d="M771.55 442.44h-17.43a7.39 7.39 0 0 1-2.92-.22c-.29-.12-.43-.3-.3-.58a1.1 1.1 0 0 1 .41-.51 1.56 1.56 0 0 1 .71-.15h1.86 37.07a14.24 14.24 0 0 1 1.85.06c.31 0 .84.1.62.62a1.27 1.27 0 0 1-.76.66 12.5 12.5 0 0 1-2.21.15h-18.9z" class="AO"/><path d="M767 420.19h17.37c1 0 2 .08 2.93.17.16 0 .33.3.42.49a.38.38 0 0 1-.3.57 8 8 0 0 1-1.43.22q-19.21 0-38.43 0a6.39 6.39 0 0 1-1.45-.17c-.17-.05-.32-.31-.42-.5s0-.53.29-.56l2.92-.23H767zm2.29 7.46h18.46a3 3 0 0 1 2.12.41c.06.06 0 .23 0 .34s0 .28-.06.32a1.45 1.45 0 0 1-.65.31l-2.21.09h-36.2a24.32 24.32 0 0 1-2.55-.2.37.37 0 0 1-.35-.52c.08-.2.22-.5.37-.52a14.51 14.51 0 0 1 2.18-.22h8.86 10z" fill="#b7d1f9"/><path d="M774.51 448.44h18.47a3 3 0 0 1 2.11.41c.07.06 0 .23 0 .34s0 .28-.07.32a1.6 1.6 0 0 1-.65.3l-2.58.08q-17.73 0-35.46 0c-1 0-2-.1-2.93-.19a.36.36 0 0 1-.33-.53c.08-.2.22-.49.37-.52a9.31 9.31 0 0 1 1.82-.2h10.34 8.86z" fill="#b5d0f9"/><path d="M791.93 437.36c-4.06.36-7.9 1.4-11.84 1.36-8.77-.08-17.54 0-26.31 0-1.1 0-2.2-.11-3.3-.2a.38.38 0 0 1-.33-.55 1 1 0 0 1 .38-.51 1.71 1.71 0 0 1 .71-.16h1.86 36.31c.84-.06 1.68.02 2.52.06z" class="AS"/><path d="M786.86 416.78a2.1 2.1 0 0 1-1.85.53h-9.25c-2.09 0-4.19-.18-6.23.5a3.71 3.71 0 0 1-1.11.09h-22.19a2.06 2.06 0 0 1-1.7-.52c-.11-.13-.12-.58 0-.61a2.38 2.38 0 0 1 1-.29h6.29 31.44a8.61 8.61 0 0 1 3.6.3z" fill="#b1cef8"/><path d="M760.01 397.98h-14a2.22 2.22 0 0 1-1.73-.44.7.7 0 0 1 .06-.65 1 1 0 0 1 .63-.31 12.07 12.07 0 0 1 1.47-.08q14 0 28 0a12.24 12.24 0 0 1 1.81.21.38.38 0 0 1 .32.55c-.08.2-.23.5-.38.52a24.11 24.11 0 0 1-2.55.2h-13.66z" class="AT"/><path d="M753.75 453.28a6 6 0 0 1 3.36-.49h15.9c2.46 0 4.93.22 7.35-.51a5.09 5.09 0 0 1 1.47-.08q6.09 0 12.2 0a2.92 2.92 0 0 1 2.12.41 1.25 1.25 0 0 1 .27.63c0 0-.14.18-.24.2a4.89 4.89 0 0 1-1.07.18q-20 0-39.94 0a8.06 8.06 0 0 1-1.42-.34z" fill="#b0cdf8"/><path d="M786.28 413.17c-3.19.51-38.4.61-42.48.18.06-.66.6-.56 1-.56q20.17 0 40.35 0a6.05 6.05 0 0 1 1.13.38z" fill="#afccf8"/><path d="M771.93 393.95c-.21.11-.42.31-.64.31q-11.62 0-23.25 0c-.21 0-.43-.2-.9-.44 2.83-.69 5.48-.26 8.09-.34h8.49 8.06z" class="AR"/><path d="M721.1 246.71h-18.52a22 22 0 0 1-2.55-.23.37.37 0 0 1-.29-.57c.09-.2.25-.48.41-.5a16.31 16.31 0 0 1 2.2-.18h36.32l3 .06c.38 0 .74.18.8.58.1.7-.49.77-1 .8l-3 .05H721.1z" class="AO"/><path d="M716.28 229.68h-17.41c-1 0-2 0-3-.11-.32 0-.74-.19-.63-.72a.75.75 0 0 1 .79-.58l2.59-.08h35.57 2.59c.47 0 1.1 0 1.15.63.07.93-.76.77-1.31.81-.86.06-1.73 0-2.59 0h-17.75z" class="AT"/><path d="M722.11 250.44h-17.38c-1 0-2 0-2.95-.11-.3 0-.75-.17-.62-.71a.76.76 0 0 1 .78-.59l2.59-.08h8.5q13.13 0 26.25 0l3.33.11c.31 0 .72.21.62.72a.76.76 0 0 1-.79.59l-2.95.07h-17.38z" fill="#c1d7fa"/><path d="M720.03 242.97H702.3a26.2 26.2 0 0 1-2.93-.19c-.15 0-.31-.31-.39-.5a.36.36 0 0 1 .31-.55 20.3 20.3 0 0 1 2.18-.2h36.94a16 16 0 0 1 2.19.17c.16 0 .32.31.4.5a.37.37 0 0 1-.32.55 28.68 28.68 0 0 1-2.92.22h-17.73z" fill="#b4d0f9"/><path d="M717.37 233.44H698.9a3.14 3.14 0 0 1-2.12-.39c-.06-.05 0-.22 0-.33s0-.29.07-.33a1.39 1.39 0 0 1 .65-.31q1.29-.09 2.58-.09 17.73 0 35.45 0a26.08 26.08 0 0 1 2.92.22c.13 0 .33.35.33.53s-.2.48-.36.51a10 10 0 0 1-1.81.19h-12.56-6.68z" fill="#b5d0f9"/><path d="M715.57 225.95h-18.86a2.88 2.88 0 0 1-2.11-.4.7.7 0 0 1 0-.66.93.93 0 0 1 .62-.33l2.21-.09q18.12 0 36.25 0a19.77 19.77 0 0 1 2.55.2c.15 0 .3.31.38.51a.38.38 0 0 1-.34.55 19.87 19.87 0 0 1-2.18.22h-8.5-10z" fill="#bed6fa"/><path d="M702.17 253.74a6.6 6.6 0 0 1 4.14-1h35.82a6.39 6.39 0 0 1 1.45.17c.18 0 .33.3.43.49a.36.36 0 0 1-.3.56 12.29 12.29 0 0 1-1.8.22q-19.2 0-38.41 0c-.49-.03-.98.08-1.33-.44z" class="AS"/><path d="M736.03 220.71c-.61.58-.7.74-.79.74-5.65.21-11.27.9-16.94.77-7.27-.17-14.55 0-21.83 0-1 0-2 .23-2.88-.35a.77.77 0 0 1-.31-.58.63.63 0 0 1 .43-.44 16.18 16.18 0 0 1 1.84-.08h38.11z" fill="#b2cef9"/><path d="M708.99 202.23h-12.17-2.59c-.46 0-1.09 0-1.14-.62-.07-.92.76-.72 1.3-.82a3.64 3.64 0 0 1 .74 0q14 0 28 0a11.08 11.08 0 0 1 1.82.15c.17 0 .37.29.44.49.15.48-.27.7-.59.73-1 .09-2 .11-2.94.11h-12.87z" class="AO"/><path d="M702.42 257.08h4.27q12.94 0 25.88 0a28.63 28.63 0 0 0 5.13-.41 20.77 20.77 0 0 1 7 0 .68.68 0 0 1 .55.82c0 .15-.35.33-.55.34-.61.06-1.23.06-1.84.06q-18.87 0-37.72 0a3.32 3.32 0 0 1-2.72-.81z" fill="#afcdf8"/><path d="M734.71 217.78l-3.63.06h-30.32a20.41 20.41 0 0 0-6.23.51 2.8 2.8 0 0 1-1.45-.12c-.33-.09-.72-.31-.59-.77a.81.81 0 0 1 .48-.4 2.19 2.19 0 0 1 .73-.06h40.31a2 2 0 0 1 .66.25zm-13.16-19.26l-4.57.05h-8.49a29 29 0 0 0-5.49.41 19 19 0 0 1-6.6 0c-.16 0-.3-.32-.39-.51s0-.48.33-.54a10.26 10.26 0 0 1 1.45-.18q11.25 0 22.51 0c.35-.01.77-.12 1.25.77z" fill="#afccf9"/><path d="M353.38 233.89c.11-.19.18-.46.35-.55 2.71-1.58 5.74-1.87 8.78-2.09.44 0 1 0 1.19.58s-.15.93-.45 1.3c-2.66 3.24-6.29 3.52-9.87.76z" fill="#fefaf6"/><path d="M361.79 264.49l-1.29-.65c-.11-1-.33-2.09.42-3 .39 1.19 1.09 2.31.87 3.65z" fill="#e0d1ca"/></svg>