<svg xmlns="http://www.w3.org/2000/svg" viewBox="0 0 754.99 518.25" xmlns:v="https://vecta.io/nano"><path d="M163.27 70.74c3.72.38 7.46.64 11.16 1.18 3.86.57 7.7 1.32 11.52 2.15 11 2.38 21.66 5.95 32.29 9.59.81.28 1.58.64 2.37 1 .78 1 .28 2 0 2.93-4.46 18.45 1.22 34 13.65 47.58 7 7.6 15.64 12.91 24.45 18 .41.27.8.56 1.23.79l.63.34c1.4.76 2.86 1.41 4.31 2.06a110 110 0 0 0 36.75 10.26 113.37 113.37 0 0 0 13 .82 120.12 120.12 0 0 0 22.85-2.06 10.89 10.89 0 0 1 2.53-.32c1.62 0 2.87 1 4.16 1.8l24.53 15.75c1.84.84 3.42 2.17 5.44 3.11a5.45 5.45 0 0 0-.15-3l-5.08-24.81a3.52 3.52 0 0 1 2-4.36 74 74 0 0 0 16.88-12.37c11.51-11.39 18.54-24.86 17.65-41.51-.62-11.47-5.34-21.34-12.55-30.19-4.59-5.62-10.17-10.05-16-14.28-.6-.44-1.73-.58-1.39-1.79l8.94-7.25 12.38-9.49a261.71 261.71 0 0 1 22.53-15.53 169.52 169.52 0 0 1 21-11.1 118.67 118.67 0 0 1 30.28-9 89.29 89.29 0 0 1 14.78-1c2.05 0 4.1.06 6.15 0a76.18 76.18 0 0 1 13.74 1.17 88.25 88.25 0 0 1 14.13 3.45 73.37 73.37 0 0 1 22.59 12.31 66.23 66.23 0 0 1 8.98 8.52 99.56 99.56 0 0 1 9.2 12.58 104.78 104.78 0 0 1 6.47 12.5 154.71 154.71 0 0 1 6.44 17.24c2.09 6.76 3.94 13.58 5.44 20.49l4.65 22.24a122.14 122.14 0 0 0 4.55 17.54 53.59 53.59 0 0 0 8.54 15.95 39.87 39.87 0 0 0 13 11 54.51 54.51 0 0 0 16 5.15c3.37.55 6.76.73 10.14 1.08a92.42 92.42 0 0 0 13.81.27c5.72-.29 11.45-.12 17.14-.54 4.35-.33 8.69-.28 13-.31 2 0 4.07.29 6.11.41s4.07.21 6.12.41a88.46 88.46 0 0 1 14.54 2.7 59.3 59.3 0 0 1 20.57 10.05 55.8 55.8 0 0 1 16 19.37 97.65 97.65 0 0 1 7.54 21.15 135.31 135.31 0 0 1 2.66 14.55c.41 3.21.75 6.42 1.08 9.64.24 2.38.22 4.76.45 7.13.89 9.12.28 18.26.4 27.39-.56 3.64-.28 7.33-.56 11l-1 12.72a73.52 73.52 0 0 1-.79 7.36c-.32 1.56-.32 3.2-.54 4.81-.49 3.54-.73 7.11-1.18 10.66-.37 3-.92 5.87-1.36 8.82l-1.15 8.08q-.81 5.29-1.7 10.58l-1.94 11.06-2.24 11.26-3.9 19c-1 4.82-2.17 9.63-3.32 14.43l-6.38 26.31c-1.89 7.52-3.91 15-6 22.47l-8.09 28.79-5.89 19.32-3.36 11c-.22.73-.54 1.43-.81 2.15-.91 1-2.17.89-3.33.89q-23.62 0-47.25 0a6.54 6.54 0 0 1-3-.45c-1-.68-1-1.75-1-2.76-.06-4-.1-8 0-12 .07-2.56.66-3.13 3.23-3.24 2.81-.11 5.63 0 8.44 0 6.36-.16 10.76-4.54 10.83-10.87V466.2c-.09-6.79-4.31-10.9-11.11-11h-8.44c-2 0-3-1-3-3v-6.14a7.08 7.08 0 0 0-.06-1.78c-1.44-4.73-3.55-6.46-8.48-6.5q-17.13-.13-34.27 0c-4.87 0-7.09 1.88-8.48 6.54a11.81 11.81 0 0 0 0 1.88q.06 31.65 0 63.31c0 1.35.18 2.76-.67 4-1.1.85-2.42.73-3.69.73q-34.73 0-69.45 0a10.43 10.43 0 0 1-2.79-.24 3 3 0 0 1-1.84-1.66c-1-1.88-.57-2.9 1.5-3.37 3.41-.78 6.89-1.21 10.32-1.93a100.47 100.47 0 0 0 15.77-4.38 19.85 19.85 0 0 0 11.9-12.27 55.06 55.06 0 0 0 3.23-16.9c.9-19-2.51-37.37-6.62-55.71a427.73 427.73 0 0 0-15.27-51.25 8.47 8.47 0 0 1-.74-2.7c4.3-9.22 3.17-18.45-.08-27.64-1.86-5.28-1.92-5.36 3.54-5 5 .3 9.88.18 14.59-1.76 6.85-2.83 10.56-8.55 10.8-15.91.37-11.51-4.89-20.11-13.44-27.15-5.43-4.47-11.61-7.82-17.39-11.77a47.68 47.68 0 0 1-7.7-6.33 19.2 19.2 0 0 1-4.61-7.6 28.6 28.6 0 0 1-1-5.18 9.55 9.55 0 0 0-.31-3.19l-.8-20.45c-.32-10.6-2.34-20.85-8.06-30.08a55.74 55.74 0 0 0-11-12.41 3.84 3.84 0 0 1-1.29-4.88c3.72-10.29 1.93-19.69-5.06-28-4.22-5-9.78-7.81-16.24-9-16.61-3-31.32 10.65-31.83 24.77 0 .59-.21 1.17-.28 1.76-.24 1.74-1 2.29-2.93 2.3-9.87.08-19.4 1.77-27.87 7.25-8.07 5.21-13 12.49-13.85 22.21a21.21 21.21 0 0 0 1.23 8 5.85 5.85 0 0 1-.74 5.33c-8.27 12.61-12.1 26.58-13 41.55-1.36 23.17 4 44.88 13.81 65.66a51.58 51.58 0 0 0 4.53 7.73c.4 1.12-.54 1.49-1.17 2-11.31 9.15-20.72 20-29 31.91-10.22 14.62-18.22 30.54-26.09 46.42-3.54 7.11-7.33 14.09-10.49 21.39a6.09 6.09 0 0 1-1.26 1.92 10.44 10.44 0 0 1-2.1 1.76l-41.48 10.43a3.9 3.9 0 0 1-2.27.12c-1.26-.76-1.32-2.12-1.61-3.34l-13.58-57.83c-1.76-7.56-6.24-12.12-13.91-13.5a12.93 12.93 0 0 0-3.82-.24H101.54c-5.08 0-9.87.71-13.68 4.57-4 4.07-5.75 8.82-4.52 14.48 2.49 11.44 5.27 22.81 8 34.2q9.54 40.41 19 80.85c.33 1.42 1.12 3-.15 4.38a7.4 7.4 0 0 1-3.75.52q-26.22 0-52.44 0c-1.41 0-2.94.32-4.11-.88l-3-14.76-2.79-16.08c-1.13-5.6-1.81-11.25-2.85-16.86-.74-4-1.13-8.08-1.72-12.12l-1.37-8.82c-.27-1.85-.43-3.72-.65-5.58l-.51-3.79-.9-6.57c-.25-1.94-.41-3.89-.64-5.83l-.87-6.83c-.24-1.69-.34-3.4-.49-5.08-.22-2.46-.59-4.9-.72-7.37-.15-2.71-.56-5.41-.86-8.12 0-.17 0-.33-.06-.5-.2-3-.22-6-.64-8.92-.46-3.21-.16-6.48-.84-9.66a2.22 2.22 0 0 1-.06-.51c.16-3.51-.5-7-.57-10.46-.1-4.78-.74-9.53-.56-14.31-.81-6.12-.12-12.29-.58-18.41a203.43 203.43 0 0 1-.26-21.24c.18-6.05.13-12.11.5-18.15.21-3.32 0-6.68.51-9.95s0-6.49.8-9.66a2.21 2.21 0 0 0 0-.51c-.17-3 .55-5.94.63-8.92.07-2.2.52-4.39.78-6.58l.68-5.84 1.4-10.1 1.14-7.31 2.28-12.55a264.05 264.05 0 0 1 3.44-14.66c2-7.5 4.22-14.92 6.88-22.22q3.79-10.29 8.01-20.44c1.4-3.39 2.85-6.76 4.4-10.08l7-14.53a30.36 30.36 0 0 1 1.48-2.68 2.59 2.59 0 0 0 .43-1.7 2.57 2.57 0 0 1 1.74-.26 5.35 5.35 0 0 0 5.23-3c1.43-2.52 2.8-5.09 4.34-7.55 1.42-2.24 1.89-2.27 5.51-1.38 2 .5 3.44 1.34 3.38 3.74-.06 2.56-.08 5.13 0 7.69.18 5.11 1.84 6.69 6.91 6.72h4.61c3.93-.05 5.75-1.73 6-5.72.17-2.65 0-5.3.06-7.95 0-3.25.34-3.64 3.38-4.46 3.7-1 4.32-.81 6 2 1.44 2.42 2.67 5 4.26 7.3 1.86 2.73 3.93 3.33 6.83 1.92a49 49 0 0 0 6.21-3.57c2.74-1.86 3.29-4.17 1.65-7.09l-4.1-7.1c-1.71-3-1.61-3.45 1.11-6.14 2.47-2.44 3-2.52 6-.8 2.45 1.4 4.84 2.91 7.38 4.14 3 1.45 4.93.93 6.8-1.86a50.87 50.87 0 0 0 3.44-6c1.48-3 .83-5.26-2-7-2.61-1.63-5.35-3-7.93-4.71-2.14-1.38-2.18-1.89-1.25-5.57.48-1.93 1.27-3.28 3.56-3.25 2.74.05 5.47.07 8.21 0 4.59-.14 6.24-1.93 6.38-6.44.07-2.87-.53-5.67.25-8.42z" fill="#087ec2"/><path d="M258.92 153.88c-8.82-4.9-17.35-10.21-24.4-17.57a59 59 0 0 1-13.07-20.29 48 48 0 0 1-2.82-20.87 47.11 47.11 0 0 1 1.64-8.79c.16-.57.23-1.16.34-1.74a2.27 2.27 0 0 0 .57-1.12 59.53 59.53 0 0 1 16.46-24c9.61-8.77 20.83-14.75 33.09-18.87a113.6 113.6 0 0 1 24.19-5.23 122.4 122.4 0 0 1 16.35-.81 119.65 119.65 0 0 1 42.63 8.63l5.68 2.29c2.28 1.53 4.9 2.43 7.26 3.81a57.94 57.94 0 0 1 5 3.09 4.93 4.93 0 0 1 .49.42l.24.2a8 8 0 0 0 .76.53 4.79 4.79 0 0 1 .53.34c.34.24.69.46 1 .68a3.94 3.94 0 0 1 .53.38 12 12 0 0 0 2 1.68c1 .66 1.77 1.6 2.77 2.27 11.72 10.65 19.14 23.4 19.53 39.65.35 14.83-5.72 27-15.51 37.55a72.32 72.32 0 0 1-19 14.65c-1.91 1-2.44 2.25-2 4.35l5.47 26.32a1.66 1.66 0 0 1-.46 1.51 53 53 0 0 1-6.27-3.86l-19.08-12.26a9.25 9.25 0 0 0-2.45-1.33 3.93 3.93 0 0 1-2.3-.87c-2.26-1.94-4.78-2.06-7.65-1.54a122 122 0 0 1-49.91-1.34c-1-.32-2-.57-3-.87a8.74 8.74 0 0 1-1-.34 7.47 7.47 0 0 0-1.79-.51 3.45 3.45 0 0 1-.57-.18c-.36-.14-.73-.26-1.1-.37-.18-.05-.36-.12-.54-.19a9.72 9.72 0 0 0-1.08-.35l-.56-.17a6.14 6.14 0 0 0-1.2-.2 11.71 11.71 0 0 1-3.45-1.21c-.31-.15-.61-.31-.92-.45s-.41-.21-.62-.33c-1.64-.61-3.13-1.57-4.81-2.1h0c-.11-.41-.64-.3-.97-.59z" fill="#555"/><path d="M163.27 70.74a11.53 11.53 0 0 1 .37 2v8.19a4.8 4.8 0 0 1-3.16 4.55 8.17 8.17 0 0 1-3.48.69c-3-.05-6 0-9 0-1.65 0-1.84.18-2.27 1.79l-.88 3.47c-.29 1.16-.19 1.37.71 1.91q3 1.75 6 3.49l3.54 2a5.22 5.22 0 0 1 2 6.48 54.86 54.86 0 0 1-4.57 8 4.77 4.77 0 0 1-6.34 1.61l-7.39-4.09a25.75 25.75 0 0 0-3.46-1.82l-4.81 4.74c-.07.44.41 1 .74 1.56q2.34 4.11 4.74 8.19c1.86 3.14 1.27 6-1.82 7.91l-6.65 3.83c-2.87 1.5-5.53.77-7.28-2l-3.87-6.62q-.84-1.44-1.71-2.85a1.14 1.14 0 0 0-1.31-.58l-4.44 1.16c-1 .3-1.24.6-1.25 1.65v8.2a12.53 12.53 0 0 1-.34 3.8c-.9 2.81-2.46 4-5.44 4.08q-3.45 0-6.92 0c-3.55 0-5.1-1.35-5.87-4.77a12.52 12.52 0 0 1-.28-2.79v-8.19c0-1.41-.22-1.71-1.43-2.05l-4.21-1.08a1.13 1.13 0 0 0-1.32.52l-2.07 3.53-2.9 5.12a6.89 6.89 0 0 1-2 2.58 5.7 5.7 0 0 1-5.6.5l-7.08-4.13a5.16 5.16 0 0 1-2-7.1c.34-.69.75-1.35 1.13-2l4.22-7.33.65-1.23-2.36-2.34-2.39-2.3c-1.32.14-2.29 1-3.39 1.65l-6.87 4a5.53 5.53 0 0 1-4.68.56 5 5 0 0 1-2.88-2.41l-3.85-6.65a5.33 5.33 0 0 1 2.06-7.51l6.43-3.72 2.65-1.55c.87-.55 1.1-.85.84-1.86l-1.14-4.19c-.3-1.06-.5-1.23-1.61-1.24h-9a16 16 0 0 1-2.3-.08 5.24 5.24 0 0 1-4.81-5.39v-7.69a5.16 5.16 0 0 1 4.82-5.34 18.09 18.09 0 0 1 2.55-.15h8.72c1.11 0 1.32-.2 1.62-1.24l1-3.71c.44-1.59.44-1.65-.93-2.46l-6.43-3.73-2.86-1.7a5.07 5.07 0 0 1-1.82-6.75l4.35-7.53a5 5 0 0 1 6.56-1.72l6.93 3.89 3.81 2.07c1.34-.67 2.08-2 3.17-2.91.63-.55 1.19-1.19 1.83-1.82l-4.15-7.21-2-3.58a5.08 5.08 0 0 1 1.9-6.73l7.33-4.21a5.09 5.09 0 0 1 6.9 2l5 8.63.81 1.3a.82.82 0 0 0 .9.35l5.41-1.52a.79.79 0 0 0 .54-.79l.05-1.79v-7.18a24.06 24.06 0 0 1 .19-3.06 5 5 0 0 1 4.74-4.56h8.71a5 5 0 0 1 4.75 4 9 9 0 0 1 .26 2.53v9.48c0 1.17.15 1.35 1.19 1.65q2.08.58 4.2 1.14c1.05.28 1.29.21 1.87-.78l4.77-8.19a14 14 0 0 1 1.09-1.73 5 5 0 0 1 6.43-1.49l7.54 4.34a5.11 5.11 0 0 1 1.62 7l-4.46 7.77-.77 1.33c-.81 1.43-.81 1.36.44 2.55l3.71 3.66 6.92-4 3.33-1.91a5.32 5.32 0 0 1 7.51 2l3.72 6.43a5.44 5.44 0 0 1-2.08 7.71l-8.21 4.72-1.32.8a.94.94 0 0 0-.4 1.11l1.27 4.69c.29 1 .44 1.12 1.42 1.14h5.64l5.12.05a5.38 5.38 0 0 1 5.14 3.25z"/><path d="M521.59 513.23l2.29.09H596l2-.05c1-.87 2.22-.79 3.4-.79q23 0 46 0c1.18 0 2.41-.1 3.4.79l2.29.05h49l2.55-.09c.85-.03 1.87.11 2.81.11h32 1.79a2.6 2.6 0 0 1 2.74 2.46c0 1.38-1 2.29-2.77 2.42h-.77H5.05a19.61 19.61 0 0 1-3.07-.12 2.28 2.28 0 0 1-1.93-2.81 2.4 2.4 0 0 1 2.13-1.92 22.21 22.21 0 0 1 2.31 0H47l2.81-.1 1.79.08h57.12 1.54c1.33-1.07 2.92-.8 4.43-.8q29.09 0 58.17 0h122.78l3.84.09c4.43-.17 8.87-.07 13.3-.07l68.86.11 27.34.49a13 13 0 0 0 3.57-.21 4.77 4.77 0 0 1 1.45-.27c4.34-.15 8.68-.12 13 0h2c4.34-.08 8.68-.09 13 0h1.48c10.4-.18 20.8-.05 31.2-.07q21.23 0 42.45 0a8.33 8.33 0 0 1 4.46.61z" fill="#31333e"/><path d="M638.81 116.62c-15.64.33-29.47-12.7-29.51-29.38 0-16.292 13.208-29.5 29.5-29.5s29.5 13.208 29.5 29.5c-.03 16.63-13.86 29.69-29.49 29.38z" fill="#ffb12a"/><path d="M371.83 52.91l-5.09-3.12c0-.89.48-.82 1.07-.51a38 38 0 0 1 5.57 3l2.22 1.19 3.73 2.68a71.25 71.25 0 0 1 17.37 17.23 51.84 51.84 0 0 1 8.89 21.32 48 48 0 0 1-3.74 28 61.28 61.28 0 0 1-14.94 20.26 84.11 84.11 0 0 1-16.22 11.53 7.58 7.58 0 0 1-.67.38 1.19 1.19 0 0 0-.71 1.47q.3 1.64.63 3.27 2.59 12.64 5.18 25.31l.22 1a.73.73 0 0 1-1 .78c-.61-.3-1.19-.66-1.77-1l-4.31-2.77v-1.43c1.87-.65 2.77 1.35 4.55 1.69l-3.8-18.39-1.35-6.77c-.68-3.47-.53-3.82 2.53-5.5a74.16 74.16 0 0 0 18.11-13.69c7.42-7.81 13.05-16.68 15-27.46 2.53-13.75-.67-26.22-8.76-37.53a75.4 75.4 0 0 0-14.41-14.8c-.89-.78-1.83-1.51-2.74-2.28-.93-.45-1.58-1.29-2.48-1.79h0c-.47-.42-1-.67-1.55-1.06h0c-.27-.31-.75-.21-1-.53h0a5.07 5.07 0 0 0-.53-.48z"/><path d="M367.81 49.28c-.42.05-.84.08-1.07.51l-6.59-3.56a1.14 1.14 0 0 1-.57-.77 40.47 40.47 0 0 1 8.23 3.82z" fill="#bc5647"/><path d="M521.59 513.23l-2.81.11H446c-.94 0-1.88-.06-2.82-.1-1-2-.34-4-.11-6 .89-7.45.23-14.82-.81-22.17a78.59 78.59 0 0 0-4.52-17.3c-1.22-3.19-.85-3.91 2.52-4.52l47.44-8.06c2.9-.41 2.93-.4 2.12-3.12-4.58-15.21-8.27-30.65-11.43-46.21q-3.3-16.25-5.3-32.69A471 471 0 0 0 482.8 426c2 8.31 4.24 16.54 6.56 24.75 1.07 3.8.93 4.05-2.88 4.6-15.78 2.29-31.48 5.14-47.17 8.14l-27.38 5.33c-.9.19-1.92.15-2.36 1.22-.82 1.94-.56 4.36-2.54 5.79-3.27.22-6.5 1.29-9.82.45-1.2-1-.88-2.32-.91-3.55-.1-4.44.15-8.88-.15-13.31-.48-7.36-3.18-14.09-5.77-20.87-2.35-6.13-4.86-12.2-6.63-18.53a35.86 35.86 0 0 1 .9-22.13 178.57 178.57 0 0 1 14.6-30.4 183.16 183.16 0 0 0-14.7 30.44c-3.45 9.44-2.44 18.58.88 27.75l7.75 20.59c1.92 5.52 3.25 11.14 3 17-.22 4.24.54 8.52-.46 12.74-2.44 1.93-5.44.9-8.13 1.51a10.9 10.9 0 0 1-5.32-.49c-8.92-2.51-18-4.32-27.26-4.31-8.45 0-16.89 1-24.85 4.31a15.25 15.25 0 0 0-2.25 1.21c-1.33.86-2.66 1.81-2.55 3.57.13 1.92 1.82 2.27 3.28 2.76a1.31 1.31 0 0 1 .81.83c-.48 1.21-1.74 1.26-2.7 1.72-1.66.81-3 1.85-2.4 3.94.56 1.93 2.13 2.2 3.91 2 1-.1 2.51-.87 3 .4.39 1.06-1.21 1.41-2 2a4.32 4.32 0 0 0-2 3.63c0 .69 0 1.39-.79 1.76-5.19.69-10.39.3-15.59.23-2.07 0-2.56-1.71-2.93-3.34l-3.68-15.7-6.79-29.19c-.23-1-.76-2.14.12-3.16l34.84-8.72 7.16-1.81a6.87 6.87 0 0 1 2-.24.83.83 0 0 1 .28.64 6.62 6.62 0 0 1-.2 1.08 44.91 44.91 0 0 0-1.74 8.75 39.47 39.47 0 0 1 3.06-11.9l3.63-7.61 14.67-29.27c4.17-8.1 8.38-16.19 13.25-23.9q5.79-9.18 12.41-17.8A175 175 0 0 1 405 339.49c1.6-1.52 3.42-2.8 5.14-4.19.39-.32.94-.44 1.14-1-.14-.94.58-1.36 1.17-1.79a85.36 85.36 0 0 1 15.35-9.36 2.78 2.78 0 0 1 2.2-.32c1.41 1.08.86 2.65.93 4 .23 4.19 1.15 8.06 4.19 11.22a14.59 14.59 0 0 0 10 4.37c9.47.62 17.76-2.6 25.51-7.63a52.87 52.87 0 0 0 13.66-12.2 5 5 0 0 1 4.82-2.25c19.09 2.54 35.28 9.92 45.34 27.38 2.56 4.45 4.29 9.3 6.12 14.08a1.76 1.76 0 0 1 0 1.71c2.24 5.62 4.19 11.34 6.06 17.09 2.69 8.25 5.17 16.57 7.38 25 1.32 5 2.57 10.06 3.7 15.11 1.09 4.89 2.15 9.79 2.87 14.76.37 2.52 1 5 1.31 7.52l.78 6.07c.35 2.44.18 4.93.8 7.34a9.62 9.62 0 0 1 .12 1.79c.17 3.14-.27 6.31.44 9.43a2 2 0 0 1 0 1 15.35 15.35 0 0 0-.36 4.58 51.2 51.2 0 0 1-3.1 17.24 23 23 0 0 1-4.5 7.67 20.63 20.63 0 0 1-7.39 4.91 69 69 0 0 1-11.2 3.52c-4.72 1.07-9.46 2.06-14.27 2.7-.92.12-1.82.4-2.75.61a6.29 6.29 0 0 0 1.13 3.38z" fill="#f1f3f2"/><path d="M299.53 513.3H112.6h-2.3a55.19 55.19 0 0 0-1.64-7.74q-5.55-23.8-11.18-47.58-4.69-19.92-9.37-39.85l-5.36-22.66a16.73 16.73 0 0 1-.18-8.11 16.33 16.33 0 0 1 11.34-12.13 17.67 17.67 0 0 1 4.79-.75h1.54 154.82 11a4.73 4.73 0 0 1 2.75.37c-2.92 1.54-6 .43-9 .55a6.16 6.16 0 0 1 3.49 1.36 20.19 20.19 0 0 1 3.06 2.71 16.72 16.72 0 0 1 2.56 3.51 15.77 15.77 0 0 1 1.48 3.81c2 7.69 3.69 15.43 5.5 23.16q5.63 24 11.31 48.09l12.36 52.59c.24.86.66 1.79-.04 2.67zm130.24-190.32a80.49 80.49 0 0 0-18.45 11.31c-.74.07-1-.48-1.34-1a94.54 94.54 0 0 1-5.65-10.61 140.8 140.8 0 0 1-10.28-33.19 146.26 146.26 0 0 1-1.83-15.5 102.94 102.94 0 0 1 .22-16.38c1.28-14.25 5.26-27.62 13.38-39.57.14-.21.27-.44.43-.64a1.87 1.87 0 0 0 .24-2.13 19.55 19.55 0 0 1-1.33-4.93c-1.15-8.14 1.35-15.17 6.62-21.3a36.15 36.15 0 0 1 16.39-10.55 52.64 52.64 0 0 1 20.15-2.85c.86.06 1-.11 1.13-1a56.72 56.72 0 0 1 .77-6.35c2.42-11.25 12.36-20.3 24-21.8 14.647-1.783 28.222 7.939 31.25 22.38a27.81 27.81 0 0 1-1.32 15.86 13.62 13.62 0 0 1-.58 1.42 1 1 0 0 0 .39 1.52 41.69 41.69 0 0 1 5 4.38 50.24 50.24 0 0 1 14.12 26.76 90.91 90.91 0 0 1 1.59 15.26l.52 18.18c.26.59.26 1.06-.54 1.15-1.49-1.46-1.89-3.58-3.16-5.21-1.48-1.9-2.94-3.9-5.09-5-2.92-1.45-3.56-3.87-3.71-6.73a57.26 57.26 0 0 0-5.64-21.95c-6.05-12.52-16.05-20.38-29.89-24.02a58.17 58.17 0 0 1 5 8.25 3.07 3.07 0 0 0 2.67 1.7c15.37 2 25.14 16.45 23.44 31.5a16.91 16.91 0 0 1-2.64 7.43c-2.69 4.09-6.57 5.81-11.4 5.5-8.61-.78-14.57-5.32-18.26-13a33.88 33.88 0 0 1-2.72-8c-.57-2.81-.72-2.87-3.35-1.8-12.68 5.16-25.94 7.14-39.53 7.39a27.39 27.39 0 0 1-5.35-.5c-2.06-.36-3.52.15-4.07 2.36a2.55 2.55 0 0 1-.67 1.08 5.75 5.75 0 0 1-2.87 1c-9.76 1.42-16.67 11.37-17.22 20.58-.45 7.52 1.46 14.14 7.18 19.42 2.87 2.66 6.46 3.67 10 4.83 1.79 2.89 2.62 6.22 4.38 9.14a42.24 42.24 0 0 0 14 14.49 4.2 4.2 0 0 1 2.2 2.37 42.32 42.32 0 0 1 .18 6.66c-.05 3.06.34 6.13-.25 9.16-1.39 1.81-3.65 1.58-5.48 2.35a11.11 11.11 0 0 0-2.63.58zm110.85 40.51a130.08 130.08 0 0 0-5.38-13 48.94 48.94 0 0 0-23-22.86 70.41 70.41 0 0 0-23-6.71 11.13 11.13 0 0 0-5.13.21c-2.19 0-4.4.45-6.55-.37a2.46 2.46 0 0 1-.79-2.07c-.08-4.42-.06-8.84 0-13.26a3.55 3.55 0 0 1 1.79-3.18 54.45 54.45 0 0 0 10.44-8.56 50.27 50.27 0 0 1 5.42-1.44 17 17 0 0 0 8-5.25 5.55 5.55 0 0 1 3.9-2.07c12.61-1.21 18.87-12.38 19.27-21.41 0-1.08-.49-2.48 1.09-3.06a19.33 19.33 0 0 0 4.68 7.55 36.5 36.5 0 0 0 5.87 4.94q4 2.71 8.13 5.35a114.5 114.5 0 0 1 10.74 7.42 41.81 41.81 0 0 1 7.83 8.06 31.13 31.13 0 0 1 5.88 21.76 16.7 16.7 0 0 1-9.45 13.73 24.66 24.66 0 0 1-9 2.59 37.26 37.26 0 0 1-10.7-.47 1.77 1.77 0 0 0-1.26.09 4.19 4.19 0 0 0 .53 1.68 50.59 50.59 0 0 1 3.56 12.52c.72 5.38.73 10.74-1.37 15.88-.37.75-.47 1.72-1.5 1.93z"/><path d="M650.79 513.28l-2.81.13h-47.14c-.93 0-1.87-.08-2.81-.13l.08-3.06q0-30.84 0-61.67l.15-3.06c.56-1.15 1.66-1.07 2.66-1.07q23.47-.06 47 0c1 0 2.11-.13 2.64 1.07a32 32 0 0 1 .18 5.36v1.8c0 1.33.2 1.5 1.44 1.55h1.79 8.2a11.33 11.33 0 0 1 11.3 11.46c-.1 6.49 0 13 0 19.48a11.19 11.19 0 0 1-8.92 11 13.8 13.8 0 0 1-2.8.22h-8.46c-.6 0-1.2 0-1.79.06a.7.7 0 0 0-.65.66 4.88 4.88 0 0 0-.07.76q-.04 7.75.01 15.44z" fill="#092371"/><path d="M258.1 303.11c-16.274-.061-29.419-13.302-29.36-29.577s13.299-29.42 29.573-29.363 29.422 13.295 29.367 29.57c-.088 16.266-13.314 29.398-29.58 29.37z" fill="#ffb12a"/><path d="M299.53 513.3l-3.89-16.09-3.77-16.12-4.64-20.1-3.25-13.63-4.33-18.08-3.91-16.87-4.27-18.09-1.73-7.44c-1.16-4.75-4.2-8.1-8.33-10.52a18.85 18.85 0 0 0-2.78-1.09c0-.14-.07-.26 0-.3s.16-.05.24-.05l10-.09c6.79.87 11.17 4.72 13.4 11a69.28 69.28 0 0 1 1.84 7.18q4 17.16 8.06 34.34 2.45 10.44 4.89 20.9c.12.49.34 1 .5 1.44a57.93 57.93 0 0 0 1.65 7.72l9.54 40.5c.08.34.12.68.21 1 .37 1.43.43 1.51 1.86 1.51h15.85c3.26 1.4 6.58.38 9.88.22a.83.83 0 0 1 .55 1c-.78 1.32-2.32 1.7-3.39 2.67s-2 2-1.34 3.54a3.22 3.22 0 0 0 3.79 1.92 18.09 18.09 0 0 0 3.47-.91 39.62 39.62 0 0 1 24.19-1 71.62 71.62 0 0 0 21.78 2.65c1.34-.06 2.77-.15 3.79 1.06s2.33.89 3.57.9h16.27a8.86 8.86 0 0 1 3 .29 1.35 1.35 0 0 1 .66.63 2.15 2.15 0 0 1-1.46.35h-21.27a3.45 3.45 0 0 1-1 0c-2-.7-4-.46-6.09-.46q-41.78.01-83.54.02z" fill="#333647"/><path d="M702 265.71c-1.35.2-2.51-.59-3.7-1.24l-3.57-2a.88.88 0 0 0-1.15.21c-.37.37-.74.76-.44 1.34l1.21 2.25 1.72 3.14a4.8 4.8 0 0 1-1.81 6.28 51.4 51.4 0 0 1-4.91 2.76 4.37 4.37 0 0 1-5.39-.89 15.16 15.16 0 0 1-2.24-3.11c-.42-.64-.7-1.36-1.1-2s-.65-1.47-1.66-1.24c-.75.17-1 .56-1 1.82v3.84a7.6 7.6 0 0 1-.64 3 4.1 4.1 0 0 1-3.92 2.79h-6.15a4.14 4.14 0 0 1-4-3 8.36 8.36 0 0 1-.56-3.26v-4.1a1.14 1.14 0 0 0-.9-1.09 1 1 0 0 0-1.28.56l-2.33 4a7.46 7.46 0 0 1-1.78 2.16 4.15 4.15 0 0 1-4.77.69 50.87 50.87 0 0 1-5.35-3 4.73 4.73 0 0 1-1.66-6.11c.49-1.09 1.14-2.1 1.72-3.15l1.22-2.24c.3-.57 0-1-.4-1.35a.89.89 0 0 0-1.16-.28l-3.57 2a7.69 7.69 0 0 1-4.08 1.31 4.6 4.6 0 0 1-3.93-2 38.54 38.54 0 0 1-2.9-5.11 4.76 4.76 0 0 1 1.82-6.25c.92-.62 1.91-1.12 2.86-1.69l2.18-1.34a.79.79 0 0 0 .42-1.07c-.2-.47-.39-1-1-1-1.62-.05-3.24-.08-4.87 0a6.46 6.46 0 0 1-3.19-.77 4.2 4.2 0 0 1-2.48-3.87v-5.64a4.66 4.66 0 0 1 4.76-4.63h5.38a1.31 1.31 0 0 0 1.25-.72c.36-.66.34-1.18-.2-1.59a14.76 14.76 0 0 0-1.5-1l-3.09-1.81a7.86 7.86 0 0 1-1.56-1.31 4.07 4.07 0 0 1-1-4.46 22.42 22.42 0 0 1 3.37-6 4.64 4.64 0 0 1 6.37-1.34l2.45 1.39 2.47 1.34a1.13 1.13 0 0 0 1.39-.31 1.08 1.08 0 0 0 .19-1.4l-2.24-3.72a6.59 6.59 0 0 1-1.14-3.35 4.82 4.82 0 0 1 2.24-4.33l4.4-2.61a5.58 5.58 0 0 1 4-.49 4 4 0 0 1 2.81 2.05l2.89 4.83c.29.49.64.8 1.24.63a1.15 1.15 0 0 0 .94-1.08v-4.86a5.65 5.65 0 0 1 2-4.52 4.57 4.57 0 0 1 3-1.19h4.61a5.34 5.34 0 0 1 5.6 5.39c.06 1 0 2.05 0 3.07v1.8a1.34 1.34 0 0 0 .92 1.38c.53.19.92 0 1.39-.79l2.65-4.38a4.9 4.9 0 0 1 6.87-1.85 40.83 40.83 0 0 1 4.42 2.59 4.91 4.91 0 0 1 1.75 6.51c-.83 1.67-1.88 3.24-2.81 4.87a1.12 1.12 0 0 0 .3 1.58 1.08 1.08 0 0 0 1.19.2l2.48-1.33 3.15-1.7a4.17 4.17 0 0 1 4.77.68 7.54 7.54 0 0 1 1.53 1.71l2.64 4.68c1 1.83.44 3.47-.79 4.95a13.89 13.89 0 0 1-4 2.78l-2.2 1.31a1 1 0 0 0-.48 1.1 1.5 1.5 0 0 0 1.13 1.23c.51.05 1 0 1.54 0h4.35a4.93 4.93 0 0 1 4.62 4.61v5.12c-.05 3.13-1.94 5.05-5.13 5.17h-5.13c-.72 0-1.05.45-1.28 1a.71.71 0 0 0 .18.92l2.15 1.38 2.87 1.68a5.49 5.49 0 0 1 2.44 3.17 2.64 2.64 0 0 1 .06 2 19.79 19.79 0 0 1-.84 2.14l-2 3.55a4.77 4.77 0 0 1-4.63 2.61z"/><path d="M526.66 260.49c-.64.74-.37 1.63-.4 2.46a24.75 24.75 0 0 1-4.94 14.24 19.79 19.79 0 0 1-15.61 8.44 2.35 2.35 0 0 0-2 .84c-3.64 4.8-8.63 7-14.49 7.53a4.84 4.84 0 0 1-2.71.59c-3.72-.4-7.42-1-11.09-1.7a2.8 2.8 0 0 1-1.55-.84 3.22 3.22 0 0 1 .46-3.4c1.69-.78 3.36-.06 5 .14 2.71.34 5.38 1 8.1 1.25a10 10 0 0 0 4.78-.61 15.12 15.12 0 0 0 6.14-2.86c1.21-.87 1.16-1.54-.29-2.06a13.81 13.81 0 0 1-2.52-1.19 24.74 24.74 0 0 1-9.13-26.73 26 26 0 0 1 5-9.94 8 8 0 0 1 2.9-2.41c.69 0 1.37-.07 2-.08a10.2 10.2 0 0 0 8.85-5.22 18.07 18.07 0 0 0 2.56-8.49 28.2 28.2 0 0 0-4.62-17.76 25.44 25.44 0 0 0-18.7-11.66c-.43-.05-.85-.13-1.26-.21a1.75 1.75 0 0 1-1.33-1.08 52 52 0 0 0-6.21-10.25 37.46 37.46 0 0 1 6.58 1.83 44.5 44.5 0 0 1 17.67 11.44 47.05 47.05 0 0 1 9.89 16.32 60.91 60.91 0 0 1 3.73 17.7c0 .43 0 .86.1 1.28a9.78 9.78 0 0 0 .49 2.74c.4.86 1.52 1 2.3 1.53a20.36 20.36 0 0 1 8.39 10.95c.84.49.54 1.44.88 2.13.06 1.72.79 3.34 1.03 5.08z" fill="#092371"/><path d="M452.54 45.21h4.18l8.87.86 1 .11c2.92.19 3.34 0 5.16-2.38l6-7.32c.92-1.11 1.57-2.45 2.88-3.21.71.17.4.82.57 1.24a7.17 7.17 0 0 1 .37 1.22l2.7 11.93c.09.42.29.81.38 1.22a1.83 1.83 0 0 0 1.3 1.42l10 3.85 4.06 1.55c.28.11.65.2.72.76l-2.91 1.86-10.29 6.19a2.64 2.64 0 0 0-1.36 2.23c-.46 3.22-.33 6.46-.53 9.68a52.78 52.78 0 0 0-.43 5.89 4.71 4.71 0 0 1-2.19-1.19l-5-4.38-5.46-4.6a1.84 1.84 0 0 0-1.88-.36l-9.13 2.38-4.45 1.14a3.34 3.34 0 0 1-2.1.19l4.21-10.14q.88-2.13 1.79-4.24a2.63 2.63 0 0 0-.28-2.82c-2.5-3.65-4.84-7.41-7.26-11.13a4.85 4.85 0 0 1-.92-1.95zm-278.8 172.06l5.66-8.81c.3-.48.84-.89.7-1.57a1.43 1.43 0 0 0-.44-.2c-3.67-.18-7.28.7-10.95.65-1.48.56-3 .31-4.56.4a1.91 1.91 0 0 1-1.74-.84l-7.13-8.67a13.2 13.2 0 0 0-1.55-1.7c-.62-.52-.73-1.55-1.79-1.8l-1.08 4.27q-1.33 5.72-2.61 11.43a1.81 1.81 0 0 1-1.29 1.41l-9.29 3.61a47.33 47.33 0 0 0-5.48 2.31 1.78 1.78 0 0 0 .91 1.06l6.16 3.65 6.34 3.83a2.18 2.18 0 0 1 1.15 2.09 20.56 20.56 0 0 0 .17 4.08 19.38 19.38 0 0 1 .3 3.3c0 2.63-.1 5.28.8 8.18a20.28 20.28 0 0 0 2-1.36l9.19-8.12a3.59 3.59 0 0 1 3.72-1q4.92 1.32 9.87 2.6a34.19 34.19 0 0 0 5 1.13c-.23-.74-.35-1.33-.58-1.87l-4.94-11.51c-.71-1.63-1.15-3.15.24-4.67a14.83 14.83 0 0 0 1.22-1.88z" fill="#fff"/><path d="M598.25 444.05c.59-4.21 3-6.61 7.13-7a17.77 17.77 0 0 1 1.79 0h34.47a17.47 17.47 0 0 1 2.29.09c3.88.55 6.1 2.9 6.59 6.91-.76.8-1.75.55-2.65.55q-23.49 0-47 0c-.87-.01-1.87.22-2.62-.55z" fill="#092371"/><path d="M266.26 156.93c1.39.22 2.6 1.06 4 1.11.31.26.77.17 1.06.47h0c.41.48 1.12.07 1.54.52h0c.42.48 1.14.07 1.57.53h0c.69.43 1.59.24 2.25.78a2 2 0 0 1 1.06.22 15.16 15.16 0 0 0 3 .85c14.45 3.65 29.06 5.53 44 4.19 3.73-.34 7.46-.71 11.16-1.32a4.5 4.5 0 0 1 3 .32l1.59.88a103.79 103.79 0 0 1-18.74 2.39c-2.64.08-5.28.35-7.93.28-15.48-.38-30.51-3-44.82-9.11a26.37 26.37 0 0 1-5-2.47.87.87 0 0 1 1.24-.08l.52.07c.13.1.31.24.5.37zm331.99 287.12h52.27a1.71 1.71 0 0 1 0 1.45 4.35 4.35 0 0 0-2.25-.32h-47.76a4.79 4.79 0 0 0-2.25.32 1.89 1.89 0 0 1-.01-1.45z"/><path d="M343 437.49a2.72 2.72 0 0 1-.14 2 35 35 0 0 0-2.37 10.69c0 .93-.45 1.44-.88 1.26-.75-.29-.63-1-.56-1.53a50.93 50.93 0 0 1 2.08-10 .46.46 0 0 0 .24-.39l.12-.56c.51-.55.58-1.47 1.51-1.47z" fill="#8a8e9f"/><path d="M525.63 255.38c-.6-.58-.61-1.41-.88-2.13.38-.19.33-.62.5-.93.68.95.4 2.03.38 3.06z" fill="#557bac"/><path d="M380.12 58.49c9.78 7.18 17.42 16.09 21.72 27.57a45.91 45.91 0 0 1-1 35.42 60.59 60.59 0 0 1-15.94 21.41 80.09 80.09 0 0 1-15.09 10.54c-.3.16-.6.33-.89.51-1.27.76-1.34.86-1.05 2.24q1.61 7.89 3.25 15.79l2.12 10.27c.13.66.2 1.34.34 2.25-2.11-.72-3.49-2.35-5.37-3a7.36 7.36 0 0 1-.83-2.93l-5.14-25.07c-.31-1.49-.26-1.66 1.16-2.43a82.78 82.78 0 0 0 11.6-7.57c8.06-6.27 14.74-13.71 19.24-23a47.93 47.93 0 0 0 4.67-25.88 48.86 48.86 0 0 0-6.48-19.81 64.72 64.72 0 0 0-11.23-14.24l-1.65-1.6c-.06-.42.05-.66.57-.47z" fill="#a2c3f2"/><path d="M308.78 87.96h-56.35c-.77 0-1.54 0-2.31-.05a1.89 1.89 0 0 1-1.64-1.71 1.84 1.84 0 0 1 1.37-1.92 10.73 10.73 0 0 1 2.27-.23h10 102.2a26.09 26.09 0 0 1 3.07.12 2 2 0 0 1 1.79 1.85 2 2 0 0 1-2 1.93h-2.31zm.07 13.01h-56.39a22.07 22.07 0 0 1-2.3-.05 1.91 1.91 0 0 1-1.68-1.93 1.83 1.83 0 0 1 1.61-1.72 21.76 21.76 0 0 1 2.56-.08h112.26 2.05c1.38.09 2.28.91 2.2 2a2 2 0 0 1-2.12 1.79h-2zm-.07 13.52h-56.13a21.89 21.89 0 0 1-2.56-.07 1.88 1.88 0 0 1-1.6-2 1.83 1.83 0 0 1 1.67-1.66 15.23 15.23 0 0 1 1.79-.05h113.8a15.22 15.22 0 0 1 1.79.06 1.83 1.83 0 0 1-.06 3.65 24.31 24.31 0 0 1-2.56.06z" fill="#fff"/><path d="M338.88 164.56l-4.79.7a121.29 121.29 0 0 1-52.32-3.18l-1.7-.56a.31.31 0 0 1-.12-.34c0-.11.08-.17.12-.17l6.52 1.2c3.76.72 7.56 1.13 11.37 1.53a121.7 121.7 0 0 0 14 .41 112.65 112.65 0 0 0 21.27-2.36 3 3 0 0 1 2.64.46c1.02.77 2.31 1.16 3.01 2.31z" fill="#a3c2f1"/><path d="M380.12 58.49l-.54.52a17.38 17.38 0 0 1-2.57-2c-.13-.46 0-.69.5-.51a10.12 10.12 0 0 1 2.61 1.99z" fill="#a5a7c6"/><path d="M377.51 56.49l-.5.51a4.26 4.26 0 0 1-2.09-2c1.08-.01 1.8.81 2.59 1.49zm-4.13-2.6a1.6 1.6 0 0 1 1.55 1.06 1.59 1.59 0 0 1-1.55-1.06z" fill="#b08b94"/><g fill="#bb6f5f"><path d="M372.38 53.37c.42 0 .82.07 1 .53a1 1 0 0 1-1-.53z"/><path d="M371.83 52.91l.56.48z"/></g><path d="M266.26 156.93l-.55-.42.55.42z" fill="#b14d44"/><path d="M129.86 72.85a22.2 22.2 0 0 0-.87-4.51c-4.783-16.68-22.058-26.443-38.815-21.937S63.371 68.021 67.6 84.85c2.79 10.75 9.76 18 20.14 21.9 1.81.52 2.67-.92 3.51-1.95a101.44 101.44 0 0 1 8.84-9.23 85.82 85.82 0 0 1 27.26-18.17c2.92-1.19 2.91-1.2 2.51-4.55z" fill="#fff"/><path d="M87.74 106.75a2.3 2.3 0 0 0 1.57-.75l1.91-2a92.21 92.21 0 0 1 10.84-11.16 89.47 89.47 0 0 1 22-14.68c1.46-.69 3-1.24 4.5-1.81a1.68 1.68 0 0 0 1.27-1.92 9.84 9.84 0 0 1 .06-1.53c.87 1.43.55 3 .33 4.49l-.79 6.06a31.41 31.41 0 0 1-8 15.14 32.15 32.15 0 0 1-14.43 8.77 20.72 20.72 0 0 1-5 .93c-.68 0-1.35.19-2 .25a8.89 8.89 0 0 1-2.29.13c-2.42-.41-4.94-.31-7.28-1.17-.92-.32-1.97.04-2.69-.75z" fill="#087ec2"/><g fill="#f1f3f2"><path d="M442 513.21a42.3 42.3 0 0 1-5.85.13c-2.47 0-4.93 0-7.39-.06a3.17 3.17 0 0 1-.64-2.65c1.25-13.82.45-27.42-4-40.67-.91-2.69-.36-3.47 2.48-4.08l5.28-1.06c3.93-.77 4.61-.43 6 3.2a86.83 86.83 0 0 1 5.27 23.92 101.05 101.05 0 0 1-.26 18.65 3.9 3.9 0 0 1-.89 2.62z"/><path d="M427.23 513.27c-4.4.09-8.81.2-13.22-.06-.59-1.25-.16-2.52 0-3.78 1.54-10.75.11-21.25-2.68-31.63-.23-.82-.52-1.63-.68-2.47-.17-2-2-3.71-.76-5.86 3.67-1.46 7.59-1.81 11.43-2.52 1.64-.3 2.16.94 2.61 2.22a87.73 87.73 0 0 1 3.93 16.37 101.7 101.7 0 0 1 .47 25 3.77 3.77 0 0 1-1.1 2.73z"/></g><path d="M427.23 513.27a81.2 81.2 0 0 0 .93-17.34 92.7 92.7 0 0 0-4.65-25.82c-1.15-3.32-.51-2.77-3.91-2.26s-6.52 1.26-9.78 1.9a.58.58 0 0 1-.92 0c-.06-.33-.19-.73.19-.9a7.27 7.27 0 0 1 1.68-.58l23.34-4.55 24.91-4.56 22.21-3.69 8.23-1.16a6.79 6.79 0 0 0-.45-2.51q-3.3-11.16-6.06-22.48c-2.16-8.77-4.17-17.59-5.85-26.47-1.31-7-2.42-13.94-3.56-20.92-.45-2.78-.76-5.58-1.1-8.37a20.06 20.06 0 0 1-.07-2 .55.55 0 0 1 .38-.58c.44-.11.61.2.69.54a15.42 15.42 0 0 1 .41 2c.77 6.87 1.85 13.68 3 20.49A534.33 534.33 0 0 0 490 450.49c.37 1.31.82 2.6 1.2 3.91a.75.75 0 0 1-.56 1 10.47 10.47 0 0 1-1.74.41c-6.28.64-12.48 1.85-18.72 2.79-4.89.73-9.75 1.66-14.61 2.54l-16.1 3c-.33.06-.68.08-1 .16-.86.21-1.15.69-.8 1.51a66.58 66.58 0 0 1 2.84 8 93.57 93.57 0 0 1 2.75 13.27 99.66 99.66 0 0 1 .9 14.55 106.81 106.81 0 0 1-.95 11.72h-1.16c.19-2.3.45-4.59.55-6.89a113.8 113.8 0 0 0 0-13.06 83.27 83.27 0 0 0-5.9-26.35c-.16-.39-.32-.79-.5-1.17a1.18 1.18 0 0 0-1.25-.7 17.8 17.8 0 0 0-1.79.19l-7.78 1.51c-1.15.23-1.39.64-1 1.83a88.27 88.27 0 0 1 3.39 12.59 90.32 90.32 0 0 1 1.64 19.19 68 68 0 0 1-.53 10.48 16 16 0 0 0-.09 2.3z" fill="#838597"/><path d="M414.53 509.72a8.48 8.48 0 0 1-.52 3.49l-1.13.26a.24.24 0 0 1 0-.3c-1.36-.93-3.08-1.71-1.66-3.84a3.21 3.21 0 0 1 3.31.39z" fill="#8a8b9c"/><path d="M651 80.49a9.81 9.81 0 0 1-.77 4.64c-.39.76-.87 1.53-1.87 1.51a2.16 2.16 0 0 1-1.86-1.55 9.78 9.78 0 0 1 .13-8.37 3 3 0 0 1 .6-.81 1.56 1.56 0 0 1 2.27 0 4.63 4.63 0 0 1 1.26 2.46c.16.84.24 1.7.24 2.12zm-24.43.38a9.47 9.47 0 0 1 .62-3.57 3.9 3.9 0 0 1 1-1.46 1.48 1.48 0 0 1 2.07 0 4.79 4.79 0 0 1 1 1.47 10.1 10.1 0 0 1 .09 7.22 5 5 0 0 1-.9 1.51 1.54 1.54 0 0 1-2.59-.16 8 8 0 0 1-1.29-5.01z" fill="#33333c"/><path d="M638.86 99.07a12 12 0 0 1-9.23-3.67 2.23 2.23 0 0 1-.88-1.5.7.7 0 0 1 .18-.44c.11-.09.37-.18.45-.12a7.78 7.78 0 0 1 1.14 1c3.63 4.21 10.94 4 14.39 1.76a12.62 12.62 0 0 0 2.5-2.17 3.16 3.16 0 0 1 .77-.64.47.47 0 0 1 .45.06.6.6 0 0 1 .22.43c.05.66-.41 1.09-.81 1.53a12 12 0 0 1-9.18 3.76z" fill="#3e3a3b"/><path d="M414.53 509.72l-3.65.08c-1.77 1.12-3.84.89-5.73 1-5.37.18-10.71.93-16.09.72a2.28 2.28 0 0 0-1.46-.33l-6.14.06a49 49 0 0 1-15.13-2 46.46 46.46 0 0 0-13.85-2 34.06 34.06 0 0 0-11.77 2 23.56 23.56 0 0 1-4.66 1.31 4.31 4.31 0 0 1-3.6-.92 3.2 3.2 0 0 1-.46-4.74 7.7 7.7 0 0 1 2.12-1.82c.94-.58 1.92-1.1 2.88-1.65.43-.85-.13-.64-.58-.54l-3.45.76c-.33.08-.65.18-1 .24a5.7 5.7 0 0 1-5.34-1.5 2.43 2.43 0 0 0 0-.76c-.67-2 .27-3.28 1.73-4.36.81-.6 1.69-1.11 2.61-1.71-.46-.51-1-.28-1.36-.14a7.93 7.93 0 0 1-3 .45 3.23 3.23 0 0 1-3.06-2.6 3.28 3.28 0 0 1 1-3.67 8.61 8.61 0 0 1 1.78-1c.94-.41 1.9-.75 2.85-1.12 1.84-1.58 4.23-1.65 6.41-2.3a154.74 154.74 0 0 1 15.78-2c-5.31.32-10.54 1.18-15.78 2-2.32.47-4.54 1.3-6.83 1.9a3.88 3.88 0 0 1-4.2-2.25 2.3 2.3 0 0 1-.07-2 5.6 5.6 0 0 1 2-2.61 23.57 23.57 0 0 1 7.41-3.38 113.83 113.83 0 0 1 11.27-2.2c2.72-.43 5.47-.13 8.14-.78a2.21 2.21 0 0 1 .77 0c2.79.46 5.63.18 8.42.53a105.44 105.44 0 0 1 11.58 1.9c2.82.68 5.65 1.28 8.43 2.09a13.86 13.86 0 0 0 5.82.39c1.78-.26 3.56-.36 5.35-.46a10.8 10.8 0 0 0 1.74-.37c.52.08 1-.11 1.57 0l10.32-.7c1.27-.43 2.49-1.27 3.89-.4a81.46 81.46 0 0 1 3.09 12.87 33.29 33.29 0 0 1 .73 6.83c-.07 1.79.43 3.53.44 5.33 0 3.08-.56 6.1-.59 9.16-.03.23-.23.46-.33.69z" fill="#f69d85"/><path d="M397 475.94a2.39 2.39 0 0 1-.26.41c-.66.66-.77.63-1.31-.38.23-6 .18-12 0-17.93a34.26 34.26 0 0 0-1.85-8.73c-1.32-4.34-3-8.53-4.63-12.75a150.69 150.69 0 0 1-5.82-16.66 45.19 45.19 0 0 1-1.45-8.56c-.26-4.16.72-8.13 1.89-12.07a101 101 0 0 1 5.22-13.34 193.22 193.22 0 0 1 10.28-19.44c.25-.43.42-1 .94-1.16a.59.59 0 0 1 .47 0 .61.61 0 0 1 .27.41c.07.65-.36 1.11-.66 1.61-2.55 4.25-4.92 8.59-7.17 13a139.79 139.79 0 0 0-7.27 16.65 42.64 42.64 0 0 0-2.45 9.49 32 32 0 0 0 .71 11.44 129.55 129.55 0 0 0 5.28 15.76c2 5.09 4 10.15 5.65 15.37a44.81 44.81 0 0 1 2 13.35z" fill="#848798"/><path d="M484.68 320.54c.32-.13.68-.43.94-.36 1.22.32 2.56.08 3.68.79-1.93-.24-3.51.24-4.41 2.14a59.49 59.49 0 0 1-20.17 15.85 40.25 40.25 0 0 1-12.38 3.95 28 28 0 0 1-10.44-.27c-6.12-1.48-9.65-5.44-11.08-11.45a25.18 25.18 0 0 1-.53-6.36c0-.65.22-1.39-.52-1.85.28-.28.56-.55.83-.84.42-.47.85-.29 1.28 0 1.18 1.8.57 3.82.62 5.73.17 7 4 11.55 10.73 13.05a23.86 23.86 0 0 0 10.9-.38c11.45-2.71 20.7-9.06 28.42-17.77a18.37 18.37 0 0 1 2.13-2.23z" fill="#858798"/><path d="M411.16 474.84c-1.29.17-2.54.76-3.89.4l1.63-5.52h.92a4.25 4.25 0 0 0 .46 2.19l.88 2.93z" fill="#8e8c99"/><path d="M335.4 483.58a39.92 39.92 0 0 0-6.21 1.95l-.42-.44a17.61 17.61 0 0 1 6.6-2c.17.09.23.2.18.31s-.1.18-.15.18z" fill="#f3cbc0"/><path d="M341.41 439.49l-.24.39a.41.41 0 0 1 .24-.39z" fill="#a2c3f2"/><path d="M492.77 289.87c-2.12 1.37-4.45 1-6.72.7-3.89-.53-7.75-1.2-11.63-1.81-.92-.3-1.1-1.24-1.61-1.89a4.76 4.76 0 1 0-7.75 5.53c1.58 2.17 4.42 2.49 6.79.76.67-.49 1.17-1.26 2.13-1.28l9 1.48a32.19 32.19 0 0 0 6.27.61 8.18 8.18 0 0 1-2.24 2.75 38.78 38.78 0 0 1-8.1 6.16 2.56 2.56 0 0 0-1.52 2.62l.09 14.8a2.36 2.36 0 0 1-1.05 1.95c-5.32 4.7-10.85 9.12-17.37 12.08a23.71 23.71 0 0 1-10.4 2.29c-6.55-.14-11-4-11.69-10.49-.2-1.91-.57-3.92.52-5.75l.1-9.58c.76-.64 1.64-.36 2.46-.26 7.37.94 14.56-.47 21.76-1.69-8 1.41-15.41-.53-22.65-3.69a4.5 4.5 0 0 1-1.68-1.53c-1.69-1.14-3.44-2.19-5.06-3.41a41.62 41.62 0 0 1-14.54-20.14c-.19-.56-.43-1.1-.65-1.65a5.66 5.66 0 0 1-1.38-3.24c-1.29-5.75-.92-11.49-.16-17.27 1-7.27 1.24-14.62 2.65-21.83.26-1.31.32-2.75 1.6-3.63l1.38-3.58c.36-.85.66-1 1.55-.89a55.65 55.65 0 0 0 12.23.67 119 119 0 0 0 20-2.72 82.65 82.65 0 0 0 17.2-5.63 6.74 6.74 0 0 1 .9-.24 27.66 27.66 0 0 1 .76 3.4 33.45 33.45 0 0 0 4.16 10.66 20.32 20.32 0 0 0 16.29 10.08 6.18 6.18 0 0 1-1.62 1.94c-7.71 8.46-8.85 22.07-2 31.61a23.48 23.48 0 0 0 5.48 5.28c.12 2.94-1.5 4.98-3.5 6.83z" fill="#f69d85"/><path d="M419.9 232.49a70.31 70.31 0 0 0-2 11.54c-.52 5.5-1.25 11-1.87 16.47a44.51 44.51 0 0 0 .88 16.46 14.67 14.67 0 0 1 .26 1.5 18.12 18.12 0 0 1-13.36-8c-7-9.71-5.51-24.28 3.22-32.51a19.17 19.17 0 0 1 12.87-5.46z" fill="#092371"/><path d="M437.45 320.38l.06 4.86a12.48 12.48 0 0 0 2.65 7.06 9.53 9.53 0 0 0 7 3.65 22.92 22.92 0 0 0 11.19-2.06 52.72 52.72 0 0 0 11.32-6.93c2.68-2.09 5.17-4.43 7.75-6.66l7.24.24c.06.67-.38 1.09-.75 1.56A53.23 53.23 0 0 1 473 332.41a50.2 50.2 0 0 1-19.1 8.85 25.65 25.65 0 0 1-12.13 0c-4.93-1.31-7.87-4.5-9.35-9.23a22.73 22.73 0 0 1-.66-7.35c0-.85.09-1.7.13-2.55a28.71 28.71 0 0 1 5.56-1.75z" fill="#f1f3f2"/><path d="M437.44 303.63a48.62 48.62 0 0 0 10.26 3.79l5.24.9a32.86 32.86 0 0 0 5.32.4 8.71 8.71 0 0 0 3.28-.37 1.52 1.52 0 0 1 1.62.12 1.72 1.72 0 0 1-1.28.74l-9.7 2a6.61 6.61 0 0 1-1.78.07 26.48 26.48 0 0 0-4.54.47c-1.45.16-2.81-.62-4.29-.47a9.33 9.33 0 0 1-4-.49q-.06-3.57-.13-7.16z" fill="#d1836b"/><path d="M650.7 475.42q0-6 0-12l.07-2a.75.75 0 0 1 .66-.67 10.8 10.8 0 0 1 1.27-.06h8.46a7 7 0 0 1 2.76.45 4.6 4.6 0 0 1 2.9 3.62 9.75 9.75 0 0 1 .09 1.53v18.45a8.7 8.7 0 0 1 0 1 4.54 4.54 0 0 1-3.57 4.17 7.51 7.51 0 0 1-1.76.28q-4.74 0-9.48 0c-1.12 0-1.35-.23-1.35-1.37V475.5z" fill="#087ec2"/><path d="M258 277.04h8.43c1.52 0 1.75.28 1.65 1.85a13.09 13.09 0 0 1-3 7.8 9.39 9.39 0 0 1-12.66 1.47c-3.41-2.65-4.36-6.21-4.71-10-.06-.64.41-1.07 1.12-1.12s1.19 0 1.79 0H258z" fill="#3d393f"/><path d="M251.31 266.83a9 9 0 0 1-1 5c-.91 1.56-2.55 1.58-3.37 0a9.41 9.41 0 0 1 0-8.81 2.47 2.47 0 0 1 .45-.61 1.55 1.55 0 0 1 2.44 0 6.2 6.2 0 0 1 1.29 3 7.26 7.26 0 0 1 .19 1.42z" fill="#33333c"/><path d="M265.11 267.36a8.26 8.26 0 0 1 .57-3.48 7.19 7.19 0 0 1 .92-1.5 1.46 1.46 0 0 1 2.4.06 4.48 4.48 0 0 1 .79 1.28 10.53 10.53 0 0 1 0 7.46c-.34.89-.84 1.74-1.93 1.78s-1.71-.91-2.13-1.86a8.85 8.85 0 0 1-.62-3.74z" fill="#32323c"/><path d="M389.06 511.49c.37-.33.65-.72 1.26-.74l10.66-.51a47.4 47.4 0 0 0 5.58-.38 27.05 27.05 0 0 1 4.32-.05 9.85 9.85 0 0 0 2 3.37l-2 .18h-20.24-1.27c-.42 0-.72-.36-.59-.86.08-.37.22-.7.28-1.01z" fill="#eae8e8"/><path d="M336.41 500.93a1.47 1.47 0 0 1 1.6-.36.2.2 0 0 1 .08.37 8.57 8.57 0 0 1-1.1.53z" fill="#8e565a"/><path d="M635.88 235.4h3.33a2.06 2.06 0 0 0 2.17-1.78l.9-3.45a1.66 1.66 0 0 0-.72-2l-3.27-2-3.07-1.85a1.83 1.83 0 0 1-.73-2.66 47.32 47.32 0 0 1 2.42-4.21 1.58 1.58 0 0 1 2.23-.56l4.66 2.68c3.56 2.09 3.12 1.84 5.55-.59l1.09-1.08a2.25 2.25 0 0 0 .54-2.8c-.6-1.34-1.5-2.56-2.09-3.91a9.18 9.18 0 0 0-1.32-2.21 1.39 1.39 0 0 1 0-2 5.52 5.52 0 0 1 1.14-1l3.08-1.82c1.57-.85 2.23-.72 3.17.79l3.23 5.52c.62 1.17 1.33 1.66 3 1.23l3.19-.89a2.14 2.14 0 0 0 1.68-2.36 39.42 39.42 0 0 1 0-4.21c.07-.86 0-1.74.06-2.61a1.92 1.92 0 0 1 1.69-1.95 43.77 43.77 0 0 1 4.86 0 1.89 1.89 0 0 1 1.69 1.95v4.61 2.56a2 2 0 0 0 1.42 1.93l4.2 1.1a1.77 1.77 0 0 0 2.09-1.25 10.35 10.35 0 0 1 .7-1.31c3.55-5.83 3.2-6.7 6.68-4.58a23.73 23.73 0 0 1 3.22 2.1 1.47 1.47 0 0 1 .31 1.83l-2.94 5.12a10 10 0 0 0-.79 1.61 2.18 2.18 0 0 0 .67 2.57 12.33 12.33 0 0 1 2.21 2.18c.85 1.13 1.81 1.14 2.91.22a8.87 8.87 0 0 1 2.38-1.43c1.32-.52 2.48-1.38 3.77-2a1.61 1.61 0 0 1 2.23.56 47.32 47.32 0 0 1 2.42 4.21 1.83 1.83 0 0 1-.73 2.66l-3.07 1.85-3.27 2a1.7 1.7 0 0 0-.6 2.31 6 6 0 0 1 .33 1.09c.66 3.11.81 3.79 2.87 3.85h4.87 1.79a2 2 0 0 1 2.11 2.09v4.35c-.06 1.45-.67 1.88-2.2 2.13a5.34 5.34 0 0 1-.69.05h-6.14c-1.46 0-1.76.3-2.16 1.69l-.81 3c-.43 1.55-.3 1.93 1 2.73l5.51 3.25c1.81 1.13 1.81 1.83.83 3.58l-1.76 3.12a2 2 0 0 1-3 .78l-4.66-2.68-1.33-.77a1.9 1.9 0 0 0-2.35.33l-2.53 2.54a2.24 2.24 0 0 0-.35 3l2.31 4 1.21 2.25a1.45 1.45 0 0 1-.43 1.84 4.5 4.5 0 0 1-.83.6l-3.55 2a1.59 1.59 0 0 1-2.44-.46 10.58 10.58 0 0 1-1-1.49l-2.9-4.83c-.8-1.25-1-1.28-2.53-.93l-3 .7a2.31 2.31 0 0 0-2 2.56v5.38c0 3.15-.11 3.25-3.37 3.26h-2.56c-2-.06-2.32-.41-2.36-2.46v-4.61-1.54c-.11-1.55-.59-2.19-2-2.58l-3.22-.79a1.64 1.64 0 0 0-2.17.79q-1.62 2.61-3.15 5.27a5.78 5.78 0 0 1-1.41 1.8 1.19 1.19 0 0 1-1.42.17l-4.45-2.54c-1.45-.91-1.43-1.9.17-3.7a10.17 10.17 0 0 0 2-3.79c.18-.55.65-1 .8-1.6a2 2 0 0 0-.44-2.14l-2.54-2.54c-.87-.82-1.53-1.06-2.75-.41l-4.66 2.67a14.05 14.05 0 0 1-1.56.87 1.63 1.63 0 0 1-2.24-.61l-2.5-4.17a1.89 1.89 0 0 1 .77-2.65l5.5-3.26.89-.5a1.67 1.67 0 0 0 .76-2l-1.17-4.14a1.37 1.37 0 0 0-1.27-1c-2-.06-4.05 0-6.07 0a8.83 8.83 0 0 1-1.78-.11 2.05 2.05 0 0 1-1.88-2.33v-4.69a1.56 1.56 0 0 1 1.39-1.45c1.42-.13 2.85-.06 4.27-.06z" fill="#087ec2"/><path d="M510.19 246.13c4.89-.09 8.07 2.27 10.43 5.88a18.87 18.87 0 0 1 2.63 7.39 19.18 19.18 0 0 1-2.52 13 14.23 14.23 0 0 1-9.42 7.24 10.73 10.73 0 0 1-8.47-1.75c-3.43-2.18-5.22-5.54-6.17-9.36a19.52 19.52 0 0 1 3-16.29 14.69 14.69 0 0 1 6.61-5.47 9.14 9.14 0 0 1 3.91-.64z" fill="#305879"/><path d="M474 291.88l-1.14 1.38a5.28 5.28 0 0 1-5.86 1.41 5.36 5.36 0 0 1-3.65-4.82 5.52 5.52 0 0 1 9-4.55 7.21 7.21 0 0 1 2.06 3.46c.16 1.09-.41 2.07-.41 3.12z" fill="#555"/><path d="M492.77 289.87c1.14-2.28 2.67-4.36 3.41-6.83l3.71 1.56c.6.26.69.65.2 1.14-2.09 2.02-4.35 3.69-7.32 4.13z" fill="#2d324a"/><path d="M352.39 488.66l1.51.16a.27.27 0 0 1 .24.37c-.06.14-.13.32-.25.37a2.33 2.33 0 0 1-.74.16 84.09 84.09 0 0 0-16.29 2.85 3.55 3.55 0 0 1-1 .06.26.26 0 0 1-.2-.15c0-.15 0-.4.05-.45a4.93 4.93 0 0 1 1.35-.69 76.31 76.31 0 0 1 11.51-2.17c1.29-.1 2.5-.68 3.82-.51z" fill="#bd624d"/><path d="M335.4 483.58a1.3 1.3 0 0 0 0-.48c1.15-.89 2.57-.76 3.87-1l6-1c1.26-.15 2.56 0 3.82-.24a12.52 12.52 0 0 1 3.28-.33 1.39 1.39 0 0 1 .67.29c.07 0 0 .33 0 .44a.68.68 0 0 1-.43.23l-5.06.58c-2 .09-4 .54-6 .76s-4.08.96-6.15.75z" fill="#be6551"/><path d="M356.65 497.4v.23a1.78 1.78 0 0 1-.7.27 56.65 56.65 0 0 0-14.78 2.51 3.7 3.7 0 0 1-1 0c-.07 0-.2-.08-.2-.13s0-.38.08-.44a4.13 4.13 0 0 1 .89-.45 46.28 46.28 0 0 1 9.18-2.09 36.49 36.49 0 0 1 5.32-.45 4.17 4.17 0 0 1 1 .15c.07.07.13.27.21.4z" fill="#bc614c"/><path d="M477.92 262.08a4.12 4.12 0 0 1 4.1 5.2c-.49 1.81-3.24 3.44-5.07 2.89a5.31 5.31 0 0 1-2.83-1.62 3.83 3.83 0 0 1 1.23-5.66 4.52 4.52 0 0 1 2.57-.81zm-47.66 4.62a3.19 3.19 0 0 1-3.14-1.45 3.83 3.83 0 0 1 2.5-6.22 8.91 8.91 0 0 1 1.79 0 3.71 3.71 0 0 1 3.34 5.25 3.62 3.62 0 0 1-3.29 2.45z" fill="#d1836b"/><path d="M471.3 252.49a9.61 9.61 0 0 1-1.29 4.86 2.46 2.46 0 0 1-2.21 1.49c-1.16-.1-1.7-1.05-2-2.05a9.46 9.46 0 0 1 .76-7.4 2.48 2.48 0 0 1 2.34-1.69c1.22.09 1.66 1 2 2a6.52 6.52 0 0 1 .4 2.79zm-25.15-2.71a11.88 11.88 0 0 1-.78 3.72 5 5 0 0 1-1.25 1.9 1.84 1.84 0 0 1-3-.38 4.8 4.8 0 0 1-.53-1.15 9.3 9.3 0 0 1 .85-7.38c.49-.94 1.22-1.77 2.37-1.61s1.62 1.12 1.93 2.15a7.36 7.36 0 0 1 .41 2.75z" fill="#32323d"/><path d="M465.56 241.55a16.56 16.56 0 0 1 10.29 3.88 1.51 1.51 0 0 1 .62 1.07 1.06 1.06 0 0 1-.28.94.9.9 0 0 1-.94.17 8.22 8.22 0 0 1-1.92-1.22 12.72 12.72 0 0 0-8.82-2.48 1.1 1.1 0 0 1-1.32-.87 1.15 1.15 0 0 1 .89-1.34c.58-.1 1.17-.12 1.48-.15z" fill="#b25b47"/><path d="M448.24 278.58a10.65 10.65 0 0 1-3.2-.74.71.71 0 0 1-.55-.74.73.73 0 0 1 1-.49 7.17 7.17 0 0 0 2.24.38 43.79 43.79 0 0 0 10.4-1.12 7.47 7.47 0 0 1 3-.43 9.47 9.47 0 0 0 2.75-1.14 8.22 8.22 0 0 1 1.16-.37.54.54 0 0 1 .43.19.49.49 0 0 1 0 .67 8 8 0 0 1-1 .74 11.56 11.56 0 0 0-2.34 1.39c-4.42 2.57-8.93 3.97-13.89 1.66z" fill="#b35c48"/><path d="M449.72 264.06a12.35 12.35 0 0 1 .34-1.46l4-10.8a1.37 1.37 0 0 1 .43-.62 1.15 1.15 0 0 1 .69-.13c.1 0 .26.26.26.4a4.2 4.2 0 0 1-.17 1.23l-2.86 7.39a21.19 21.19 0 0 0-1.15 3.65c-.25 1.26-.15 1.67.91 2.32.73.44 1.52.77 2.28 1.16a11 11 0 0 1 1.11.63.5.5 0 0 1 .15.43.52.52 0 0 1-.27.38c-1.57.33-5.09-1.58-5.52-3a8.49 8.49 0 0 1-.2-1.58z" fill="#b55e4a"/><path d="M445.92 239.54c1.3-.2 2.58.34 3.91.62a2 2 0 0 1 .86.53.88.88 0 0 1 .25 1.14 1 1 0 0 1-1 .69 3.33 3.33 0 0 1-.74-.18 11.32 11.32 0 0 0-8.65.78 6.14 6.14 0 0 1-.7.3 1 1 0 0 1-1.12-.39 1.13 1.13 0 0 1 .08-1.41 3.11 3.11 0 0 1 .83-.58 13 13 0 0 1 6.28-1.5z" fill="#b35d48"/><path d="M461.09 275.49a16.57 16.57 0 0 1-6.93 1.95 37.93 37.93 0 0 1-5.54 0c-.3 0-.59-.27-.89-.41a3 3 0 0 0 2.06-.78 7.6 7.6 0 0 1 5.33-1.84h3.53a2.93 2.93 0 0 1 2.44 1.08z" fill="#db7776"/><path d="M448.24 278.58c3.91 1 7.68.14 11.43-.92.81-.23 1.61-.5 2.42-.74a5 5 0 0 1-3.64 3.23 15.2 15.2 0 0 1-5.5.91 11.2 11.2 0 0 1-3.19-.83c-.76-.28-1.12-1-1.52-1.65z" fill="#da7877"/><path d="M266.32 281.6a7.66 7.66 0 0 1-4.56 6c-3.4 1.49-8.74 1.13-11.14-4.1a18 18 0 0 1-.63-1.92c2.38-1.21 14.01-1.2 16.33.02z" fill="#feb02a"/><path d="M266.32 281.6h-16.33a7.45 7.45 0 0 1-.56-2.93 146.19 146.19 0 0 1 17.52 0 6.35 6.35 0 0 1-.63 2.93z" fill="#fdffff"/><path d="M670.28 261.55c-11.74-.2-21.75-9.06-21.86-21.81s10.5-22.34 21.94-21.81c11.48-.49 22 9.3 21.86 21.89-.17 12.83-10.28 21.59-21.94 21.73z"/><path d="M497.47 263.9a18.05 18.05 0 0 1 4.39-12.41 11.88 11.88 0 0 1 7.94-4.21 9.29 9.29 0 0 1 4.7 1 11.39 11.39 0 0 1 6 6.31c2.85 6.75 2 13.16-2.21 19.09a11.37 11.37 0 0 1-7.89 4.76c-4.09.55-7.32-1.21-9.75-4.42a15.81 15.81 0 0 1-3.18-10.12zm173.08-42.86a18.61 18.61 0 0 0-13.75 31.34 18.52 18.52 0 0 0 32-12.93c.48-9.54-8.01-18.29-18.25-18.41z" fill="#087ec2"/></svg>