<svg xmlns="http://www.w3.org/2000/svg" xmlns:xlink="http://www.w3.org/1999/xlink" viewBox="0 0 430.95 429.51" xmlns:v="https://vecta.io/nano"><style><![CDATA[.S{fill:#263238}.T{fill:#fafafa}.U{fill:#455a64}.V{fill:#f5f5f5}.W{fill:#ffc5d9}.X{fill:#e0e0e0}.Y{fill:#c2f2d0}.Z{fill:#ebebeb}.a{fill:#6b3e26}.b{fill:#fdf5c9}.c{fill:#e8505b}.d{fill:#ffbe9d}]]></style><g class="X"><use xlink:href="#B"/><path d="M404.8 89.3c0-.17.79-.31 1.75-.31s1.76.14 1.76.31-.79.3-1.76.3a3.21 3.21 0 0 1-1.75-.3zm-7 0c0-.17.79-.31 1.75-.31s1.75.14 1.75.31-.78.3-1.75.3a3.21 3.21 0 0 1-1.75-.3z"/><use xlink:href="#C"/><use xlink:href="#C" x="-7"/><use xlink:href="#B" x="-35.01"/><path d="M369.79 89.3c0-.17.79-.31 1.76-.31s1.75.14 1.75.31-.79.3-1.75.3a3.3 3.3 0 0 1-1.76-.3zm-7 0c0-.17.79-.31 1.75-.31s1.75.14 1.75.31-.78.3-1.75.3a3.21 3.21 0 0 1-1.75-.3z"/><use xlink:href="#C" x="-35.01"/><use xlink:href="#C" x="-42.01"/><use xlink:href="#B" x="-70.02"/><use xlink:href="#B" x="-77.02"/><path d="M329.8 87.28c.16 0 .3.79.3 1.75v.27l-.3-.3c.84 0 1.48.14 1.48.3s-.64.27-1.48.3h-.3V89c-.01-.93.13-1.72.3-1.72z"/><use xlink:href="#D"/><use xlink:href="#E"/><use xlink:href="#E" y="-7"/><path d="M329.8 59.28c.16 0 .3.78.3 1.75s-.14 1.75-.3 1.75-.31-.79-.31-1.75.14-1.75.31-1.75z"/><use xlink:href="#D" y="-28.01"/><use xlink:href="#D" y="-35.01"/><use xlink:href="#E" y="-35.01"/><use xlink:href="#E" y="-42.01"/><path d="M329.8 24.27c.16 0 .3.78.3 1.75s-.14 1.75-.3 1.75-.31-.79-.31-1.75.14-1.75.31-1.75zm0-7c.16 0 .3.79.3 1.76s-.14 1.75-.3 1.75-.31-.79-.31-1.75.14-1.77.31-1.77z"/><use xlink:href="#D" y="-70.02"/><path d="M330.3 3.79c0 .08-.2.16-.52.21l.21-.21a6.21 6.21 0 0 1 .09 1.21c0 1-.14 1.75-.3 1.75s-.31-.75-.31-1.75a8.25 8.25 0 0 1 .09-1.22v-.24h.18c.38.08.56.16.56.25z"/><use xlink:href="#F"/><use xlink:href="#F" x="7"/><use xlink:href="#G"/><use xlink:href="#G" x="7"/><use xlink:href="#H"/><use xlink:href="#H" x="7"/><use xlink:href="#F" x="42"/><path d="M386.3 3.79c0 .16-.79.3-1.75.3s-1.76-.14-1.76-.3.79-.31 1.76-.31 1.75.14 1.75.31z"/><use xlink:href="#G" x="42"/><use xlink:href="#H" x="35"/><use xlink:href="#H" x="42"/><use xlink:href="#F" x="77"/><use xlink:href="#I"/><path d="M415.3 16.83c-.17 0-.31-.79-.31-1.76s.14-1.75.31-1.75.3.79.3 1.75-.13 1.76-.3 1.76z"/><use xlink:href="#J"/><use xlink:href="#K"/><use xlink:href="#K" y="7"/><use xlink:href="#I" y="35.01"/><use xlink:href="#I" y="42.01"/><use xlink:href="#J" y="35.01"/><use xlink:href="#J" y="42.01"/><use xlink:href="#K" y="42.01"/><use xlink:href="#K" y="49.01"/><use xlink:href="#I" y="77.02"/></g><path d="M412.14 85.26h6.33v6.33h-6.33zm-85.51.87H333v6.33h-6.33zM412.14 0h6.33v6.33h-6.33zm-85.51.62H333V7h-6.33zM82.22 112.69c11.06-9.7 12.06-25.54 10-39.45-.34-2.33-.36-4.81-1.69-6.74s-4.08-3-6.06-1.82c-1.64 1-2.17 3.1-3 4.88a13.7 13.7 0 0 1-4.89 5.82c-1.4.94-3.18 1.61-4.74 1-2.13-.89-2.68-3.65-2.92-6l-1.35-13a21.56 21.56 0 0 0-1.46-6.81 7.26 7.26 0 0 0-5-4.37c-2.28-.37-4.87 1.2-5.08 3.52a21.69 21.69 0 0 0 .25 2.9 2.45 2.45 0 0 1-1.17 2.45 2.84 2.84 0 0 1-2.67-.78 30.81 30.81 0 0 1-6.45-7.75 43.25 43.25 0 0 0-6.12-8.06c-2.45-2.31-5.68-4-9-3.82s-6.66 2.61-7.14 6 1.8 6.47 4.16 8.88a51.94 51.94 0 0 0 11.91 9.09 4.28 4.28 0 0 1 2 1.74c.68 1.49-.62 3.19-2.09 3.86-1.71.77-3.61.77-5.4 1.21s-3.65 1.43-4.15 3.21c-.69 2.47 1.57 4.74 3.7 6.15a44.68 44.68 0 0 0 14 6.13A15.42 15.42 0 0 1 53 82.76a4.28 4.28 0 0 1 1.92 4.77c-.65 1.77-2.73 2.48-4.55 2.35a32.37 32.37 0 0 1-5.31-1.38c-3.32-.86-7.41-.18-9.15 2.8a7.37 7.37 0 0 0-.06 6.57 17 17 0 0 0 4.15 5.35 44.89 44.89 0 0 0 20.51 11.28c7.68 1.75 14.6 1.69 21.66-1.81" class="Y"/><g class="T"><path d="M83.54 123a103 103 0 0 0-5.9-18.69 209.32 209.32 0 0 0-10.71-21.44l-3.1-5.49-3.13-5.26a107.61 107.61 0 0 0-6.86-9.3C51.51 60 49.2 57.35 47 54.91s-4.26-4.66-6.25-6.61a82.79 82.79 0 0 0-10-8.51c-1.26-.9-2.26-1.58-2.94-2l-.78-.5c-.18-.12-.27-.17-.28-.16l.25.19.76.54L30.67 40a88.87 88.87 0 0 1 9.91 8.58c2 2 4 4.2 6.2 6.64s4.46 5.07 6.77 7.92a107 107 0 0 1 6.82 9.29c1.09 1.67 2.09 3.44 3.11 5.24l3.09 5.48a211.32 211.32 0 0 1 10.73 21.33 103.83 103.83 0 0 1 6 18.61"/><path d="M60.57 72.12a4.21 4.21 0 0 0 .12-1l.13-2.78v-9.16l.12-9.18c0-1.17.1-2.11.15-2.77a4.18 4.18 0 0 0 0-1 4.9 4.9 0 0 0-.19 1L60.62 50c-.19 2.34-.27 5.59-.25 9.17l.09 9.15v2.78a4.79 4.79 0 0 0 .11 1.02zm-30.43-2.28a6.12 6.12 0 0 0 1.21 0h3.27c2.76 0 6.58.12 10.79.44s8 .79 10.73 1.2l3.24.51a6.81 6.81 0 0 0 1.19.16 6.64 6.64 0 0 0-1.16-.32c-1.07-.25-2.14-.47-3.22-.65-2.73-.49-6.53-1-10.75-1.33a105.59 105.59 0 0 0-10.82-.32c-1.39 0-2.51.11-3.28.18a6 6 0 0 0-1.2.13zm47.08 34a1.68 1.68 0 0 0 .16-.39l.39-1.13 1.31-4.22c1.07-3.57 2.38-8.55 3.75-14.07l3.62-14.1 1.18-4.25.37-1.18a2.07 2.07 0 0 0 .08-.42 1.71 1.71 0 0 0-.17.39c-.1.31-.23.68-.39 1.13-.33 1-.78 2.43-1.31 4.22-1.06 3.57-2.37 8.56-3.75 14.08L78.79 98l-1.18 4.25-.31 1.16a1.15 1.15 0 0 0-.08.41z"/><path d="M36.19 95.42a1.48 1.48 0 0 0 .41.12l1.19.26 4.4.91 14.47 3.12 14.5 3 4.42.77 1.21.18a1.55 1.55 0 0 0 .43 0 2.77 2.77 0 0 0-.41-.12l-1.2-.26-4.39-.9-14.47-3.13-14.51-3-4.42-.77-1.21-.18a2.94 2.94 0 0 0-.42 0z"/></g><circle cx="222.72" cy="304.96" r="124.55" class="X"/><path d="M222.72 403.25A98.29 98.29 0 1 1 321 305a98.3 98.3 0 0 1-98.28 98.25zm0-195.58A97.29 97.29 0 1 0 320 305a97.29 97.29 0 0 0-97.29-97.29zm0 211.25a114 114 0 1 1 114-114 114 114 0 0 1-114 114zm0-226.93a113 113 0 1 0 113 113 113 113 0 0 0-113-112.99zm0 198.19A85.23 85.23 0 1 1 307.94 305a85.23 85.23 0 0 1-85.22 85.18zm0-169.45A84.23 84.23 0 1 0 306.94 305a84.23 84.23 0 0 0-84.22-84.23zm0 156.1A71.87 71.87 0 1 1 294.59 305a71.87 71.87 0 0 1-71.87 71.83zm0-142.74A70.87 70.87 0 1 0 293.59 305a70.87 70.87 0 0 0-70.87-70.87zm0 129A58.19 58.19 0 1 1 280.9 305a58.19 58.19 0 0 1-58.18 58.18zm0-115.37A57.19 57.19 0 1 0 279.9 305a57.19 57.19 0 0 0-57.18-57.19zm0 103A45.86 45.86 0 1 1 268.58 305a45.86 45.86 0 0 1-45.86 45.86zm0-90.72a44.86 44.86 0 1 0 44.86 45 44.86 44.86 0 0 0-44.86-44.86z" class="T"/><path d="M213.38,4.92h48.33V53.25H213.38Z" class="Z"/><path d="M165.71,266.62,274.46,259l8.36,119.44-108.75,7.61Z" class="S"/><path d="M271.21,317.43l-1.59-35.21-94.74,8.89,3.62,36.58ZM291,378.54,169.62,386.7a7.69,7.69,0,0,1-8.18-7.15h0a7.68,7.68,0,0,1,7.15-8.18h0L290,363.21a7.69,7.69,0,0,1,8.18,7.15h0a7.69,7.69,0,0,1-7.15,8.18Z" class="U"/><path d="M21.86,111.76H425.92v183H21.86Z" class="Z"/><path d="M21.86,294.8l10.44,5.44,383.62-.36,10-5.08Z" class="X"/><path d="M131.46,277.53l-.72-123.27H320.15V278.8l-188.69-1.27Z" class="U"/><path d="M170.55,254.07c7.33-.39,14.78,1.34,22.11,2.18l-3.93-1A23.61,23.61,0,0,1,215,229.72c5.21.61,10.33,2.95,15.5,2.08,9.49-1.6,14.36-12.89,23.37-16.27,11.51-4.32,24.91,5.78,36.26,1.05,4.6-1.91,7.95-6,12.22-8.54,3.65-2.19,8.95-2.83,12-.3V181.21c-3,5.86-10.5,8.71-17.22,8.16-7.14-.59-13.63-4.17-19.83-7.73s-12.55-7.22-19.65-8.22c-10.11-1.29-19.9,3.22-29.7,6-8.85,2.49-18.38,3.57-27.21,1-.3-.09-.58-.2-.88-.3a15.13,15.13,0,0,1-3.68,2.62c-7.52,3.64-17.55-1.24-24.41,3.52-4.11,2.85-5.54,8.19-8.56,12.18-5.57,7.36-19,9.49-26.7,4.33v68.78h4.05a39,39,0,0,1,30-17.48Zm116-54.32a4,4,0,0,1,1.54-.74l.22-.08h-.08a4.57,4.57,0,1,1-1.23.57Z" class="T"/><path d="M314.38,207.7c-3.08-2.53-8.38-1.89-12,.3-4.27,2.57-7.62,6.63-12.22,8.54-11.35,4.73-24.75-5.37-36.26-1-9,3.38-13.88,14.67-23.37,16.27-5.17.87-10.29-1.47-15.5-2.08a23.62,23.62,0,0,0-26.27,25.53l3.93,1c5.71.66,11.33.78,16.76-1,15.62-5.28,24.13-25.18,40.51-27.07,9.08-1,18.15,4,27.17,2.47,7.31-1.24,13.14-6.55,19.18-10.85s11.87-8.26,18.62-5.79v-5.79a5.79,5.79,0,0,0-.55-.43Z" class="W"/><path d="M296.3,219.75c-6,4.3-11.87,9.61-19.18,10.85-9,1.54-18.09-3.52-27.17-2.47-16.38,1.89-24.89,21.79-40.51,27.07-5.43,1.83-11.05,1.71-16.76,1.05-7.33-.84-14.78-2.57-22.11-2.18a39,39,0,0,0-30,17.52h4a29.71,29.71,0,0,1,14.4-8.08A29.12,29.12,0,0,1,182.46,268c1.54,1.1,3,2.36,4.44,3.59h29.81c1.32-.75,2.64-1.49,4-2.17,5.4-2.75,11.57-4.65,17.49-3.39a15.24,15.24,0,0,1,9.13,5.59h31.93a8.78,8.78,0,0,1,5.15-4.54c2.41-.74,5.19-.46,7.25-1.91,2.4-1.68,2.85-5,3.82-7.73a17.82,17.82,0,0,1,19.42-11.06V214c-6.75-2.47-12.68,1.56-18.6,5.79ZM268.08,265.3c-5.08,2.5-12-.31-14-5.64-1.52-4.19.39-9.18,4-11.74l-.79.37a9.14,9.14,0,0,1,2.95-1.54,7.26,7.26,0,0,1,1-.32l-.18.08a10.62,10.62,0,0,1,11.05,4.28c3.06,4.78,1,12-4.05,14.51Zm35.42-36.22a2.68,2.68,0,0,1-2.62-4.68h0l-.27.13a2.3,2.3,0,0,1,.93-.45l.14-.05h-.05a2.7,2.7,0,0,1,1.87,5Z" class="a"/><path d="M295.45 257.55c-1 2.76-1.42 6.05-3.82 7.73-2.06 1.45-4.84 1.17-7.25 1.91a8.78 8.78 0 0 0-5.15 4.54h35.67v-25.31a17.81 17.81 0 0 0-19.45 11.13zM159 263.51a29.71 29.71 0 0 0-14.4 8.08h42.33l-4.49-3.59a29.11 29.11 0 0 0-23.44-4.49z" class="b"/><use xlink:href="#L" class="c"/><path d="M225.82 168.28c-5.33.39-11-.53-15.77 1.94-4.24 2.22-6.82 6.72-10.29 10 .29.09.58.21.87.29 8.83 2.56 18.36 1.48 27.21-1 9.8-2.76 19.6-7.28 29.7-6 7.1.91 13.48 4.62 19.68 8.18s12.69 7.14 19.83 7.73c6.73.56 14.19-2.29 17.23-8.16v-21.84h-76.56c-.37 5.23-6.61 8.46-11.9 8.86zm59.36 36.46a4.44 4.44 0 1 0 3.07-5.77h.08l-.22.08a4 4 0 0 0-1.54.74l.45-.21a4.63 4.63 0 0 0-1.84 5.16z" class="a"/><path d="M261.08,246.51l.22-.09a7.26,7.26,0,0,0-1,.32,9.14,9.14,0,0,0-2.95,1.54l.79-.37c-3.57,2.56-5.48,7.55-4,11.74,1.92,5.33,8.88,8.14,14,5.64s7.11-9.73,4.07-14.51a10.65,10.65,0,0,0-11.13-4.27Z" class="b"/><use xlink:href="#M" class="c"/><path d="M163.21,198.47c3-4,4.45-9.33,8.56-12.18,6.86-4.76,16.89.12,24.41-3.52a15.13,15.13,0,0,0,3.68-2.62c3.48-3.25,6.06-7.75,10.3-10,4.74-2.47,10.43-1.55,15.76-2s11.43-3.59,11.8-8.87H136.15l.15,43.3.21.13c7.71,5.25,21.13,3.12,26.7-4.24Z" class="W"/><path d="M265.38,211.85l-7-27.37.08.05-78.35,19.94h0l.07-.13,7,27.39-.13-.07,78.39-19.81-78.34,20H187v-.1l-7-27.39v-.1h.11l78.29-19.84h.06v.06l6.91,27.37Z" class="S"/><path d="M264 210.83l2-.51.52 2-2 .52zM185.73 231l2-.51.51 2-2 .52zM257 183.34l2-.52.51 2-2 .51zm-39.45 10.03l2-.51.52 2-2 .52zm6.97 27.5l2-.52.52 2-2 .51zm-42.37-4.02l2-.51.52 2-2 .52zm78.36-19.91l2-.52.52 2-2 .51zm-81.74 6.69l2-.52.51 2-2 .51z" class="U"/><g class="S"><path d="M199.3 206.75l-5.64 1.43-.68-2.67 14.44-3.67.68 2.68-5.64 1.48 3.64 14.34-3.16.81zm24 3.31l-10.18 2.59c.84 1.8 2.73 2.62 5 2a4.79 4.79 0 0 0 3.17-2.3l2.1 1.45a6.75 6.75 0 0 1-4.69 3.45c-4.35 1.1-7.88-1-8.86-4.84a6.66 6.66 0 0 1 4.57-8.23l.43-.11a6.53 6.53 0 0 1 8.12 4.38 6.23 6.23 0 0 1 .15.62 5 5 0 0 0 .19.99zm-10.72.58l7.37-1.87a3.65 3.65 0 0 0-4.48-2.23 3.7 3.7 0 0 0-2.93 4.1zm23 2.18l-4.48-3.65-2.21 5.35-3.35.85 3.38-7.88-6.46-5.16 3.38-.86 4.26 3.45 2.11-5.07 3.28-.83-3.25 7.58L239 212zm13.29-4.13a5 5 0 0 1-2.7 1.62c-2.84.72-4.85-.37-5.58-3.24l-1.59-6.25-2.14.54-.61-2.43 2.14-.54-.76-3 3-.77.75 3 3.48-.89.62 2.43-3.48.89 1.57 6.17a1.73 1.73 0 0 0 1.87 1.58 1.58 1.58 0 0 0 .42-.09 2.73 2.73 0 0 0 1.57-1z"/><path d="M263.8 205.65l-39.15 10-39.21 9.85c0-.06 17.52-4.55 39.16-10.05l39.2-9.8zm163.5.66a7 7 0 0 0 3.51-6.47 9 9 0 0 0-.78-4 8.71 8.71 0 0 0-3.2-3.6c-2.93-2-7.37-2.34-11.46-.59s-7.88 5-12 8.27a36.18 36.18 0 0 1-6.86 4.49 21 21 0 0 1-8.48 1.91A22.37 22.37 0 0 1 371.3 199a20 20 0 0 1-4.69-8.67 13.49 13.49 0 0 1 1.15-10 11.21 11.21 0 0 1 3.56-3.75 8.41 8.41 0 0 1 4.91-1.42 7.27 7.27 0 0 1 4.58 2.09 10 10 0 0 1 2.42 4.33 12.39 12.39 0 0 1-1 9.39 13.11 13.11 0 0 1-7.1 5.66 17.45 17.45 0 0 1-8.66.66 28.41 28.41 0 0 1-7.75-2.69c-4.74-2.38-8.7-5.32-12.56-7.57a32.36 32.36 0 0 0-11.11-4.46 16.92 16.92 0 0 0-8.91.89 13.16 13.16 0 0 0-4.73 3.16l-.58.65-.39.49c-.2.27-.32.4-.32.4s.09-.15.28-.43l.36-.51.57-.67a13.06 13.06 0 0 1 4.74-3.27 16.87 16.87 0 0 1 9-1 32.43 32.43 0 0 1 11.24 4.43c3.9 2.24 7.87 5.16 12.57 7.5a28 28 0 0 0 7.64 2.63 17.08 17.08 0 0 0 8.42-.66 12.7 12.7 0 0 0 6.83-5.46 12 12 0 0 0 .94-9 9.42 9.42 0 0 0-2.29-4.1 6.76 6.76 0 0 0-4.25-1.94 7.73 7.73 0 0 0-4.59 1.33 10.78 10.78 0 0 0-3.4 3.58 12.93 12.93 0 0 0-1.09 9.62 19.49 19.49 0 0 0 4.56 8.45 21.88 21.88 0 0 0 16.35 7.17 20.65 20.65 0 0 0 8.29-1.84 36.13 36.13 0 0 0 6.79-4.42c4.09-3.27 7.86-6.6 12.1-8.27s8.76-1.36 11.76.68a9 9 0 0 1 3.26 3.75 9.13 9.13 0 0 1 .76 4.12 7.91 7.91 0 0 1-2.06 5.31 4.5 4.5 0 0 1-.66.57 2.32 2.32 0 0 1-.53.35z"/></g><g opacity=".3"><use xlink:href="#M"/><use xlink:href="#L"/></g><path d="M182.47,320.59c2.74-4.93,9.09-6.66,14.73-6.47s11.21,1.82,16.85,1.56c12.9-.61,24.07-10.89,37-10.52,7.75.22,15.31,4.33,22.93,2.9,1.84-.35,4-.93,5.37.37a3.41,3.41,0,0,1,.12,4.24,9.22,9.22,0,0,1-3.64,2.75c-19.7,9.95-42.5,10.92-64.39,13.67-5.6.7-11.3,1.53-16.86.55s-11.09-4.13-13.32-9.31" class="W"/><path d="M338.24 288.53l-35.71-63-2.91-5.63a8.47 8.47 0 0 0-6.83-4.55l-5.76-.47s.42-6.68-2.69-6.16c-2 .34-9.28 6.59-7.87 8.43s5.54-2.91 5.54-2.91l1.57 11.69s-10.95-6.37-12.71-6a1.65 1.65 0 0 0-.45 3.14A30.89 30.89 0 0 1 283 236.56h0l25.3 56.52-8.64 6.92 10.26 26.85L331.55 312a16.77 16.77 0 0 0 7.2-22.6l-.51-.87z" class="d"/><g class="S"><path d="M264.8,213.55l1,.54-.1.19-1-.54Z"/><path d="M265.71,213.9l4.49.13,25.54,14.05a1.92,1.92,0,0,1,.77,2.58h0a1.92,1.92,0,0,1-2.59.81h0l-25.35-13.54-3.08-3.5a.31.31,0,0,1,0-.44.35.35,0,0,1,.22-.08Z"/></g><path d="M293.18,226.67l-1.81,3.47-1-.54,1.83-3.5,1,.57Z" class="U"/><path d="M190.54,228c-1.79-.18-8.56,5.86-8.56,5.86l-3.35-12.07s4.49.4,5.69-1.58-11-1.79-11.24-.45.7,5,.7,5l-4.61.89a9,9,0,0,0-7.28,7.84l-.76,6.44.13.05-35.68,59.61a22.75,22.75,0,0,0,4.61,28.88l35.75,25.4,13.36-29.1-26.42-17.36L183.15,249s6.82-17.09,8.2-17.93a1.64,1.64,0,0,0-.81-3.08Z" class="d"/><path d="M315.3,328.48l-.42-4.15A18.13,18.13,0,0,0,308,311.88h0A18.13,18.13,0,0,1,301,297l.06-1.73L282.8,306.5a39.14,39.14,0,0,0-5.44,4.43v-.09s-39,.64-95.66,8.92L160.3,312l1.85,1.45c1,5.7-.88,10.74-4.89,14.92h0a18.09,18.09,0,0,0-5,13.3l.17,4.17s12.81,8.35,22.14,11.49l.34.1a111.39,111.39,0,0,0,49.78,9.51c34.87-1.42,63.52-20,67.28-22.52,8.78-4.58,23.33-15.94,23.33-15.94Z" class="Y"/><path d="M181.73 319.76a1.57 1.57 0 0 1 .38.3c.24.2.58.53 1 .95a27.78 27.78 0 0 1 3.27 3.91 23.79 23.79 0 0 1 3.26 6.84 21.72 21.72 0 0 1 .77 9.24 16.43 16.43 0 0 1-1.41 4.63 30.7 30.7 0 0 1-2.3 3.86 20.21 20.21 0 0 1-5.34 5.37 17.46 17.46 0 0 1-4.62 2.18 12.57 12.57 0 0 1-1.34.35 1.59 1.59 0 0 1-.48.07l1.76-.62a18.37 18.37 0 0 0 4.48-2.28 20.76 20.76 0 0 0 5.14-5.35 29.58 29.58 0 0 0 2.24-3.8 15.64 15.64 0 0 0 1.35-4.49 21.57 21.57 0 0 0-.71-9 24.44 24.44 0 0 0-3.1-6.77 31.73 31.73 0 0 0-3.11-4 18.1 18.1 0 0 1-1.24-1.39z" class="S"/><g opacity=".2"><path d="M281.35 350.6c2.82-2 1.42-6.13-1.72-7.61s-6.84-.59-10.14.49c-10.66 3.48-20.72 8.58-31.36 12.11s-22.28 5.41-33 2.25c-7.49-2.2-12.53-7.12-20.28-6.24-3.53.4-4.64 4.89-9.86 6a114.63 114.63 0 0 0 23.45 7.4 109.13 109.13 0 0 0 29.25 1.83 130.17 130.17 0 0 0 29.56-5.94 148.22 148.22 0 0 0 24.1-10.25zm-91.17-16.18s.92-9.47-4.79-15.21l-3.82.58s5.02 3.63 8.61 14.63z"/></g><path d="M208.3,309.27c-.2.52,1.93,22.44,1.93,22.44s11.11,15.5,28.59.41l2.1-23.9Z" class="d"/><g opacity=".2"><path d="M210.3,331.71s-5.15-8.55-6.58-14.92l4.24-.51,1,1.18Z"/></g><g class="S"><path d="M302,337.91a2,2,0,0,1-.42.3l-1.29.74a20.48,20.48,0,0,1-5.12,2,12.84,12.84,0,0,1-3.81.3,18.43,18.43,0,0,1-4.28-.9,19,19,0,0,1-8.22-5.59,17.8,17.8,0,0,1-2.79-4.38,30.65,30.65,0,0,1-1.56-4.56,20.75,20.75,0,0,1-.61-8.11,12.32,12.32,0,0,1,1.93-5.13,7.48,7.48,0,0,1,.92-1.18c.22-.25.35-.38.36-.36a1.73,1.73,0,0,1-.28.43,11.38,11.38,0,0,0-.83,1.22,12.75,12.75,0,0,0-1.73,5.07,20.87,20.87,0,0,0,.7,7.94,32,32,0,0,0,1.56,4.47,18,18,0,0,0,2.74,4.25c4.56,5.32,11.43,7.24,15.83,6.17a22,22,0,0,0,5.1-1.8,20,20,0,0,1,1.8-.88Z"/><path d="M277.14 332.42a.66.66 0 0 1-.2.14l-.6.33-2.34 1.26-3.75 1.85-5.07 2.29-6.28 2.45-7.35 2.41a133.41 133.41 0 0 1-17.33 3.75 139.5 139.5 0 0 1-17.69 1.27h-4c-1.29 0-2.54-.11-3.76-.16l-6.72-.5-5.52-.67q-2.09-.27-4.14-.66l-2.61-.48-.68-.14-.23-.06h.24l.69.09 2.62.38 4.15.57 5.52.59 6.7.44 3.75.14h4a129.71 129.71 0 0 0 34.88-5l7.35-2.36 6.28-2.38 5.09-2.21 3.78-1.8 2.38-1.17.63-.29z"/></g><g opacity=".2"><path d="M220.08,337.84a7,7,0,0,0,4,9.05,7.15,7.15,0,0,0,2.63.46,8,8,0,0,1,3.08.11c1.18.46,1.82,1.67,2.6,2.66a9.24,9.24,0,0,0,16.53-5.27,3.2,3.2,0,0,1,.47-2c1-1.16,2.8,0,4.16.67,3.45,1.8,8.09,0,10-3.39s1.3-7.83-.89-11.05a17.35,17.35,0,0,0-9.46-6.45c-2.38-.73-5-1.17-6.86-2.83-2.69-2.39-2.94-6.43-3-10"/></g><g class="S"><path d="M248.52 269.83c2.44 5.36 3.72 8.45 4.09 14.16a42.78 42.78 0 0 1-7.35 27.7h0C241.09 318 228.64 325.93 225 327s-18.36-8.07-21.33-18.34-6.78-16.52-1.73-34.47c5.18-18.4 30-19 30-19s16.65 0 19.69 9.65-3.11 4.99-3.11 4.99z"/><path d="M222.3,290.42A11.89,11.89,0,0,0,213.66,309c2.06,3,5.45,5,7,8.27,1.46,3,1.15,6.53.46,9.78s-1.76,6.49-1.72,9.82,1.51,6.91,4.52,8.33,7.41-.58,7.43-3.91c-1,5.27,5.07,10.45,10.11,8.61s6.36-9.72,2.19-13.1c3.69.87,7.82.86,11-1.23s4.76-6.74,2.6-9.85c-2.54-3.69-8.35-3.36-11.56-6.48-2.66-2.59-2.8-6.72-3-10.42-.28-5.32-1.08-10.78-3.79-15.36s-7.73-8.13-13.05-7.76"/></g><path d="M231.87 341.06a3.32 3.32 0 0 1-.54-.25 6.11 6.11 0 0 1-.61-.36 8.75 8.75 0 0 1-.78-.58 11.93 11.93 0 0 1-3.52-5 15.61 15.61 0 0 1-1-4.16 20.16 20.16 0 0 1 .15-4.91 50.76 50.76 0 0 1 3.23-10.72 50.73 50.73 0 0 0 3.2-10.66 19.19 19.19 0 0 0 .15-4.79 16.38 16.38 0 0 0-1-4.07 12.34 12.34 0 0 0-3.39-5c-1.1-.92-1.85-1.25-1.82-1.31a2.61 2.61 0 0 1 .54.24 3.76 3.76 0 0 1 .61.36 5.48 5.48 0 0 1 .8.56 11.89 11.89 0 0 1 3.6 5 15.63 15.63 0 0 1 1 4.15 19.69 19.69 0 0 1-.1 4.91 49.19 49.19 0 0 1-3.08 10.76 51.08 51.08 0 0 0-3.23 10.6 19.8 19.8 0 0 0-.2 4.8 15.79 15.79 0 0 0 .91 4.07 12.39 12.39 0 0 0 3.31 5c1.07 1 1.81 1.31 1.78 1.36z" class="T"/><path d="M246.9,337.06a2.65,2.65,0,0,1-.62.14,9.22,9.22,0,0,1-1.82.08,10.53,10.53,0,0,1-9.08-6A10.73,10.73,0,0,1,234.3,326a19.41,19.41,0,0,1,1.4-5.72l2.09-5.88a25.94,25.94,0,0,0,.48-11.88,20.47,20.47,0,0,0-4.1-8.77,18.39,18.39,0,0,0-4.87-4.35l-2.15-1.15a2.49,2.49,0,0,1,.6.2,12.43,12.43,0,0,1,1.65.78,18,18,0,0,1,5.13,4.27,20.57,20.57,0,0,1,4.28,8.92,25.67,25.67,0,0,1-.44,12.1,62.36,62.36,0,0,1-2.11,5.93,19.41,19.41,0,0,0-1.4,5.56,10.55,10.55,0,0,0,3.67,8.6,10.78,10.78,0,0,0,6,2.44,20.82,20.82,0,0,0,2.37,0Z" class="U"/><path d="M231.78,286.78a14.38,14.38,0,0,0-1.75-1.36,5.82,5.82,0,0,0-8,1.92,5.5,5.5,0,0,0-.59,1.28,14.49,14.49,0,0,0-.43,2.18,2.09,2.09,0,0,1-.12-.61,5,5,0,0,1,.2-1.68,6,6,0,0,1,9.13-3.4,5,5,0,0,1,1.25,1.14c.24.32.34.52.31.53Z" class="Y"/><g class="U"><path d="M222.3,327.59a1.93,1.93,0,0,1-.36-.28,10,10,0,0,1-.93-.91,16.87,16.87,0,0,1-2.71-4,16,16,0,0,1-1.78-6.88,9.29,9.29,0,0,1,.78-4.12,16.64,16.64,0,0,1,2.72-3.63,10.32,10.32,0,0,0,2.35-3.64,6.9,6.9,0,0,0-.13-4c-.75-2.5-2.07-4.62-2.31-6.69a6.41,6.41,0,0,1,.82-4.68,3.31,3.31,0,0,1,1-.9c.26-.15.4-.22.41-.2a5.3,5.3,0,0,0-1.2,1.21,6.28,6.28,0,0,0-.66,4.53c.27,2,1.59,4,2.4,6.61a7.25,7.25,0,0,1,.16,4.25,10.3,10.3,0,0,1-2.45,3.84,17.13,17.13,0,0,0-2.65,3.51,8.89,8.89,0,0,0-.85,3.93,16,16,0,0,0,1.63,6.72,18.56,18.56,0,0,0,2.54,4l1.22,1.31Zm21.13-10.24a9.72,9.72,0,0,1,.07-1.43l.2-3.88a34.57,34.57,0,0,0-1.8-12.56,20.85,20.85,0,0,0-7.55-10,21.59,21.59,0,0,0-4.73-2.31,2.35,2.35,0,0,0,.37.05,8.68,8.68,0,0,1,1,.27,14.55,14.55,0,0,1,3.54,1.68,20.41,20.41,0,0,1,7.83,10.1A32.67,32.67,0,0,1,244,312l-.37,3.89a7,7,0,0,1-.24,1.44Z"/><path d="M234.35,289.15a13.18,13.18,0,0,1,0-2.35,12.33,12.33,0,0,0-.82-5.44,6.22,6.22,0,0,0-4-3.46,14.54,14.54,0,0,0-2.28-.31,4,4,0,0,1,2.37,0,6.39,6.39,0,0,1,2.39,1.08,6.33,6.33,0,0,1,2,2.52,11.14,11.14,0,0,1,.72,5.68,9.69,9.69,0,0,1-.38,2.33Z"/></g><path d="M236,270.56a9.42,9.42,0,0,1-1.37-.52,8.07,8.07,0,0,0-6.68.55c-.78.44-1.21.81-1.27.75s.3-.52,1.07-1.06a7,7,0,0,1,3.43-1.24,7.14,7.14,0,0,1,3.59.62c.85.45,1.27.85,1.23.9Z" class="V"/><path d="M248 270.52a23.52 23.52 0 0 0-2.55-2.54 12.42 12.42 0 0 0-15.92.2 24.55 24.55 0 0 0-2.49 2.61 3.45 3.45 0 0 1 .48-.86 10.53 10.53 0 0 1 1.77-2 12.3 12.3 0 0 1 16.39-.21 11.21 11.21 0 0 1 1.83 2 3.13 3.13 0 0 1 .49.8z" class="U"/><path d="M242.38,256.47c0,.1-1.28.17-3.26.76a17.45,17.45,0,0,0-11.35,10.54c-.74,1.93-.9,3.22-1,3.2a2.8,2.8,0,0,1,.06-.91,13.25,13.25,0,0,1,.59-2.41A16.5,16.5,0,0,1,239,256.88a14.42,14.42,0,0,1,2.45-.42,2.78,2.78,0,0,1,.91,0Z" class="V"/><path d="M226.72 256.36c.06.06-.55.72-1.23 2a10.68 10.68 0 0 0 .1 10.53c.7 1.24 1.33 1.88 1.26 1.94a5.4 5.4 0 0 1-1.58-1.75 10.14 10.14 0 0 1-.1-10.9 5.23 5.23 0 0 1 1.55-1.82zm-13.8 3.73a16.19 16.19 0 0 0 .77 2.57 11.14 11.14 0 0 0 4.25 4.72 23.29 23.29 0 0 0 6 2.47 18.29 18.29 0 0 1 2.61.8 11.8 11.8 0 0 1-2.7-.44 20.3 20.3 0 0 1-6.19-2.39 10.66 10.66 0 0 1-4.31-5 6.85 6.85 0 0 1-.46-2 1.8 1.8 0 0 1 0-.73zm7.61 43.72a3.89 3.89 0 0 1-.49-.12c-.32-.09-.78-.25-1.36-.48a18.22 18.22 0 0 1-4.56-2.73 17.7 17.7 0 0 1-4.84-6.21 15.85 15.85 0 0 1-1.15-9.53 14.51 14.51 0 0 1 4.67-8.38 14.08 14.08 0 0 1 7.17-3.21 12.82 12.82 0 0 1 5.3.36 8.14 8.14 0 0 1 1.35.51 2.38 2.38 0 0 1 .45.23c0 .06-.65-.25-1.85-.55a13.39 13.39 0 0 0-5.2-.19 14 14 0 0 0-6.91 3.22 14.18 14.18 0 0 0-4.47 8.1 15.6 15.6 0 0 0 1.08 9.24 17.68 17.68 0 0 0 4.64 6.13 20 20 0 0 0 4.4 2.82l1.77.79zm-1.33 10.55a3.46 3.46 0 0 1-.62-.28 14.33 14.33 0 0 1-1.72-1 32.85 32.85 0 0 1-5.74-4.42 34.14 34.14 0 0 1-8.89-14.48 21.86 21.86 0 0 1-1-6.77 14.49 14.49 0 0 1 1.74-6.63 16.85 16.85 0 0 1 4-5 19.86 19.86 0 0 1 9.78-4.36 25.82 25.82 0 0 1 7.24-.09l1.95.32a3.57 3.57 0 0 1 .66.18 3.08 3.08 0 0 1-.68-.07l-1.95-.23a27.26 27.26 0 0 0-7.16.25 19.68 19.68 0 0 0-9.52 4.37 15.3 15.3 0 0 0-5.56 11.27 21.22 21.22 0 0 0 1 6.62 34 34 0 0 0 2.37 5.8 34.79 34.79 0 0 0 6.29 8.55 35.67 35.67 0 0 0 5.59 4.52l2.22 1.45zm24.17-10.72a27.11 27.11 0 0 0 2.66-5.76 20.52 20.52 0 0 0 .82-6.79 19.12 19.12 0 0 0-2.21-8 19.33 19.33 0 0 0-11.34-9.6 10.09 10.09 0 0 0-4.57-.24c-1.07.24-1.61.54-1.63.5s.12-.1.38-.24a6.42 6.42 0 0 1 1.2-.45 9.51 9.51 0 0 1 4.71.07 17.25 17.25 0 0 1 6.24 3.14 20.29 20.29 0 0 1 5.49 6.55 19.07 19.07 0 0 1 2.23 8.25 20 20 0 0 1-.95 6.92 19 19 0 0 1-2 4.26 12.32 12.32 0 0 1-.73 1.05 2.43 2.43 0 0 1-.3.34z" class="U"/><path d="M238.34,33h154V147.84h-154Z" fill="#fff"/><path d="M392.3 147.85v-8.2l-.05-23.2-.11-83.45.21.21h-154l.26-.26V147.8l-.23-.23 111.13.11 31.57.07h.07l-31.52.06-111.33.28h-.24V32.78h154.48V33l-.11 83.55-.05 23.14v6.06l-.08 2.1z" class="S"/><path d="M317.73,100.82h93.63v36.4H317.73Z" class="T"/><g class="S"><path d="M411.36,137.22v-9.78l-.1-26.62.18.18-93.62.08h0l.26-.26v36.4l-.25-.25,67.07.11,19.5.07h.11l-19.44.07-67.24.12h-.25V100.43h.27l93.62.08h.18v.18l-.1,26.73v9a1.56,1.56,0,0,1-.19.75Z"/><path d="M317.73,100.82h93.63v7.8H317.73Zm11.13,13.74h9.19v9.19h-9.19Z"/><path d="M334.42,120.13h9.19v9.19h-9.19Zm16.35-5.57H360v9.19h-9.19Z"/></g><path d="M356.34,120.13h9.19v9.19h-9.19Z" class="V"/><path d="M365.54 129.33a4.17 4.17 0 0 1-.05-.71l-.06-1.89-.12-6.6.23.23h-9.19l.25-.25h0v9.18l-.23-.23 6.6.12 1.89.06a4.21 4.21 0 0 1 .71 0 2.56 2.56 0 0 1-.62 0l-1.84.06-6.74.11h-.22V120h0l.27-.27h9.42v.27l-.11 6.74-.06 1.84a2.75 2.75 0 0 1-.13.75z" class="S"/><path d="M371.22,114.56h9.19v9.19h-9.19Z" class="V"/><path d="M380.42,123.76a4.17,4.17,0,0,1-.05-.71l-.06-1.89-.12-6.59.23.22h-9.19l.26-.26h0v9.23l-.22-.23,6.59.12,1.89.06a4.17,4.17,0,0,1,.71.05,3.11,3.11,0,0,1-.61,0l-1.85.06-6.73.12H371v-9.41h0l.27-.27h9.42v.23l-.12,6.73-.06,1.85a2.71,2.71,0,0,1-.13.69Z" class="S"/><path d="M376.79,120.13H386v9.19h-9.19Z" class="V"/><g class="S"><path d="M386 129.33a4.17 4.17 0 0 1-.05-.71l-.06-1.89-.12-6.6.23.23h-9.2c-.05.06.5-.49.26-.25h0v9.18l-.23-.23 6.6.12 1.89.06a4.21 4.21 0 0 1 .71 0 2.56 2.56 0 0 1-.62 0l-1.84.06-6.74.11h-.22V120h0c-.23.23.32-.32.26-.27h9.43v.27l-.11 6.74-.06 1.84a2.75 2.75 0 0 1-.13.75z"/><path d="M376.79,120.13h3.63v3.63h-3.63ZM390,114.56h9.19v9.19H390Z"/><path d="M395.59,120.13h9.19v9.19h-9.19Z"/></g><path d="M395.59,120.13h3.63v3.63h-3.63ZM339.9,211.84h90v35h-90Z" class="T"/><path d="M430,247H339.77V211.72H430Zm-90-.25h89.73V212H340Z" fill="#222221"/><path d="M339.9,211.84h90v7.5h-90Z" class="S"/><path d="M345,228.69h8.89v8.89H345Z" class="V"/><path d="M353.86,237.58a3.82,3.82,0,0,1-.05-.68l-.06-1.83-.11-6.38.22.23H345l.26-.26h0v8.87l-.23-.22,6.37.11,1.84.06a5.19,5.19,0,0,1,.68.05,18.8,18.8,0,0,1-2.37.11l-6.52.12h-.22v-9.1h0l.26-.26h9.12v.22l-.12,6.52a19.88,19.88,0,0,1-.18,2.44Z" class="S"/><path d="M353.86,228.69,345,237.58" class="T"/><path d="M345 237.58a76.16 76.16 0 0 1 8.89-8.89 38.15 38.15 0 0 1-4.26 4.63 37.36 37.36 0 0 1-4.63 4.26z" class="c"/><path d="M356.54,228.69h8.89v8.89h-8.89Z" fill="#555"/><path d="M368.1 228.69h8.9v8.89h-8.9z" class="Y"/><path d="M379.67,228.69h8.89v8.89h-8.89Z" class="W"/><path d="M391.24,228.69h8.89v8.89h-8.89Z" class="b"/><path d="M402.81,228.69h8.89v8.89h-8.89Z" fill="#ffcb85"/><path d="M414.38,228.69h8.89v8.89h-8.89Z" class="a"/><path d="M75.14,33H201v87.62H75.14Z" fill="#fff"/><g class="S"><path d="M201 120.66v-6.24l-.05-17.65L200.8 33l.21.21H75.2l.26-.26v87.62l-.24-.24 90.69.12 25.87.06h.1l-25.81.07-90.85.11H75V32.62h126.27v.21l-.11 63.86v22.2a7.27 7.27 0 0 1-.16 1.77z"/><path d="M75.14,33H201V44H75.14Z"/></g><path d="M82 38.82a1.31 1.31 0 1 1-2.61-.18 1.3 1.3 0 0 1 1.3-1.22A1.35 1.35 0 0 1 82 38.81zm5.33 0a1.32 1.32 0 1 1-1.33-1.4 1.34 1.34 0 0 1 1.3 1.38zm5.32 0a1.31 1.31 0 1 1-1.32-1.4 1.34 1.34 0 0 1 1.32 1.38z" fill="#fff"/><path d="M87.1,54.71H105v43H87.1Z" class="W"/><path d="M114.75,54.71h17.93v43H114.75Z" class="Z"/><path d="M142.4,54.71h17.93v43H142.4Z" class="T"/><path d="M170.05,55.05H188v43H170.05Z" class="X"/><path d="M85,102.48H193.7v9.83H85Z" class="W"/><path d="M185.44,110.3l2.34,11.83,1.92-3.3,4.13,5.9,2.07-1.33-4.13-5.9,3.79-.55Z" class="S"/><path d="M97.36,131.07h55.38v95H97.36Z" class="T"/><path d="M152.74 226.06V219l-.06-19.63-.12-68.3.24.24H97.43l.26-.26-.06 95-.2-.2 40.38.1 11.09.06h0l-11.05.05-40.5.11h-.2V226l-.06-95v-.26H153v.26l-.11 68.46-.07 19.54v6.52a1.87 1.87 0 0 1-.08.56z" fill="#222221"/><g class="S"><path d="M97.36 131.07h55.38v8H97.36zm13.31 18l.67 8.87 2.47-3.23 4.15-.18zm23.93 0l.53.36 1.51 1.09 5.34 3.9.34.25h-.42l-4 .18h-.14l.12-.06-2.49 3.21-.24.31v-.39l-.4-6.45c0-.69-.07-1.29-.1-1.81a2.53 2.53 0 0 1 0-.62 4.24 4.24 0 0 0 .08.7c.08.44.11 1.15.18 1.86l.56 6.3-.26-.08 2.47-3.24v-.05h.22l4-.16-.09.26-5.12-3.95-1.51-1.17-.58-.46zm-25.54 38.59c-.06-.06 2.7-3 6.16-6.56l6.38-6.35c.06.06-2.69 3-6.16 6.57zm38.45-6.54a17 17 0 0 0-.31-2 8.17 8.17 0 0 0-2.89-4.46 7.69 7.69 0 0 0-7.54-1.17 7.8 7.8 0 0 0-3.65 2.86 8.26 8.26 0 0 0 0 9.49 7.72 7.72 0 0 0 10.73 2l.46-.34a8.23 8.23 0 0 0 2.89-4.47 17 17 0 0 0 .31-2 7.08 7.08 0 0 1-.19 2 8.24 8.24 0 0 1-2.87 4.61 7.88 7.88 0 0 1-7.78 1.26 8 8 0 0 1-3.81-3 8.52 8.52 0 0 1 0-9.85 8 8 0 0 1 3.8-2.95 7.88 7.88 0 0 1 7.78 1.26 8.24 8.24 0 0 1 2.87 4.61 7.14 7.14 0 0 1 .2 2.06zm-7.21 21.1l.2.14.58.48 2.18 1.87.07.06-.07.08-9.26 10.68h-.06l-1.12.17-2 .3h-.21v-.21l.72-3.67h0l6.31-7.26a16.06 16.06 0 0 1 2.67-2.67l-.18.17-.51.54-1.88 2.1-6.23 7.33v-.07l-.72 3.67-.17-.19 2-.3 1.12-.17h-.09l9.35-10.63v.13l-2-1.91-.56-.53c0-.05-.1-.11-.1-.12zm-20.22 12.95a1.13 1.13 0 0 1 0-.26v-3.46l-.08-9.65.14.14h-13l.16-.16h0v13.39l-.14-.13 9.37.07h.09l-9.46.07H107v-13.49h0c-.13.14.19-.19.16-.15h13.13v.13l-.07 9.73v3.4a2 2 0 0 1-.18.36z"/><path d="M109.06 201.8a25.24 25.24 0 0 1-5.63 0 26.49 26.49 0 0 1 5.63 0z"/><path d="M107.09 204.42a32 32 0 0 1 0-6.34 32 32 0 0 1 0 6.34z"/></g><path d="M11.72,159.37H85.05V232.7H11.72Z" class="V"/><circle cx="102.05" cy="261.56" r="13.74" transform="matrix(.707107 -.707107 .707107 .707107 -155.06 148.77)" class="X"/><circle cx="103.41" cy="256.04" r="12.02" transform="matrix(.707107 -.707107 .707107 .707107 -150.76 148.12)" class="T"/><circle cx="103.4" cy="256.04" r="11.58" class="Y"/><path d="M103.41 264.92a8.88 8.88 0 1 1 8.87-8.87 8.89 8.89 0 0 1-8.87 8.87zm0-17.69a8.82 8.82 0 1 0 8.82 8.82 8.82 8.82 0 0 0-8.82-8.82z" class="S"/><g opacity=".2"><path d="M104.35,248a5.74,5.74,0,1,0,4.39,6.16,5.14,5.14,0,0,0-.81-3.39,5.37,5.37,0,0,0-3.58-2.77"/></g><g class="S"><path d="M101.23,263.52l.66.91,3.53-.12.68-.79Z"/><circle cx="337.81" cy="263.16" r="7.34"/></g><path d="M340.49,263.16a2.68,2.68,0,1,1-.78-1.89,2.67,2.67,0,0,1,.78,1.89Z" class="U"/><g class="S"><use xlink:href="#N"/><use xlink:href="#O"/><use xlink:href="#O" x="-5.68"/><path d="M52.07 243.05c0-.13.64-.24 1.43-.24s1.42.11 1.42.24-.64.25-1.42.25-1.43-.11-1.43-.25z"/><use xlink:href="#N" x="-22.73"/><use xlink:href="#N" x="-28.41"/><path d="M35 243.05c0-.13.64-.24 1.42-.24s1.42.11 1.42.24-.64.25-1.42.25-1.42-.11-1.42-.25z"/><use xlink:href="#O" x="-34.09"/><use xlink:href="#O" x="-39.77"/><path d="M18 243.05c0-.13.64-.24 1.42-.24s1.43.11 1.43.24-.64.25-1.43.25-1.42-.11-1.42-.25z"/><use xlink:href="#N" x="-56.82"/><use xlink:href="#N" x="-62.5"/><path d="M2.57 241.42c.14 0 .25.64.25 1.42v.21l-.25-.24c.69 0 1.21.12 1.21.24s-.52.23-1.21.25H2.3v-.46c0-.78.14-1.42.27-1.42z"/><use xlink:href="#P"/><use xlink:href="#P" y="-5.68"/><use xlink:href="#P" y="-11.32"/><use xlink:href="#Q"/><path d="M2.57 213c.14 0 .25.64.25 1.42s-.11 1.42-.25 1.42-.27-.63-.27-1.43.14-1.41.27-1.41z"/><use xlink:href="#Q" y="-11.36"/><use xlink:href="#P" y="-34.09"/><path d="M2.57 196c.14 0 .25.63.25 1.42s-.11 1.42-.25 1.42-.27-.64-.27-1.39.14-1.45.27-1.45zm0-5.69c.14 0 .25.64.25 1.43s-.11 1.42-.25 1.42-.24-.64-.24-1.42.11-1.46.24-1.46z"/><use xlink:href="#Q" y="-34.09"/><use xlink:href="#Q" y="-39.77"/><path d="M3 173.67c0 .06-.16.13-.43.17l.18-.17a6.73 6.73 0 0 1 .07 1c0 .78-.11 1.42-.25 1.42s-.27-.67-.27-1.43a5.61 5.61 0 0 1 .07-1v-.2h.14c.33.07.49.14.49.21zm5.68 0c0 .13-.64.24-1.42.24s-1.42-.11-1.42-.24.63-.25 1.46-.25 1.38.11 1.38.25z"/><use xlink:href="#R"/><use xlink:href="#R" x="5.64"/><use xlink:href="#R" x="11.36"/><use xlink:href="#S"/><use xlink:href="#S" x="5.68"/><use xlink:href="#S" x="11.36"/><path d="M48.45 173.67c0 .13-.63.24-1.42.24s-1.42-.11-1.42-.24.69-.25 1.42-.25 1.42.11 1.42.25z"/><use xlink:href="#R" x="39.77"/><path d="M59.82 173.67c0 .13-.64.24-1.43.24s-1.39-.11-1.39-.24.64-.25 1.42-.25 1.4.11 1.4.25z"/><use xlink:href="#S" x="34.09"/><use xlink:href="#S" x="39.77"/><use xlink:href="#T"/><use xlink:href="#U"/><use xlink:href="#U" y="5.68"/><use xlink:href="#U" y="11.36"/><use xlink:href="#T" y="22.73"/><path d="M72 207c-.14 0-.25-.63-.25-1.42s.11-1.42.25-1.42.25.64.25 1.42S72.1 207 72 207zm0 5.66c-.14 0-.25-.64-.25-1.43s.11-1.42.25-1.42.25.64.25 1.42-.15 1.43-.25 1.43z"/><use xlink:href="#U" y="34.09"/><path d="M72 224c-.14 0-.25-.64-.25-1.42s.11-1.42.25-1.42.25.63.25 1.42S72.1 224 72 224zm0 5.7c-.14 0-.25-.64-.25-1.42s.11-1.42.25-1.42.25.64.25 1.42-.15 1.42-.25 1.42z"/><use xlink:href="#T" y="56.86"/><use xlink:href="#T" y="62.5"/><path d="M69.39,239.78h5.14v5.14H69.39ZM0,240.48H5.14v5.14H0Zm69.39-69.89h5.14v5.14H69.39ZM0,171.09H5.14v5.14H0Z"/></g><defs ><path id="B" d="M411.81 89.3c0-.17.78-.31 1.75-.31s1.75.14 1.75.31-.79.3-1.75.3a3.24 3.24 0 0 1-1.75-.3z"/><path id="C" d="M390.8 89.3c0-.17.78-.31 1.75-.31s1.75.14 1.75.31-.78.3-1.75.3a3.21 3.21 0 0 1-1.75-.3z"/><path id="D" d="M329.8 80.28c.16 0 .3.79.3 1.75s-.14 1.75-.3 1.75-.31-.78-.31-1.75.14-1.75.31-1.75z"/><path id="E" d="M329.8 73.28c.16 0 .3.78.3 1.75s-.14 1.75-.3 1.75-.31-.78-.31-1.75.14-1.75.31-1.75z"/><path id="F" d="M337.3 3.79c0 .16-.78.3-1.75.3s-1.75-.14-1.75-.3.79-.31 1.75-.31 1.75.14 1.75.31z"/><path id="G" d="M351.3 3.79c0 .16-.79.3-1.75.3s-1.75-.14-1.75-.3.78-.31 1.75-.31 1.75.14 1.75.31z"/><path id="H" d="M365.3 3.79c0 .16-.78.3-1.75.3s-1.75-.14-1.75-.3.78-.31 1.75-.31 1.75.14 1.75.31z"/><path id="I" d="M415.3 9.82c-.17 0-.31-.78-.31-1.75s.14-1.75.31-1.75.3.79.3 1.75-.13 1.75-.3 1.75z"/><path id="J" d="M415.3 23.83c-.17 0-.31-.79-.31-1.75s.14-1.75.31-1.75.3.78.3 1.75-.13 1.75-.3 1.75z"/><path id="K" d="M415.3 30.83c-.17 0-.31-.78-.31-1.75s.14-1.75.31-1.75.3.78.3 1.75-.13 1.75-.3 1.75z"/><path id="L" d="M238.17,266.11c-5.92-1.26-12.09.64-17.49,3.39-1.35.68-2.67,1.42-4,2.17h30.61a15.25,15.25,0,0,0-9.12-5.56Z"/><path id="M" d="M304.57 225.2a2.84 2.84 0 0 0-3-1.15h.05-.14a2.3 2.3 0 0 0-.93.45l.27-.13a2.69 2.69 0 1 0 3.71.8z"/><path id="N" d="M69.12 243.05c0-.13.64-.24 1.42-.24s1.42.11 1.42.24-.63.25-1.42.25-1.42-.11-1.42-.25z"/><path id="O" d="M63.44 243.05c0-.13.63-.24 1.42-.24s1.42.11 1.42.24-.64.25-1.42.25-1.42-.11-1.42-.25z"/><path id="P" d="M2.57 235.74c.14 0 .25.63.25 1.42s-.11 1.42-.25 1.42-.24-.64-.24-1.42.11-1.42.24-1.42z"/><path id="Q" d="M2.57 218.69c.14 0 .25.64.25 1.42s-.11 1.42-.25 1.42-.24-.63-.24-1.42.11-1.42.24-1.42z"/><path id="R" d="M14.36 173.67c0 .13-.63.24-1.42.24s-1.42-.11-1.42-.24.64-.25 1.42-.25 1.42.11 1.42.25z"/><path id="S" d="M31.41 173.67c0 .13-.64.24-1.42.24s-1.42-.11-1.42-.24.63-.25 1.42-.25 1.42.11 1.42.25z"/><path id="T" d="M72 178.56c-.14 0-.25-.63-.25-1.42s.11-1.42.25-1.42.25.64.25 1.42-.15 1.42-.25 1.42z"/><path id="U" d="M72 184.25c-.14 0-.25-.64-.25-1.42s.11-1.42.25-1.42.25.63.25 1.42-.15 1.42-.25 1.42z"/></defs></svg>