<svg xmlns="http://www.w3.org/2000/svg" viewBox="0 0 1045.61 547.22" xmlns:v="https://vecta.io/nano"><style><![CDATA[.Ac{fill:#fdf5c9}.Ad{fill:#6b3e26}.Ae{fill:#555}.Af{fill:#ffb27e}.Ag{fill:#ffc5d9}.Ah{fill:#c2f2d0}.Ai{fill:#ffcb85}.Aj{fill:#e5b1c3}.Ak{fill:#cca26a}.Al{fill:#233863}.Am{fill:#aeccf9}.An{fill:#adccf9}]]></style><path d="M526.82 83.44a3 3 0 0 1 .67-1.54c3-4.57 6.28-8.84 9.61-13.13 5.13-6.59 11.33-12.12 17.08-18.09 2.21-1.36 3.95-3.29 5.91-4.94 2.77-2.34 5.65-4.52 8.57-6.64 3.24-2.34 6.56-4.59 10-6.72a206.34 206.34 0 0 1 20.32-11.07c4.56-2.19 9.25-4.07 14-5.83l8.62-3.08c6.12-2.14 12.42-3.62 18.7-5.2 5.07-1.26 10.21-2.15 15.37-3 3.08-.52 6.18-1.08 9.27-1.46 2.62-.32 5.25-1 8-.74a7.94 7.94 0 0 0 2-.25 5.09 5.09 0 0 1 1.11-.26c3.54.28 7-.64 10.54-.62h22.38a12.44 12.44 0 0 1 3.68.36 10.7 10.7 0 0 0 2.84.2c2.09.08 4.21-.22 6.25.51a3.58 3.58 0 0 0 1.14.07 49.29 49.29 0 0 1 9.61 1.07 4.91 4.91 0 0 0 .86.07 44.89 44.89 0 0 1 8.17 1.05l13.74 2.45c4.55.95 9.06 2.17 13.59 3.23a259.73 259.73 0 0 1 27 8.28q8.09 2.83 15.93 6.33c5.24 2.32 10.48 4.62 15.57 7.25q8.64 4.49 16.94 9.54l10.87 6.87c4.92 3.28 9.63 6.83 14.31 10.41 2.42 1.85 4.64 3.95 7 5.82 7.62 6 14.22 13 20.92 19.93a101.63 101.63 0 0 1 7.94 9.34c1.67 2.18 3.47 4.29 5.14 6.49 3.39 4.48 6.56 9.1 9.57 13.85a210.59 210.59 0 0 1 11.21 20.27c2.22 4.54 4.13 9.21 6 13.93 1.59 4.09 2.89 8.28 4.31 12.42a135.58 135.58 0 0 1 4.2 15.7c.91 4.27 1.76 8.55 2.36 12.88l1.19 9.31c.25 2.18.23 4.38.52 6.53 1.09 8.19.29 16.4.51 24.6a20.65 20.65 0 0 1-.47 6.82 9.53 9.53 0 0 0-.09 2.57c0 1.52.17 3.06-.46 4.53a2.61 2.61 0 0 0-.1.85c-.23 4.36-1 8.66-1.6 13-.62 4.52-1.51 9-2.37 13.45-.9 4.67-2 9.28-3.17 13.89-.83 3.42-1.76 6.82-2.45 10.26-.59 3-.68 6.06-1.4 9-.59 2.44-.3 4.92-.91 7.35-.41 1.63-.13 3.42-.16 5.14a24.11 24.11 0 0 1-.41 4.54 12.69 12.69 0 0 0 .11 5.68 5 5 0 0 1 .27 1.4 63.91 63.91 0 0 0 .63 10.53c.29 2.55.72 5.08 1.23 7.59a119.75 119.75 0 0 0 5.09 18.12c1 2.77 2.3 5.44 3.36 8.2a94.3 94.3 0 0 0 4.4 9.32q3.86 7.5 8.35 14.65l12.92 20.57a227.8 227.8 0 0 1 11.2 20 112.54 112.54 0 0 1 8.29 23.08c.67 2.95 1 6 1.45 9 .79 5.15.32 10.29.48 15.42.11 3.25-.57 6.42-1 9.62a96.8 96.8 0 0 1-3 14.21 83.86 83.86 0 0 1-3.16 10.07c-.92 2.19-1.47 4.52-2.47 6.7-.87 1.91-1.54 3.9-2.42 5.8l-5.25 11.14c-.27.58-.77 1.12-.46 2.05h65.21q1.29 0 2.58.06a1 1 0 0 1 .88.63c-1.12 1-2.5.83-3.82.83q-36.86 0-73.71 0a10 10 0 0 1-3.12-.32c-1.18-.4-1.17-1.33-1-2.33.4-2.34-1-3-2.95-3.2-1.58-.15-3.27.28-4.7-.79-1.76-2.59-1.14-5.57-.89-8.28.4-4.16-.62-8.3.15-12.43a3.7 3.7 0 0 0-.19-2.39c-.24-1.77-1.34-2.39-3-2.37h-3.44q-72.21 0-144.43 0c-1.79 0-3.64.32-5.33-.65-.65-.65-.07-.95.37-1.29 1.75-.66 3.58-.46 5.39-.46h153a25.65 25.65 0 0 0 3.72-.09c2.25-.33 2.51-1.06 1.16-3.21-1.26-1-2.74-.71-4.15-.71q-38.43 0-76.85 0c-1.57 0-4.06.64-4.45-.86-.45-1.74 2.17-1.88 3.47-2.62a21.07 21.07 0 0 0 11.3-18.12 49.42 49.42 0 0 0-.58-12.85c-1.66-6.27-5.67-10.46-11.55-13a11 11 0 0 1-2.6-1.19c-.79-.64-.49-1.1.29-1.46a13.56 13.56 0 0 1 4.26-.33h44a32.67 32.67 0 0 0 3.43-.09c2-.2 3.22-1.27 3.25-3.29s-1.22-2.93-3-3.28a32.52 32.52 0 0 0-5.13-.21 4.36 4.36 0 0 1-3-.82 6 6 0 0 1-.68-3.56c0-4.63-.11-9.27.06-13.9v-2.12a105.14 105.14 0 0 1 .16-10.8 4.65 4.65 0 0 0 0-2.88c-.12-2-.67-4.11.61-6 1.67-1 3.53-.57 5.32-.66a8.52 8.52 0 0 0 3.65-.53 3.17 3.17 0 0 0 1.91-3.5 2.92 2.92 0 0 0-2.61-2.65 20.92 20.92 0 0 0-3.71-.17h-43.28c-1.52 0-3.07.19-4.52-.49-1.12-1.25.23-1.71.86-2.15 2.5-1.74 3.74-4.19 4.63-7 2.89-9.09 2.36-18.32 1.21-27.54a133.31 133.31 0 0 0-4.23-19.31c-.6-2.13-1.55-3.35-3.92-3.29-.92 0-2.23.18-2.39-1.37 2-1.28 4.06-.72 6.12-.53a70.79 70.79 0 0 0 27.74-2.83c3.79-1.18 5.8-3.7 6.64-7.49 1.52-6.83 0-13.49-1-20.18-1.23-8.24-3.87-16.15-5.87-24.21a2.34 2.34 0 0 1 .55-1.29c10.39-12.65 7.75-30.19-2.86-42.21-5.37-6.08-11.86-10.78-18.24-15.62-7.4-5.61-11.07-13-12.17-22.11-1.12-9.41-5.42-17.64-11.26-25a35.3 35.3 0 0 0-4-4.48c-5.24-4.7-11.18-7.16-18.34-6.47a92.08 92.08 0 0 0-14.1 2.39c-7.84 2-12 7.92-15.06 14.66a95.22 95.22 0 0 0-8.43 46 40.91 40.91 0 0 0 3.23 13.6 13.83 13.83 0 0 0 3.66 5.39c-.56 4.06-2 7.91-3 11.86l-4.91 17.95c-.33 1.09-.51 2.27-1.63 2.91h-34.93-40.57c-4 0-4.08.14-2.64 3.78l21.34 53.14c.32 1 .82 1.94 1.09 3a1.79 1.79 0 0 1-.08.86c-4.49 5.93-9.17 11.72-13.32 17.9-8.08 12.06-15.55 24.48-22.83 37-.71 1.23-1.27 2.61-2.91 2.93-9.43.27-18.85.47-28.28-.09-2.09-.85-2-3-2.61-4.64a20.64 20.64 0 0 1-.86-3.22c-.09-1.9-1-3.61-1.31-5.46l-14.73-55.41q-8.14-30.62-16.36-61.05-12.5-46.38-24.87-92.77-9.31-34.8-18.63-69.52l-6-22.15c-.89-3.32-1.07-3.49-4.5-3.49q-28.68 0-57.37 0c-1.41-.03-3.02.36-4.29-.85zM5.84 544.72a1.37 1.37 0 0 1 1.21-.62h57.08 2.29c.37 0 .78 0 1-.39s0-.74-.28-1a61.37 61.37 0 0 1-5.41-6.63l-7.6-10.35c-4.46-6.42-8.57-13-12.58-19.75-1.85-3.11-3.46-6.37-5.12-9.59l-4.5-9c-2.55-4.92-4.49-10.1-6.62-15.2-2.29-5.46-4.1-11.08-5.91-16.7a190 190 0 0 1-5.68-21.79q-1.11-5.73-2.05-11.48c-.33-2-.95-4.1-.72-6.22-1.08-2.83-.09-5.9-1.06-8.76a6.25 6.25 0 0 1-.08-2v-23.49a7.47 7.47 0 0 1 .37-3.11 1.77 1.77 0 0 0 .16-.84c-.3-2.69.75-5.27.62-7.95a20.83 20.83 0 0 1 .66-4.22c.58-4 1.4-8 2.22-12a167.7 167.7 0 0 1 5.75-20.89 159.64 159.64 0 0 1 5.83-14.9c1.67-3.64 3.14-7.38 5-10.93q4.45-8.64 9.48-17c2.48-4.08 5.14-8 7.84-12s5.8-8 8.77-11.95c2.52-3.35 5-6.73 7.72-9.89 1.55-1.8 3-3.7 4.68-5.39a4.89 4.89 0 0 0 1.75-3.77c1.53.11 1.55 1.52 2 2.45a174.39 174.39 0 0 0 62 73 19.71 19.71 0 0 1 4.32 3.29c1.37 2.67 1.78 5.63 2.45 8.49l11.14 46.77a11.55 11.55 0 0 1 .43 2.53c-.2 1.7-1.57 2.57-2.67 3.57l-28.45 26.13L90 442.3c-1.94 1.7-3.57 3.73-5.62 5.31-1.25 1-1 1.85 0 2.84 1.9 1.88 3.64 3.91 5.46 5.86l8.75 9.45c5.18 5.34 10 11 15.16 16.38 1 1.06 2.07 2.25.11 3.47-4.23 1.33-8.67 1.21-13 1.88-2.17.34-4.38.46-6.53.85-9.44 1.71-9.71 9.57-6.89 16.11.76 1.78 2.56 2.11 4.38 2.14 3.65.06 7.21-.66 10.81-1.09 4.74-.56 9.5-1 14.21-1.75 4.26-.73 5.69-2.58 5.38-6.89a6 6 0 0 1 .22-2.82c.77-1.1 1.52-.4 2.13.11 3.19 2.7 5.64 6.08 8.44 9.14a1.23 1.23 0 0 1 0 1.79c-3.85 1.68-8 1.34-12.05 1.92-5.27.77-10.57 1.47-15.89 1.93a3 3 0 0 0-2 .72 4.45 4.45 0 0 0 2.43 0c9-.94 17.94-2.42 27-3 2.71-.22 4.72 1 6.5 2.94l17.18 18.84c4.45 5.15 4.91 5.34 9.16 1.28 8.14-7.79 16.52-15.33 24.82-22.95l32.33-29.61c1.51-1.33 2.85-2.82 4.3-4.22a7.39 7.39 0 0 1 4.17-2.37h91.21a4.29 4.29 0 0 1 2.75.59c.76.91.55 2 .47 3l-4 47.65-.64 8c-.21 4.47.44 8.78 3.63 12.3.51.55 1.26 1.2 1 2s-1.39.86-2.25.91c-1.24.07-2.48 0-3.72 0H73.63a16.13 16.13 0 0 0-5.4.45 20.37 20.37 0 0 1-4 .24q-26.88 0-53.76 0c-1.57-.05-3.25.21-4.63-.98z" class="Ah"/><path d="M526.82 83.44l3.44.1h59.08c3.69 0 3.34-.44 4.35 3.35q6.79 25.58 13.63 51.15 6.28 23.5 12.6 47 6.59 24.58 13.18 49.19l14.07 52.22 11.81 44.2q7.21 27 14.47 53.89l.88 3.9c-1.76 1.67-3.87.84-5.87.85a7.21 7.21 0 0 1-1-.2 12.18 12.18 0 0 0-3.71-.24H169.98h-3.44c-3.57.29-4.37-.18-5.23-3.66l-8-33.18q-6.29-26.36-12.66-52.7-15.8-65.71-31.67-131.51-7.53-31.38-15.1-62.73l-4.35-18.13c-.29-1.18-.77-2.4 0-3.62 2.27-1.25 4.72-.62 7.1-.7q28.56-.2 57.11 0c4.65-.15 9.3 0 13.95 0q20.85-.07 41.7 0c3.71.05 7.43-.12 11.14.05q32.79-.21 65.57 0a68.9 68.9 0 0 1 9.2.19c.55.08 1.06.31 1.61.36q33.61.18 67.24 0c3.58 0 7.19-.68 10.82-.6a6.85 6.85 0 0 1 3.83.92c1.14 0 2.29.09 3.43.09q70.59 0 141.19 0c1.11-.08 2.26-.15 3.4-.19z" class="Ae"/><path d="M5.84 544.72l2.85-.2h59.88a19.76 19.76 0 0 1 3.44-.1l250.09-.13 317.12-.41a24.85 24.85 0 0 0 2.86-.1 45.22 45.22 0 0 1 7.71-.61q154.07 0 308.12 0c2.14 0 4.45-.54 6.24 1.29h73.91 4.59c.94 0 1.89.17 2.83.26a11.08 11.08 0 0 1 .14 1.14 1.06 1.06 0 0 1-1 1.19 8.47 8.47 0 0 1-1.13.1h-2.59H10.26 7.1c-1.22-.06-1.46-.42-1.39-1.9a2.83 2.83 0 0 1 .13-.53z" fill="#2e3552"/><g class="Ac"><path d="M421.3 25.58c-1.45-1-3.18-1.19-4.8-1.67-4.92-1.47-9.88-2.8-14.83-4.2l-18.13-5.14c-.62-.17-1.22-.42-2.19-.75a4.91 4.91 0 0 1 2.39-.31 5.91 5.91 0 0 1 2 .14 12.15 12.15 0 0 0 4 .4h5.16a6.57 6.57 0 0 1 1.72 0c2.53.74 5.11.44 7.68.52a18.75 18.75 0 0 1 5.11.44 10.93 10.93 0 0 0 2.57.12c3.32.14 6.68-.32 10 .52a5.59 5.59 0 0 0 2 0 11.08 11.08 0 0 1 7.09 1.72c1.23.73 2.58 1.26 3.83 1.95a1.58 1.58 0 0 0 1.84-.26 49.81 49.81 0 0 0 8.37 4.85c8.54 4.2 16.93 8.69 25.36 13.11 2.48 1.78 2.48 1.78.55 2.71-16.09-3.64-31.76-8.84-47.67-13.15a4.22 4.22 0 0 1-2.05-1z"/><path d="M437.89 14.65a22.17 22.17 0 0 1 2.32-4.55c1.8-3.25 3.76-6.41 5.66-9.61.39-.65.77-.65 1.28 0l7.4 10.16 15 20.51 6.12 8.62c.53.76.23 1.22-.71 1.22a8.45 8.45 0 0 1-1.43-.09 2.49 2.49 0 0 1-.72-.44c1.21-2.11-1.08-1.91-1.8-2.74a5.11 5.11 0 0 1-.62-.41 6.42 6.42 0 0 0-.6-.42l-.65-.36a9.79 9.79 0 0 1-1-.54c-9.62-6.23-18.95-12.9-28.51-19.22a3.34 3.34 0 0 1-1.74-2.13z"/></g><path d="M421.3 25.58a11.39 11.39 0 0 1 3.87.81q14 3.92 27.89 7.93l16.66 4.8a9.39 9.39 0 0 0 1.41.2c-.16 1.43-1 .71-1.73.59-2.4.09-4.72-.57-7.08-.83-3.59-.39-7.16-1-10.73-1.52l-9.87-1.47-5.08-.76q-5.79-.84-11.58-1.66c-1.88-.27-3.77-.47-5.66-.72-.86-.12-1.19-.63-.85-1.4.41-1 .92-1.89 1.36-2.84s.92-2.06 1.39-3.13zm48.15 10.83h.55l.59.56h0c.13.51 0 .79-.58.58q-2.55-1.28-5.09-2.56-12.32-6.3-24.61-12.6c-.92-.48-1.78-1.09-2.68-1.61a2 2 0 0 1-1-1.65l.71-3.92a3.37 3.37 0 0 1 .51-.61h0l10.55 7.25 16.5 11.16 3.93 2.81a5 5 0 0 0 .62.59z" fill="#cac4a0"/><path d="M469.98 37.59l.58-.58a11.62 11.62 0 0 1 4.29 3.06c-.72.57-1.42.29-2 .42-1.15-.16-2.4.33-3.43-.58.61-.1 1.32.09 1.73-.59l.71-.29a1.76 1.76 0 0 0-.29-.36c-.53-.36-1.21-.48-1.59-1.08z" class="Ac"/><path d="M437.88 14.65l-.51.61a.66.66 0 0 1 .51-.61z" fill="#cce0fb"/><path d="M675.43 393.81l1.73 5.85c.16.53.38 1 .57 1.56-1.15 1.2-2.67.84-4.06.85h-28.09c-12.69 0-21.34 7.28-23 19.8a46.19 46.19 0 0 0 .47 16.82c2 8.45 7.37 14.06 15.61 16.86 2.42.82 2.42.82 2.59 2.28a8.17 8.17 0 0 1-3.91.53h-22c-3.78-.07-7.32-.16-8.3 4.61-1.79 1-3.74.64-5.63.64H191.74a21.86 21.86 0 0 1-5.42-.28c-2.26-1.24-.35-1.79.49-2.12 3.29-1.29 6.63-2.47 10-3.59l75.92-25.93q40.95-13.95 81.85-28 21.15-7.25 42.27-14.52a14 14 0 0 1 3.39-.51 12.36 12.36 0 0 1 3.43-.21H664.9a7 7 0 0 1 3.08.2h0a3.22 3.22 0 0 1 1.23 1.5 2.32 2.32 0 0 0 3.11 1.63c1.89-.47 2.91.13 3.11 2.03z" class="Ai"/><path d="M707.41 401.28c6.71-11.67 13.56-23.24 20.93-34.5a211.47 211.47 0 0 1 15.14-20.83 8.48 8.48 0 0 1 2-2c1.41-1.18 3.1-.79 4.69-.79q47.44 0 94.89 0h2.58c1.65-.05 2.54-.75 2.11-2.53.22-1.73 1.76-1.19 2.75-1.61a4 4 0 0 1 1 0 17.63 17.63 0 0 0 3.84.17c4.79.46 9.56 1.11 14.38 1.11 1 0 2.1 0 2.82 1a15.16 15.16 0 0 0 4.55.37 1.6 1.6 0 0 1 1.7 1.2l1 3.3a117.93 117.93 0 0 1 4.68 23c.69 7.64.72 15.28-1.47 22.75l-.67 2.19a10.2 10.2 0 0 1-6 6.91c-.16.06-.28.25-.41.38a3.49 3.49 0 0 1-2.89.94c-16.68 0-33.35.15-50-.07-.18 0-.37-.05-.56-.07a136 136 0 0 1-24.72-5.83c-7.67-2.66-15.07-6-22.44-9.33-1.28-.32-2.25-1.4-3.63-1.51-6.16-4.42-9.16-3.76-12.57 3-2.49 4.94-4.34 10.17-6.44 15.28a39.16 39.16 0 0 1-6.34 10.46c-9.51 11.39-20.42 21.39-31.33 31.4q-6.75 6.2-13.57 12.3c-3 2.41-5.89 5-8.76 7.64a7 7 0 0 1-5.24 2.74c-4.56-.2-9.23.09-13.27-2.67-2.55-2.28-2.65-2.78-1.17-5.71.47-.92 1-1.76 1.55-2.66 7.77-15.17 15.74-30.24 24.11-45.1 2.02-3.85 3.52-7.96 6.76-10.93z" class="Ae"/><path d="M853.25 339.4l-.2.09-.2-.08c-4.61.5-4.63.49-5.45-2.8 0-2.66-.39-5.35.56-8 .81-2.19 2.67-3.17 4.7-3.85a212.45 212.45 0 0 1 22.77-5.74l12-2.75c2.55-.64 2.79-1.34 1.5-3.65-4-7.06-8.56-13.71-13-21.17a51.81 51.81 0 0 1-1.87 14.42 16.61 16.61 0 0 1-8 10.67c-7.3 4.23-15.17 7.2-22.91 10.47a6 6 0 0 1-2 .39c-6.23-1.32-11.88.13-17.17 3.49a4.79 4.79 0 0 1-2.74.71c-1.35-.33-1.6-1.55-2-2.58l-17.32-43c-.36-.93-1.08-1.89-.29-2.95l6.66-24.37c.73-2.83 1.61-5.62 2.51-8.4-.64-2.31 1.13-3.42 2.45-4.65a27.18 27.18 0 0 1 8.56-5c4.73-1.91 9.5-3.8 14.7-4.07a2.59 2.59 0 0 1 .82.34c2.53 4.06 6.37 4 10.4 3.26 3.51-.68 6.64-2.36 9.8-4a38.5 38.5 0 0 1 3.89-1.85c2.12-.64 4.17.09 6.24.33a56.53 56.53 0 0 1 14.6 4.08 26.17 26.17 0 0 1 13.91 13 212.32 212.32 0 0 1 12.28 30.57 3.05 3.05 0 0 1 0 2.76 153.71 153.71 0 0 1 5.14 19c.45 2.33 1.22 4.61 1.47 7a158.63 158.63 0 0 0 .89 7.07 42.72 42.72 0 0 1 .39 8 18.87 18.87 0 0 1-1.94 8 6.49 6.49 0 0 1-3.18 3.17 36.13 36.13 0 0 1-7.85 2.59c-1.77.35-3.53.72-5.31 1a13.27 13.27 0 0 1-2 .11 10.92 10.92 0 0 0-3.67.42 6.22 6.22 0 0 1-2 .15h-6.6a16.31 16.31 0 0 1-3.39-.38 18 18 0 0 0-6-.08c-1.88 0-3.77 0-5.65-.16-4-.32-8.1-.47-12.1-1.18-1.03-.5-2.28.12-3.4-.38z" class="Ag"/><path d="M964.15 544.49a14.6 14.6 0 0 0-3.68-.36H647.64a10.5 10.5 0 0 0-3.68.4 7.18 7.18 0 0 1-2 .13 2 2 0 0 0-1.12-.54c-8.54-2.3-15.29-13.26-13.47-22 1.69-8 6.33-13.49 14.35-15.87a24.08 24.08 0 0 1 7.36-1q63.64 0 127.29 0c1.87 0 3.88-.37 5.41 1.24a5.68 5.68 0 0 1 0 5.52c-1.53 1.11-3.31.78-5 .79a5.25 5.25 0 0 0-4.54 2.5c-3.91 5.59-4 14.45-.13 20.07a5.2 5.2 0 0 0 4.52 2.56h3.73 170.69c1.9 0 3.85-.21 5.6.83l4.8.11a4.25 4.25 0 0 1 1.92.37 2.75 2.75 0 0 1 1.48 3.3c-.19.74-.46 1.34-.7 1.95z" class="Ae"/><path d="M921.6 409.86v6.32l-.37.36a34.54 34.54 0 0 1-9.06.77l-37.73.4c.54 1.88 2.67 2.74 3 4.73.52 4 0 8 .33 12.18a12 12 0 0 0 4.33-1.61c3-1.75 5.81-1.61 9-.08 5.46 2.65 4.47 2.19 4.51-2.8 0-2.66.29-5.35-.32-8-.08-1.53-2-2.68-.94-4.45 2-.68 4.15-.26 6.22-.32 5.51-.16 11 .21 16.52-.27a7.4 7.4 0 0 1 4.2.45l.39.39v11.45a3.65 3.65 0 0 1-3 .77c-4.86-.54-9.69.55-14.55 0 4.95.56 9.87-.62 14.83 0a4.3 4.3 0 0 1 2.65.89q0 8.87.05 17.75c-1.05 1.12-2.45 1-3.76 1q-63.24 0-126.48 0a7.79 7.79 0 0 1-3.1-.45c-1.08-.59-1.16-1.69-1.31-2.71-1.67-11.31-3.49-22.59-5.81-33.79-.25-1.19-.54-2.48.72-3.4a9.51 9.51 0 0 1 4.23-.52q65.4 0 130.8 0c1.58.04 3.27-.27 4.65.94z" class="Ac"/><path d="M801.68 283.12l3.42 8.77q7.7 19.11 15.44 38.18c.17.44.43.84.64 1.26a1.13 1.13 0 0 1 .41.43 5.77 5.77 0 0 1 .22.58l.4.85a4.68 4.68 0 0 1 .3.59c.32.77.57 1.56 1 2.29a21 21 0 0 1 1.35 3c.24 1 .39 2-.86 2.52a13.36 13.36 0 0 1-4.27.35h-70.49c-1.7 0-3.47.27-5-.91a86.53 86.53 0 0 1-3.75-8.94q-9.35-23.07-18.58-46.19l-.83-2.13c-.25-.72 0-1.08.76-1.11h2.29 73.92c1.21-.01 2.48-.23 3.63.46z" class="Ad"/><path d="M956.64 538.88l-3.15.12H776.56c-3.2 0-3.31-.08-5.11-2.73a19.54 19.54 0 0 1 .56-22.32 3.87 3.87 0 0 1 3.62-1.78c2 .13 4 0 6 0 1 1.24.48 2.54 0 3.77a31.78 31.78 0 0 1-3.35 6.57 57.84 57.84 0 0 0-3.75 6.76c-.3.68-.83 1.41-.18 2.12a2 2 0 0 0 2.16.28 19.61 19.61 0 0 0 8.37-4.8 64.33 64.33 0 0 0 10.24-11.91c.78-1.22 1.57-2.75 3.52-2.44h4H952h2.87a1.06 1.06 0 0 1 1.07 1.11v2.86c-1.09.88-2.38.56-3.59.56-11.09-.06-22.17.5-33.26.3a4.21 4.21 0 0 0-2 .22c-4 .68-8.14 0-12.36.41-.07 1.17.95 1.85 1.18 2.82 1.47 3.89.39 8 1 12a1.48 1.48 0 0 0 1.49-.33c2.75-2.23 5.46-2.25 8.26 0 1.59 1.26 2.37.68 2.3-1.28-.1-3.12.32-6.27-.57-9.34-.22-1-.78-1.9-1-2.91-.18-.77-.29-1.53.9-1.51 11.35.22 22.7-.37 34-.28 1.21 0 2.51-.32 3.58.58a23.31 23.31 0 0 1 0 3.13c-.34 2.44.61 4.8.13 7.31-.44 2.29-.1 4.73-.1 7.1v1.71a3.54 3.54 0 0 0 .74 1.9z" class="Ac"/><path d="M908.52 285.19a103.19 103.19 0 0 0-3.54-10.84 170.89 170.89 0 0 0-8.54-20.23l-2.76-5a20.59 20.59 0 0 0-8.11-7.84 47.12 47.12 0 0 0-12.25-4.62 77.49 77.49 0 0 0-11.83-1.88c-1.66-.35-2.24-1.78-2.72-3.06-2.2-5.91-4.38-11.82-3-18.35.46-2.08-.31-4.16-.59-6.23a2 2 0 0 0-2.21-1.81c-9.84.66-17.57-4.34-25.31-9.33-3.29-2.13-4.27-1.84-5.45 1.95-3.29 10.59-.51 20.11 5.21 29.12 1.91 3 4.72 3.15 7.77 2.87 2.32 2 2.54 4.39 1.61 7.09a80.3 80.3 0 0 0-14.48 4.22 31.12 31.12 0 0 0-7.92 4.47c-1.54 1.26-3.06 2.57-3.59 4.63-.47.33-.87.76-1.4 0a26.36 26.36 0 0 1-2.92-5.24 41.88 41.88 0 0 1-3-13.35 96.45 96.45 0 0 1 7.34-44 48.91 48.91 0 0 1 5.55-10 19.1 19.1 0 0 1 10-7.26 70 70 0 0 1 18.6-2.85 19.17 19.17 0 0 1 10.1 2.78 30.05 30.05 0 0 1 7.74 6.32 57.74 57.74 0 0 1 13 25.18 51.13 51.13 0 0 1 .84 5.66 24.55 24.55 0 0 0 8.75 16.25c2.33 2 4.76 3.84 7.18 5.71a116.71 116.71 0 0 1 9.74 8 49 49 0 0 1 9.36 11.89 32.92 32.92 0 0 1 4.15 20.14 29.37 29.37 0 0 1-6 14.66 2.13 2.13 0 0 1-1.32.95z" class="Ae"/><path d="M707.41 401.28l-19.26 35c-3.81 7-7.39 14.18-11.08 21.28a7.12 7.12 0 0 1-3.57.84h-28.28c-1.28 0-2.73.24-3.59-1.17a25.41 25.41 0 0 1-12-5.76 22.64 22.64 0 0 1-5.65-7.48 25.77 25.77 0 0 1-2.5-11.9c.05-2.29 0-4.58 0-6.87a23.68 23.68 0 0 1 2.21-10.81c2.62-5.32 6.47-9.37 12.13-11.5a24.93 24.93 0 0 1 9.22-1.66h29.78c1 0 1.91 0 2.86-.06h26.54z" class="Ad"/><path d="M891.8 471.81a14 14 0 0 1 1.08 5.53v8a21.66 21.66 0 0 1-13.9 19.9l-1.61.66c.55.57 1.12.32 1.61.37s1.15 0 1.72 0h80.77a2 2 0 0 1 1.35.33c-1.3 1.6-3.14 1.13-4.79 1.13q-33.79.06-67.59 0c-5.06 0-10.12.3-15.17-.22a14.13 14.13 0 0 0-4.53-.47h-60.16a12.47 12.47 0 0 1-4.26-.32c-1-.53-.78-1.31-.42-2.16 2.72-6.36 2.51-7-3.3-10.47a11.87 11.87 0 0 0-2.88-1.2c-5-1.19-7.91-4.5-9.36-9.33-.78-2.63-1.68-5.22-2.62-7.81.43-1.56 2.11-1.87 3-3 1.62-1.64 3.72-1.29 5.69-1.29q45.55 0 91.12 0a12.47 12.47 0 0 1 4.25.35z" class="Ag"/><path d="M664.98 111.93a77.07 77.07 0 0 1-8.13-5.5c-.91-.67-1-1.23-.35-2.22.45-.72 1-1.36 1.54-2.05a45.27 45.27 0 0 1 5.32-6.33l4-4.06a78.34 78.34 0 0 1 9.15-7.72 83.56 83.56 0 0 1 17.81-10.26 80.89 80.89 0 0 1 18.47-5.85l7.87-1.2c6.19-.95 12.4-.56 18.57-.37a74.93 74.93 0 0 1 16.8 2.94 87.34 87.34 0 0 1 19.35 7.68 85.84 85.84 0 0 1 14 9.32 118 118 0 0 1 9.39 8.34c1.93 2 3.59 4.18 5.33 6.32.66.81 1.41 1.56 2 2.41.82 1.17.7 1.83-.45 2.66-1.62 1.17-3.29 2.28-4.92 3.43-.7.49-1.34 1.06-2 1.54a1 1 0 0 1-1.48-.26c-3.61-5.21-8.29-9.47-12.88-13.76a69 69 0 0 0-11.36-8.09 80.83 80.83 0 0 0-20-8.47 85.55 85.55 0 0 0-11.15-2.21c-4.68-.71-9.33-.34-14-.47a22.69 22.69 0 0 0-5.68.43c-1.83.41-3.76.24-5.65.66a83.29 83.29 0 0 0-19.22 6.26 89.19 89.19 0 0 0-13.34 7.76c-1.76 1.3-3.48 2.64-5.18 4a58.06 58.06 0 0 0-4.87 4.4 97.67 97.67 0 0 0-8.94 10.67z" class="Ac"/><path d="M891.8 471.81a1.53 1.53 0 0 1-1.24.58h-2.58-93.79c-2.17 0-2.17 0-3.46 1.7-1.14-1.3-.66-2.91-.86-4.39l-1.06-9.39c-.11-1.07-.52-2.3.57-3.21a8.93 8.93 0 0 1 4.22-.55q39.27 0 78.55 0c1.57 0 3.29-.36 4.59 1l2.92 1.1a20.26 20.26 0 0 1 11.86 11.72 7 7 0 0 1 .28 1.44z" class="Aj"/><path d="M732.05 92.57a18 18 0 0 1 1.94.39 6.23 6.23 0 0 0 2.26.26c3.56-.15 7 .72 10.42 1.44a63.87 63.87 0 0 1 17.77 6.95 57.9 57.9 0 0 1 9.82 6.83c1.73 1.49 3.38 3.06 5.08 4.58s3 3.67 4.7 5.37a6.37 6.37 0 0 1 .59 1 1.28 1.28 0 0 1-.28 1.79 5 5 0 0 1-.4.4l-7 4.94c-.52.35-1.13.41-1.47-.26a12.71 12.71 0 0 0-2.41-2.81 9.93 9.93 0 0 1-2-2.42 2 2 0 0 0-.54-.66c-4-3.2-7.81-6.64-12.4-9.09a58.74 58.74 0 0 0-12.7-5.06c-3.19-.83-6.44-1.76-9.82-1.5-1.26.1-2.47-.42-3.66-.41s-2.41.44-3.66.42c-5.8-.08-11.28 1.42-16.67 3.41a52.33 52.33 0 0 0-12.49 6.85 45 45 0 0 0-10.29 9.81c-2.09 2.85-2.15 2.81-5.1.59-1.29-1-2.67-1.83-4-2.74a13.88 13.88 0 0 1-1.38-1 1.12 1.12 0 0 1-.27-1.54 24.07 24.07 0 0 1 3.43-4.54c2-2 3.88-4 5.89-5.87a63.84 63.84 0 0 1 9.61-7.14 62 62 0 0 1 19-7.77 40.51 40.51 0 0 1 11.54-1.55 6.72 6.72 0 0 0 2.55-.3 13.52 13.52 0 0 1 1.94-.37z" class="Ac"/><path d="M921.6 409.86l-2.57-.13H781.57c-2.09-2.15-3-6.71-1.87-8.91 4.1-1 8.26-.15 12.38-.44 10.23-.05 20.46-.24 30.67.63a2.32 2.32 0 0 1 .79.28l7.44.09q21 0 42 0c1.62 0 3.24-.09 4.86-.13h49.63 2.59a4 4 0 0 1 1.37.33c1.5.69 2.22 2.28 2 4.37a3.55 3.55 0 0 1-2.79 3.54 12.21 12.21 0 0 1-2.27.19 63 63 0 0 0-6.77.18zm-44.86 47.79c-1.24 0-2.48-.09-3.72-.09h-83.85a10.47 10.47 0 0 1-1-8.58h3.44 126.64l3.43-.11 2.86.11h4.58c3.56.09 5.36 2.71 4.18 6.05a3.37 3.37 0 0 1-2.92 2.41 20.17 20.17 0 0 1-2.58.06h-47.31c-1.27-.01-2.51.06-3.75.15z" class="Ad"/><path d="M695.72 133.65a44.85 44.85 0 0 1 17-14.32 40.92 40.92 0 0 1 13.65-3.85 37.77 37.77 0 0 1 21.5 2.74 43.73 43.73 0 0 1 15.55 10.4c1.25 1.3 2.35 2.74 3.49 4.14a.69.69 0 0 1-.06 1 5 5 0 0 1-.47.33l-6.92 5c-1 .7-1.41.65-2.27-.17a127.09 127.09 0 0 1-3.86-3.84c-4.28-4.4-9.67-6.65-15.5-8-2.3.1-4.49-.82-6.81-.64-6.87.54-13.26 2.36-18.84 6.61a26.47 26.47 0 0 0-6.24 6.21c-.66 1-1.23 1-2.13.27-2.56-1.98-5.48-3.45-8.09-5.88z" class="Ac"/><path d="M875.25 506.8h2.86 81.3l3.42-.13a2.87 2.87 0 0 1 1.77 1.35 2.74 2.74 0 0 1-2 4.14 21.07 21.07 0 0 1-2.87.09h-74.59-82.35a11.24 11.24 0 0 1-3.42-.19c-.12-2 1.43-2.51 2.72-3.3 1.78-1.83 3.93-2.23 6.47-2.21l63.58.06a6.93 6.93 0 0 1 3.11.19z" class="Ae"/><path d="M801.66 509.7a6 6 0 0 0-2.28 2.31l-.68.53c-2 1-3.1 2.76-4.21 4.52a50.37 50.37 0 0 1-9.18 10.52 22 22 0 0 1-5.16 3.57 26.24 26.24 0 0 1-3.46 1.32 5.43 5.43 0 0 1-2.83.07 1 1 0 0 1-.8-1.3 15.06 15.06 0 0 1 1-2.64l3.54-6.21a10.13 10.13 0 0 1 2.3-1.68c8.52-4 13.4-11.27 17.64-19.2 1.51-2.81 2.61-5.93 5.33-7.94a12.41 12.41 0 0 1 4.34 3.06 4.67 4.67 0 0 1 .93 5.68 12.71 12.71 0 0 1-2.52 3.36 15.44 15.44 0 0 1-3.96 4.03z" fill="#333"/><path d="M717.07 148.9c.69-2.66 2.82-3.77 4.64-5a17.8 17.8 0 0 1 21.88 1.7 34.69 34.69 0 0 1 1.81 1.83 1.13 1.13 0 0 1-.18 1.93l-3.72 2.63q-4.28 3.07-8.52 6.19a2 2 0 0 1-2.77.05l-13.14-9.33z" class="Ac"/><path d="M744.23 341.06h39.53 37.52 3.44c.92-.9 2.1-.81 3.24-.79h18.9a8.2 8.2 0 0 1 1.72.08c1.13.24 2.31.45 2.15 2.08s-1.47 1.2-2.39 1.2q-50.71 0-101.41 0a3.54 3.54 0 0 1-1.41-.19 2.83 2.83 0 0 1-1.29-2.38z" class="Ad"/><path d="M745.52 343.43l3.73-.09h97.54 2.87a.91.91 0 0 0 .9-.92 1 1 0 0 0-.89-1.2c-.76-.06-1.53-.06-2.29-.06h-19.51c-1.05 0-2.1-.06-3.15-.09-.1-.73-.63-1.36-.5-2.14a1 1 0 0 1 1.09-.45c.44 0 .87.09 1.31.12a20.5 20.5 0 0 1 3.75.33c4.85.37 9.7.07 14.55.13a11.67 11.67 0 0 1 5 .93 4.69 4.69 0 0 1 .78.83c1 1.76.28 3.12-1.77 3.17H745.45a1.59 1.59 0 0 1 .07-.56z" fill="#47507a"/><path d="M916.33 517.23q9.6 0 19.18-.09a11.78 11.78 0 0 0 3.68-.35 8.64 8.64 0 0 1 2.55-.19q7.15 0 14.31 0c.08.39.59.78 0 1.17h-36.87l-1.71.06c-.61.27-1.02.13-1.14-.6z" fill="#f6d6be"/><path d="M675.43 393.81a2.94 2.94 0 0 1-.39-.4c-.78-1.28-.77-1.29-1.84-1a4.69 4.69 0 0 1-.81.24c-2.51.14-3.43.45-3.9-2.66a6.59 6.59 0 0 0-.51-1.34l6.26-.13c.36 1.75 1.28 3.41 1.19 5.29z" fill="#f0a351"/><path d="M921.6 431.09a11.8 11.8 0 0 1-4-.4 7.2 7.2 0 0 0-2.28-.14h-9.17a2.88 2.88 0 0 1-1.7-.21c.37-.63 1-.31 1.44-.33a65.32 65.32 0 0 0 8.25-.48 46.11 46.11 0 0 1 7.44-.12l.02 1.68z" fill="#f6d5bb"/><path d="M921.63 416.18c.66.87.66.87 0 1.75h0a1.22 1.22 0 0 1 0-1.68z" fill="#fcecdc"/><path d="M114.24 485.02c.16-.43.45-.86.07-1.32a1.9 1.9 0 0 0-.19-.21c-3.56-3.17-6.38-7-9.74-10.38-2.21-2.2-4.15-4.67-6.21-7-.31-.9.27-1.47.84-2 7.6-6.54 14.78-13.54 22.22-20.25l16.42-15.14c6-5.74 12.37-11.1 18.28-17 .92-.91 2.09-2.72 3.71-.62 3.3 11.87 5.81 23.93 8.75 35.89l4.74 20.06c.59 2.7 1.89 3.42 4.54 3.4h47.84c1.38 0 2.89-.38 4.08.78-1.12 1-2.31 2-3.36 3.08-3.5 3.65-7.64 6.63-11 10.41-2.34 1.52-4 3.81-6.16 5.52-2.86 2.27-5.19 5.08-8 7.38s-4.93 4.79-7.56 7c-2.43 2-4.51 4.41-6.94 6.37-2.62 2.1-4.78 4.67-7.35 6.78s-4.53 4.38-6.95 6.37-4.63 4.26-6.93 6.4a47.48 47.48 0 0 0-3.7 3.13.76.76 0 0 1-1.23.06c-1.88-2-4.07-3.73-5.68-6a24 24 0 0 0-3.15-3.32c-3.14-3.06-5.86-6.51-8.93-9.65-1.71-1.76-3.36-3.64-5-5.48a4.8 4.8 0 0 0-4.51-1.88c.16-1.38 1.31-1.22 2.18-1.29a56.57 56.57 0 0 0 5.68-.76 9 9 0 0 0 7.62-10.39c-.17-1.32-.19-2.66-.46-4-1.16-5.65-5-8.57-10.77-7.87l-19.92 2.39c-1.11.17-2.27.52-3.23-.46z" class="Ac"/><path d="M641.87 544.2a.62.62 0 0 1 .11.47c-1 0-1.91-.06-2.87-.06h-174.4q-53.94 0-107.86 0H71.71c-1.05 0-2.1-.05-3.14-.08a9.42 9.42 0 0 1 3.13-.16h250a11.48 11.48 0 0 0 3.23-.14c.25-.56-.11-.67-.31-.81a11.19 11.19 0 0 1-4.24-6.93 24.28 24.28 0 0 1-.55-8l.88-9.12 1.94-24 1.76-21.12.35-2.84c-1-.9-2.19-.43-3.27-.43q-72.11 0-144.21 0c-1.09 0-2.73.57-3.15-.45-.55-1.3 1-2.11 2-2.81 2.54-1.85 4.81-4.08 7.73-5.4a1.71 1.71 0 0 1 1.59.37h4.3 414.5 2.87c2 .75 4 1.71 6.28 1.66a1.84 1.84 0 0 1 1.81 1.19 7.28 7.28 0 0 1 .29 3.11c-.13 1.81-1 2.81-2.89 2.85h-3.73-170c-1.42 0-2.87-.24-4.24.33-1.53.83-1 3-2.52 3.85a16.16 16.16 0 0 1-4.14 1.11l-93.22 18.76c-4.84 1-4.68 1-5.09 5.89l-1.9 21.36c-.9 3.79-.11 7.43 1.31 10.88 1.29 3.15 3.77 4.76 7.31 5.1 3.91.38 7.8.47 11.71.52 1.3 0 2.73-.18 3.65 1.14.55 2.82 2.69 2.75 4.86 2.75q39.69 0 79.39 0l24.93.06c1.82-.16 3.63-.08 5.45-.08q84 0 167.95 0a25.58 25.58 0 0 1 7.54 1.03z" class="Ak"/><path d="M184.24 462.65l-10.11 7.71a5.08 5.08 0 0 0 2.44.28h144.52l2.86.06a.87.87 0 0 1 .79.71 8.27 8.27 0 0 0-2.84-.26h-90l-2.29.1c-1.14 0-2.29-.11-3.43-.11h-50.5c-1.79 0-2.35.32-3-2.46l-11.95-50.12-2-8c-1-.76-1.12-1.95-1.4-3-1.72-6.64-3.09-13.36-4.85-20a5.7 5.7 0 0 1-.05-3.37l-3.25-14.2q-5.09-21.39-10.24-42.78a16.17 16.17 0 0 0-.56-1.61 25.41 25.41 0 0 0-1.15-5.53l-2.37-9.32c-2-3.17-2.32-6.85-3.14-10.35l-12.77-53.75c-.27-1.17-.88-2.36-.2-3.6a80 80 0 0 0-2.32-9.76 5.34 5.34 0 0 1-1.4-3c-.71-4.36-2.68-8.47-2.49-13a56 56 0 0 0-1.89-8.2 10.47 10.47 0 0 1-1.6-3.63q-9.57-40.4-19.23-80.76l-3.84-16.16c-.27-1.19-.77-2.38-.24-3.64-.4-3.29-1.41-6.46-2.12-9.69l-1.84-7.72c-.19-.86 0-1.23.84-1.52l7-2.35q3.43 14.19 6.86 28.39 5 20.73 10 41.48 7.28 30.19 14.57 60.4 5.36 22.28 10.68 44.55 7.26 30.21 14.56 60.4 5.36 22.27 10.68 44.56l5.44 22.54c.09.37.12.76.23 1.12.34 1.19.79 1.51 2.09 1.47.67 0 1.34-.14 2-.16h2.58 227.13q134 0 267.92 0c1.21 0 2.48-.31 3.65.34h-4-259.78a14.15 14.15 0 0 0-4.8.56c-2.56-.46-5.05.38-7.62.38q-109.55-.11-219.1-.06c-6 0-6 0-4.51 5.76q7.78 31.3 15.63 62.55c.39 1.55 1.15 3.1.41 4.75z" fill="#e5b677"/><path d="M152.4 384.14q2.73 11.25 5.46 22.49l.84 3.91a11.89 11.89 0 0 0-2.92 2.27c-3.72 3.56-7.33 7.23-11.25 10.56-2.55 2.17-4.71 4.76-7.34 6.77-3.34 2.56-5.85 6-9.36 8.37a2.49 2.49 0 0 0-.42.38c-3.45 3.83-7.5 7-11.26 10.55-2.78 2.6-5.46 5.33-8.35 7.79-2 1.73-4 3.56-5.89 5.4a13.18 13.18 0 0 1-1.56 1.23 6.83 6.83 0 0 0-2.18 2.23 6.83 6.83 0 0 1-2.48-2.32 19.74 19.74 0 0 0-3-3.43c-3.45-3.29-6.26-7.19-9.78-10.42-.89-.82-.87-1.47.08-2.11 2.4-1.62 4.07-4 6.35-5.75 3.3-2.46 5.72-5.87 9.16-8.15a1.31 1.31 0 0 0 .21-.2c3.4-3.74 7.45-6.81 11-10.37 2.82-2.83 5.86-5.45 8.81-8.13 2.05-1.86 4-3.86 6.09-5.61 3.1-2.55 5.75-5.58 8.8-8.15 2-1.73 3.83-3.71 5.89-5.39 3-2.42 5.51-5.27 8.39-7.76 1.6-1.36 3.16-2.76 4.71-4.16z" class="Ae"/><path d="M114.24 485.02a11.68 11.68 0 0 0 3.1-.32c1.84-.47 3.76-.42 5.64-.72 3.92-.63 7.91-.82 11.85-1.3a40.11 40.11 0 0 1 4.52-.54c3.73-.06 6.38 1.85 8.34 4.69 1.11 1.62 1.34 3.72 1.54 5.72.09.85.07 1.72.23 2.55a9.3 9.3 0 0 1-4.08 9.33 11.94 11.94 0 0 1-5.59 1.92c-1.87.1-3.75.51-5.65.54-.33 0-.66.32-1 .49a58.57 58.57 0 0 0-9.61 1c-2.24.35-4.52.49-6.78.74s-4.56.34-6.78.8-4.37.22-6.48.87a4.11 4.11 0 0 1-1.7-.08.86.86 0 0 1-.69-.8c-.07-.5 0-1 .55-1.19a11.68 11.68 0 0 1 3.06-.64 61.65 61.65 0 0 0 6.51-.69c2.44-.28 4.88-.64 7.32-1a57 57 0 0 1 6.21-.71c2.39 0 4.69-.85 7.09-.72a3.9 3.9 0 0 0 1.33-.48c1.84-1.23 4-1 6.06-1.37 5.11-.79 7-2.9 6.92-8a19.05 19.05 0 0 0-.67-4.81 6.57 6.57 0 0 0-6.85-4.94c-7 .74-14 1.56-21 2.6-7.42.66-14.79 1.68-22.17 2.6-7.54.94-8.14 6.22-6.34 11.79.75 2.34 3.06 2 4.92 1.8q7.68-.85 15.34-1.9c2.27-.31 4.57-.35 6.82-.82 3-.65 4-2 3.45-5.41-.38-2.56-1.71-3.45-4.79-3.1l-11.64 1.4c-.85.13-1.71.17-2.57.22-1.21.09-2.46 0-2.73-1.43-.3-1.62 1-2.21 2.23-2.41 3.58-.54 7.18-1 10.79-1.38 2.45-.27 4.9-.89 7.39-.34 2.21.84 4.38 1.72 4.49 4.61a29.6 29.6 0 0 0 .29 4 5.81 5.81 0 0 1-3.6 6.4 31.08 31.08 0 0 1-6.15 1.09l-8.18 1c-1.6.22-3.21.32-4.81.5-2.92.34-5.83.79-8.8.86-3.32.08-5.52-2.06-6-5.6a24.78 24.78 0 0 0-.38-2.82c-1.19-4.94 2.29-9.81 6.78-11.08a18.29 18.29 0 0 1 4.2-.73c2.27-.11 4.52-.55 6.77-.86a5.71 5.71 0 0 1 1.12-.19c2.41.21 4.7-.72 7.1-.67a16.7 16.7 0 0 0 3.08-.47z" class="Ad"/><path d="M122.81 493.65c-.18-.2-.44-.37-.53-.61a4.76 4.76 0 0 0-2.85-2.84 2.41 2.41 0 0 1-.62-.54c-.37-.78-1.58-1.15-1.12-2.32.44-.17.9-.51 1.33-.48 2.31.14 4.54-.48 6.79-.76a45.71 45.71 0 0 0 6.49-.83 7.3 7.3 0 0 1 1.69-.2 20.74 20.74 0 0 0 3.67-.42c3.33-.75 7.33 1.37 8.39 4.48a23.32 23.32 0 0 1 .87 4.74c.13 1 0 2.1.06 3.15.16 2.87-1.48 4.62-3.75 5.91a6.19 6.19 0 0 1-2.68.93c-2.47.11-4.87 1-7.37.7-3.19-3.52-6.15-7.24-9.64-10.47a5.89 5.89 0 0 0-.73-.44z" class="Ac"/><path d="M104.49 376.47a5.16 5.16 0 0 1-2.6 5.11c-1.52 1-2.86 2.22-4.67 2.72a6.49 6.49 0 0 1-6.73-2l-1.87-2.52q-6.27-9.06-12.5-18.13l-1.09-1.68c-.2-.34-.31-.74.11-1a.92.92 0 0 1 1.07.1 3.1 3.1 0 0 1 .58.62q1.9 2.68 3.78 5.38l10.59 15.28c2.16 3.08 4.82 3.08 6.9 1.74a36.19 36.19 0 0 0 3.52-2.44c1.41-1.19 1.76-3.8.91-5.85a5.4 5.4 0 0 0-.53-1q-5.67-8.08-11.34-16.14l-5.48-8a5.42 5.42 0 0 0-8-1.22c-.41.39-.9.71-1.35 1.06a2.41 2.41 0 0 0-.77 3.46c.32.58.71 1.13 1.09 1.68q3.79 5.37 7.58 10.75c.22.31.4.65.62 1 1.87 2.64 4 2.73 6.07.27a2.52 2.52 0 0 0 .24-3.41l-5-7.29a25 25 0 0 1-1.44-2.45.54.54 0 0 1 .33-.69.59.59 0 0 1 .52 0 9.88 9.88 0 0 1 1.4 1.42l5 7.29c.38.55.64 1.17 1 1.74a3.52 3.52 0 0 1-1 4.62 15.06 15.06 0 0 1-2.55 1.76 3.9 3.9 0 0 1-5.06-1.21l-9.79-14.08a8.19 8.19 0 0 1-.48-.72 4 4 0 0 1 1.05-5.38 32.94 32.94 0 0 1 2.88-1.86c2.78-1.74 5.93-.82 8.13 1.22a6.88 6.88 0 0 1 .93 1.09l7.59 11.09 7.71 11 1.69 2.65a6.07 6.07 0 0 1 .96 4.02z" class="Ad"/><path d="M580.66 121.41l4.09 14.6q4 14.34 7.92 28.69 3.76 13.65 7.53 27.31 3.09 11.17 6.15 22.35l7.63 27.58 6.24 22.62 7.53 27.31q4.1 14.89 8.2 29.8 3.62 13.11 7.25 26.2 3.45 12.56 6.89 25.11l.51 1.94a.8.8 0 0 1-.73 1 4.86 4.86 0 0 1-.85.06H330.35a11 11 0 0 0-1.72 0 2 2 0 0 1-2.5-1.68c-1.22-.93-1.13-2.39-1.3-3.66l-3.34-24.4a5.76 5.76 0 0 1 .08-2.83 11.94 11.94 0 0 0 1.43-4.3l5.3-32.48c.21-1.29.18-2.7 1.23-3.73 4.31-2 4.29-2 3.73-6.78a25.35 25.35 0 0 1-.55-4.76c1.39-4.79 1.22-9.62.53-14.48.5-4.16 1.3-8.28 2-12.41.35-2.12-.31-3-2.5-3a19.5 19.5 0 0 1-5.91-.92c-1.4-.85-1.54-2.36-1.85-3.73-2.16-9.41-4.73-18.71-7.1-28.06a23.13 23.13 0 0 0-10.34-14.49 135.63 135.63 0 0 0-20.31-11.19 24.52 24.52 0 0 1-3.08-1.53c-2.12-1.89-4.25-3.77-6.21-5.84a27.91 27.91 0 0 1-.81-3.51 4.15 4.15 0 0 1 .3-2.36c5.85-2.43 6.09-7.69 6.38-12.86.39-6.77-.31-13.51-.93-20.24.21-1.15 1.14-1.7 2-2.34a2.53 2.53 0 0 0 .45-4c-4.1-5.07-8.48-9.78-14.56-12.62-9.79-4.58-25-.6-31.14 8.36-3.09 4.55-3.3 9.64-2.17 14.84a51 51 0 0 0 7.52 17.27c2.34 3.56 5.31 6.23 9.66 7 1.21 1 1 2.34.75 3.62a32.44 32.44 0 0 1-1.7 6.19c-2.21 2.24-4.95 3.76-7.54 5.48-3.88 1-7.84 1.67-11.71 2.79-9.54 2.78-16.47 8.3-20.56 17.6-7.26 16.5-13.34 33.34-16.39 51.15-1.28 7.44-2.11 14.9-1 22.5 1.65 11.41 6 16.31 17.23 18.85.74.17 1.5.3 2.25.4 4.26.61 4.5.88 4.75 5.22a33 33 0 0 1-.25 6.13 12.33 12.33 0 0 0-.27 4c.12 12.31-1 24.57-1.18 36.86a2.93 2.93 0 0 1-1 2.58c-.68 1.35-.36 2.81-.42 4.22-.14 3.37.15 3.18-3.11 3.18q-16.05 0-32.11 0c-2.13 0-2.6.52-3.41-2.7q-9.65-38.73-19.43-77.41-10.24-40.65-20.45-81.26-11-44-22.06-87.95l-1.13-4.73c.22-1.46 1.45-1.31 2.43-1.45a25.75 25.75 0 0 1 3.73-.09q226.26 0 452.54 0c2.04-.01 4.25-.59 6.06.98z" class="Ac"/><path d="M580.66 121.41c-1.15 0-2.3-.06-3.44-.06H119.74h-2.58a1.6 1.6 0 0 0-1.26.56c-.84-1.42-.94-3.06-1.35-4.61q-1.89-7.19-3.66-14.4c-.64-2.58-.45-2.8 2.17-2.83h457.86 2.86a1.19 1.19 0 0 1 1.26.93l1.06 3.27q2.22 8 4.4 16a10.41 10.41 0 0 1 .16 1.14z" fill="#aecdfb"/><g fill="#2b468b"><path d="M219.9 318.65l-.15-3.3a12.55 12.55 0 0 0-3.28-.64 36.85 36.85 0 0 1-8.88-2.18 16.67 16.67 0 0 1-9.76-9.51 36.53 36.53 0 0 1-2.62-13.12 89.43 89.43 0 0 1 2-20.77 213.64 213.64 0 0 1 15.39-47l3.21-6.4a21.28 21.28 0 0 1 8.43-8.75 44.85 44.85 0 0 1 11-4.73 59.65 59.65 0 0 1 10.91-2.22c.22 1.18 0 2.39.64 3.58 6.17 10.66 12.11 21.45 18.66 31.89a139.33 139.33 0 0 1 5.12 24.15c-.64 8.43-2.49 16.68-3.69 25a37.81 37.81 0 0 1-1.18 6.14c-1.39 2.15-2.85 4.18-3.38 6.85a16.8 16.8 0 0 0 .68 8.16 13.6 13.6 0 0 1-.23 4.27l-4.16 25.48c-.65 3.94-.21 4.62 3.87 4.52 6.22-.16 12.4.75 18.61.66a4.27 4.27 0 0 1 3.25.83c1 2 .86 4.32 1 6.45l.78 16c.14 2.76.06 5.53 0 8.3a4.22 4.22 0 0 1-.87 3.22 6.94 6.94 0 0 1-2.27.15h-62.3a4.49 4.49 0 0 1-2.51-.26c0-1.19-.05-2.38-.09-3.57l-.1-3.29.85-24.91.55-16.9a4 4 0 0 1 .33-1.95c1 1.71 2.36 2 4.3 1.47a141.31 141.31 0 0 0 32.33-12.87 10.33 10.33 0 0 1 2.41-1.11c-6.33 1.72-13.28 2.32-20.19 3.08a74.6 74.6 0 0 1-14.55.51c-2.41-.16-2.6 2.09-4.11 2.77z"/><path d="M218.18 375.47h63.39 3.73c1.2-1 2.68-.83 4.08-.84h19.11c3.85 0 4.35-.47 3.87-4.33a92.64 92.64 0 0 1-.52-10.52c.66-4.05-.57-8-.8-12-.1-1.79-.67-3.62.61-5.24 3.47-.31 7-.67 10.25.91q1.67 11.9 3.32 23.8l.91 7.1c-.48 1.56-.48 1.6-1.82 1.61q-7 .06-14 .07-44.55 0-89.11-.08c-1.03-.02-2.15.4-3.02-.48z"/></g><path d="M377.62 81.48a188.07 188.07 0 0 0-12.53-16.68c-2.74-3.19-5.56-6.29-8.42-9.36a141 141 0 0 0-12-11.05 190.97 190.97 0 0 0-8.46-6.82c-3.79-2.89-7.72-5.58-11.76-8.13s-8.2-4.89-12.42-7.12c-3.38-1.78-6.8-3.47-10.34-4.94-4.23-1.75-8.45-3.53-12.77-5.05a169.41 169.41 0 0 0-22.33-6.08c-4-.82-8-1.45-12.1-2-2.09-.29-4.22-.21-6.25-.63-3.87-.79-7.83 0-11.67-1-6.69-.34-13.35.45-20 .58-.28 0-.57.07-.85.1-2.45.33-4.89.74-7.35.95-3.33.3-6.59 1-9.87 1.54-5.17.9-10.22 2.25-15.28 3.62s-10.24 3.24-15.24 5.09a92 92 0 0 0-10.49 4.59 3.82 3.82 0 0 1-3.54.29 32.5 32.5 0 0 0-3.57-1c-6.68-2-13.47-3.47-20.3-4.78-3.08-.58-6.24-.75-9.31-1.37-2.82-.57-5.71-.32-8.5-1-5.92.13-11.82-.36-17.74.43a74.67 74.67 0 0 0-10.66 2 39.78 39.78 0 0 0-14.78 7.31 29.37 29.37 0 0 0-3.62 3.24c-5.69 6.6-8 14.4-8 23 0 1.22.43 2.44.45 3.67a31 31 0 0 0 .87 5.93 68.81 68.81 0 0 0 3.63 11.44 116.4 116.4 0 0 0 11 20.7c.94 1.43 1.85 2.89 2.89 4.26a2.38 2.38 0 0 1 .21 3.09 28.08 28.08 0 0 0-2.08 3.76c-2.84 6.35-5.86 12.64-8 19.27-.09.27-.24.52-.35.79a1.71 1.71 0 0 1-1.73 1.24c-2.6-.18-5.12.53-7.7.63a99.36 99.36 0 0 0-8.25.69c-3.3.42-6.57 1-9.86 1.55a95.28 95.28 0 0 0-19.57 5.05 35.14 35.14 0 0 0-14.62 9.76 19 19 0 0 0-3.67 6.73c-1.29 4.1-.64 8.1 1 12 2 4.88 5.28 8.85 8.89 12.52a71.7 71.7 0 0 0 7.62 6.49 144.44 144.44 0 0 0 20.22 12.42c5.66 3 11.58 5.44 17.41 8.07a3.1 3.1 0 0 1 2.21 2.94 14.61 14.61 0 0 0 .16 2.57l2.59 13.45a182.67 182.67 0 0 0 7.13 23.52c.88 2.41 1.84 4.8 2.76 7.2a3.21 3.21 0 0 1 .51.67c1.34 2.95 2.55 6 4 8.84 1.77 3.48 3.7 6.88 5.67 10.25a145.73 145.73 0 0 0 8.8 13.35c2.9 3.89 5.84 7.74 9 11.41 2.81 3.24 5.74 6.36 8.63 9.51 2.31 2.52 5 4.73 7.51 7 1.76 1.6 3.53 3.2 5.4 4.67 3 2.37 6 4.69 9.07 6.92a80 80 0 0 0 9.08 5.94 1.81 1.81 0 0 0 .52-1.82c-1.07-4.39-1.69-8.9-3.55-13.07a183.5 183.5 0 0 1-29.22-27.31 161.55 161.55 0 0 1-25.56-41.2c-.79-1.84-.41-2.21 1.63-2.11 11.15.55 22.23 1.85 33.27 3.47 1.28.19 2.69.52 3.68-.8-.31-3.49-.39-7-2.83-9.94a82.37 82.37 0 0 0-9.87-1.56c-7.56-1.06-15.16-1.57-22.77-1.94a16.77 16.77 0 0 0-4.84-.26c-2.27.14-3.52-.78-4.14-3a175.33 175.33 0 0 1-4.47-18.6c-.6-3.55-.49-3.62 2.79-2.41 10.18 3.76 20.41 7.39 30.79 10.59 1.76.41 3.43 1.12 5.16 1.62 1.26.36 2.55.94 3.78-.09.54-3-.48-5.63-1.62-8.26-1-1.14-2.48-1.36-3.84-1.78-12.34-3.83-24.46-8.24-36.42-13.11a3.93 3.93 0 0 1-2.87-3.5 144.74 144.74 0 0 1 .15-28.31 166 166 0 0 1 14.78-54.24 6.12 6.12 0 0 1 2.76-3.14c.82-1.16.37-2.38.14-3.57-.74-3.91-1.84-7.74-2.78-11.61-.5-2 0-3.2 2.14-3.81 1.59-.46 3.41-.65 4.42-2.29h6.84c2.62-2.15 4.25-5.11 6.32-7.7a181.85 181.85 0 0 1 23.09-23.75c2.14-1.86 2.58-1.77 3.78.57a108.16 108.16 0 0 0 13.16 19.71c3.33 4 6.57 8.18 11 11.12l13.79.06c.26-1.21-.79-1.65-1.42-2.27l-8.52-8.52a109.3 109.3 0 0 1-18.54-25c-2.25-4.13-2.2-4.29 1.7-6.77a181.58 181.58 0 0 1 24.37-13.34 164.75 164.75 0 0 1 96.83-11.18.91.91 0 0 1 .52.15l-.09.18c-9.74 5.3-17.28 13.13-24.19 21.6a277.28 277.28 0 0 0-28.17 42.79c-.4.73-1 1.43-.53 2.37h10.86a8.16 8.16 0 0 0 1.89-2.12c3.09-5.6 6.46-11 10-16.39 7.31-11.22 15.16-22 25-31.24a42.88 42.88 0 0 1 12.52-8.44c4.49-1.93 7.43-1.44 10.44 1.71a19.07 19.07 0 0 1 4.36 8.58c3.46 12.93 3.1 26 2 39.21-.24 2.87-1.21 5.78-.13 8.68l9.22-.05a3.77 3.77 0 0 0 1.29-3.05c1-11.42 1.83-22.84.57-34.3-.69-6.28-1.75-12.48-4.25-18.36-.23-.54-.86-1.09-.31-1.71a1.17 1.17 0 0 1 .91.07c.63.22 1.25.48 1.86.75a162.25 162.25 0 0 1 66.69 52.22c.72 1 2.24 1.95 1.69 3.09s-2.26.54-3.46.54l-60.21.05c-1.46 0-3.11-.49-4.28.94a6.15 6.15 0 0 0 3.09.36h64.44a7.85 7.85 0 0 0 2.28-.09 18.48 18.48 0 0 1 5.39-.42h7.45c-.44-.71-.78-1.4-1.21-2.03zm-237.75-53a170.08 170.08 0 0 0-17.34 12.09 187.68 187.68 0 0 0-18 16.73 152.65 152.65 0 0 0-10.55 12.07 162.48 162.48 0 0 0-10.75 15.14c-.34.55-.76.58-1.11.05l-3.56-5.53a90.9 90.9 0 0 1-8.9-18.84 43.5 43.5 0 0 1-2.49-15.14c.26-7.55 3.28-13.55 9.56-17.91a35.43 35.43 0 0 1 12.11-4.95 37.68 37.68 0 0 1 10.74-1.29c1.63.07 3.18-.68 4.83-.48 4.06.49 8.17.34 12.23.94 2 .3 4 .39 5.95.68a163.41 163.41 0 0 1 19 3.92c.34.09.75.08 1 .66a14.19 14.19 0 0 1-2.72 1.86z" class="Ac"/><path d="M62.58 128.93a5 5 0 0 0-1.4-.16c-2.2 0-4.36.33-6.54.5l-6.8.82c-3.86.51-7.67 1.38-11.49 2.11a64.86 64.86 0 0 0-18.37 6.22 24.88 24.88 0 0 0-6.54 5c-1.74 1.85-2.28 4.12-2.58 6.63a22 22 0 0 0 1.34 5.4 26.72 26.72 0 0 0 4.66 6.81 73.78 73.78 0 0 0 12.93 10.79c8.39 5.71 17.42 10.25 26.52 14.67 2.2 1.07 2.63.76 2.46-1.75a42.94 42.94 0 0 1-.49-4.83c.16-3.61-.05-7.22.42-10.84.42-3.29.28-6.64.58-10 .34-3.8.85-7.57 1.43-11.32a137.88 137.88 0 0 1 4.1-18.33 3.59 3.59 0 0 0 .22-1.1.83.83 0 0 0-.45-.62z" class="Ad"/><path d="M118.72 243c1.08 3.16 1.64 6.45 2.42 9.68q5.29 22.05 10.54 44.12l3 12.49a12.7 12.7 0 0 1 .14 1.41 7.25 7.25 0 0 1-3.14-1.91c-2.58-2.26-5.31-4.34-7.92-6.56a201.11 201.11 0 0 1-15.33-15 123.33 123.33 0 0 1-10.23-12.64 185.86 185.86 0 0 1-10.91-17.09c-2.86-5-5.19-10.19-7.59-15.38-.2-.43-.34-.89-.51-1.33-.56-1.46-.49-2.19 1.56-1.71a29.4 29.4 0 0 0 5.68.44 12.69 12.69 0 0 1 4.25.43 3.31 3.31 0 0 0 1.14.11c3.62.05 7.18.72 10.76 1.05 2.18.2 4.34.56 6.52.73a28.65 28.65 0 0 1 5.07.7 22.58 22.58 0 0 0 4.55.46zm-35.5-13.22h4.27a2.62 2.62 0 0 0 2-.84c.19-.2.42-.38.6-.6 2.43-2.8 5.52-4.89 8.14-7.48a55.42 55.42 0 0 1 5.08-4.06c.66-.51 1.11-1.05.56-1.9l5.6 1.73a8.83 8.83 0 0 0 3 .58 26.72 26.72 0 0 1 1.51 5.44c.88 3.5 1.6 7 2.39 10.56a43.66 43.66 0 0 1-8.15-1c-1.68-.31-3.38-.26-5.07-.59a62.86 62.86 0 0 0-7.9-.74 16.25 16.25 0 0 1-3.1-.34 10.73 10.73 0 0 0-2.54-.22c-1.62 0-3.23 0-4.85-.05a2 2 0 0 1-1.54-.49z" class="Ah"/><path d="M263.45 16.93l-.61-1.11a6.34 6.34 0 0 1 1.07.06.49.49 0 0 1 .41.57c0 .14-.21.28-.35.36a2.31 2.31 0 0 1-.52.12z" fill="#d8ecfc"/><path d="M470.59 37l-.59-.56zm-1.14-.59l-.58-.55z" fill="#bad5f9"/><path d="M184.24 462.65l-2.27-8.53q-5.89-23.51-11.75-47l-4.1-16.31a6 6 0 0 1-.18-.84 1 1 0 0 1 .91-1.21l2.87-.07h226.16l2.58.05a3 3 0 0 1 1 .51 5.45 5.45 0 0 0-1.41.19c-6.37 2.55-13 4.42-19.46 6.67l-20.27 7c-5.9 2.19-11.91 4.05-17.85 6.12l-22.17 7.61c-6.27 2.27-12.67 4.17-18.93 6.47-7 2.57-14.11 4.68-21.09 7.25s-14.26 4.81-21.37 7.28l-20.55 7-19.76 6.81q-10.14 3.46-20.28 6.94-5 1.73-10 3.51a4.87 4.87 0 0 0-.94.58z" class="Ak"/><path d="M441.55 440.3a14.68 14.68 0 0 1-10.57-4.28c-1.83-1.83-3.67-3.61-4.61-6.12-1.31-3.52-1.71-7-.09-10.56 1.72-3.76 4.84-5.56 8.77-6 8.09-.88 15.12 5.66 17 11.5a12.74 12.74 0 0 1 0 8.94c-1.67 4.19-5 6.11-9.3 6.49a10.84 10.84 0 0 1-1.2.03z" class="Ae"/><path d="M614.53 465.04a30 30 0 0 0-3.13-.18 4.35 4.35 0 0 1-4.33-2.2 24.33 24.33 0 0 1 .09-2.57 2.89 2.89 0 0 1 2.65-2.59 19.35 19.35 0 0 1 2.29-.06h25.53l4-.19a25.93 25.93 0 0 0 5.13.27h26.88l3.43.07-2.15 3.91c-.68 1.32-.65 1.35.31 2.41l.76.82a1.8 1.8 0 0 1-1.37.94 15.66 15.66 0 0 1-3.42.23h-52c-1.59-.02-3.22.19-4.67-.86z" class="Ag"/><path d="M614.53 465.04l2.86-.11h54.78l2.86.12c.2 2.79-2.13 4-3.8 5.23a88.39 88.39 0 0 1-13.3 8.21c-2.89 1.44-6.07 1.37-9.12 1.95l-5.08.86c-1 .12-2.39.05-2.67 1.23-.31 1.35 1.08 1.88 2 2.49 3.12 2 6.72 2.66 10.32 3.11a30.38 30.38 0 0 0 9.38.24c2.56-.48 5.13.18 7.64.77 1.67.39 3.35.74 5 1 8.87 1.42 9.38-1.53 9-7.39-.24-4.36.11-8.59 2.72-12.33a7 7 0 0 1 2.5-2.68c2.06-.14 3.2-1.8 4.69-2.87a8.93 8.93 0 0 1 4.17-.86q32.55 0 65.11 0a10.45 10.45 0 0 1 2.84.27c1.38.39 1.77 1.61 2.24 2.75 1 2.46 2 5 2.82 7.47a16 16 0 0 0 2.92 5.19 24.58 24.58 0 0 1-3 18.15 4.61 4.61 0 0 1-4 2.37c-1 0-1.91.07-2.87.07q-72.46 0-144.95 0c-1.69 0-3.46.28-5-.72a11.14 11.14 0 0 1-.06-8.91c1-.69 2.22-.42 3.34-.44 10.31-.18 20.6.5 30.91.28 2.67.1 5.36-.23 8 .09-2.63-.11-5.26-.11-7.9-.11-10.59.2-21.17-.44-31.76-.29a4.42 4.42 0 0 1-2.51-.36c-1.3-2.11-1.09-4.27-.26-6.46 1-1 2.34-.58 3.53-.6a82.5 82.5 0 0 0 9-.33c-3.39.57-6.81.23-10.22.29a2.66 2.66 0 0 1-2.37-.67c-1.05-2.18-.58-4.51-.6-6.78s-.93-3.15-3.1-3.06h-3.44q-84.15 0-168.3 0c-1.86 0-3.86.48-5.51-.91a1.32 1.32 0 0 1 1-.38h176c4.68 0 4.05.55 4.11-4.12z" class="Ac"/><path d="M702.98 457.41c.84-1.32 2.22-2.06 3.33-3.09 6-5.66 12.34-11.06 18.25-16.87 2.45-2.4 5-4.7 7.46-7.08q8.22-7.94 15.7-16.6c1 0 1.31.7 1.58 1.38 1 2.63 2.33 5.18 2.78 8a93.06 93.06 0 0 0-.08 11.69c.27 5.84 3.06 10.09 8.57 12.38 2.38 2.64 3 6 4 9.28a1.22 1.22 0 0 1-.91 1.55 10 10 0 0 1-3.4.35q-26.47 0-52.94 0c-1.48.01-3.09.3-4.34-.99z" class="Ad"/><path d="M751.57 423.09l-2.82-7.65a3.23 3.23 0 0 0-1-1.67c1.84-2.65 4-5.1 5.25-8.15l4.56-11.1c1.35-3 2.34-6.26 4.32-9 .56-.78 1.21-1.46 1.8-2.21a4 4 0 0 1 4.35-1.45c2.32.53 4.61 1.25 6.1 3.35 2.42 1.62 2.37 4.32 3 6.73-.1 3.26-2.25 5.63-3.75 8.22q-8.07 14-16.19 28c-.65 1.11-1.08 2.52-2.71 2.67-2.13-2.18-2.72-4.88-2.91-7.74z" fill="#333"/><path d="M702.98 457.41l2.29.09h56.71l2.29-.07a9.39 9.39 0 0 1 2.85 7.58c-1.24 0-2.48-.08-3.72-.08h-66.21-2.87a78.42 78.42 0 0 1 8.66-7.52z" class="Ag"/><path d="M689.63 467.75l-1.41 2.43a15.28 15.28 0 0 0-3 10.38 21.5 21.5 0 0 1 0 2.27 74.06 74.06 0 0 1-19.24 2.49 30.2 30.2 0 0 1-14.49-3.67 4.93 4.93 0 0 1-2.45-1.89 1.8 1.8 0 0 1 1.32-.41c4.07.16 7.6-1.44 11-3.48 2.76-1.67 5.53-3.33 8.2-5.15a17.24 17.24 0 0 0 5.5-5.67l1-.33a18.5 18.5 0 0 0 9.43 2.62 13 13 0 0 1 4.14.41z" class="Af"/><path d="M823.54 401.29l-5.41.09q-11.55 0-23.09 0c-1.14 0-2.27-.09-3.41-.14-6.26-3-10.5-8.12-14.65-13.37a1.11 1.11 0 0 1 0-1.34c.16-.26.39-.45.69-.35a11.48 11.48 0 0 1 1.3.58 183 183 0 0 0 27 10.64 106.84 106.84 0 0 0 11.6 2.75 18.31 18.31 0 0 0 4.78.59 1.48 1.48 0 0 1 1.19.55z" fill="#333"/><path d="M776.98 386.52a52.44 52.44 0 0 0 12.53 13 7.81 7.81 0 0 1 2.17 1.75h-12.24c-2.41-2.62-2.3-6-2.87-9.21a30.65 30.65 0 0 0-2.38-6.84c.23-.41.56-.34.92-.23.8.23 1.13 1.1 1.87 1.53z" fill="#e8f1f8"/><path d="M849.91 339.91h-10.26q-3.57 0-7.13-.1a6.24 6.24 0 0 1-2.8-.4c1.75-1.58 1.63-4.43 3.86-5.69l14.56 2.67a7 7 0 0 0 .18 1.38 1.86 1.86 0 0 0 2 1.53 23.51 23.51 0 0 1 2.51.1c-.85.58-1.97.17-2.92.51z" class="Aj"/><path d="M834.98 230.25l-1.1.33a5.14 5.14 0 0 1-6.31-2c-.34-.46-.73-.89-1-1.37a43.59 43.59 0 0 1-6.15-15.64 30.82 30.82 0 0 1 1.06-13.92 12.32 12.32 0 0 1 1.37-2.83c1.44-2.37 1.44-2.08 3.41-.74l7.23 4.67 5.3 2.83a27.76 27.76 0 0 0 13.56 3.06l2.85.08a2.06 2.06 0 0 1 .44.19c.56 3.65 1.64 7.37.47 11.21a3.52 3.52 0 0 0-.16 1.68 73.78 73.78 0 0 0 2.37 10.9 19.7 19.7 0 0 0 3.16 6.06c-.12.15-.21.35-.36.44a50.52 50.52 0 0 1-13 5.72 14.63 14.63 0 0 1-6.21.3c-2.27-.43-4.09-1.49-4.69-4-.43-1 .48-1.13 1-1.28 6.37-1.76 10.33-6.13 13.08-11.87a4.1 4.1 0 0 1 .9-1.25c-5.06 4.05-10.5 7.21-17.22 7.43z" class="Af"/><path d="M841.23 326.74c2-.11 3.62-1.13 5.36-1.85l12.32-5.31a57.74 57.74 0 0 0 9.19-5.2c2.81-1.93 4.25-4.88 5.1-8.05.77-2.84 1.34-5.73 1.85-8.62a19.23 19.23 0 0 0 .08-3.72 5.87 5.87 0 0 1 1-3.62c2.34 4.1 5.31 7.71 7.13 12a1.24 1.24 0 0 0 .27.49c3 2.77 4.23 6.73 6.5 10a6.41 6.41 0 0 1 .71 1.86c.31 1.06.19 1.2-.93 1.64a54.93 54.93 0 0 1-8.83 2.29l-24.68 5.75c-1.87.47-3.57 1.29-5.36 1.92a4.22 4.22 0 0 0-2.18 2.18c-2.78.35-5.4.4-7.53-1.76z" class="Aj"/><path d="M841.23 326.74c1.5.81 3.24.55 4.81 1.07.87.29 1.78.45 2.68.66a13 13 0 0 0-.6 4.79v3.14a29.81 29.81 0 0 1-12.1-1.63 8 8 0 0 0-2.76-.69c-2.4 0-4.62.17-6.46 2.15-1.17 1.27-2.65.48-3.89-.35-.76-.6-.7-1.59-1.11-2.36 1.19-1 0-1.14-.52-1.54l-.12-.65 8.16-3.91a11.06 11.06 0 0 1 7.67-1 24.88 24.88 0 0 0 4.24.32z" class="Af"/><path d="M834.98 230.25a2 2 0 0 1 1.28-.5 37.83 37.83 0 0 0 14.49-6.35 19.54 19.54 0 0 0 2-1.92c.56.37.3.71.14 1a42.79 42.79 0 0 1-4.09 7.16 18.89 18.89 0 0 1-10.12 6.95c-.55.14-1.15.1-1.48.69a.61.61 0 0 1-.4-.26l-.81-5.26a1.72 1.72 0 0 0-1.01-1.51z" fill="#ed975e"/><path d="M433.36 471.27h3.44 173.5 2.86c1.1.05 1.4.31 1.42 1.36v5.45 4a.78.78 0 0 1 0 1.17v6.4a.79.79 0 0 1 0 1.17v8.43c-.87 1.19-2.21.92-3.4 1-1.71.16-3 .76-3 2.72s1.29 2.6 2.93 2.87a19.37 19.37 0 0 0 3.14.13h23.11c1.33 0 2.94-.42 3.73 1.29a18.22 18.22 0 0 0-12.75 13.84c-1.87 7.78 1.93 17.56 11 21.82a7.35 7.35 0 0 1 2.54 1.25c-1.14.05-2.28.14-3.43.14H464.17a9.3 9.3 0 0 1-3.4-.25c-.78-2.81-2.78-3.26-5.41-3.18-5.86.17-11.74.27-17.51-1.1a24.47 24.47 0 0 1-4.54-1.67 11.06 11.06 0 0 1-6.33-11.39l1.6-19.59 2.71-28.35c.13-1.22 0-2.49.93-3.48a6.09 6.09 0 0 0 .57-2.62c.04-.52-.02-1.11.57-1.41z" class="Ah"/><path d="M641.13 507.29c-.89-.8-2-.5-3-.5h-24.29-2.57a7.2 7.2 0 0 1-1.14 0 3.91 3.91 0 0 1-2.3-6.24 3.09 3.09 0 0 1 2.51-1.13l4.28-.13 3.14.12h148.56c3.33 0 2.82.63 4.91-2.85a19 19 0 0 0 2.47-7.56 60.94 60.94 0 0 0 .33-7.14 5.06 5.06 0 0 0-.43-2.52 1.47 1.47 0 0 1 1.83-.11c1.48 2 1.74 4.38 2.38 6.64 1.7 6 3.77 12 4.07 18.28 0 .87.56 1.9-.5 2.58a6 6 0 0 0-2.82-.33q-65.62 0-131.24 0c-2.16-.1-4.13.58-6.19.89z" class="Ag"/><path d="M781.37 506.65c-.2-5.52-1.56-10.82-3.05-16.1q-1.36-4.77-2.71-9.55a15.64 15.64 0 0 1-.31-1.66c4.27-1.37 8.53-2.79 12.92-3.76a2.72 2.72 0 0 1 .85 1.44q1 3.42 2.21 6.79c.34 1 .82 1.93 1.24 2.89a8.79 8.79 0 0 0 5.37 4.82c1.69.62 3.52.91 5 2l-6.91 12.19a47.76 47.76 0 0 1-4.63 6.84 32 32 0 0 1-13.73 9.84c.91-1.66 1.87-3.3 2.72-5a10.67 10.67 0 0 0 1.3-5.2 25.59 25.59 0 0 0-.27-5.54z" class="Af"/><path d="M788.22 475.59a27.77 27.77 0 0 1-12.92 3.76l-1.71-.08a1.43 1.43 0 0 1-1.37-.81l-.84-2.09q-2.12-5.67-4.22-11.36l-2.85-7.58-3.63-9.66a3 3 0 0 1-1.47-2l-4.65-12.54c-.31-.89-.73-1.79 0-2.68a12.24 12.24 0 0 0 2-2.74l5.88-10.11 7.48-13.13 4.93-8.35a8.87 8.87 0 0 0 1.66-4.19c1.12 2.12 1.42 4.5 2.16 6.74.28.81.48 1.64.71 2.47a67.33 67.33 0 0 0 2.18 8.49c.06 2.59.87 5.06 1.36 7.58q2.61 13.33 4.49 26.79l.72 4.81 1 8.58a13.82 13.82 0 0 1 .4 1.66l1.13 9.85c.15 1.69 0 3.4 0 5.11z" class="Ae"/><path d="M895.9 421.91a2.27 2.27 0 0 1 .45 1.61v11.75c0 .16-.15.32-.23.49-.72.19-1.27-.26-1.87-.53l-5.48-2.47a4.45 4.45 0 0 0-4.36 0l-5.74 2.6a2.06 2.06 0 0 1-1.7.31q-.12-6.82-.25-13.7a3.11 3.11 0 0 1 2.58-1c4.65-.1 9.31-.09 14 0a4.34 4.34 0 0 1 2.6.94z" class="Ai"/><path d="M895.9 421.91h-15.76l-3.44.08a11.41 11.41 0 0 0-3.77-4.13c-.09-1.19.85-.79 1.39-.8h17.19a2.59 2.59 0 0 1 2.63 1.34c.84 1.06 1.75 2.04 1.76 3.51z" class="Ak"/><path d="M894.14 418.39a6.52 6.52 0 0 0-3.73-1.17h-15.74c-.63 0-1.37-.17-1.74.61a1.93 1.93 0 0 1-.5-.24.69.69 0 0 1-.28-.47.5.5 0 0 1 .34-.36l2.57-.07h36.31a25.62 25.62 0 0 0 4.52-.38 36 36 0 0 1 5.7-.15v1.68h-24.76c-.85.08-1.91-.25-2.69.55z" fill="#f5d4bb"/><path d="M773.13 314.02a2.79 2.79 0 0 1-3.42 2.82 5.73 5.73 0 0 1-4.42-4.32 2.79 2.79 0 0 1 2.85-3.41c2.78.17 5.12 2.54 4.99 4.91z" class="Ac"/><path d="M822.98 335.88c.4-.19 1-.72 1.22-.34.69 1.6 1.55.79 2.32.24a8.8 8.8 0 0 0 1.59-1.58 2.2 2.2 0 0 1 2-.85c1.09.15 2.29-.06 3.23.73a41.28 41.28 0 0 0-1.65 4.1c-.32 1.1-1.1 1.1-1.91 1.24l-4.24-.34h0l-1.23-.24a9.82 9.82 0 0 1-1.33-2.96zm-1.68-3.9h2.37c-.31 1-.84 1.58-1.85 1.54a4.5 4.5 0 0 0-.16-.48c-.1-.25-.28-.45-.36-.71z" class="Ag"/><path d="M821.3 332.33a.71.71 0 0 1 .36.71.68.68 0 0 1-.36-.71z" class="Af"/><path d="M919.28 521.74a10.63 10.63 0 0 1 .5 2.8v8.85c0 1.12-.49 1.39-1.4.87l-4.42-2.62a2 2 0 0 0-2.37 0l-4.18 2.47c-.32.18-.62.47-1 .31-.44-.36-.31-.86-.31-1.3v-5.43a29.08 29.08 0 0 0-.49-6.52c4.54-.27 9.16-1.09 13.67.57z" class="Ah"/><path d="M919.28 521.74h-10.72a5.45 5.45 0 0 1-3-.57l-2.38-3.52a1 1 0 0 1 .13-.27.35.35 0 0 1 .23-.12l12.79-.07a1.69 1.69 0 0 0 1.15.56c.77 1.28 1.81 2.39 1.8 3.99z" fill="#aed9bb"/><path d="M938.87 526.04a131 131 0 0 1 16.49-.06c0 .37-.3.34-.54.35a137.07 137.07 0 0 1-15.95-.29z" fill="#f6d2b8"/><path d="M801.66 509.7a20.32 20.32 0 0 1 4-4 1 1 0 0 0 .9.6h2.58q31.24 0 62.5 0c1.21 0 2.5-.33 3.62.47h-35.85-30.43a11.36 11.36 0 0 1-1.43 0 3.78 3.78 0 0 0-3.56 1.4 3 3 0 0 1-2.33 1.53z" fill="#3f4f7e"/><path d="M825.45 339.09h0z" fill="#fa9746"/><path d="M432.19 475.3l-.19 5.13-.89 8.23-1.34 15.65c-.09 1-.33 2.06-.5 3.09a6.17 6.17 0 0 1-3.4 1.36l-94.2 17.76c-.28.06-.57.09-.85.13-4 .59-4.29.32-3.72-3.78.09-2-.13-4 .5-6a6.42 6.42 0 0 0 .09-1.71 18 18 0 0 1 .47-5.11 7.68 7.68 0 0 0 .11-2 22.49 22.49 0 0 1 .43-4.83 19.82 19.82 0 0 0 .17-3.71 12.11 12.11 0 0 1 .23-2.26 2.46 2.46 0 0 1 2.17-1.95l25.15-5 24.34-4.76 17.85-3.76 18.75-3.67 12.84-2.66a13 13 0 0 1 1.99-.15z" class="Ai"/><path d="M327.1 522.87c.17 1-.37 2.22.38 3 .89 1 2 0 2.94-.12 3.69-.32 7.25-1.39 10.9-2l11.74-2.09 6.42-1.25c4-.7 8-1.65 12-2.22 3.1-.44 6.13-1.24 9.21-1.79 4-.72 8-1.65 12-2.22 3.28-.46 6.52-1.18 9.78-1.81l10.87-2.14q7.1-1.39 14.21-2.77a13.9 13.9 0 0 1 1.71-.11c-.06 1.53-.06 3.06-.19 4.58l-1.31 15.41a9.91 9.91 0 0 0 5.26 9.79 22.37 22.37 0 0 0 4.78 1.9c-.63 1.72-2.18 1.28-3.41 1.34-11.83.6-23.67.67-35.52.63-14.33-.06-28.67 0-43 0-1.6 0-3.28.25-4.67-.92h-8a16.44 16.44 0 0 1-5.36-.44 6.56 6.56 0 0 0-2-.1 7.41 7.41 0 0 1-6.47-3.47 13.34 13.34 0 0 1-2.37-6.29 35.7 35.7 0 0 1-.47-5.36 1.92 1.92 0 0 1 .57-1.55z" fill="#e5b677"/><path d="M351.21 540.1h69.32a14.54 14.54 0 0 0 4.82-.43 7.12 7.12 0 0 1 2.27-.12h8.36c.66 0 1.35.11 1.88-.45a57.78 57.78 0 0 0 10.75.89c3.32-.06 6.65 0 10 0a13.5 13.5 0 0 1 1.42.07.9.9 0 0 1 .87.94c0 1 0 2.08-.05 3.12-1 0-1.91.07-2.86.07H354.85c-4 0-3.61.3-3.64-3.77z" class="Ai"/><path d="M117.69 487.32l1.14 1.45c.25.31.38.59 0 .87a51.31 51.31 0 0 0-10.78 1c-2.25.37-4.53.53-6.81.72a4.92 4.92 0 0 0-2.46.62 1 1 0 0 0-.44 1.23c.16.48.57 1 1.05.8 1.75-.59 3.59-.23 5.37-.65a43.21 43.21 0 0 1 6.22-.81 16.69 16.69 0 0 0 4-.48 5.51 5.51 0 0 1 2-.1 3.55 3.55 0 0 1 3.6 3.38 27.55 27.55 0 0 1 .07 3.15c0 2-.94 3.28-2.9 3.65-1.77.34-3.57.49-5.37.69l-6.8.72-7.91 1c-1.34.13-2.58.75-3.95.61-.66-.07-1.34 0-2 0a3.44 3.44 0 0 1-3.75-3.45 28.51 28.51 0 0 0-.51-3.66c-.68-3 2.27-7 5.13-7.71a22.71 22.71 0 0 1 4.22-.73c2.55-.15 5.09-.59 7.62-1 1.6-.24 3.27.12 4.81-.6 2.74.01 5.56-.99 8.45-.7z" class="Ah"/><path d="M364.42 148.31c.11-.6.36-1.1 1.07-1.12h2.58 32.7a11 11 0 0 0 3.68-.38 7.11 7.11 0 0 1 2.27-.17h97.24 1.43a1.31 1.31 0 0 1 1.41 1.14l1.3 5 5.45 20.39 5 19.62 5.08 19.31 5.5 21.56 6.36 24.29 6.87 26.21 6.92 26.5 6.33 24.3 5.34 20.13c.89 3.62 2 3.84-3 3.83q-33.27 0-66.55 0a12.29 12.29 0 0 0-4.25.42 7.12 7.12 0 0 1-2.27.13h-91.13c-2.86 0-2.82 0-3.59-2.84l-7.5-28.71q-3.45-13.11-6.85-26.22l-6.35-24.29-6.85-26.22q-3.17-12-6.3-24l-7-26.78-6.89-26.5c-.06-.28-.22-.54-.28-.81-.23-1.12.16-1.68 1.24-1.74h2.29 21.8c.9 0 2 .38 2.64-.62a5 5 0 0 1-1.63-3.09l-4.24-16.36c-.26-.97-.64-2.02.18-2.98z" fill="#fff"/><path d="M321.9 343.44l-10.42-.5c-1.65 1.09-3.54.88-5.28.63-6.24-.91-12.58 0-18.81-1-1.12-.18-2.3 0-3.29-.76q-10.74-.42-21.48-.84c-1.53-.07-3-.2-4.57-.35-.74-.07-1-.4-.9-1.15a174.2 174.2 0 0 1 .78-5.1l3.22-19.78c.48-3 1.15-6 1.34-9.06.7-.84 1.71-.69 2.64-.83a20.87 20.87 0 0 0 9.9-4.8 6.85 6.85 0 0 0 2.27-3.56c.56-2-.06-3.3-2.16-3.88a26.57 26.57 0 0 0-6.53-.54c-1.2 0-2.51.26-3.5-.77l1.5-9.88 3.07-18.89c.15-.94.15-1.9.22-2.85.06-2.48 1.88-2.68 3.59-2.42 5.36.79 10.78.14 16.14.81 1 .14 2.08 0 3.11.09 8.79.59 17.6.84 26.39 1.31 2.5.19 5.11-.67 7.45.87l8.56.55c1.11.07 1.33.29 1.2 1.43-.19 1.7-.44 3.39-.72 5.08l-1.65 9.57c-.76 1.54-2.06 1.05-3.24.8a32.47 32.47 0 0 0-7.9-1.19c-2.88.09-3.91 1.25-3 4 1.68 5 5.42 8.15 10.09 10.29.85.39 1.93.24 2.54 1.15-1 3.73-.66 7.74-2.59 11.24l-1.54 8.42q-2 11.83-3.88 23.7l-1 6.5c-.12.86-.47 1.68-1.55 1.71z" class="Ad"/><path d="M581.92 282.53h-22.94c-1.13 0-1.51-.24-1.79-1.36l-4.21-16.29-4.63-17.36-5.52-21.55c-.26-1-.66-2-1-3a.92.92 0 0 1 .87-1.2c.57-.05 1.15-.05 1.72-.05h44.16c1.89.06 2 .15 2.5 2l4.63 17.95 4.69 17.64q2.88 10.89 5.72 21.79c.3 1.11.13 1.39-1 1.4h-8.6zm19.74 75.73h-20.93-2a1.69 1.69 0 0 1-1.71-1.26 7.53 7.53 0 0 1-.24-.81l-4.1-16q-3.35-12.24-6.42-24.55c-1.31-5.26-2.84-10.46-4.27-15.69a2.64 2.64 0 0 1-.08-.84.92.92 0 0 1 .84-1c.76-.07 1.53-.08 2.29-.08h14.62a9.38 9.38 0 0 0 3.11-.34 6.21 6.21 0 0 1 2-.21h23.51 1.14a1.23 1.23 0 0 1 1.23 1c.17.55.38 1.08.53 1.63q2.8 10.6 5.6 21.23l2.19 8.85 4.53 17.09 2.37 9.4c.29 1.16 0 1.56-1.25 1.58h-8.31zm-39.48-151.45h-22.36c-1.83-.05-2.18-.29-2.62-2l-4.1-16-4.3-16-2.29-9.13q-1.93-7.59-3.9-15.19c-.07-.27-.19-.54-.24-.81-.12-.64.25-1.07 1-1.12s1.53 0 2.29 0h20.64a10.7 10.7 0 0 0 4-.41 4.76 4.76 0 0 1 1.7-.15h16.91c2.19 0 2 .24 2.52 2l2.45 9.09 6.22 23.71 5.31 20.72 1 3.56c.27 1-.19 1.64-1.28 1.7h-2.29z" fill="#fff"/><path d="M326.58 260.16a51.43 51.43 0 0 1-7.55 0 9.15 9.15 0 0 0-4.91-1.36c-5.07.22-10.08-.78-15.14-.64a7.57 7.57 0 0 1-4.41-1c-1.21-1.08-1.44-2.66-2-4.06-2.53-6.87-4.85-13.81-6.84-20.86a8.2 8.2 0 0 1-.44-3.93c.57-3.17-.38-6.26-.54-9.39-.26-4.95-.81-9.89-1.18-14.84-.08-1-.38-2.1.52-3a39.44 39.44 0 0 1 7.09 3c4.06 2.12 8.07 4.35 12 6.62a59.16 59.16 0 0 1 8.45 5.89 17.3 17.3 0 0 1 5.7 8.4c2.36 7.66 4.35 15.42 6.27 23.2 1.08 3.99 2.02 7.98 2.98 11.97z" fill="#2b468b"/><path d="M254.5 185.65c-1.84.35-3.37-.44-4.83-1.39a15.76 15.76 0 0 1-4.12-3.94c-5-6.81-8.49-14.27-9.36-22.75a17 17 0 0 1 5.61-15 28.5 28.5 0 0 1 14-6.84 26.2 26.2 0 0 1 11.08-.11 17.07 17.07 0 0 1 4.56 1.66 37.62 37.62 0 0 1 11.71 9.49c.65.82 1.42 1.55 2.11 2.34a13.16 13.16 0 0 1 1.23 1.58 2.78 2.78 0 0 1-.84 4.21c-.77.54-1.61 1-2.42 1.48-1.83 1.68-4.14 1.74-6.42 1.86a76.4 76.4 0 0 0-7.7.33c-3.45.53-5.46 2.38-6.15 5.8-.37 1.85-.58 3.77-1.86 5.33-1.87 2.28-3.22 2.49-5.55.74a7.94 7.94 0 0 0-1.62-1.15c-1.59-.69-2.39 0-2.47 1.57a5.67 5.67 0 0 0 1 3.53c2.52 3.41 2.08 7.33 2.04 11.26z" class="Al"/><path d="M254.5 185.65a10.87 10.87 0 0 1-1-5.58 6 6 0 0 0-1.49-4.75 7.16 7.16 0 0 1-1.5-4.26 4.62 4.62 0 0 1 .23-1.68 2 2 0 0 1 2.69-1.42 5.41 5.41 0 0 1 2.3 1.65c1.92 2.08 3.39 2 5-.37a6.66 6.66 0 0 0 1-2.64l.65-3.38a6.62 6.62 0 0 1 5.49-5.19 24 24 0 0 1 5.41-.46 32.47 32.47 0 0 0 9.91-1.16 57.11 57.11 0 0 1 1.47 11.87v9.44a27.66 27.66 0 0 1-1.37 7.85c-.76 2.34-2 4.1-4.78 4.18-.24 0-.46.3-.69.46-2.35 1.55-5 .72-7.48.82a21.33 21.33 0 0 1-11.76-2.53 6.49 6.49 0 0 0-1.41-.84c-.26.06-.34-.32-.42-.29s-.11.21.19.22a4.53 4.53 0 0 1 1.35.73 27.74 27.74 0 0 0 15.3 4c1.4-.07 2.86-.46 4.25.18.59 1.08.34 2.32.67 3.44a17.08 17.08 0 0 1 1.45 6.17c-.19.91-.25 1.85-.37 2.78-.72 2.91-2.68 4.44-5.54 5.07-5.06 1.12-10 .4-14.95-.8-.45-.17-1-.4-1.1-.85-1.37-4.44-3.44-8.61-5-13l1.62-6.48a4.3 4.3 0 0 0-.12-3.18z" class="Af"/><path d="M364.42 148.31l1.4 6.09 3.19 12.1 1.12 4.11-27 .08a2.2 2.2 0 0 1-.55-.13c-.27-.56.15-.88.47-1.2 3.55-3.48 6.73-7.29 10.16-10.89l8-8.53a22.46 22.46 0 0 0 1.38-1.83c.66-.73.76-.71 1.83.2z" fill="#accbf9"/><path d="M219.9 318.65a1.58 1.58 0 0 0 .49-1.29c0-2.1.4-2.14 2.43-2.13h8a13.45 13.45 0 0 0 4.54-.44 6.87 6.87 0 0 1 2-.12 11.51 11.51 0 0 0 4.24-.45 3.57 3.57 0 0 1 1.14-.12 80.81 80.81 0 0 0 11.27-1.56l6.72-1.07c-.12.25-.15.49-.28.57a150 150 0 0 1-14.5 7.44q-4.87 2.07-9.83 3.92a140 140 0 0 1-14.78 4.38c-.9.22-1.36-.2-1.48-1.21l-.16-1.71zm33.08-123.32a11.36 11.36 0 0 1 2.42 3.84 65.92 65.92 0 0 1 2.85 8.06c.14.45.15.95.55 1.28a5.36 5.36 0 0 1 1.52 3c1.71 6.67 3.35 13.35 4.62 20.12.25 1.28.77 2.62-.24 3.84-1.12-.82-1.56-2.15-2.23-3.26l-10.48-18-6.52-11.4a1.5 1.5 0 0 1 0-1.85c.23-.3.44-.62.66-.92a33.37 33.37 0 0 1 6.85-4.71z" class="Al"/><path d="M332.16 291.74a7 7 0 0 1-4.35-1.13 25.13 25.13 0 0 1-7.1-6.53 10.77 10.77 0 0 1-1.92-4.4 3.45 3.45 0 0 1 .1-1.94c.61-1.89.79-2 2.82-2.12a30.05 30.05 0 0 1 9.84 1.44 2.67 2.67 0 0 0 2.42-.27 5.38 5.38 0 0 0 .1 1.4c.93 2.67.57 5.41.54 8.13a10.24 10.24 0 0 1-.6 2.75l-.7 2.44c-.28.59-.69.55-1.15.23z" class="Af"/><path d="M279.37 202.22l-.73-3.25a6 6 0 0 1-.14-3 12.28 12.28 0 0 1 3.72 3l1.92 2.11a5.55 5.55 0 0 0 .09 1.69 11.2 11.2 0 0 1 .44 3.94 12.92 12.92 0 0 0 .39 3.95 9.72 9.72 0 0 1 .18 2.55 14.36 14.36 0 0 0 .44 4.51 7.74 7.74 0 0 1 .13 2.27 22.16 22.16 0 0 0 .45 5.37 3.24 3.24 0 0 1-.4 3.24c-1-.31-1.21-1.16-1.4-2-1.55-7.1-3.53-14.09-4.92-21.23.13-1.05-.44-2.08-.17-3.15z" fill="#253a64"/><path d="M277.83 192.49a6.78 6.78 0 0 1-1.63.5 35.67 35.67 0 0 1-10.46-.63 27.09 27.09 0 0 1-7-3.19 2.53 2.53 0 0 1-1.08-1.3h0l2.71.8a26.82 26.82 0 0 0 8.87 1.49h8.53l.06 2.33z" fill="#e3925b"/><path d="M563.98 135.05a3.84 3.84 0 0 1-3.71-3.58 3.61 3.61 0 0 1 7.21-.21 3.85 3.85 0 0 1-3.5 3.79z" fill="#f9994a"/><path d="M332.16 291.74l1.15-.23 1 6.43a16 16 0 0 1 .18 1.68 2.84 2.84 0 0 1-1.86 2.89 5.42 5.42 0 0 1-2.74.58l1.38-9.59a4.47 4.47 0 0 1 .89-1.76z" fill="#324b8c"/><path d="M145.22 111.31a3.2 3.2 0 0 1-4.24 3.34 6 6 0 0 1-4-4 3.05 3.05 0 0 1 3.33-4 5.43 5.43 0 0 1 4.74 3.55 4 4 0 0 1 .17 1.11z" fill="#e8f2fd"/><path d="M159.6 111.48a3.17 3.17 0 0 1-4.41 3.07c-1.54-.65-2.94-1.47-3.42-3.18-.76-2.66.07-3.89 2.27-4.72a1.36 1.36 0 0 1 .83-.11c1.63.54 3.25 1.1 4.14 2.76a3.66 3.66 0 0 1 .59 2.18z" fill="#e9f3fd"/><path d="M123.41 109.45a3.06 3.06 0 0 1 4.48-2.52 5.2 5.2 0 0 1 3.28 3c.73 2.09.36 3.86-1.74 4.73a2.32 2.32 0 0 1-2.17 0 17.45 17.45 0 0 1-2-1.06 4.66 4.66 0 0 1-1.85-4.15z" fill="#e8f3fd"/><path d="M280.05 205.07l2.88 11.63 2.45 10.57a9.31 9.31 0 0 0 .48 1.34 21.2 21.2 0 0 0 1.32 5.78l6.82 20.46.56 1.9a2.4 2.4 0 0 1-2 1.68 3.15 3.15 0 0 1-2.48.38c-2.66-.37-5.33-.27-8-.39l-10-.52a1.88 1.88 0 0 0-2.24 1.6c-1.1-8-3-15.74-4.92-23.54a1.66 1.66 0 0 0-.31-.47 54.47 54.47 0 0 0-1.55-8.4c-1.21-5.86-2.57-11.69-4.2-17.45a8.31 8.31 0 0 1-.15-1.13l5.58.82a25.65 25.65 0 0 0 10.4-.32 5.59 5.59 0 0 0 4.28-4.45c.65-.35.79.23 1.08.51zm4.05 136.71a19.58 19.58 0 0 1 5.13 0c3.14.32 6.28.28 9.42.43l12.83.71 1 10.12.57 5.06c.09.7-.36 1-.81 1.36a4.52 4.52 0 0 1-2.72 1.44 131.26 131.26 0 0 1-21.32 3.75 3.46 3.46 0 0 1-3-.73q-.52-11.05-1.1-22.14z" fill="#fff"/><path d="M285.25 363.96a93.18 93.18 0 0 0 12.79-1.41c4.81-.71 9.49-2 14.24-3.07a6.27 6.27 0 0 1 .51 3c.06 2.37-.26 4.76.52 7.07a1.54 1.54 0 0 1 0 .57c-.09 6.1.93 5.25-4.94 5.28h-23.1l-.02-11.44zm-29.88-74.01a13.91 13.91 0 0 1-2.5 0 98.3 98.3 0 0 1-15.48-3.73 23.42 23.42 0 0 1-5.06-2.58 5 5 0 0 1-2.32-5.31 49.54 49.54 0 0 1 2.41-10.8l3.33-8.19q1.31-3.17 2.65-6.31c.11-.24.33-.51.66-.34.13.07.19.29.25.45a.86.86 0 0 1 0 .28 56.74 56.74 0 0 0 2.21 14.87 43.47 43.47 0 0 0 5.62 12.73 25.94 25.94 0 0 0 7.58 8c.31.19.75.33.65.93z" class="Al"/><path d="M265.11 291.12h6.84a15.5 15.5 0 0 1 4.46.82c1.57.42 1.9 1.08 2 2.7a7.22 7.22 0 0 1-1.92 4.92 10.64 10.64 0 0 1-1.88 1.73 34.62 34.62 0 0 1-6.23 3.42 12.93 12.93 0 0 1-5.87.79 5.5 5.5 0 0 1-1.27-4 20.45 20.45 0 0 1 1.37-7.49 4.88 4.88 0 0 1 2.5-2.89z" class="Af"/><path d="M649.04 479.76a5.15 5.15 0 0 1 2.13.73c6.6 3.94 13.78 4.68 21.24 3.73l9.62-1.29a29.67 29.67 0 0 1 3.13-.1c0 1.33.15 2.66.06 4-.16 2.42-1.18 3.56-3.56 4.19a12.52 12.52 0 0 1-5.38.07c-2.53-.45-5.06-.94-7.56-1.51a20.13 20.13 0 0 0-6.52-.35 42.06 42.06 0 0 1-15-1.46 15.18 15.18 0 0 1-4.92-2.22 9.9 9.9 0 0 1-1.75-1.46c-1.18-1.33-1.8-2.59.88-3.1 2.57-.49 5.09-.83 7.63-1.23z" fill="#333"/><path d="M614.61 490.79v-1.17h13.68a14.91 14.91 0 0 1 4.79.44 7.43 7.43 0 0 0 2.27.11h13.68c.19.13.26.25.19.37s-.12.19-.19.19z" fill="#f6d5bc"/><path d="M614.62 483.31v-1.17h13.16a12 12 0 0 1-4.83 1.18l-8.33-.01z" fill="#f6d5bb"/><path d="M649.04 490.76a5.23 5.23 0 0 0 0-.56h7.94c-1.27.74-2.61.52-3.93.56h-4.01z" fill="#f9dfcb"/><path d="M754.58 430.55a7.19 7.19 0 0 0 .8 2.72l5.3 14.5a2.45 2.45 0 0 1-1.89-.44 13.43 13.43 0 0 1-7.41-11.44c-.27-4.07 0-8.18 0-12.26a1.67 1.67 0 0 1 .19-.54c1.1 2.45 1.72 5.09 3.01 7.46z" fill="#faeada"/><path d="M440.17 219.4h45.58 2.58a1.09 1.09 0 0 1 1.12 1.06c.1.78-.23 1.45-.9 1.56a16.77 16.77 0 0 1-2.56.17h-27.51-63.35-2.29a1.67 1.67 0 0 1-1.73-1.21c-.37-.95-.08-1.54.91-1.59s1.91 0 2.86 0h45.29zm21.81 84.96h-45.9-2c-1.08-.05-1.25-.22-1.52-1.33-.16-.64 0-1 .6-1l9.41-.53q42.18 0 84.35 0h2.58a1.25 1.25 0 0 1 1.28.92c.45 1.26.15 1.82-1.17 1.89h-2.29-45.34zm46.62-9.48c-.16.09-.32.26-.49.27-3.81.18-7.61.49-11.42.5q-41.31.09-82.61.08h-2.59c-.86 0-1.09-.49-1.15-1.36s.27-1.32 1-1.39 1.34 0 2 0l92.08-.07h1.14c1.66-.03 1.66-.03 2.04 1.97zm-65.83-63.94h-45.61-2.3a1.49 1.49 0 0 1-1.43-1.18c-.19-.53 0-1 .5-1.1s1.15-.08 1.72-.09h6.59c9.54-.87 19.1-.31 28.64-.42l28.69-.05h28.68a19.32 19.32 0 0 1 2.29.08 1.45 1.45 0 0 1 1.23 1.39 1 1 0 0 1-.82 1.28 39.91 39.91 0 0 1-2.86.09h-45.32z" class="Am"/><path d="M457.17 284.2h45.61 2.29a1.61 1.61 0 0 1 1.42 1.54.55.55 0 0 1-.41.65 21.45 21.45 0 0 1-2.27.15h-27.54a16.31 16.31 0 0 0-4.56.35 8.61 8.61 0 0 1-2.28.1l-57.94.05a19.28 19.28 0 0 1-2-.06 1.46 1.46 0 0 1-1.41-1.51 1 1 0 0 1 .91-1.2l2.58-.07h45.61z" class="An"/><path d="M444.75 239.57h-45.29c-.86 0-1.72 0-2.58-.05a1.41 1.41 0 0 1-1.14-.74.92.92 0 0 1 .6-1.52l2.57-.07q16.07 0 32.11 0a15.84 15.84 0 0 0 4.55-.34 7 7 0 0 1 2-.11h53.32a13.33 13.33 0 0 1 2 .08 1.59 1.59 0 0 1 1.12 2 .84.84 0 0 1-.81.67l-2.58.07h-45.87zm-29.94 71.3a6.53 6.53 0 0 1 3.07-.26h33.26a16.24 16.24 0 0 0 4.55-.34 8.7 8.7 0 0 1 2.29-.11h51.9 2c.67 0 1 .4 1.21 1 .51 1.39.32 1.74-1.1 1.79h-2.29l-90.61.07h-2.3c-1.6-.08-1.6-.09-1.98-2.15z" fill="#adcbf9"/><path d="M458.38 248.17h-34.4a12.82 12.82 0 0 0-3.7.31 7.34 7.34 0 0 1-2 .14q-8.76 0-17.5 0a13.58 13.58 0 0 1-1.43 0 1.8 1.8 0 0 1-1.47-2.08c.05-.23.33-.57.52-.59a24.75 24.75 0 0 1 2.58-.12h35.27 23.24a11.91 11.91 0 0 0 3.41-.3 7.73 7.73 0 0 1 2-.15h28.68a11.32 11.32 0 0 1 1.43.06 1.45 1.45 0 0 1 1.32 1.29c.16.78-.2 1.39-.94 1.43l-2.58.06h-34.43z" class="An"/><path d="M446.03 275.59h35.85a15.18 15.18 0 0 0 4.84-.37 2.67 2.67 0 0 1 .85-.08h14.35a1.93 1.93 0 0 1 1.92 1c.7 1.33.43 1.83-.92 1.84h-2.58-53.35a16 16 0 0 0-4.56.36 7.71 7.71 0 0 1-2 .1h-31.27a16.64 16.64 0 0 1-2-.06 1.51 1.51 0 0 1-1.38-1.82.82.82 0 0 1 .66-.83 24.43 24.43 0 0 1 2.54-.08h37z" class="Am"/><path d="M446.87 254.37h43a13.7 13.7 0 0 0 4-.3c1.35-.4 2.62.28 3.92.51.29.05.56.49.74.8a.87.87 0 0 1-.64 1.3l-2.29.07h-29.24-10c-2.48 0-5-.22-7.41.41a8.34 8.34 0 0 1-2 0h-43-2a1.58 1.58 0 0 1-1.55-1c-.5-1.07-.18-1.7.95-1.76h2.29 43.29z" class="An"/><path d="M430.44 183.23h34.38l2.57.05a1.38 1.38 0 0 1 1.33 1.27c.07.41-.09.84-.48.9a18.23 18.23 0 0 1-2.56.15q-16 0-32.09 0h-11.74a19.31 19.31 0 0 0-5.41.37 6.05 6.05 0 0 1-1.71.08h-18.9-.86c-1.53 0-1.74-.22-2.11-1.75-.14-.56.09-1 .63-1l2.57-.07h34.38z" fill="#adcbf9"/><path d="M428.67 175.79h26.65l2.29.05a1.45 1.45 0 0 1 1.32.93.91.91 0 0 1-.63 1.32c-.76.07-1.53.08-2.29.08h-12.89a14.07 14.07 0 0 0-4 .32 8.6 8.6 0 0 1-2.28.13h-35.23-.86c-1.67 0-1.74-.17-2.2-2a.62.62 0 0 1 .6-.79l2.58-.07h26.92z" class="Am"/><path d="M292.61 258.43c.31-1 1.19-1.24 2-1.68a35 35 0 0 0 6 .55l14.82.67c1.58.08 3 .45 3.69 2.14a23.5 23.5 0 0 1-6.48-.4 8.56 8.56 0 0 0-2.27-.09c-2.37 0-4.74 0-7.1-.08l-9.6-.59c-.41 0-.69-.3-1.06-.52z" class="Ac"/><path d="M577.03 263.65h-13.76c-.77 0-1.53 0-2.3-.05a.5.5 0 0 1-.34-.34.6.6 0 0 1 .24-.45 4.53 4.53 0 0 1 2.52-.28q11.76 0 23.52 0h4.88a5 5 0 0 1 1.37.26c.13 0 .26.29.25.44a.47.47 0 0 1-.32.35l-2 .06h-14.06z" fill="#b2d8fa"/><path d="M580.03 275.65h-14.58c-1.07 0-1.8-.36-1.54-.71.4-.56 1-.41 1.54-.41q14.73 0 29.45 0c1.11 0 1.79.34 1.54.7-.4.58-1 .42-1.54.42h-14.87z" fill="#bccbf9"/><path d="M572.71 246.41h13.72a21.45 21.45 0 0 1 2.27.15c.11 0 .23.24.3.39a.28.28 0 0 1-.25.42 9.39 9.39 0 0 1-1.4.17h-29.17a2.41 2.41 0 0 1-1.64-.29c-.06 0-.06-.15-.07-.24s0-.23 0-.27a1.17 1.17 0 0 1 .49-.26l2.29-.07h13.44z" fill="#b3dbfa"/><path d="M557.21 250.22c.34-.57.84-.43 1.27-.43a54.53 54.53 0 0 0 5.72 0c7.8-.89 15.62-.21 23.42-.43a11.94 11.94 0 0 1 2 .17c.14 0 .29.24.36.39.18.44-.23.47-.46.5a11.23 11.23 0 0 1-1.42 0h-28.93a4 4 0 0 1-1.96-.2z" fill="#afd2fa"/><path d="M595.76 271.91a3.3 3.3 0 0 1-2.11.34h-9.16a13.31 13.31 0 0 0-4.26.36 4.44 4.44 0 0 1-1.42.1q-7 0-14 0a2.43 2.43 0 0 1-1.65-.3 1.13 1.13 0 0 1-.23-.48s.09-.15.15-.17a3.45 3.45 0 0 1 .83-.15h31.2a2.43 2.43 0 0 1 .65.3z" fill="#b4cbf9"/><path d="M561.89 265.85h3.68 6.31a20.53 20.53 0 0 0 5.69-.4 5.23 5.23 0 0 1 1.43-.06h12.91a7.42 7.42 0 0 1 1.42.1c.25 0 .59.24.65.45.18.6-.36.5-.68.54a11 11 0 0 1-1.15 0h-28.4c-.65 0-1.3-.06-1.95-.09z" fill="#afcffa"/><path d="M591.17 255.85c-.72.57-1.51.32-2.24.33h-16.34a35 35 0 0 0-3.69.28 68.36 68.36 0 0 1-6.87.18c-.95 0-1.91 0-2.86-.09-.14 0-.32-.2-.38-.35-.13-.35.15-.54.41-.58a8.52 8.52 0 0 1 1.43-.09h29c.48 0 1.06-.13 1.54.32z" fill="#b3cbf9"/><path d="M555.49 244.11c-.13-.21-.11-.42.08-.46a5.17 5.17 0 0 1 1.11-.12q14.85 0 29.69 0c.82 0 1.75-.3 2.37.57-1.09.55-2.25.27-3.37.27q-13.54 0-27.08 0a5.55 5.55 0 0 1-2.8-.26z" fill="#c5caf9"/><path d="M562.49 269.35c2.49-.74 17.69-.89 30.74-.64.46 0 1-.09 1.39.36a2.34 2.34 0 0 1-.73.27z" fill="#b0caf8"/><path d="M558.36 252.95c.16-.08.33-.24.49-.24q15.58 0 31.16 0c.17 0 .33.16.49.24a.64.64 0 0 1-.1.18c-.07.06-.16.14-.23.14l-30 .07h-1.69z" fill="#b0cbf9"/><path d="M555.49 244.11h33.25c-.22.17-.43.43-.67.48a6.64 6.64 0 0 1-1.41.09h-29.08c-.74-.03-1.54.17-2.09-.57z" fill="#bae2fb"/><path d="M556.55 231.76a3.63 3.63 0 0 1 2.32-.32h13.18c2.47 0 5 .24 7.4-.4a2 2 0 0 1 1.66.21.62.62 0 0 1 .24.45c0 .13-.2.25-.33.35a.62.62 0 0 1-.28 0h-23.77c-.08-.02-.16-.12-.42-.29z" fill="#afccf9"/><path d="M557.86 229.19a1.55 1.55 0 0 1 1.5-.58h17.55a1.52 1.52 0 0 1 1.49.59 156.42 156.42 0 0 1-20.54-.01z" fill="#cacbf9"/><path d="M557.86 229.19h20.54c-.52.78-1.34.56-2.06.56q-6.51 0-13 0h-4.24a1.31 1.31 0 0 1-1.24-.56z" fill="#b7dffb"/><path d="M597.11 342.74h-12.89-2.29c-.35 0-.84 0-.76-.6s.54-.45.9-.47h2 27.22 2c.3 0 .87-.11.75.52-.09.43-.52.53-.89.55h-2-14z" fill="#b8cbf9"/><path d="M598.28 345.65h-13.77a21.9 21.9 0 0 1-2.27-.18c-.13 0-.28-.24-.35-.4-.17-.43.22-.49.45-.52h1.72 28.1 2c.29 0 .58.12.62.43.07.55-.38.6-.74.62-.66.05-1.34 0-2 0h-13.76z" fill="#c2cbf9"/><path d="M594.54 328.4h13.76l2 .06a.47.47 0 0 1 .32.35.57.57 0 0 1-.25.45 4.7 4.7 0 0 1-2.52.27q-9.32 0-18.63 0h-8.89-2a.57.57 0 0 1-.61-.46c-.1-.4.24-.52.48-.54.76-.07 1.53-.09 2.29-.09h14z" fill="#bfcbf9"/><path d="M599.15 348.52h-14.59a2.41 2.41 0 0 1-1.64-.3c-.06 0-.06-.16-.06-.25v-.26a1 1 0 0 1 .5-.25l2-.08h27.46a21.46 21.46 0 0 1 2.26.16c.11 0 .23.25.29.4a.29.29 0 0 1-.26.42 10.91 10.91 0 0 1-1.4.16h-14.56z" fill="#b5ddfb"/><path d="M599.71 351.4h-13.73-1.72c-.29 0-.62-.06-.65-.36-.05-.49.39-.64.76-.67.76-.07 1.52-.07 2.28-.07h19.5 8.6a2 2 0 0 1 1.6.44c.06.05.06.18.06.27s0 .2-.08.21a8.47 8.47 0 0 1-1.39.2h-15.2z" fill="#b0d4fa"/><path d="M609.52 325.83c-.16.11-.31.3-.46.3-2.67 0-5.33.4-8 .46-7.45.19-14.91.08-22.36.08a5.37 5.37 0 0 1-1.14-.09c-.27-.06-.55-.23-.45-.58.05-.15.23-.34.36-.35.76-.07 1.53-.1 2.29-.1h16.06 11.76c.66-.01 1.4-.22 1.94.28z" fill="#b7cbf9"/><path d="M588.39 308.33h-9.47-2c-.36 0-.85 0-.89-.48 0-.72.6-.53 1-.63a1.31 1.31 0 0 1 .28 0h22.38a6.09 6.09 0 0 1 1.11.17.28.28 0 0 1 .22.44c-.07.15-.2.36-.32.38l-2 .13h-10.31z" fill="#bccbf9"/><path d="M575.22 320.29a3.71 3.71 0 0 1 2.62-.5h15.45a54 54 0 0 0 6.83-.35 49.78 49.78 0 0 1 7.43 0c.25 0 .5.23.74.38.05 0 .05.18 0 .27s-.06.19-.1.2a8.29 8.29 0 0 1-1.39.19h-30.05l-1.53-.19z" fill="#afcdf9"/><path d="M613.27 338.95a5.29 5.29 0 0 1-2.9.4h-19.21a25.51 25.51 0 0 0-4 .31 22.7 22.7 0 0 1-6.27 0c-.13 0-.25-.24-.33-.39s0-.38.23-.42a6.17 6.17 0 0 1 1.12-.16q15 0 30.1 0a10 10 0 0 1 1.26.26z" fill="#b2caf8"/><path d="M608.85 323.21l-2.8.08q-12.72 0-25.44 0a4.48 4.48 0 0 1-1.42 0c-1-.38-2.15.87-3.05-.3.92-.72 2-.3 3-.31q13.58-.06 27.15 0h2.53z" fill="#b1caf8"/><path d="M578.43 331.88c-.12-.21-.1-.43.09-.47a6 6 0 0 1 1.11-.11q14.85 0 29.7 0c.81 0 1.74-.3 2.36.58-1.48.57-3 .25-4.51.26q-13 0-26 0a5.57 5.57 0 0 1-2.75-.26z" fill="#caccf9"/><path d="M578.43 331.88h33.26c-.54.78-1.36.56-2.08.56q-7 0-14 0h-14.8c-.83 0-1.74.26-2.38-.56z" fill="#b7dffb"/><path d="M598.04 305.2c-4.22.5-17.75.42-19.62 0 2.07-.43 16.37-.48 19.62 0z" fill="#aecaf9"/><path d="M554.5 178.13h-14a16.62 16.62 0 0 1-2-.13c-.12 0-.25-.23-.33-.38a.28.28 0 0 1 .22-.44 8.25 8.25 0 0 1 1.4-.18q15 0 30.11 0a3.45 3.45 0 0 1 .85.07.5.5 0 0 1 .33.35.65.65 0 0 1-.25.45 4 4 0 0 1-2.23.27h-14.1z" fill="#c2cbf9"/><path d="M558.39 190.15h14.59a7.26 7.26 0 0 1 1.14.06.51.51 0 0 1 .32.35.59.59 0 0 1-.25.45 4 4 0 0 1-2.24.26h-21.78-7.16a4.72 4.72 0 0 1-1.13-.12c-.14 0-.28-.23-.33-.38-.12-.4.24-.52.48-.54.76-.07 1.52-.08 2.29-.08h14z" fill="#bbcbf9"/><path d="M554.03 174.08h13.43a24.47 24.47 0 0 1 2.27.12c.12 0 .26.23.33.38a.3.3 0 0 1-.24.44 6.09 6.09 0 0 1-1.11.17h-29.72a5.36 5.36 0 0 1-1.13-.13c-.13 0-.25-.24-.32-.39a.27.27 0 0 1 .23-.43l2.25-.17h14z" fill="#b9cbf9"/><path d="M555.22 181.01h-14.24a2.43 2.43 0 0 1-1.65-.3c0 0 0-.17 0-.25v-.26a1 1 0 0 1 .5-.25l2-.08q13.73 0 27.45 0a21.27 21.27 0 0 1 2.26.16c.11 0 .27.26.27.41s-.14.38-.26.4a7.33 7.33 0 0 1-1.4.16h-8.58-6.29z" fill="#b5ddfb"/><path d="M559.5 197.08h-13.72c-.75 0-1.51-.09-2.26-.16a.27.27 0 0 1-.24-.42.89.89 0 0 1 .31-.4 1.23 1.23 0 0 1 .55-.12h1.14q14.3 0 28.59 0a13.64 13.64 0 0 1 1.68.16.29.29 0 0 1 .25.43c-.07.15-.19.38-.31.39a24.48 24.48 0 0 1-2.27.15H559.5z" fill="#b3dbfa"/><path d="M544.09 199.56c.17-.08.33-.22.5-.22 6.28-.06 12.55-.75 18.84-.54 3.72.12 7.44 0 11.16 0a3.09 3.09 0 0 1 1.94.28.6.6 0 0 1 .24.45.49.49 0 0 1-.34.33c-.76 0-1.53 0-2.29.06h-30z" fill="#afd2fa"/><path d="M548.84 156.89h-10.62a2.65 2.65 0 0 1-1.66-.24c-.07 0-.15-.14-.14-.2s.07-.43.17-.46a3.47 3.47 0 0 1 1.1-.22h22.38a1.9 1.9 0 0 1 1.35.32v.26c0 .09 0 .21-.06.25a1.93 1.93 0 0 1-1.36.3h-11.16z" fill="#bfcaf8"/><path d="M573.37 187.59c-.56.55-1.26.32-1.9.33h-12.9a10.63 10.63 0 0 0-3.41.32 3.28 3.28 0 0 1-1.13.14h-12.05a1.94 1.94 0 0 1-.81-.2c-.12-.06-.16-.3-.2-.46s.07-.16.13-.2a3.63 3.63 0 0 1 2-.23h15.49 13.19c.51-.01 1.11-.18 1.59.3z" fill="#b4caf8"/><path d="M569.77 171.86h-21.43a32 32 0 0 0-4.25.32 27.45 27.45 0 0 1-7.13 0c-.14 0-.3-.22-.37-.38-.19-.4.17-.49.42-.52a11.23 11.23 0 0 1 1.42-.05q14.46 0 28.91 0a3 3 0 0 1 2.43.63z" fill="#b2caf8"/><path d="M535.88 168.37h3 24.33a12.45 12.45 0 0 0 4.25-.36 1.11 1.11 0 0 1 1.07.21c.08.06.2.14.19.2s-.07.41-.17.46a2.33 2.33 0 0 1-.83.13q-15.46 0-30.91 0c-.24-.03-.56.01-.93-.64z" fill="#afcbf9"/><path d="M542.29 193.65c-.12-.21-.11-.43.09-.47a5.8 5.8 0 0 1 1.11-.11q14.84 0 29.69 0c.81 0 1.74-.3 2.37.57-1.09.55-2.25.26-3.37.27q-13.55 0-27.09 0a5.57 5.57 0 0 1-2.8-.26z" fill="#c5caf9"/><path d="M542.29 193.65h33.26c-.54.78-1.36.57-2.09.57h-14-14.82c-.79-.03-1.66.23-2.35-.57z" fill="#bae3fb"/><path d="M538.92 154.05c2.41-.71 16.64-.74 19.33-.41-.36.13.28-.11 0 .18-.06.07-.14.17-.22.17l-16.62.09z" fill="#afcaf9"/><path d="M280.09 179.28c.33 0 1.07-.24 1.36.31.38.72-.33 1.19-.77 1.65a4.69 4.69 0 0 1-5 1.22 14.37 14.37 0 0 1-1.85-.71c-.15-.06-.38-.28-.36-.39a1 1 0 0 1 .36-.67 13.32 13.32 0 0 1 5.16-1.4c.32-.03.61-.01 1.1-.01z" fill="#fefbf8"/><path d="M280.05 205.07l-1-.51a3 3 0 0 1 .34-2.34 5.77 5.77 0 0 1 .66 2.85z" fill="#e0d9d2"/><g fill="#e3925b"><path d="M256.54 187.31a1.18 1.18 0 0 1 1.16.57h0a1.15 1.15 0 0 1-1.14-.57z"/><path d="M256.56 187.3a1.11 1.11 0 0 1-.23-.12c0-.19.13-.14.21.13z"/></g></svg>